<svg width="25" height="26" viewBox="0 0 25 26" fill="none" xmlns="http://www.w3.org/2000/svg">
<g clip-path="url(#clip0_129_74887)">
<path d="M17.1864 0.5C15.8536 0.592187 14.2958 1.44531 13.388 2.55624C12.5599 3.56404 11.8786 5.06091 12.1443 6.51559C13.6005 6.5609 15.1052 5.68747 15.977 4.55779C16.7927 3.50623 17.4098 2.01874 17.1864 0.5Z" fill="black"/>
<path d="M22.4538 8.88749C21.1741 7.28281 19.3757 6.35156 17.6773 6.35156C15.4351 6.35156 14.4866 7.42499 12.9288 7.42499C11.3226 7.42499 10.1023 6.35469 8.16324 6.35469C6.25857 6.35469 4.23045 7.51874 2.94452 9.50936C1.13672 12.3125 1.4461 17.5827 4.37577 22.0718C5.4242 23.678 6.82419 25.4843 8.65543 25.4999C10.2851 25.5155 10.7445 24.4546 12.9523 24.4436C15.1601 24.4311 15.5788 25.514 17.2054 25.4968C19.0382 25.4827 20.5147 23.4812 21.5632 21.8749C22.3147 20.7234 22.5944 20.1437 23.1772 18.8437C18.9382 17.2296 18.2585 11.2015 22.4538 8.88749Z" fill="black"/>
</g>
<defs>
<clipPath id="clip0_129_74887">
<rect width="25" height="25" fill="white" transform="translate(0 0.5)"/>
</clipPath>
</defs>
</svg>
