<svg width="45" height="32" viewBox="0 0 45 32" fill="none" xmlns="http://www.w3.org/2000/svg">
<g clip-path="url(#clip0_9_62)">
<rect x="0.66671" width="43.9999" height="31.9999" rx="3.99999" fill="#249F58"/>
<path d="M40.4762 0H4.85718C2.54285 0 0.66671 1.91025 0.66671 4.26666V27.7333C0.66671 30.0897 2.54285 31.9999 4.85718 31.9999H40.4762C42.7905 31.9999 44.6666 30.0897 44.6666 27.7333V4.26666C44.6666 1.91025 42.7905 0 40.4762 0Z" fill="#249F58"/>
<path d="M20.6667 25.9999C26.1895 25.9999 30.6666 21.5228 30.6666 16C30.6666 10.4771 26.1895 5.99998 20.6667 5.99998C15.1438 5.99998 10.6667 10.4771 10.6667 16C10.6667 21.5228 15.1438 25.9999 20.6667 25.9999Z" fill="#F93939"/>
</g>
<defs>
<clipPath id="clip0_9_62">
<rect x="0.66671" width="43.9999" height="31.9999" rx="3.99999" fill="white"/>
</clipPath>
</defs>
</svg>
