<svg width="22" height="22" viewBox="0 0 22 22" fill="none" xmlns="http://www.w3.org/2000/svg">
<path d="M9.9051 18.2383H4.11304C1.69102 18.2383 0 16.5682 0 14.1774V7.29919C0 4.90732 1.69102 3.23828 4.11304 3.23828H9.9051C12.3271 3.23828 14.0181 4.90732 14.0181 7.29919V14.1774C14.0181 16.5682 12.3271 18.2383 9.9051 18.2383Z" fill="black"/>
<path opacity="0.4" d="M19.7611 5.68079C19.3421 5.41683 18.8271 5.39348 18.3881 5.61683L16.9061 6.36505C16.3581 6.64119 16.0181 7.19957 16.0181 7.82089V13.6544C16.0181 14.2757 16.3581 14.8331 16.9061 15.1112L18.3871 15.8585C18.5881 15.962 18.8031 16.0118 19.0181 16.0118C19.2761 16.0118 19.5321 15.9387 19.7611 15.7955C20.1801 15.5326 20.4301 15.0767 20.4301 14.5772V6.90008C20.4301 6.40058 20.1801 5.94475 19.7611 5.68079Z" fill="black"/>
</svg>
