<svg width="44" height="32" viewBox="0 0 44 32" fill="none" xmlns="http://www.w3.org/2000/svg">
<g clip-path="url(#clip0_9_24)">
<rect x="4.3869e-05" y="-6.10352e-05" width="43.9999" height="31.9999" rx="3.99999" fill="white"/>
<path d="M22.4706 23.9999H21.5294L21.7647 20.5404C21.7514 20.3583 21.6562 20.3104 21.2941 20.3242L17.5294 20.7567C17.5294 20.7567 18.2353 19.8918 18.2353 19.4594C18.2353 19.0269 14 16.2161 14 16.2161C14 16.2161 14.9412 15.9999 15.1765 15.7837C15.4118 15.5675 14.2353 13.1891 14.2353 13.1891C14.2353 13.1891 16.6264 14.054 16.8235 13.8377C17.0207 13.6215 17.2941 12.7567 17.2941 12.7567C17.2941 12.7567 19.1765 14.7026 19.6471 14.7026C20.1177 14.7026 18.7059 9.94587 18.7059 9.94587C18.7059 9.94587 19.8824 10.8107 20.3529 10.8107C20.8235 10.8107 22 7.99992 22 7.99992C22 7.99992 23.1765 10.8107 23.4118 10.8107C23.6471 10.8107 25.2941 9.94587 25.2941 9.94587C25.2941 9.94587 24.1176 14.4864 24.3529 14.7026C24.5882 14.9188 26.7059 12.7567 26.7059 12.7567C26.7059 12.7567 26.9412 13.6215 27.1765 13.8377C27.4118 14.054 29.7647 13.1891 29.7647 13.1891C29.7647 13.1891 28.5882 15.5675 28.8235 15.7837C29.0588 15.9999 30 16.2161 30 16.2161C30 16.2161 25.7647 19.0269 25.7647 19.4594C25.7647 19.8918 26.2353 20.7567 26.2353 20.7567L22.7059 20.3242C22.4222 20.2495 22.3238 20.3062 22.2353 20.5404L22.4706 23.9999Z" fill="#F93939"/>
<rect x="34" y="-6.10352e-05" width="9.99998" height="31.9999" fill="#F93939"/>
<rect x="4.3869e-05" y="-6.10352e-05" width="9.99998" height="31.9999" fill="#F93939"/>
</g>
<defs>
<clipPath id="clip0_9_24">
<rect x="4.3869e-05" y="-6.10352e-05" width="43.9999" height="31.9999" rx="3.99999" fill="white"/>
</clipPath>
</defs>
</svg>
