<svg width="20" height="20" viewBox="0 0 20 20" fill="none" xmlns="http://www.w3.org/2000/svg">
<path d="M10 19H2.8C1.81 19 1 18.19 1 17.2V10C1 5.05 5.05 1 10 1C14.95 1 19 5.05 19 10C19 15.04 15.04 19 10 19Z" stroke="white" stroke-width="1.5" stroke-miterlimit="10" stroke-linecap="round" stroke-linejoin="round"/>
<path d="M5.49491 10.8999C5.99197 10.8999 6.39491 10.4969 6.39491 9.99985C6.39491 9.50279 5.99197 9.09985 5.49491 9.09985C4.99785 9.09985 4.59491 9.50279 4.59491 9.99985C4.59491 10.4969 4.99785 10.8999 5.49491 10.8999Z" fill="white"/>
<path d="M14.503 10.8999C15 10.8999 15.403 10.4969 15.403 9.99985C15.403 9.50279 15 9.09985 14.503 9.09985C14.0059 9.09985 13.603 9.50279 13.603 9.99985C13.603 10.4969 14.0059 10.8999 14.503 10.8999Z" fill="white"/>
<path d="M9.99894 10.8999C10.496 10.8999 10.8989 10.4969 10.8989 9.99985C10.8989 9.50279 10.496 9.09985 9.99894 9.09985C9.50188 9.09985 9.09894 9.50279 9.09894 9.99985C9.09894 10.4969 9.50188 10.8999 9.99894 10.8999Z" fill="white"/>
</svg>
