<svg width="512" height="512" viewBox="0 0 512 512" fill="none" xmlns="http://www.w3.org/2000/svg">
<path d="M256.494 2.05924e-05C188.801 -0.0271166 123.844 26.7684 75.7935 74.5412C27.7424 122.314 0.496808 187.187 0 255.009C0.418254 323.038 27.576 388.162 75.5876 436.266C123.599 484.371 188.597 511.581 256.494 512C324.259 512 389.248 485.029 437.164 437.019C485.081 389.01 512 323.895 512 256C512 188.105 485.081 122.99 437.164 74.9807C389.248 26.9714 324.259 2.05924e-05 256.494 2.05924e-05V2.05924e-05Z" fill="#F8DC4A"/>
<g filter="url(#filter0_i_3909_166103)">
<path d="M257.202 32.0032C212.797 31.7649 169.324 44.7299 132.303 69.2514C95.2822 93.773 66.385 128.744 49.2818 169.724C32.1786 210.703 27.6412 255.842 36.2458 299.405C44.8504 342.969 66.2088 382.993 97.6082 414.392C129.008 445.791 169.031 467.15 212.595 475.754C256.158 484.359 301.297 479.821 342.276 462.718C383.255 445.615 418.227 416.718 442.749 379.697C467.27 342.677 480.235 299.203 479.997 254.798C479.351 195.909 455.671 139.615 414.028 97.9722C372.385 56.3292 316.091 32.649 257.202 32.0032V32.0032Z" fill="#DEA004"/>
</g>
<path d="M132.355 69.3296C169.36 44.8184 212.815 31.8588 257.201 32.097C316.065 32.7425 372.336 56.4129 413.962 98.0385C455.587 139.664 479.258 195.935 479.903 254.799C480.141 299.185 467.182 342.64 442.67 379.645C418.159 416.651 383.202 445.536 342.24 462.632C301.278 479.728 256.158 484.263 212.613 475.662C169.067 467.061 129.061 445.712 97.6745 414.326C66.2882 382.939 44.9388 342.933 36.3378 299.387C27.7367 255.842 32.2722 210.722 49.3683 169.76C66.4644 128.798 95.3495 93.8409 132.355 69.3296Z" stroke="#C99204" stroke-width="0.1875"/>
<path d="M217.652 130.283C195.564 141.267 178.009 160.869 170.951 184.794" stroke="#F8DC4A" stroke-width="0.189891"/>
<path d="M170.944 184.84L164.057 185.448C163.917 185.458 163.786 185.522 163.69 185.628C163.594 185.733 163.541 185.872 163.542 186.016L163.661 205.764C163.661 206.257 163.414 206.539 162.921 206.61C154.734 207.843 149.909 212.166 148.446 219.576C147.957 222.035 148.195 224.731 148.116 227.243C148.103 227.524 148.001 227.792 147.824 228.007C147.648 228.222 147.406 228.372 147.138 228.432C134.95 231.085 127.028 237.844 123.371 248.709C121.229 255.066 122.221 262.257 121.956 268.892C121.282 285.639 130.561 298.091 147.389 301.501C147.583 301.542 147.756 301.649 147.877 301.804C147.998 301.959 148.06 302.152 148.05 302.347C147.151 316.701 153.778 323.751 167.93 323.495C168.397 323.487 168.653 323.716 168.697 324.183L168.776 325.214" stroke="#F8DC4A" stroke-width="0.189891"/>
<path d="M168.774 325.17C168.598 334.405 168.475 343.719 168.404 353.113C168.378 357.439 170.638 359.62 175.185 359.655C186.941 359.761 198.957 359.774 211.232 359.695" stroke="#F8DC4A" stroke-width="0.189891"/>
<path d="M211.232 359.71L235.871 359.723C236.176 359.723 236.473 359.822 236.716 360.006C236.959 360.189 237.136 360.447 237.22 360.741C242.005 377.448 263.353 382.286 274.972 369.636C290.054 353.233 273.663 326.678 252.223 333.406C244.653 335.785 239.643 340.773 237.193 348.369C237.086 348.706 236.873 349 236.588 349.207C236.302 349.414 235.958 349.523 235.607 349.519L212.99 349.505" stroke="#F8DC4A" stroke-width="0.189891"/>
<path d="M212.996 349.514L179.671 349.434C179.507 349.434 179.349 349.369 179.232 349.252C179.116 349.136 179.05 348.978 179.05 348.813L179.037 324.069C179.038 323.932 179.068 323.796 179.125 323.671C179.182 323.546 179.266 323.434 179.37 323.344C179.474 323.254 179.595 323.187 179.727 323.148C179.859 323.109 179.998 323.099 180.134 323.117C190.973 324.638 199.605 317.526 199.618 306.582C199.636 280.049 199.649 253.027 199.658 225.517C199.671 216.343 196.525 209.629 187.114 206.998C186.775 206.903 186.478 206.7 186.265 206.418C186.053 206.137 185.938 205.793 185.937 205.439V186.524C185.937 185.704 185.527 185.29 184.708 185.281L182.487 185.268C182.371 185.267 182.256 185.238 182.153 185.184C182.051 185.129 181.963 185.051 181.898 184.956C181.833 184.861 181.792 184.752 181.78 184.638C181.767 184.524 181.783 184.409 181.826 184.303C189.616 164.538 202.87 149.721 221.588 139.852" stroke="#F8DC4A" stroke-width="0.189891"/>
<path d="M221.588 139.873C245.972 128.241 270.413 128.14 294.912 139.569" stroke="#F8DC4A" stroke-width="0.189891"/>
<path d="M294.909 139.551C312.613 148.724 325.532 162.409 333.666 180.606C334.432 182.315 334.759 183.945 334.644 185.496C334.133 192.202 334.058 198.749 334.419 205.138C334.446 205.556 334.326 205.972 334.08 206.314C333.835 206.655 333.478 206.903 333.071 207.015C327.828 208.434 324.148 211.438 322.033 216.029C320.923 218.453 320.394 222.352 320.447 227.727C320.712 253.758 320.707 278.123 320.434 300.822C320.355 306.929 320.989 311.476 322.337 314.463C324.831 319.97 329.832 322.944 337.341 323.385" stroke="#F8DC4A" stroke-width="0.189891"/>
<path d="M337.338 323.373C341.56 323.294 345.847 323.263 350.2 323.281C356.686 323.307 360.85 322.876 362.692 321.986C367.679 319.598 370.733 315.694 371.852 310.274C372.368 307.816 372.077 305.053 372.077 302.555C372.077 301.912 372.394 301.524 373.029 301.392C388.243 298.207 398.778 286.469 398.25 270.7C397.985 262.822 398.792 254.389 396.135 247.199C392.372 236.968 384.634 230.668 372.923 228.297C372.716 228.256 372.528 228.144 372.392 227.981C372.255 227.818 372.177 227.613 372.169 227.398C372.108 225.521 372.059 223.706 372.024 221.953C371.852 213.176 365.428 207.453 356.677 206.527" stroke="#F8DC4A" stroke-width="0.189891"/>
<path d="M356.689 206.55L356.728 186.38C356.728 185.728 356.407 185.397 355.763 185.389L347.343 185.309C346.876 185.301 346.568 185.076 346.418 184.635C337.905 159.953 322.047 141.761 298.844 130.059" stroke="#F8DC4A" stroke-width="0.189891"/>
<path d="M298.842 130.042C285.191 123.415 270.743 120.349 255.498 120.842C242.561 121.256 229.946 124.411 217.653 130.306" stroke="#F8DC4A" stroke-width="0.189891"/>
<path d="M298.835 130.059L294.909 139.562" stroke="#F8DC4A" stroke-width="0.189891"/>
<path d="M221.592 139.827C221.09 138.937 220.583 138.161 220.072 137.5C219.332 136.557 218.852 135.782 218.631 135.174C218.067 133.596 217.741 131.966 217.653 130.283" stroke="#F8DC4A" stroke-width="0.189891"/>
<path d="M356.686 206.527C357.629 210.149 357.938 213.608 357.612 216.903" stroke="#F8DC4A" stroke-width="0.189891"/>
<path d="M357.608 216.883L336.406 216.936C335 216.936 333.651 217.494 332.657 218.488C331.663 219.482 331.105 220.83 331.105 222.236C331.105 249.324 331.105 277.575 331.105 306.989C331.105 310.518 333.378 312.858 337.027 313.083" stroke="#F8DC4A" stroke-width="0.189891"/>
<path d="M337.027 313.123C337.52 314.075 337.666 314.899 337.463 315.595C337.34 316 337.379 316.392 337.582 316.771C339.556 320.463 339.477 322.671 337.344 323.393" stroke="#F8DC4A" stroke-width="0.189891"/>
<path d="M212.986 349.52L211.228 359.724" stroke="#F8DC4A" stroke-width="0.189891"/>
<path d="M168.788 325.172L170.745 313.051" stroke="#F8DC4A" stroke-width="0.189891"/>
<path d="M170.744 313.059L183.593 312.966C185.077 312.959 186.498 312.364 187.544 311.311C188.589 310.258 189.175 308.833 189.171 307.348L189.105 222.305C189.105 220.891 188.545 219.533 187.548 218.529C186.55 217.524 185.196 216.952 183.778 216.938L171.313 216.846" stroke="#F8DC4A" stroke-width="0.189891"/>
<path d="M171.316 216.88C170.664 216.58 169.911 216.483 169.056 216.589C168.774 216.616 168.655 216.488 168.699 216.206C168.717 216.083 168.712 215.955 168.686 215.823C168.615 215.479 168.739 215.241 169.056 215.109C169.814 214.8 170.038 214.232 169.73 213.404C169.563 212.972 169.501 212.527 169.545 212.069C169.818 208.949 170.078 205.9 170.325 202.922C170.51 200.833 169.994 199.128 170.259 197C170.541 194.753 170.448 192.497 169.981 190.233C169.717 188.937 170.043 187.14 170.959 184.84" stroke="#F8DC4A" stroke-width="0.189891"/>
<path d="M337.029 313.083C343.136 313.1 349.111 313.149 354.953 313.228C359.377 313.281 361.589 311.021 361.589 306.447C361.58 278.804 361.58 250.668 361.589 222.038C361.589 219.526 359.844 217.808 357.61 216.883" stroke="#F8DC4A" stroke-width="0.189891"/>
<path d="M171.311 216.853C165.389 216.721 158.529 215.703 158.568 223.052C158.692 250.484 158.705 278.647 158.608 307.541C158.608 310.832 160.908 312.934 164.292 312.921C166.874 312.903 169.024 312.951 170.743 313.066" stroke="#F8DC4A" stroke-width="0.189891"/>
<path d="M231.652 259.882C225.245 259.371 217.662 259.441 208.903 260.093C207.237 260.217 206.052 261.494 205.347 263.926C205.197 264.42 205.184 264.918 205.307 265.42C205.986 268.328 207.819 269.795 210.806 269.822L231.533 269.98" stroke="#F8DC4A" stroke-width="0.189891"/>
<path d="M231.537 270.004C237.018 280.587 240.525 287.575 242.059 290.967C244.729 296.876 251.074 295.633 252.369 289.712C254.396 280.53 256.458 271.145 258.556 261.558C259.049 259.293 259.622 259.275 260.274 261.505C261.481 265.602 262.918 269.748 264.583 273.943C265.764 276.895 267.958 277.78 271.166 276.599" stroke="#F8DC4A" stroke-width="0.189891"/>
<path d="M271.157 276.601L283.648 270.825C284.537 270.415 285.501 270.199 286.477 270.19L306.649 270.005C309.751 269.97 311.451 268.41 311.751 265.326C311.795 264.868 311.773 264.419 311.685 263.978C311.156 261.458 309.601 260.154 307.019 260.066C300.515 259.845 293.778 259.722 286.808 259.695C283.265 259.682 279.934 260.528 276.999 262.365C275.299 263.441 273.686 264.106 272.161 264.361" stroke="#F8DC4A" stroke-width="0.189891"/>
<path d="M272.164 264.349C269.291 255.899 266.515 247.466 263.837 239.05C263.087 236.697 261.638 235.116 259.488 234.305C255.998 232.996 253.394 236.023 252.733 239.143C250.495 249.708 248.142 260.776 245.674 272.346C245.533 273.025 245.194 273.143 244.656 272.703C244.321 272.43 244.066 272.095 243.89 271.698C242.555 268.671 240.228 261.957 237.069 260.463C235.562 259.749 233.755 259.56 231.649 259.895" stroke="#F8DC4A" stroke-width="0.189891"/>
<path d="M272.165 264.348C270.966 268.251 270.632 272.331 271.16 276.587" stroke="#F8DC4A" stroke-width="0.189891"/>
<path d="M231.535 270.018L231.654 259.92" stroke="#F8DC4A" stroke-width="0.189891"/>
<path d="M148.135 290.511V239.199C148.135 239.181 148.128 239.165 148.116 239.152C148.103 239.14 148.086 239.133 148.069 239.133H148.003C143.789 239.133 139.748 241.353 136.768 245.304C133.788 249.255 132.114 254.614 132.114 260.202V269.508C132.114 275.095 133.788 280.454 136.768 284.406C139.748 288.357 143.789 290.577 148.003 290.577H148.069C148.086 290.577 148.103 290.57 148.116 290.557C148.128 290.545 148.135 290.528 148.135 290.511Z" stroke="#F8DC4A" stroke-width="0.189891"/>
<path d="M387.751 254.926C387.103 247.26 380.203 241.166 373.105 238.985C372.391 238.765 372.034 239.029 372.034 239.778L372.1 289.689C372.101 289.881 372.147 290.07 372.234 290.241C372.322 290.412 372.449 290.559 372.604 290.67C372.759 290.782 372.939 290.854 373.127 290.881C373.315 290.908 373.507 290.889 373.686 290.826C382.904 287.662 387.685 280.965 388.028 270.735C388.231 264.848 388.139 259.579 387.751 254.926Z" stroke="#F8DC4A" stroke-width="0.189891"/>
<path d="M270.558 353.954C270.467 352.419 270.066 350.917 269.378 349.534C268.691 348.152 267.73 346.916 266.55 345.896C265.371 344.877 263.996 344.095 262.504 343.594C261.012 343.093 259.433 342.883 257.856 342.977C254.671 343.166 251.69 344.579 249.569 346.905C247.447 349.231 246.359 352.28 246.543 355.381C246.634 356.916 247.035 358.418 247.723 359.8C248.41 361.183 249.371 362.419 250.551 363.438C251.73 364.457 253.105 365.24 254.597 365.741C256.089 366.242 257.668 366.451 259.245 366.358C262.43 366.168 265.411 364.755 267.532 362.429C269.654 360.103 270.742 357.054 270.558 353.954Z" stroke="#F8DC4A" stroke-width="0.189891"/>
<path d="M220.147 137.465L220.147 137.465C219.409 136.524 218.936 135.758 218.721 135.165C218.167 133.616 217.844 132.016 217.751 130.365C230.015 124.492 242.598 121.35 255.501 120.937L255.501 120.937C270.701 120.445 285.107 123.496 298.72 130.088L294.866 139.418C270.399 128.031 245.984 128.134 221.631 139.726C221.142 138.865 220.647 138.111 220.147 137.465Z" fill="#F8DC4A" stroke="#F8DC4A" stroke-width="0.189891"/>
<path d="M218.546 135.206L218.546 135.206C217.995 133.665 217.67 132.074 217.571 130.432C195.565 141.418 178.084 160.97 171.047 184.821L171.045 184.829L171.044 184.829C170.13 187.124 169.812 188.9 170.071 190.167C170.54 192.442 170.633 194.708 170.35 196.966C170.219 198.02 170.281 198.969 170.354 199.923C170.357 199.974 170.361 200.025 170.365 200.077C170.435 200.978 170.505 201.887 170.416 202.884C170.17 205.862 169.91 208.911 169.636 212.031L169.636 212.032C169.594 212.475 169.653 212.905 169.815 213.323L169.816 213.324C169.975 213.751 170.002 214.126 169.878 214.44C169.753 214.755 169.483 214.99 169.089 215.15C168.945 215.21 168.855 215.29 168.807 215.384C168.758 215.478 168.743 215.6 168.776 215.757L168.776 215.758C168.804 215.9 168.809 216.038 168.79 216.173L168.79 216.174C168.769 216.305 168.792 216.37 168.821 216.402C168.851 216.434 168.914 216.461 169.043 216.449C169.903 216.342 170.668 216.438 171.334 216.739L183.779 216.831H183.779C185.222 216.846 186.6 217.427 187.616 218.45C188.631 219.473 189.2 220.854 189.2 222.293L189.266 307.336C189.27 308.846 188.675 310.295 187.611 311.366C186.548 312.437 185.103 313.042 183.594 313.049L170.826 313.141L168.883 325.176C168.707 334.408 168.584 343.72 168.513 353.111C168.5 355.258 169.054 356.856 170.16 357.923C171.266 358.99 172.94 359.541 175.2 359.558C186.93 359.664 198.919 359.677 211.166 359.598L212.892 349.583L179.68 349.504C179.491 349.504 179.308 349.429 179.174 349.294C179.04 349.16 178.964 348.978 178.964 348.788L178.951 324.044V324.044C178.952 323.893 178.985 323.743 179.048 323.606C179.111 323.469 179.202 323.347 179.316 323.248C179.43 323.149 179.564 323.075 179.709 323.032C179.854 322.989 180.006 322.978 180.156 322.998L180.156 322.998C185.552 323.755 190.392 322.363 193.884 319.426C197.375 316.49 199.526 312.003 199.532 306.557C199.55 280.024 199.563 253.002 199.572 225.491C199.579 220.914 198.797 216.962 196.848 213.829C194.902 210.698 191.784 208.375 187.097 207.065L187.097 207.065C186.739 206.964 186.423 206.748 186.198 206.45C185.974 206.152 185.852 205.788 185.851 205.414V205.414V186.499C185.851 186.104 185.752 185.824 185.571 185.64C185.39 185.457 185.111 185.356 184.716 185.351C184.716 185.351 184.716 185.351 184.716 185.351L182.495 185.338L182.495 185.338C182.364 185.337 182.234 185.304 182.118 185.243C182.002 185.181 181.902 185.092 181.829 184.984C181.755 184.877 181.708 184.753 181.694 184.623C181.68 184.494 181.698 184.363 181.747 184.243L218.546 135.206ZM218.546 135.206C218.772 135.829 219.26 136.613 220.002 137.559L218.546 135.206Z" fill="#F8DC4A" stroke="#F8DC4A" stroke-width="0.189891"/>
<path d="M298.893 130.19C322.024 141.882 337.834 160.04 346.328 184.666C346.408 184.901 346.532 185.085 346.706 185.211C346.879 185.337 347.093 185.4 347.341 185.404L347.342 185.404L355.762 185.484C356.069 185.488 356.282 185.568 356.419 185.709C356.557 185.851 356.633 186.068 356.633 186.38C356.633 186.38 356.633 186.38 356.633 186.38L356.594 206.55L356.594 206.563L356.597 206.574C357.529 210.155 357.839 213.574 357.528 216.832L336.411 216.884C336.411 216.884 336.411 216.884 336.411 216.884C334.98 216.885 333.608 217.453 332.596 218.465C331.584 219.477 331.016 220.849 331.016 222.28V242.814V242.976V243.138V243.3V243.462V243.625V243.787V243.949V244.112V244.274V244.436V244.599V244.761V244.924V245.086V245.249V245.411V245.574V245.736V245.899V246.062V246.224V246.387V246.55V246.712V246.875V247.038V247.201V247.364V247.527V247.689V247.852V248.015V248.178V248.341V248.504V248.667V248.831V248.994V249.157V249.32V249.483V249.646V249.81V249.973V250.136V250.3V250.463V250.626V250.79V250.953V251.117V251.28V251.444V251.607V251.771V251.934V252.098V252.262V252.425V252.589V252.753V252.917V253.08V253.244V253.408V253.572V253.736V253.9V254.064V254.228V254.392V254.556V254.72V254.884V255.048V255.212V255.376V255.541V255.705V255.869V256.033V256.198V256.362V256.526V256.691V256.855V257.019V257.184V257.348V257.513V257.677V257.842V258.007V258.171V258.336V258.5V258.665V258.83V258.995V259.159V259.324V259.489V259.654V259.819V259.984V260.149V260.314V260.479V260.644V260.809V260.974V261.139V261.304V261.469V261.634V261.799V261.965V262.13V262.295V262.46V262.626V262.791V262.957V263.122V263.287V263.453V263.618V263.784V285.19V285.359V285.528V285.697V285.866V286.035V286.204V286.373V286.543V286.712V286.881V287.05V287.219V287.389V287.558V287.727V287.897V288.066V288.235V288.405V288.574V288.744V288.913V289.083V289.253V289.422V289.592V289.761V289.931V290.101V290.27V290.44V290.61V290.78V290.95V291.119V291.289V291.459V291.629V291.799V291.969V292.139V292.309V292.479V292.649V292.82V292.99V293.16V293.33V293.5V293.671V293.841V294.011V294.182V294.352V294.522V294.693V294.863V295.034V295.204V295.375V295.545V295.716V295.886V296.057V296.228V296.398V296.569V296.74V296.911V297.081V297.252V297.423V297.594V297.765V297.936V298.107V298.278V298.449V298.62V298.791V298.962V299.133V299.304V299.475V299.646V299.818V299.989V300.16V300.331V300.503V300.674V300.845V301.017V301.188V301.36V301.531V301.703V301.874V302.046V302.217V302.389V302.561V302.732V302.904V303.076V303.248V303.419V303.591V303.763V303.935V304.107V304.279V304.451V304.623V304.795V304.967V305.139V305.311V305.483V305.655V305.827V305.999V306.171V306.344V306.516V306.688V306.86V307.033C331.016 308.818 331.591 310.311 332.636 311.385C333.669 312.448 335.154 313.095 336.973 313.218C337.44 314.137 337.568 314.918 337.378 315.571C337.247 316 337.29 316.418 337.504 316.819C338.489 318.662 338.953 320.118 338.914 321.196C338.895 321.732 338.751 322.171 338.489 322.519C338.229 322.863 337.847 323.125 337.337 323.301C329.864 322.858 324.907 319.898 322.433 314.435C321.094 311.467 320.459 306.938 320.538 300.835C320.812 278.134 320.816 253.769 320.552 227.738C320.499 222.365 321.028 218.484 322.129 216.08C324.231 211.517 327.887 208.53 333.105 207.118L333.105 207.118C333.534 207 333.909 206.74 334.167 206.38C334.425 206.021 334.551 205.584 334.523 205.144C334.162 198.76 334.237 192.217 334.748 185.515L334.748 185.515C334.864 183.945 334.534 182.299 333.762 180.578C325.631 162.389 312.723 148.701 295.039 139.518L298.893 130.19Z" fill="#F8DC4A" stroke="#F8DC4A" stroke-width="0.189891"/>
<path d="M170.804 184.948C169.929 187.185 169.613 188.956 169.878 190.252L169.878 190.252C170.343 192.507 170.435 194.752 170.154 196.988L170.154 196.989C170.021 198.063 170.084 199.03 170.157 199.983C170.161 200.034 170.165 200.084 170.169 200.134C170.238 201.038 170.307 201.933 170.22 202.914L170.22 202.914C169.973 205.892 169.713 208.941 169.44 212.06C169.395 212.533 169.458 212.992 169.631 213.437M170.804 184.948L163.641 186.016M170.804 184.948L164.07 185.542L164.069 185.543C163.953 185.551 163.844 185.604 163.765 185.692C163.685 185.779 163.641 185.895 163.641 186.016M170.804 184.948L163.641 186.016M169.631 213.437C169.631 213.437 169.631 213.437 169.631 213.437L169.72 213.404L169.631 213.438C169.631 213.438 169.631 213.438 169.631 213.437ZM169.631 213.437C169.78 213.839 169.795 214.162 169.694 214.416C169.594 214.669 169.373 214.873 169.01 215.021L169.009 215.021C168.836 215.093 168.705 215.199 168.631 215.343C168.556 215.486 168.544 215.655 168.582 215.841M168.582 215.841C168.607 215.963 168.611 216.08 168.595 216.192M168.582 215.841L168.675 215.823L168.582 215.842C168.582 215.841 168.582 215.841 168.582 215.841ZM168.595 216.192C168.595 216.192 168.595 216.192 168.595 216.192L168.689 216.206L168.595 216.191C168.595 216.191 168.595 216.192 168.595 216.192ZM168.595 216.192C168.571 216.343 168.586 216.482 168.675 216.578C168.765 216.674 168.902 216.698 169.054 216.684L169.057 216.683C169.665 216.608 170.217 216.638 170.716 216.769C170.348 216.758 169.978 216.745 169.607 216.731C168.67 216.698 167.727 216.664 166.811 216.664C165.333 216.665 163.912 216.755 162.675 217.082C161.436 217.41 160.377 217.976 159.63 218.933C158.883 219.891 158.458 221.228 158.468 223.08M158.468 223.08C158.468 223.08 158.468 223.08 158.468 223.08L158.563 223.079L158.468 223.08ZM158.468 223.08C158.592 250.511 158.605 278.674 158.508 307.568V307.568C158.508 309.237 159.092 310.611 160.111 311.566C161.13 312.521 162.575 313.049 164.287 313.042H164.287C166.816 313.025 168.929 313.071 170.627 313.181M170.627 313.181L168.815 324.411M170.627 313.181C170.659 313.183 170.691 313.185 170.722 313.187L168.846 324.814L168.815 324.411M170.627 313.181L170.642 313.087C168.94 312.977 166.821 312.93 164.287 312.948L168.75 324.81L168.815 324.411M168.815 324.411L168.796 324.175L168.796 324.174C168.773 323.925 168.692 323.725 168.54 323.59C168.389 323.454 168.182 323.396 167.933 323.4C160.871 323.528 155.708 321.833 152.42 318.335C149.131 314.837 147.701 309.517 148.149 302.353L148.149 302.352C148.16 302.134 148.092 301.919 147.957 301.746C147.822 301.573 147.629 301.453 147.413 301.408L147.412 301.408C139.018 299.707 132.513 295.752 128.189 290.14C123.866 284.528 121.719 277.251 122.056 268.896L121.97 268.893L122.056 268.896C122.122 267.235 122.11 265.539 122.087 263.832C122.084 263.589 122.081 263.345 122.077 263.101C122.057 261.635 122.036 260.163 122.059 258.698C122.112 255.28 122.399 251.904 123.465 248.739L123.375 248.709M123.375 248.709L123.465 248.739C127.111 237.909 135.004 231.171 147.162 228.525L147.163 228.525C147.453 228.459 147.712 228.299 147.902 228.067C148.092 227.836 148.202 227.548 148.215 227.247L148.215 227.246C148.239 226.483 148.234 225.7 148.229 224.913C148.226 224.406 148.222 223.896 148.227 223.391C148.238 222.097 148.301 220.815 148.544 219.595L148.544 219.595C149.272 215.906 150.835 212.993 153.23 210.847C155.625 208.702 158.859 207.318 162.939 206.704M123.375 248.709C121.846 253.25 121.915 258.217 121.982 263.103C122.009 265.056 122.036 266.997 121.961 268.892L148.12 227.243M123.375 248.709C127.032 237.844 134.955 231.085 147.142 228.432C147.411 228.372 147.652 228.222 147.829 228.007C148.006 227.792 148.108 227.524 148.12 227.243M162.939 206.704C163.201 206.666 163.409 206.571 163.552 206.408C163.695 206.245 163.76 206.026 163.76 205.764L163.76 205.763L163.641 186.016C163.641 186.016 163.641 186.016 163.641 186.016M162.939 206.704C162.939 206.704 162.939 206.704 162.939 206.704L162.925 206.61M162.939 206.704C162.939 206.704 162.939 206.704 162.939 206.704L162.925 206.61M162.925 206.61C154.739 207.843 149.914 212.166 148.451 219.576C148.11 221.289 148.122 223.117 148.134 224.917C148.139 225.702 148.145 226.481 148.12 227.243M162.925 206.61C163.419 206.539 163.665 206.257 163.665 205.764L148.12 227.243M148.229 290.556V239.245C148.229 239.202 148.212 239.161 148.181 239.131C148.151 239.101 148.11 239.084 148.068 239.084H148.001C143.752 239.084 139.685 241.322 136.691 245.292C133.697 249.262 132.018 254.642 132.018 260.248V269.553C132.018 275.159 133.697 280.539 136.691 284.509C139.685 288.479 143.752 290.717 148.001 290.717H148.068C148.11 290.717 148.151 290.7 148.181 290.67C148.212 290.64 148.229 290.599 148.229 290.556Z" fill="#F8DC4A" stroke="#F8DC4A" stroke-width="0.189891"/>
<path d="M372.082 227.402L372.082 227.402C372.02 225.524 371.972 223.709 371.937 221.954C371.767 213.281 365.454 207.603 356.811 206.637C357.723 210.194 358.024 213.596 357.711 216.843C359.934 217.783 361.684 219.519 361.684 222.058C361.675 250.688 361.675 278.825 361.684 306.468C361.684 308.768 361.128 310.505 359.998 311.659C358.867 312.814 357.179 313.37 354.952 313.343H354.952C349.159 313.265 343.236 313.217 337.183 313.199C337.627 314.105 337.758 314.908 337.556 315.601L337.556 315.603C337.44 315.983 337.477 316.349 337.668 316.706L337.597 316.744L337.668 316.707C338.657 318.556 339.14 320.05 339.1 321.179C339.079 321.747 338.927 322.226 338.636 322.61C338.433 322.879 338.166 323.099 337.836 323.269C341.899 323.197 346.023 323.169 350.208 323.186C353.449 323.199 356.108 323.098 358.185 322.882C360.265 322.667 361.753 322.337 362.658 321.9L362.658 321.9C367.619 319.525 370.654 315.646 371.767 310.255L371.767 310.255C372.023 309.036 372.079 307.738 372.071 306.43C372.067 305.808 372.048 305.184 372.03 304.565L372.027 304.472C372.008 303.824 371.99 303.181 371.99 302.555C371.99 302.218 372.073 301.937 372.249 301.722C372.425 301.507 372.685 301.368 373.017 301.299M372.082 227.402L373.036 301.392M372.082 227.402C372.09 227.637 372.176 227.862 372.327 228.042C372.477 228.221 372.683 228.344 372.912 228.39M372.082 227.402L356.786 206.538C365.485 207.497 371.86 213.21 372.032 221.953C372.067 223.706 372.115 225.521 372.177 227.398C372.184 227.613 372.263 227.818 372.399 227.981C372.536 228.144 372.723 228.256 372.931 228.297M373.017 301.299L373.036 301.392M373.017 301.299C373.017 301.299 373.017 301.299 373.017 301.299L373.036 301.392M373.017 301.299C388.192 298.122 398.689 286.421 398.162 270.703C398.1 268.841 398.097 266.948 398.094 265.049C398.094 264.938 398.094 264.827 398.094 264.716C398.091 262.705 398.084 260.689 398.002 258.696C397.839 254.708 397.377 250.813 396.053 247.232L396.053 247.232C392.303 237.035 384.595 230.755 372.912 228.39M373.036 301.392C388.251 298.207 398.786 286.469 398.257 270.7C398.195 268.839 398.192 266.948 398.189 265.049C398.181 258.908 398.172 252.691 396.142 247.199C392.379 236.968 384.642 230.668 372.931 228.297M372.912 228.39L372.931 228.297M372.912 228.39C372.912 228.39 372.912 228.39 372.912 228.39L372.931 228.297M387.843 254.91L387.843 254.91C388.231 259.567 388.324 264.841 388.121 270.73L387.843 254.91ZM387.843 254.91C387.191 247.192 380.251 241.074 373.13 238.887M387.843 254.91L373.13 238.887M373.13 238.887C373.13 238.887 373.13 238.887 373.13 238.887L373.102 238.977L373.13 238.887ZM337.626 323.368C337.533 323.37 337.439 323.372 337.346 323.373C337.436 323.343 337.523 323.31 337.606 323.274L337.626 323.368ZM388.026 270.727C388.229 264.84 388.136 259.571 387.748 254.918L372.032 239.77L372.098 289.681C372.098 289.873 372.144 290.062 372.232 290.233C372.319 290.404 372.446 290.551 372.602 290.662C372.757 290.774 372.936 290.846 373.125 290.873C373.313 290.9 373.505 290.881 373.684 290.818C382.902 287.654 387.682 280.957 388.026 270.727ZM387.75 254.918L387.75 254.918L387.75 254.918Z" fill="#F8DC4A" stroke="#F8DC4A" stroke-width="0.189891"/>
<path d="M171.309 216.948V216.948C170.744 216.935 170.172 216.915 169.599 216.894C168.666 216.861 167.73 216.827 166.816 216.827C165.343 216.828 163.942 216.918 162.728 217.239C161.516 217.559 160.498 218.108 159.785 219.023C159.071 219.938 158.653 221.229 158.663 223.052L158.663 223.052C158.787 250.484 158.8 278.647 158.703 307.541C158.703 309.164 159.269 310.486 160.246 311.401C161.223 312.316 162.619 312.832 164.291 312.826L171.309 216.948ZM171.309 216.948L171.31 216.948L183.775 217.041L171.309 216.948Z" stroke="#F8DC4A" stroke-width="0.189891"/>
<path d="M336.407 217.068L336.407 217.068L357.59 217.015C359.796 217.934 361.493 219.623 361.493 222.075C361.484 250.705 361.484 278.841 361.493 306.484C361.493 308.757 360.943 310.437 359.861 311.543C358.78 312.648 357.15 313.196 354.954 313.17C349.111 313.091 343.137 313.042 337.031 313.025C335.227 312.913 333.771 312.28 332.767 311.246C331.762 310.212 331.201 308.77 331.201 307.026V306.854V306.682V306.509V306.337V306.165V305.993V305.82V305.648V305.476V305.304V305.132V304.96V304.788V304.616V304.444V304.272V304.1V303.928V303.756V303.585V303.413V303.241V303.069V302.897V302.726V302.554V302.382V302.211V302.039V301.868V301.696V301.525V301.353V301.182V301.01V300.839V300.667V300.496V300.325V300.154V299.982V299.811V299.64V299.469V299.297V299.126V298.955V298.784V298.613V298.442V298.271V298.1V297.929V297.758V297.587V297.416V297.246V297.075V296.904V296.733V296.562V296.392V296.221V296.05V295.88V295.709V295.539V295.368V295.197V295.027V294.856V294.686V294.516V294.345V294.175V294.005V293.834V293.664V293.494V293.323V293.153V292.983V292.813V292.643V292.473V292.303V292.133V291.963V291.793V291.623V291.453V291.283V291.113V290.943V290.773V290.603V290.434V290.264V290.094V289.924V289.755V289.585V289.415V289.246V289.076V288.907V288.737V288.568V288.398V288.229V288.059V287.89V287.721V287.551V287.382V287.213V287.044V286.874V286.705V286.536V286.367V286.198V286.029V285.86V285.691V285.522V285.353V285.184V285.015V284.846V284.677V284.508V284.339V284.17V284.002V283.833V283.664V283.496V283.327V283.158V282.99V282.821V282.652V282.484V282.315V282.147V281.979V281.81V281.642V281.473V281.305V281.137V280.968V280.8V280.632V280.464V280.296V280.127V279.959V279.791V279.623V279.455V279.287V279.119V278.951V278.783V278.615V278.447V278.279V278.112V277.944V277.776V277.608V277.44V277.273V277.105V276.937V276.77V276.602V276.435V276.267V276.1V275.932V275.765V275.597V275.43V275.262V275.095V274.928V274.76V274.593V274.426V274.259V274.091V273.924V273.757V273.59V273.423V273.256V273.089V272.922V272.755V272.588V272.421V272.254V272.087V271.92V271.754V271.587V271.42V271.253V271.087V270.92V270.753V270.587V270.42V270.253V270.087V269.92V269.754V269.587V269.421V269.254V269.088V268.922V268.755V268.589V268.423V268.256V268.09V267.924V267.758V267.592V267.425V267.259V267.093V266.927V266.761V266.595V266.429V266.263V266.097V265.931V265.766V265.6V265.434V265.268V265.102V264.937V264.771V264.605V264.44V264.274V264.108V263.943V263.777V263.612V263.446V263.281V263.115V262.95V262.785V262.619V262.454V262.289V262.123V261.958V261.793V261.628V261.462V261.297V261.132V260.967V260.802V260.637V260.472V260.307V260.142V259.977V259.812V259.647V259.482V259.318V259.153V258.988V258.823V258.659V258.494V258.329V258.165V258V257.835V257.671V257.506V257.342V257.177V257.013V256.848V256.684V256.52V256.355V256.191V256.027V255.862V255.698V255.534V255.37V255.206V255.041V254.877V254.713V254.549V254.385V254.221V254.057V253.893V253.729V253.565V253.402V253.238V253.074V252.91V252.746V252.583V252.419V252.255V252.092V251.928V251.764V251.601V251.437V251.274V251.11V250.947V250.783V250.62V250.456V250.293V250.13V249.966V249.803V249.64V249.477V249.313V249.15V248.987V248.824V248.661V248.498V248.335V248.172V248.009V247.846V247.683V247.52V247.357V247.194V247.031V246.869V246.706V246.543V246.38V246.218V246.055V245.892V245.73V245.567V245.405V245.242V245.079V244.917V244.755V244.592V244.43V244.267V244.105V243.943V243.78V243.618V243.456V243.294V243.131V242.969V242.807V242.645V242.483V242.321V242.159V241.997V241.835V241.673V241.511V241.349V241.187V241.025V240.864V240.702V240.54V240.378V240.217V240.055V239.893V239.732V239.57V239.408V239.247V239.085V238.924V238.762V238.601V238.439V238.278V238.117V237.955V237.794V237.633V237.471V237.31V237.149V236.988V236.827V236.666V236.504V236.343V236.182V236.021V235.86V235.699V235.538V235.378V235.217V235.056V234.895V234.734V234.573V234.413V234.252V234.091V233.93V233.77V233.609V233.449V233.288V233.128V232.967V232.807V232.646V232.486V232.325V232.165V232.004V231.844V231.684V231.524V231.363V231.203V231.043V230.883V230.723V230.562V230.402V230.242V230.082V229.922V229.762V229.602V229.442V229.282V229.123V228.963V228.803V228.643V228.483V228.324V228.164V228.004V227.845V227.685V227.525V227.366V227.206V227.047V226.887V226.728V226.568V226.409V226.249V226.09V225.931V225.771V225.612V225.453V225.294V225.134V224.975V224.816V224.657V224.498V224.339V224.18V224.021V223.862V223.703V223.544V223.385V223.226V223.067V222.908V222.749V222.591V222.432V222.273C331.201 220.893 331.749 219.569 332.726 218.592C333.702 217.616 335.026 217.068 336.407 217.068Z" stroke="#F8DC4A" stroke-width="0.189891"/>
<path d="M231.745 259.976C233.804 259.661 235.563 259.854 237.03 260.549L237.03 260.549C237.801 260.913 238.527 261.6 239.206 262.481C239.885 263.361 240.51 264.43 241.081 265.549C241.875 267.108 242.558 268.757 243.126 270.128C243.374 270.727 243.6 271.274 243.805 271.737L243.805 271.737C243.987 272.147 244.252 272.494 244.598 272.776C244.87 272.999 245.126 273.111 245.347 273.034C245.569 272.956 245.698 272.708 245.769 272.366C248.236 260.796 250.589 249.728 252.828 239.162C253.155 237.619 253.962 236.103 255.112 235.136C256.259 234.172 257.747 233.753 259.456 234.394C261.577 235.193 263.007 236.751 263.748 239.079C266.424 247.485 269.197 255.909 272.066 264.351C270.878 268.236 270.542 272.295 271.058 276.526C269.498 277.088 268.197 277.147 267.145 276.722C266.08 276.292 265.251 275.357 264.667 273.897C263.002 269.705 261.567 265.562 260.36 261.467C260.197 260.908 260.036 260.483 259.878 260.197C259.799 260.055 259.718 259.942 259.633 259.864C259.548 259.786 259.453 259.737 259.348 259.74C259.243 259.744 259.15 259.798 259.071 259.882C258.992 259.965 258.919 260.082 258.85 260.23C258.712 260.525 258.582 260.958 258.458 261.527C256.361 271.114 254.299 280.499 252.272 289.681L252.272 289.681C251.631 292.612 249.746 294.366 247.711 294.671C245.68 294.976 243.462 293.842 242.141 290.918C240.607 287.525 237.102 280.541 231.627 269.971L231.745 259.976Z" fill="#F8DC4A" stroke="#F8DC4A" stroke-width="0.189891"/>
<path d="M373.077 239.076L373.077 239.076C380.153 241.25 387.013 247.32 387.656 254.934C388.044 259.582 388.136 264.848 387.934 270.731L387.934 270.731C387.762 275.833 386.485 280.045 384.108 283.375C381.731 286.705 378.249 289.159 373.655 290.736L373.655 290.736C373.49 290.794 373.314 290.812 373.14 290.787C372.967 290.762 372.802 290.696 372.659 290.593C372.516 290.491 372.399 290.355 372.319 290.198C372.238 290.04 372.195 289.866 372.195 289.689C372.195 289.689 372.195 289.689 372.195 289.689L372.129 239.778C372.129 239.778 372.129 239.778 372.129 239.778C372.129 239.413 372.217 239.199 372.358 239.095C372.5 238.99 372.729 238.969 373.077 239.076Z" stroke="#F8DC4A" stroke-width="0.189891"/>
<path d="M148.04 239.228V290.482H148.003C143.824 290.482 139.809 288.281 136.844 284.349C133.878 280.416 132.209 275.078 132.209 269.508V260.202C132.209 254.632 133.878 249.294 136.844 245.361C139.809 241.429 143.824 239.228 148.003 239.228H148.04Z" stroke="#F8DC4A" stroke-width="0.189891"/>
<path d="M205.395 265.398L205.395 265.398L205.395 265.397C205.275 264.912 205.288 264.431 205.433 263.954L205.433 263.954L205.433 263.953C206.134 261.536 207.298 260.307 208.905 260.188L208.905 260.188C217.621 259.539 225.169 259.466 231.551 259.969L231.434 269.885L210.802 269.727C209.324 269.714 208.141 269.344 207.245 268.627C206.35 267.91 205.731 266.837 205.395 265.398Z" fill="#F8DC4A" stroke="#F8DC4A" stroke-width="0.189891"/>
<path d="M283.612 270.739L283.612 270.739C284.513 270.324 285.49 270.104 286.48 270.096M283.612 270.739L306.652 270.005M283.612 270.739L271.239 276.46M283.612 270.739L271.239 276.46M286.48 270.096L286.481 270.19L286.48 270.096L286.48 270.096ZM286.48 270.096L306.651 269.91M306.651 269.91L306.652 270.005M306.651 269.91C308.187 269.893 309.362 269.498 310.19 268.739C311.018 267.98 311.512 266.844 311.66 265.317M306.651 269.91L306.651 269.91L306.652 270.005M306.652 270.005L311.66 265.317M311.66 265.317L311.755 265.326L311.66 265.317C311.66 265.317 311.66 265.317 311.66 265.317ZM311.66 265.317C311.703 264.868 311.682 264.428 311.595 263.997C311.334 262.752 310.822 261.818 310.064 261.183C309.307 260.547 308.295 260.204 307.019 260.16C300.517 259.94 293.78 259.817 286.811 259.79C283.284 259.777 279.971 260.619 277.053 262.446C275.367 263.512 273.761 264.18 272.239 264.445C271.07 268.279 270.737 272.284 271.239 276.46M311.66 265.317L271.239 276.46" fill="#F8DC4A" stroke="#F8DC4A" stroke-width="0.189891"/>
<path d="M274.907 369.572L274.907 369.572C289.926 353.237 273.6 326.799 252.256 333.496C244.716 335.866 239.729 340.831 237.288 348.398C237.175 348.754 236.95 349.065 236.648 349.284C236.346 349.503 235.983 349.618 235.611 349.613C235.611 349.613 235.611 349.613 235.61 349.613L213.075 349.6L211.349 359.615L235.876 359.628C235.876 359.628 235.876 359.628 235.876 359.628H235.876L235.876 359.723C236.181 359.723 236.478 359.822 236.721 360.006C236.964 360.189 237.141 360.447 237.224 360.741L274.907 369.572ZM274.907 369.572C263.337 382.167 242.08 377.35 237.316 360.715L274.907 369.572ZM270.648 353.928C270.557 352.38 270.152 350.866 269.459 349.472C268.765 348.078 267.797 346.832 266.608 345.804C265.419 344.777 264.033 343.988 262.53 343.483C261.026 342.979 259.435 342.767 257.846 342.862C254.637 343.053 251.632 344.476 249.494 346.821C247.355 349.166 246.258 352.24 246.443 355.366C246.535 356.914 246.94 358.428 247.633 359.822C248.326 361.216 249.295 362.462 250.484 363.49C251.673 364.517 253.059 365.306 254.562 365.811C256.066 366.315 257.657 366.527 259.246 366.432C262.455 366.242 265.46 364.818 267.598 362.473C269.737 360.128 270.834 357.055 270.648 353.928Z" fill="#F8DC4A" stroke="#F8DC4A" stroke-width="0.189891"/>
<path d="M270.462 353.937C270.843 360.339 265.82 365.85 259.238 366.241C252.657 366.632 247.017 361.754 246.637 355.353C246.256 348.951 251.279 343.44 257.861 343.049C264.442 342.658 270.082 347.536 270.462 353.937Z" stroke="#F8DC4A" stroke-width="0.189891"/>
<defs>
<filter id="filter0_i_3909_166103" x="32" y="32" width="449" height="449" filterUnits="userSpaceOnUse" color-interpolation-filters="sRGB">
<feFlood flood-opacity="0" result="BackgroundImageFix"/>
<feBlend mode="normal" in="SourceGraphic" in2="BackgroundImageFix" result="shape"/>
<feColorMatrix in="SourceAlpha" type="matrix" values="0 0 0 0 0 0 0 0 0 0 0 0 0 0 0 0 0 0 127 0" result="hardAlpha"/>
<feOffset dx="1" dy="1"/>
<feGaussianBlur stdDeviation="0.5"/>
<feComposite in2="hardAlpha" operator="arithmetic" k2="-1" k3="1"/>
<feColorMatrix type="matrix" values="0 0 0 0 0 0 0 0 0 0 0 0 0 0 0 0 0 0 0.2 0"/>
<feBlend mode="normal" in2="shape" result="effect1_innerShadow_3909_166103"/>
</filter>
</defs>
</svg>
