<svg width="16" height="17" viewBox="0 0 16 17" fill="none" xmlns="http://www.w3.org/2000/svg">
<path d="M4.6709 6.94499C4.6709 6.47344 4.85822 6.0212 5.19166 5.68776C5.5251 5.35432 5.97734 5.16699 6.4489 5.16699H12.2262C12.4597 5.16699 12.6909 5.21298 12.9066 5.30233C13.1224 5.39169 13.3184 5.52265 13.4835 5.68776C13.6486 5.85286 13.7795 6.04886 13.8689 6.26458C13.9582 6.4803 14.0042 6.7115 14.0042 6.94499V12.7223C14.0042 12.9558 13.9582 13.187 13.8689 13.4027C13.7795 13.6185 13.6486 13.8145 13.4835 13.9796C13.3184 14.1447 13.1224 14.2756 12.9066 14.365C12.6909 14.4543 12.4597 14.5003 12.2262 14.5003H6.4489C6.21541 14.5003 5.9842 14.4543 5.76849 14.365C5.55277 14.2756 5.35677 14.1447 5.19166 13.9796C5.02656 13.8145 4.89559 13.6185 4.80624 13.4027C4.71689 13.187 4.6709 12.9558 4.6709 12.7223V6.94499Z" stroke="white" stroke-opacity="0.7" stroke-width="0.666667" stroke-linecap="round" stroke-linejoin="round"/>
<path d="M2.67467 11.658C2.47023 11.5415 2.30018 11.373 2.18172 11.1697C2.06325 10.9663 2.00057 10.7353 2 10.5V3.83333C2 3.1 2.6 2.5 3.33333 2.5H10C10.5 2.5 10.772 2.75667 11 3.16667" stroke="white" stroke-opacity="0.7" stroke-width="0.666667" stroke-linecap="round" stroke-linejoin="round"/>
</svg>
