<svg width="12" height="10" viewBox="0 0 12 10" fill="none" xmlns="http://www.w3.org/2000/svg">
<path d="M2.43652 0.5H9.56352C9.64242 0.499989 9.7202 0.518648 9.7905 0.554451C9.8608 0.590254 9.92163 0.642185 9.96802 0.706L11.8795 3.334C11.9135 3.38076 11.9302 3.43785 11.9269 3.49556C11.9235 3.55326 11.9002 3.60802 11.861 3.6505L6.18352 9.801C6.16012 9.8263 6.13173 9.84648 6.10016 9.86028C6.06858 9.87409 6.03449 9.88121 6.00002 9.88121C5.96556 9.88121 5.93147 9.87409 5.89989 9.86028C5.86831 9.84648 5.83993 9.8263 5.81652 9.801L0.139024 3.651C0.0996994 3.60848 0.0763565 3.55363 0.0729823 3.49581C0.0696082 3.438 0.0864121 3.3808 0.120524 3.334L2.03202 0.706C2.07841 0.642185 2.13925 0.590254 2.20955 0.554451C2.27985 0.518648 2.35763 0.499989 2.43652 0.5Z" fill="#F9C034"/>
</svg>
