<svg width="18" height="18" viewBox="0 0 18 18" fill="none" xmlns="http://www.w3.org/2000/svg">
<path d="M17.3408 6.80518L11.652 1.11569C10.9479 0.413681 9.99426 0.0194702 9.00002 0.0194702C8.00577 0.0194702 7.05208 0.413681 6.34802 1.11569L0.659274 6.80518C0.449593 7.01352 0.283351 7.2614 0.170186 7.53447C0.0570206 7.80753 -0.000817541 8.10034 2.43184e-05 8.39593V15.7587C2.43184e-05 16.3554 0.237077 16.9277 0.659033 17.3497C1.08099 17.7716 1.65329 18.0087 2.25002 18.0087H15.75C16.3467 18.0087 16.919 17.7716 17.341 17.3497C17.763 16.9277 18 16.3554 18 15.7587V8.39593C18.0008 8.10034 17.943 7.80753 17.8298 7.53447C17.7167 7.2614 17.5504 7.01352 17.3408 6.80518ZM11.25 16.5087H6.75002V13.5582C6.75002 12.9614 6.98707 12.3891 7.40903 11.9672C7.83098 11.5452 8.40328 11.3082 9.00002 11.3082C9.59675 11.3082 10.169 11.5452 10.591 11.9672C11.013 12.3891 11.25 12.9614 11.25 13.5582V16.5087ZM16.5 15.7587C16.5 15.9576 16.421 16.1483 16.2803 16.289C16.1397 16.4297 15.9489 16.5087 15.75 16.5087H12.75V13.5582C12.75 12.5636 12.3549 11.6098 11.6517 10.9065C10.9484 10.2033 9.99458 9.80818 9.00002 9.80818C8.00545 9.80818 7.05163 10.2033 6.34837 10.9065C5.64511 11.6098 5.25002 12.5636 5.25002 13.5582V16.5087H2.25002C2.05111 16.5087 1.86034 16.4297 1.71969 16.289C1.57904 16.1483 1.50002 15.9576 1.50002 15.7587V8.39593C1.50072 8.19716 1.57966 8.00667 1.71977 7.86568L7.40852 2.17844C7.83129 1.75763 8.40351 1.52139 9.00002 1.52139C9.59652 1.52139 10.1687 1.75763 10.5915 2.17844L16.2803 7.86793C16.4198 8.00836 16.4987 8.19794 16.5 8.39593V15.7587Z" fill="#F9C034"/>
</svg>
