<svg width="45" height="32" viewBox="0 0 45 32" fill="none" xmlns="http://www.w3.org/2000/svg">
<g clip-path="url(#clip0_9_65)">
<rect x="0.66671" y="-6.10352e-05" width="43.9999" height="31.9999" rx="3.99999" fill="#0A6A30"/>
<path fill-rule="evenodd" clip-rule="evenodd" d="M34.136 12.7444C33.9977 14.0159 33.6038 14.9332 33.1428 14.9332C32.6819 14.9332 32.288 14.0159 32.1497 12.7444C30.9009 12.6036 30 12.2026 30 11.7332C30 11.2639 30.9009 10.8629 32.1497 10.7221C32.288 9.45059 32.6819 8.53326 33.1428 8.53326C33.6038 8.53326 33.9977 9.45059 34.136 10.7221C35.3847 10.8629 36.2857 11.2639 36.2857 11.7332C36.2857 12.2026 35.3847 12.6036 34.136 12.7444ZM0.66671 -6.10352e-05H12.6667V31.9999H0.66671V-6.10352e-05Z" fill="white"/>
<path fill-rule="evenodd" clip-rule="evenodd" d="M38.3181 14.865C38.36 15.2383 38.3809 15.6159 38.3809 15.9999C38.3809 21.3012 34.159 25.5999 28.9524 25.5999C23.7457 25.5999 19.5238 21.3012 19.5238 15.9999C19.5238 10.6986 23.7457 6.39992 28.9524 6.39992C29.3295 6.39992 29.7004 6.42125 30.067 6.46392C26.48 6.95458 23.7143 10.0842 23.7143 13.8666C23.7143 17.9903 26.9975 21.3332 31.0476 21.3332C34.7646 21.3332 37.8362 18.5172 38.3181 14.865Z" fill="white"/>
</g>
<defs>
<clipPath id="clip0_9_65">
<rect x="0.66671" y="-6.10352e-05" width="43.9999" height="31.9999" rx="3.99999" fill="white"/>
</clipPath>
</defs>
</svg>
