<svg width="44" height="32" viewBox="0 0 44 32" fill="none" xmlns="http://www.w3.org/2000/svg">
<rect x="3.05176e-05" width="43.9999" height="31.9999" rx="3.99999" fill="#249F58"/>
<path fill-rule="evenodd" clip-rule="evenodd" d="M33.524 21.3333V19.2H10.4764L14.6669 21.3333H27.2383C27.2383 22.5109 28.6463 23.4666 30.3811 23.4666C32.116 23.4666 33.524 22.5109 33.524 21.3333ZM18.2916 8.33279C18.2665 8.33279 18.2288 8.34559 18.1806 8.37546C18.0675 8.45226 17.8454 8.68906 17.837 8.96213C17.8307 9.11786 17.8014 9.11786 17.8998 9.21813C17.9711 9.32053 18.0465 9.31199 18.189 9.23306C18.2728 9.16906 18.3 9.13279 18.3294 9.02826C18.3629 8.85759 18.1471 9.11359 18.1198 8.91733C18.0716 8.73813 18.2099 8.66133 18.3398 8.49066C18.344 8.40533 18.344 8.34133 18.2916 8.33706V8.33279ZM20.3932 8.34346C20.3513 8.35199 20.3031 8.40746 20.2339 8.53119C20.1857 8.66346 19.9741 8.86399 20.1292 9.27786C20.2507 9.54026 20.3031 9.96479 20.2465 10.4405C20.1585 10.5749 20.1417 10.6219 20.0265 10.7563C19.8673 10.9333 19.6913 10.8885 19.5614 10.8203C19.4356 10.7349 19.3393 10.6923 19.2827 10.4235C19.2932 9.99679 19.3183 9.28853 19.2408 9.13919C19.1276 8.90879 18.9391 8.98986 18.8595 9.06026C18.476 9.42293 18.2854 10.0267 18.168 10.5109C18.0633 10.8608 17.948 10.7584 17.8684 10.6176C17.6735 10.4299 17.6589 8.97493 17.4242 9.21599C17.0471 10.3125 17.64 11.5136 18.0528 11.3963C18.3461 11.5243 18.5347 10.9483 18.6562 10.3189C18.74 10.1419 18.8029 10.1205 18.8448 10.2123C18.8343 11.0485 18.9076 11.2363 19.1172 11.488C19.5865 11.8592 19.9762 11.5349 20.0076 11.5051L20.3743 11.1339C20.4581 11.0485 20.5629 11.04 20.6781 11.1168C20.7913 11.2235 20.7766 11.4005 21.0134 11.5221C21.2187 11.6075 21.6482 11.5435 21.7467 11.3664C21.8829 11.1317 21.9143 11.0507 21.9772 10.9611C22.0735 10.8331 22.2391 10.8907 22.2391 10.9312C22.2244 11.0059 22.128 11.0805 22.193 11.2085C22.3082 11.2939 22.3354 11.2384 22.4025 11.2192C22.6413 11.104 22.8215 10.5749 22.8215 10.5749C22.832 10.3787 22.7231 10.3936 22.6539 10.4341C22.5596 10.4917 22.5554 10.5109 22.4653 10.5685C22.3459 10.5856 22.1196 10.6645 22.0086 10.4875C21.8933 10.2741 21.8933 9.97972 21.8053 9.76213C21.8053 9.74933 21.6524 9.42719 21.7928 9.40799C21.8619 9.42079 22.017 9.46133 22.04 9.33119C22.1154 9.20319 21.8787 8.84053 21.7174 8.66133C21.5791 8.50559 21.3863 8.48639 21.1998 8.64426C21.0678 8.76799 21.0888 8.90453 21.0615 9.03466C21.0301 9.18399 21.0364 9.36959 21.1873 9.56799C21.3172 9.82826 21.5539 10.1653 21.4743 10.6389C21.4743 10.6389 21.3381 10.8651 21.0972 10.8352C20.9924 10.8139 20.829 10.7712 20.741 10.1099C20.6781 9.61279 20.7577 8.91519 20.5524 8.58879C20.5042 8.46719 20.4644 8.34773 20.3974 8.35413L20.3932 8.34346ZM19.7269 8.39893C19.664 8.40533 19.5949 8.47999 19.5383 8.62293C19.4901 8.73386 19.4294 9.30559 19.4398 9.30559C19.3979 9.47626 19.6137 9.54879 19.7122 9.33119C19.8589 8.92586 19.8589 8.75519 19.8673 8.58879C19.8463 8.46079 19.7897 8.39679 19.7269 8.40106V8.39893ZM22.1846 8.44159C22.1217 8.45013 22.0694 8.48853 22.0505 8.58666C22.0233 8.81279 22.0379 8.93866 22.0756 9.12853C22.1029 9.25653 22.2852 9.46559 22.3732 9.58932C22.7985 10.1717 23.2113 10.7563 23.6052 11.36C23.668 11.8123 23.7099 12.2517 23.7413 12.6912C23.8084 13.6512 23.8252 14.8458 23.7686 15.8592C23.9446 15.8656 24.2295 15.5669 24.328 15.1338C24.3909 14.528 24.3071 13.2992 24.2987 12.9408L24.2777 12.4331C24.7387 13.2011 25.1829 14.0117 25.6187 14.8992C25.78 14.8224 25.7444 13.9072 25.6522 13.7792C25.3002 13.0112 24.8141 12.2517 24.6612 11.9595C24.6046 11.8528 24.4139 11.5605 24.1897 11.2213C24.1478 10.7349 24.1017 10.3253 24.0724 10.2016C23.9991 9.68959 24.2777 10.2592 24.24 9.96266C24.1478 9.45066 23.8713 9.10506 23.5444 8.63573C23.4396 8.48639 23.4396 8.45226 23.2783 8.67413C23.184 8.89813 23.184 9.08586 23.2154 9.26079C23.1693 9.19679 23.117 9.12426 23.0415 9.03039L22.5073 8.56959C22.4339 8.51626 22.2914 8.43519 22.1846 8.44159V8.44159ZM29.4676 8.52053C29.4362 8.51626 29.4048 8.53119 29.3629 8.58879C29.2895 8.65279 29.212 8.77439 29.2162 8.93013C29.2309 9.19679 29.2791 9.47199 29.2958 9.74079L29.3168 9.84746C29.2874 9.81333 29.2623 9.78346 29.2476 9.77066C28.7301 9.21599 29.4844 9.67679 29.1471 9.25226C28.8642 8.93226 28.7804 8.83413 28.5394 8.64213C28.4137 8.56533 28.3425 8.41173 28.3027 8.67199C28.2859 8.90026 28.2691 9.16693 28.2817 9.35893C28.2817 9.46559 28.3928 9.66826 28.4871 9.78559C28.8307 10.2187 29.1827 10.6773 29.5347 11.1552C29.6101 12.1301 29.629 13.024 29.7023 14.001C29.6939 14.4192 29.5682 14.9738 29.4509 15.025C29.4509 15.025 29.2665 15.1317 29.145 15.0144C29.0549 14.9781 28.7008 14.4106 28.7008 14.4106C28.5185 14.24 28.397 14.289 28.2691 14.4106C27.913 14.7605 27.7495 15.4176 27.5086 15.8698C27.4457 15.9701 27.2718 16.0576 27.077 15.8613C26.5804 15.1701 26.8674 14.1866 26.8088 14.4405C26.3688 14.9482 26.5615 15.7888 26.6621 15.9701C26.8088 16.2688 26.9261 16.4608 27.2069 16.6037C27.4688 16.7957 27.6678 16.6784 27.781 16.5397C28.0408 16.2666 28.045 15.5648 28.1665 15.4261C28.2503 15.1701 28.4661 15.2128 28.5709 15.328C28.6756 15.4773 28.793 15.5733 28.9417 15.6544C29.1848 15.872 29.4739 15.9104 29.7589 15.712C29.9537 15.601 30.0815 15.456 30.1947 15.1701C30.3204 14.8373 30.2575 13.088 30.2303 12.1152L30.775 12.9173C30.8505 13.7706 30.8861 14.6133 30.8589 15.4197C30.8421 15.5797 31.4099 14.9418 31.4036 14.6389C31.4036 14.3765 31.4078 14.1354 31.4036 13.9136C31.6823 14.3616 31.9484 14.816 32.1998 15.2789C32.3569 15.1936 32.3046 14.2912 32.2061 14.1696C31.9421 13.7173 31.6027 13.2309 31.3408 12.8512C31.2884 12.3755 31.2192 11.8144 31.1857 11.6416C31.1375 11.3728 31.0872 10.9696 31.0118 10.6517C30.9909 10.5301 30.928 10.1333 30.949 10.0971C30.9783 10.0053 31.0956 10.0971 31.1522 9.99466C31.236 9.89866 30.8547 8.88533 30.6598 8.59946C30.5907 8.47146 30.4629 8.51413 30.3078 8.72746C30.1611 8.86399 30.2156 9.17973 30.2701 9.48052C30.4126 10.2485 30.5425 11.0251 30.643 11.8059C30.4545 11.5179 30.224 11.1723 29.9977 10.8416L29.9684 10.6923C29.9684 10.6752 29.939 10.0629 29.9118 9.91786C29.9055 9.85812 29.8909 9.84106 29.9537 9.84959C30.0166 9.90506 30.025 9.90719 30.0648 9.92639C30.1318 9.93492 30.1905 9.82399 30.1486 9.71946L29.541 8.58026C29.52 8.55253 29.4907 8.52693 29.4571 8.52266L29.4676 8.52053ZM10.6734 8.54186C10.5581 8.53759 10.4366 8.60586 10.4848 8.74453C10.4555 8.81919 10.7027 9.07093 10.7467 9.20959C10.7823 9.30986 10.7048 9.62559 10.7886 9.65759C10.8619 9.68959 10.9646 9.43573 11.0023 9.20319C11.0233 9.07519 11.0086 8.63573 10.7153 8.54613C10.7006 8.54186 10.6859 8.54186 10.6692 8.53973L10.6734 8.54186ZM32.0867 8.54186C32.0594 8.54613 32.028 8.58453 31.9819 8.69119C31.8667 8.88319 31.8269 9.22453 31.8729 9.52319C32.1453 11.4219 32.3549 13.2608 32.3968 14.9418C32.3716 15.104 32.3632 15.1893 32.292 15.3898C32.1286 15.6032 31.9484 15.8677 31.7787 15.9957C31.611 16.1237 31.2507 16.2474 31.1333 16.3413C30.7562 16.5589 30.7562 16.8106 31.0579 16.8213C31.5775 16.7573 32.1935 16.7146 32.6168 16.064C32.7299 15.8826 32.864 15.3877 32.8682 15.0826C32.9101 13.312 32.8472 11.5733 32.5853 10.2912C32.5686 10.1632 32.5141 9.87946 32.535 9.84319C32.5665 9.75359 32.7362 9.84959 32.7969 9.74933C32.887 9.65546 32.3569 8.96639 32.1726 8.67199C32.1349 8.59946 32.1097 8.53759 32.0804 8.54399L32.0867 8.54186ZM26.6328 8.57173C26.6118 8.57599 26.5825 8.61013 26.5238 8.68906C26.3772 9.17119 26.3269 9.56373 26.3834 9.86666C26.7606 11.8507 27.1377 13.6533 27.0791 15.5413C27.2551 15.5413 27.4604 15.1296 27.5484 14.72C27.5966 14.1546 27.5149 13.8112 27.5023 13.4827C27.4876 13.1499 27.1335 10.4619 27.0623 10.2123C26.9743 9.73866 27.4059 10.1483 27.3598 9.87519C27.209 9.52533 26.836 9.02186 26.7229 8.71679C26.681 8.63573 26.6726 8.56106 26.6391 8.56746L26.6328 8.57173ZM13.3616 8.61013C13.3197 8.61866 13.2715 8.65706 13.2568 8.71679C13.2463 8.75946 13.2736 8.82986 13.2358 8.85119C13.2149 8.87253 13.1353 8.85759 13.1395 8.74453C13.1395 8.70613 13.1122 8.66773 13.0976 8.64426C13.0808 8.63573 13.0703 8.63359 13.041 8.63359C13.0054 8.63359 13.0054 8.64426 12.9865 8.67626C12.9781 8.70613 12.9656 8.73599 12.9656 8.77013C12.9614 8.81279 12.9446 8.82346 12.9174 8.82986C12.8838 8.82986 12.8901 8.83413 12.865 8.81493C12.844 8.79999 12.8273 8.79359 12.8273 8.76373C12.8273 8.73173 12.8189 8.67839 12.8105 8.66133C12.7958 8.63999 12.7728 8.63146 12.7477 8.62506C12.6094 8.62506 12.601 8.79146 12.6073 8.85119C12.5968 8.86399 12.5926 9.14986 12.7812 9.23093C13.0326 9.35466 13.5103 9.30133 13.4936 8.88533C13.4936 8.84906 13.4831 8.72533 13.4789 8.69333C13.4537 8.62933 13.4056 8.60799 13.3595 8.61439L13.3616 8.61013ZM16.7684 8.61439C16.6804 8.61866 16.6008 8.64426 16.5379 8.67839C16.3703 8.84266 16.3284 9.10506 16.4625 9.26933C16.5882 9.33333 16.7202 9.46132 16.6343 9.53599C16.2697 9.93066 15.3206 10.5941 15.2724 10.7157V10.7285H15.2808V10.7328C15.329 10.7648 15.924 10.7648 15.989 10.7328H15.9932C16.1985 10.6539 17.1665 9.52746 17.1665 9.52746C17.1162 9.48479 17.0701 9.45066 17.0198 9.40586C16.9654 9.35893 16.9716 9.31199 17.0198 9.26506C17.2587 9.12426 17.1833 8.81066 17.0575 8.66773C16.9528 8.62079 16.8564 8.60373 16.7684 8.61013V8.61439ZM25.6732 8.61439C25.648 8.62079 25.6166 8.65706 25.5684 8.76373C25.4532 8.95573 25.3756 9.28639 25.3861 9.59573C25.6333 11.3451 25.7088 12.8747 25.8722 14.624C25.8848 14.7946 25.8596 15.0378 25.7507 15.136C25.34 15.5712 24.7512 16.1045 24.1101 16.352C24.041 16.4309 24.2819 16.7658 24.592 16.7658C25.1116 16.7018 25.5684 16.4074 25.9958 15.6245C26.1069 15.4432 26.3059 15.0528 26.3101 14.7498C26.352 12.9749 26.2263 11.5925 25.9623 10.3125C25.9476 10.1845 25.9581 10.0352 25.9791 10.0011C26.0126 9.95839 26.1257 10.0011 26.1886 9.90079C26.2766 9.80692 25.9497 9.04106 25.7653 8.74879C25.7276 8.67413 25.7067 8.61439 25.6732 8.61653V8.61439ZM11.8781 8.67199C11.8069 8.68053 11.7398 8.73599 11.7063 8.82133C11.6958 9.09866 11.6938 9.37599 11.7273 9.63626C11.853 10.0907 11.8886 10.4896 11.9494 10.9525C11.9703 11.5755 11.5974 11.2213 11.6141 10.9141C11.6979 10.5131 11.677 9.88372 11.6016 9.72373C11.5387 9.56373 11.4717 9.52533 11.325 9.55306C11.2098 9.54453 10.9101 9.87306 10.8263 10.4277C10.8263 10.4277 10.7551 10.7093 10.7258 10.9611C10.6838 11.2448 10.4995 11.4475 10.3696 10.9227C10.2585 10.5387 10.1915 9.59999 10.005 9.81759C9.95052 10.5515 9.88766 11.8443 10.4995 11.9765C11.2412 12.0491 10.8305 10.7008 11.0987 10.4555C11.1511 10.3381 11.2454 10.336 11.2517 10.4875V11.6331C11.2433 12.0043 11.4821 12.1152 11.6707 12.192C11.8656 12.1771 11.9934 12.1835 12.0688 12.3755L12.1631 14.3594C12.1631 14.3594 12.6115 14.4874 12.6324 13.2437C12.6534 12.512 12.4858 11.8997 12.5842 11.7568C12.5884 11.616 12.7644 11.6075 12.8859 11.6779C13.0808 11.8165 13.1667 11.9872 13.4684 11.9189C13.9294 11.7909 14.2017 11.5648 14.208 11.2064C14.1871 10.8651 14.1452 10.5237 13.9985 10.1824C14.0195 10.1227 13.9147 9.96266 13.9357 9.90079C14.0153 10.0288 14.141 10.0203 14.1661 9.90079C14.0907 9.63839 13.9692 9.38879 13.7722 9.28213C13.6109 9.13279 13.3741 9.16479 13.2861 9.46773C13.2442 9.81759 13.4118 10.2315 13.6633 10.5707C13.7136 10.7029 13.789 10.9227 13.7555 11.1211C13.6235 11.1979 13.4915 11.1637 13.3783 11.0464C13.3783 11.0464 13.0158 10.7691 13.0158 10.7051C13.1143 10.0757 13.0368 10.0011 12.9844 9.83039C12.9467 9.58719 12.8336 9.51039 12.7435 9.34399C12.6513 9.24373 12.5277 9.24373 12.4711 9.34399C12.3077 9.62773 12.3831 10.24 12.5004 10.5109C12.5842 10.7627 12.7141 10.9205 12.6534 10.9205C12.6031 11.0592 12.4983 11.0272 12.4229 10.8629C12.3181 10.5216 12.293 10.0181 12.293 9.78986C12.2616 9.50826 12.2259 8.90453 12.0416 8.75093C11.9934 8.68266 11.9368 8.65919 11.8802 8.66559L11.8781 8.67199ZM14.4804 8.67199C14.4448 8.68053 14.4029 8.70186 14.3547 8.71466C14.1976 8.76373 14.0509 8.90239 14.097 9.17119C14.2856 10.3232 14.405 11.2043 14.5915 12.3563C14.6187 12.4928 14.5077 12.6699 14.3652 12.6549C14.1221 12.4843 14.0614 12.1429 13.6465 12.16C13.3448 12.16 13.0012 12.4971 12.9593 12.8171C12.909 13.0731 12.8922 13.3504 12.9593 13.5723C13.1688 13.8282 13.4244 13.8026 13.6465 13.7429C13.8288 13.6682 13.9817 13.4869 14.0446 13.5296C14.0865 13.6 14.0404 14.1994 13.1856 14.6602C12.6576 14.9034 12.2385 14.9589 12.0122 14.5237C11.8739 14.2506 12.0248 13.2096 11.6812 13.4485C10.6629 16.1194 14.0635 16.4906 14.4427 13.5595C14.4678 13.4741 14.5412 13.3931 14.5957 13.4144C14.6166 13.4251 14.6376 13.4571 14.6459 13.5168C14.5663 16.1706 12.0143 16.3541 11.5827 15.5178C11.4738 15.3216 11.4423 14.8821 11.4318 14.6218C11.4109 14.4618 11.3732 14.3701 11.3271 14.3338C11.2223 14.2549 11.084 14.4618 11.0547 14.8181C11.0128 15.1061 11.0233 15.185 11.0233 15.4624C11.1616 17.5594 14.4448 16.657 14.9791 14.929C15.2431 14.033 14.9728 13.3568 15.0629 13.2736L15.0692 13.2693H15.0755L15.0859 13.2651C15.4128 13.6234 15.8696 13.3077 15.9701 13.1861C16.012 13.1221 16.121 13.0795 16.1964 13.1648C16.4478 13.3483 16.8962 13.2608 16.9884 12.9301C17.0429 12.6101 17.089 12.2816 17.0995 11.9381C16.9318 11.9915 16.7977 12.0299 16.7433 12.0875C16.7307 12.1024 16.7223 12.1195 16.7181 12.1365L16.6762 12.4203C16.6762 12.4309 16.672 12.4373 16.6678 12.4416C16.6616 12.4565 16.6469 12.4672 16.6385 12.4736C16.5798 12.5056 16.4772 12.4885 16.4709 12.4011C16.3934 12.0384 16.0686 11.9915 15.8716 12.5568C15.7396 12.6635 15.4945 12.6848 15.4736 12.5227C15.505 12.1429 15.3541 12.0917 15.0545 12.2709L14.7654 10.0523C14.8911 10.0459 15.0042 10.1376 15.1216 9.99252C14.9958 9.59999 14.7339 8.80213 14.5852 8.72533H14.581L14.56 8.70399C14.56 8.69973 14.5537 8.69759 14.5496 8.69546L14.5412 8.68266C14.5328 8.68266 14.5244 8.67839 14.5202 8.67626C14.5056 8.67199 14.493 8.67199 14.4783 8.67199H14.4804ZM24.6255 8.68053C24.4956 8.67626 24.3532 8.75946 24.4076 8.92586C24.3741 9.01759 24.6863 9.32479 24.7366 9.49119C24.8267 9.74719 24.6674 9.99679 24.7617 10.0331C24.8497 10.0715 24.9712 9.76639 25.0132 9.48266C25.0676 9.25226 24.9084 8.78293 24.6779 8.68693L24.6255 8.68266V8.68053ZM16.7202 8.95999C16.7789 8.95573 16.8501 9.01119 16.8878 9.08799C16.9235 9.17333 16.9046 9.25226 16.8459 9.26719C16.7831 9.28213 16.7035 9.22879 16.6657 9.14346C16.628 9.05813 16.6448 8.97919 16.7076 8.96426H16.7202V8.95999ZM31.3806 9.34826C31.2611 9.34399 31.1291 9.43359 31.1836 9.61493C31.1543 9.71306 31.435 10.0459 31.4832 10.2293C31.5251 10.3573 31.4204 10.7755 31.5042 10.8139C31.5838 10.8565 31.6928 10.5237 31.7347 10.2165C31.7598 10.0459 31.6383 9.45919 31.4309 9.35466C31.4162 9.35039 31.3994 9.34613 31.3827 9.34613L31.3806 9.34826ZM23.272 9.55306C23.2867 9.60213 23.2972 9.65119 23.3034 9.70239C23.3286 9.80906 23.3495 9.91572 23.3705 10.0267C23.2783 9.89439 23.2029 9.78773 23.1673 9.74933C22.9577 9.49333 23.1714 9.58293 23.272 9.55306V9.55306ZM25.1431 10.4875C25.097 10.496 25.053 10.5365 25.0383 10.6005C25.0257 10.6389 25.0551 10.7072 25.0173 10.7285C24.9964 10.7499 24.9126 10.7371 24.9189 10.6219C24.9189 10.5835 24.8916 10.5429 24.877 10.5216C24.8602 10.5109 24.8497 10.5067 24.8204 10.5067C24.7848 10.5067 24.7848 10.5173 24.7659 10.5493C24.7575 10.5792 24.745 10.6091 24.745 10.6453C24.745 10.688 24.7282 10.7008 24.6989 10.7093C24.6653 10.7093 24.6716 10.7093 24.6444 10.6944C24.6276 10.6731 24.6088 10.6688 24.6088 10.6389C24.6088 10.6069 24.6025 10.5579 24.592 10.5365C24.5773 10.5152 24.5564 10.5088 24.5292 10.5003C24.393 10.5003 24.3825 10.6624 24.3909 10.7221C24.3825 10.7349 24.3762 11.0251 24.5648 11.1061C24.8204 11.2277 25.2981 11.1701 25.2772 10.7563C25.2772 10.72 25.2667 10.5963 25.2646 10.5643C25.2373 10.5003 25.1892 10.4789 25.1452 10.4853L25.1431 10.4875ZM16.6155 10.5728C16.5861 10.5728 16.5442 10.5813 16.496 10.6112C16.2718 10.7349 16.1859 11.1019 16.3284 11.3152C16.4541 11.5072 16.6636 11.4368 16.6909 11.4368C16.9109 11.4667 17.0408 11.0187 17.0408 11.0187C17.0408 11.0187 17.0471 10.8907 16.7894 11.1296C16.6762 11.1509 16.6636 11.1083 16.6343 11.0443C16.6092 10.9312 16.6134 10.8096 16.6657 10.6965C16.6909 10.6261 16.6657 10.5813 16.6155 10.5771V10.5728ZM28.6693 10.6304C28.5436 10.624 28.4116 10.7072 28.376 10.88C28.376 10.9824 28.4221 11.0379 28.4137 11.1317C28.4032 11.1851 28.3509 11.2171 28.221 11.1573C28.2419 11.136 28.1371 10.9909 28.1371 10.9909C28.0387 10.9269 27.9067 10.9909 27.8187 11.0507C27.7705 11.1403 27.7349 11.2917 27.7893 11.4453C27.9318 11.7163 28.4242 12.1771 28.6589 12.1813C28.6631 11.9381 28.6861 11.6139 28.7008 11.4133C28.705 11.3365 28.7217 11.2533 28.7951 11.2341C28.8663 11.2128 28.9899 11.3067 28.9899 11.2277C28.9773 11.0741 28.948 10.8437 28.8642 10.7371C28.8181 10.6731 28.7448 10.6347 28.6714 10.6304H28.6693ZM18.6897 11.4773L18.6835 11.4837C18.6835 11.4837 18.6793 11.4837 18.6772 11.488C18.652 11.5093 18.6227 11.552 18.5577 11.5947C18.4467 11.7227 18.4278 11.8144 18.432 12.0704C18.4404 12.0981 18.6415 12.6741 18.8155 13.0773C18.9328 13.4976 19.0396 13.9797 18.9621 14.4341C18.6897 15.0357 18.145 15.5754 17.6149 15.8698C17.3425 15.9552 17.112 15.9253 17.0492 15.8656C16.8941 15.7589 16.892 15.5669 16.9025 15.537V15.5306C17.3467 15.2149 17.8558 14.9589 18.2539 14.1077C18.3713 13.7813 18.409 13.585 18.2916 13.0837C18.2455 12.8917 18.1869 12.7424 18.0612 12.6059H18.0654C18.1408 12.5696 18.3377 12.7168 18.3692 12.6272C18.321 12.384 18.1596 12.0619 17.9815 11.8955C17.8223 11.7461 17.6463 11.7312 17.5038 11.8656C17.3404 11.9595 17.3069 12.2923 17.3844 12.5824C17.4724 12.8 17.7092 12.8384 17.8768 13.28C17.881 13.3099 17.9334 13.6107 17.8495 13.7344C17.7783 13.952 16.8962 14.6602 16.8334 14.7029L16.8271 14.7072L16.8229 14.7114H16.8187H16.8145V14.705C16.8103 14.688 16.8145 14.641 16.8145 14.5706C16.8082 14.4384 16.8627 14.1376 16.8564 14.0842V14.08C16.5631 14.272 16.4646 14.8586 16.4122 15.0336C15.6726 15.552 14.8345 15.9381 14.3505 16.4629C14.0991 16.8682 16.0854 16.0064 16.3158 15.9018L16.3221 15.9082C16.3682 15.9573 16.3703 16.128 16.5023 16.2837C16.7118 16.5674 17.1476 16.7424 17.5751 16.6336C18.2916 16.3712 18.7065 15.8741 19.1255 15.3216C19.1842 15.2362 19.2785 15.1637 19.3665 15.232C19.6535 15.889 20.4874 16.3584 21.5623 16.4053C21.8137 16.0981 21.6943 15.9466 21.5937 15.8826C21.5623 15.8613 21.0594 15.6608 20.9798 15.4624C20.9316 15.2789 21.0511 15.1146 21.2899 14.993C21.9814 14.9077 22.6602 14.8117 23.3181 14.5962C23.3244 14.3701 23.4543 14.0352 23.5423 13.888C23.6052 13.7877 23.6408 13.7771 23.6554 13.7643V13.76H23.6596V13.7536V13.7322L23.5465 13.664L21.3402 13.6555C21.313 13.6448 21.2941 13.6341 21.2815 13.6235L21.2774 13.617C21.2774 13.617 21.2732 13.6171 21.2732 13.6128C21.2732 13.6085 21.269 13.6085 21.269 13.6085V13.6107V13.6064V13.6021V13.5979L21.2732 13.5914C21.2836 13.5786 21.3109 13.5637 21.3423 13.5488C21.8703 13.4784 22.8048 13.3227 22.8676 12.4075C22.8572 11.9296 22.6665 11.6181 22.0924 11.5328C21.6692 11.5648 21.3674 11.9808 21.4156 12.4373C21.3947 12.5589 21.4575 12.8 21.3318 12.8277C20.5231 12.9045 19.6389 13.4208 19.6095 13.792H19.6054H19.6012H19.597C19.597 13.7963 19.5928 13.7962 19.5907 13.7962H19.5823H19.5781H19.5697C19.5174 13.7792 19.4503 13.6896 19.4608 13.568C19.4294 12.928 19.224 12.2027 18.9055 11.648C18.7903 11.5307 18.7379 11.4837 18.7086 11.4773H18.7023H18.696H18.6918H18.6897ZM20.8017 11.8144C20.7598 11.8229 20.7116 11.8613 20.697 11.9253C20.6865 11.968 20.7179 12.0363 20.6802 12.0576C20.6593 12.0789 20.5754 12.0661 20.5796 11.9509C20.5796 11.9147 20.5524 11.8741 20.5377 11.8507C20.521 11.84 20.5105 11.8379 20.4833 11.8379C20.4476 11.8379 20.4455 11.8464 20.4267 11.8763C20.4162 11.9061 20.4057 11.9403 20.4057 11.9723C20.4015 12.0149 20.3848 12.0277 20.3575 12.032C20.324 12.032 20.3324 12.0384 20.3052 12.0213C20.2884 12.0043 20.2674 11.9957 20.2674 11.9659C20.2674 11.9339 20.2612 11.8805 20.2528 11.8592C20.2381 11.8443 20.2151 11.8379 20.1899 11.8293C20.0495 11.8293 20.0433 11.9893 20.0495 12.0512C20.0391 12.0619 20.0328 12.3499 20.2214 12.4309C20.4728 12.5547 21.0804 12.4821 20.9337 12.0832C20.9337 12.0469 20.9233 11.9232 20.9212 11.8912C20.8939 11.8272 20.8457 11.8059 20.7996 11.8123L20.8017 11.8144ZM29.3189 12.1707H29.2979C29.2979 12.1707 28.1204 13.024 28.0931 13.0539C27.9758 13.1605 28.0345 13.5296 28.0931 13.4869C28.177 13.5189 29.3608 12.7019 29.3377 12.6059C29.3901 12.6101 29.4152 12.1856 29.3168 12.1685L29.3189 12.1707ZM21.9143 12.2987C21.9604 12.2923 22.0233 12.3093 22.0819 12.3413C22.172 12.3968 22.2286 12.4736 22.2181 12.5333V12.5419C22.2139 12.5419 22.2139 12.5419 22.2139 12.5461V12.5504C22.2139 12.5504 22.2097 12.5504 22.2097 12.5547C22.2097 12.5589 22.2034 12.5632 22.1993 12.5675C22.1574 12.6101 22.061 12.6016 21.9688 12.5461C21.8808 12.4971 21.8284 12.4181 21.8326 12.3627V12.3563L21.8431 12.3349C21.8431 12.3349 21.8431 12.3307 21.8473 12.3285L21.8577 12.3157C21.8724 12.3051 21.8913 12.2944 21.9143 12.2944V12.2987ZM11.6099 12.512C11.0023 12.5248 10.1077 13.3269 10.0846 13.7706L12.0122 12.832C11.9075 12.6699 12.0059 12.5248 11.6099 12.512V12.512ZM13.5857 12.7893C13.6444 12.7936 13.7073 12.8235 13.7408 12.9088C13.7701 12.9877 13.7408 13.0688 13.7052 13.1093V13.1157C13.6758 13.1499 13.5878 13.1371 13.5229 13.1371C13.4454 13.1328 13.4077 13.12 13.3616 13.056C13.3364 12.9813 13.4035 12.9109 13.4349 12.8597L13.4496 12.8384C13.4705 12.8171 13.5124 12.8 13.5543 12.7957L13.5816 12.7915L13.5857 12.7893ZM29.0905 13.0389C28.9794 13.0517 28.8768 13.1563 28.9229 13.3227C28.8935 13.4208 29.0695 13.7643 29.1177 13.9456C29.1596 14.0736 29.0632 14.4426 29.1491 14.4789C29.2288 14.5216 29.4362 14.2656 29.4299 13.937C29.4509 13.7664 29.3712 13.1477 29.1638 13.0453C29.1387 13.0389 29.1135 13.0368 29.0884 13.0389H29.0905ZM15.924 13.6448C15.8276 13.6512 15.7417 13.7024 15.7816 13.841C15.7753 13.9392 16.0539 14.0608 16.0686 14.289C16.1063 14.3872 16.0057 14.6944 16.0896 14.72C16.165 14.752 16.2697 14.5066 16.3096 14.2848C16.3305 14.161 16.2132 13.7301 16.0162 13.6512C15.9848 13.6427 15.9534 13.6405 15.9219 13.6427L15.924 13.6448ZM19.8631 14.1909H19.8882C20.1354 14.2592 20.4958 14.2677 20.8101 14.2976C21.0678 14.3189 21.1935 14.5194 20.9568 14.6069C20.7179 14.688 20.4895 14.7562 20.4895 15.1018C20.5189 15.2725 20.5105 15.3621 20.4854 15.4005C20.4854 15.4069 20.4791 15.4112 20.477 15.4133C20.477 15.4133 20.477 15.4176 20.4728 15.4176V15.4218H20.4665L20.4518 15.4282H20.4414C20.3848 15.4389 20.3031 15.3856 20.2423 15.3514C20.0956 15.2448 19.6871 14.9888 19.6284 14.4341C19.62 14.3061 19.7122 14.1994 19.8589 14.1888L19.8631 14.1909ZM10.2376 14.6176C10.2229 14.6176 10.1957 14.6645 10.1538 14.7178C9.78918 15.3045 9.75566 16.1813 9.9568 16.4458C10.0616 16.5674 10.2376 16.6229 10.3675 16.5845C10.5979 16.4842 10.6964 16.0128 10.6398 15.8421C10.5665 15.7205 10.5058 15.7013 10.4303 15.8037C10.269 16.1344 10.1998 15.9061 10.1894 15.7184C10.1642 15.3706 10.1978 15.0464 10.2355 14.7904C10.2564 14.6624 10.2564 14.6133 10.2355 14.6133L10.2376 14.6176ZM22.5932 15.3898C22.5659 15.3898 22.5387 15.3941 22.5093 15.4112C22.5031 15.4112 22.2495 15.5818 22.1678 15.7056C22.1175 15.744 22.1259 15.776 22.1385 15.8442C22.1762 15.936 22.2433 15.9082 22.3229 15.8656C22.4276 15.8485 22.4758 15.9189 22.4695 16.0448C22.4213 16.2048 22.4905 16.2624 22.4905 16.273C22.4905 16.2816 22.589 16.369 22.7063 16.3008C22.9514 16.2048 23.1044 16.1088 23.4501 16.0341C23.5402 16.0341 23.5339 15.7866 23.3914 15.7781C23.2029 15.7866 23.0353 15.7994 22.8467 15.9488C22.7314 15.9744 22.7126 15.9018 22.6853 15.8378C22.656 15.68 22.7524 15.569 22.7314 15.4496C22.7356 15.456 22.6728 15.3984 22.5911 15.3941L22.5932 15.3898ZM30.5048 15.6885L30.3371 15.7056C30.2617 15.7205 30.2366 15.7546 30.2219 15.8485C30.2282 15.9872 30.312 15.9808 30.4 16.0362C30.4503 16.1002 30.4838 16.16 30.3958 16.2709C30.312 16.3456 30.2554 16.3882 30.1716 16.4629C30.136 16.5312 30.1088 16.6336 30.2303 16.6677C30.4503 16.7317 30.9594 16.3946 30.9594 16.3904C31.0432 16.3264 31.0139 16.2048 31.0076 16.2048C30.9573 16.1493 30.8484 16.1834 30.7771 16.1728C30.7415 16.1728 30.6305 16.1557 30.6808 16.0533C30.7269 15.9893 30.7436 15.953 30.775 15.8741C30.8065 15.7973 30.775 15.7461 30.6535 15.7034C30.5907 15.6906 30.5488 15.6864 30.5006 15.6885H30.5048ZM27.4604 23.9232C28.0261 23.9509 28.5541 23.9296 29.1156 23.9573C29.2078 24.0341 29.1638 24.2133 29.1051 24.2432L29.0947 24.2474H29.0884H29.08L28.6065 24.2346V24.2069C28.5604 24.0746 28.2461 24.0832 28.1707 24.1856V24.192C28.1665 24.192 28.1644 24.1984 28.1644 24.2005L28.1602 24.2112V24.2368C27.9088 24.2688 27.6888 24.2282 27.4415 24.2197C27.3682 24.128 27.3787 23.9637 27.4625 23.921L27.4604 23.9232Z" fill="white"/>
</svg>
