<svg width="20" height="20" viewBox="0 0 20 20" fill="none" xmlns="http://www.w3.org/2000/svg">
<path fill-rule="evenodd" clip-rule="evenodd" d="M9.50248 1.66504C14.1058 1.66504 17.8375 5.39675 17.8375 10C17.8375 14.6033 14.1058 18.335 9.50248 18.335C4.89919 18.335 1.16748 14.6033 1.16748 10C1.16748 5.39675 4.89919 1.66504 9.50248 1.66504ZM9.5025 3.74875C6.05003 3.74875 3.25125 6.54753 3.25125 10C3.25125 13.4525 6.05003 16.2513 9.5025 16.2513C12.955 16.2513 15.7537 13.4525 15.7537 10C15.7537 6.54753 12.955 3.74875 9.5025 3.74875ZM12.0226 6.91513L8.13334 10.8044L6.5922 9.26328L6.49405 9.17661C6.08533 8.85881 5.49435 8.8877 5.11877 9.26328C4.71189 9.67016 4.71189 10.3298 5.11877 10.7367L7.39662 13.0146L7.49478 13.1012C7.90349 13.419 8.49448 13.3902 8.87006 13.0146L13.4961 8.38857L13.5827 8.29041C13.9005 7.8817 13.8716 7.29071 13.4961 6.91513C13.0892 6.50826 12.4295 6.50826 12.0226 6.91513Z" fill="#F9C034"/>
</svg>
