<svg width="20" height="20" viewBox="0 0 20 20" fill="none" xmlns="http://www.w3.org/2000/svg">
<path fill-rule="evenodd" clip-rule="evenodd" d="M9.4976 1.66504C14.1009 1.66504 17.8326 5.39675 17.8326 10C17.8326 14.6033 14.1009 18.335 9.4976 18.335C4.8943 18.335 1.1626 14.6033 1.1626 10C1.1626 5.39675 4.8943 1.66504 9.4976 1.66504ZM9.49762 3.74875C6.04515 3.74875 3.24637 6.54753 3.24637 10C3.24637 13.4525 6.04515 16.2513 9.49762 16.2513C12.9501 16.2513 15.7489 13.4525 15.7489 10C15.7489 6.54753 12.9501 3.74875 9.49762 3.74875ZM12.0178 6.91513L8.12846 10.8044L6.58733 9.26328L6.48918 9.17661C6.08046 8.85881 5.48947 8.8877 5.11389 9.26328C4.70702 9.67016 4.70702 10.3298 5.11389 10.7367L7.39175 13.0146L7.4899 13.1012C7.89862 13.419 8.4896 13.3902 8.86518 13.0146L13.4912 8.38857L13.5779 8.29041C13.8957 7.8817 13.8668 7.29071 13.4912 6.91513C13.0843 6.50826 12.4246 6.50826 12.0178 6.91513Z" fill="white"/>
</svg>
