<svg width="19" height="18" viewBox="0 0 19 18" fill="none" xmlns="http://www.w3.org/2000/svg">
<path d="M3.23047 8.62488C3.23047 8.32651 3.349 8.04036 3.55998 7.82938C3.77097 7.6184 4.05713 7.49988 4.3555 7.49988C4.65388 7.49988 4.94004 7.6184 5.15103 7.82938C5.36201 8.04036 5.48054 8.32651 5.48054 8.62488V10.4999H14.4808V8.62488C14.4808 8.32651 14.5994 8.04036 14.8103 7.82938C15.0213 7.6184 15.3075 7.49988 15.6059 7.49988C15.9042 7.49988 16.1904 7.6184 16.4014 7.82938C16.6124 8.04036 16.7309 8.32651 16.7309 8.62488V12.3749C16.7309 12.6732 16.6124 12.9594 16.4014 13.1704C16.1904 13.3813 15.9042 13.4999 15.6059 13.4999H4.3555C4.05713 13.4999 3.77097 13.3813 3.55998 13.1704C3.349 12.9594 3.23047 12.6732 3.23047 12.3749V8.62488Z" fill="white"/>
<path d="M5.10547 5.62653C5.10547 5.32816 5.224 5.04201 5.43498 4.83103C5.64597 4.62005 5.93213 4.50153 6.2305 4.50153H13.7307C14.0291 4.50153 14.3153 4.62005 14.5263 4.83103C14.7372 5.04201 14.8558 5.32816 14.8558 5.62653V6.90753C14.5213 7.0535 14.2367 7.29389 14.0369 7.59924C13.837 7.90458 13.7306 8.2616 13.7307 8.62653V9.75153H6.2305V8.62653C6.23061 8.2616 6.12422 7.90458 5.92438 7.59924C5.72454 7.29389 5.43994 7.0535 5.10547 6.90753V5.62653Z" fill="white"/>
</svg>
