<svg width="91" height="84" viewBox="0 0 91 84" fill="none" xmlns="http://www.w3.org/2000/svg">
<path d="M30.8989 0L33.1854 9.29071C34.4795 14.5494 35.1266 17.1787 36.501 19.2991C37.7164 21.1742 39.3353 22.754 41.2395 23.9232C43.3929 25.2454 46.0373 25.828 51.326 26.9933L61.7246 29.2844L51.326 31.5755C46.0373 32.7408 43.3929 33.3234 41.2395 34.6456C39.3353 35.8148 37.7164 37.3946 36.501 39.2697C35.1266 41.3901 34.4795 44.0194 33.1854 49.2781L30.8989 58.5688L28.6125 49.2781C27.3183 44.0194 26.6713 41.3901 25.2968 39.2697C24.0815 37.3946 22.4625 35.8148 20.5584 34.6456C18.405 33.3234 15.7606 32.7408 10.4719 31.5755L0.0732422 29.2844L10.4719 26.9933C15.7606 25.828 18.405 25.2454 20.5584 23.9232C22.4625 22.754 24.0815 21.1742 25.2968 19.2991C26.6713 17.1787 27.3183 14.5494 28.6125 9.2907L30.8989 0Z" fill="black"/>
<path d="M71.2749 46.2385L71.4766 47.0675C72.7574 52.3307 73.3977 54.9623 74.7671 57.0867C75.9779 58.9652 77.5932 60.5494 79.4949 61.7235C81.6455 63.0512 84.2891 63.6403 89.5762 64.8184L90.9263 65.1193L89.5762 65.4201C84.2891 66.5982 81.6455 67.1873 79.4949 68.515C77.5932 69.6891 75.9779 71.2733 74.7671 73.1518C73.3977 75.2762 72.7574 77.9078 71.4766 83.1711L71.2749 84L71.0732 83.1711C69.7925 77.9078 69.1521 75.2762 67.7828 73.1518C66.5719 71.2733 64.9566 69.6891 63.0549 68.515C60.9043 67.1873 58.2608 66.5982 52.9736 65.4201L51.6235 65.1193L52.9736 64.8184C58.2608 63.6403 60.9043 63.0512 63.0549 61.7235C64.9566 60.5494 66.5719 58.9652 67.7828 57.0867C69.1521 54.9623 69.7925 52.3307 71.0732 47.0675L71.2749 46.2385Z" fill="black"/>
</svg>
