<svg width="27" height="26" viewBox="0 0 27 26" fill="none" xmlns="http://www.w3.org/2000/svg">
<path d="M19.5097 9.36159C21.1843 10.558 23.2358 11.262 25.4515 11.262V7.0007C25.0321 7.00079 24.6139 6.95704 24.2036 6.87017V10.2244C21.9882 10.2244 19.937 9.52055 18.262 8.32419V17.0204C18.262 21.3707 14.7335 24.897 10.3813 24.897C8.7574 24.897 7.24797 24.4064 5.99414 23.5648C7.42522 25.0273 9.42094 25.9345 11.6288 25.9345C15.9814 25.9345 19.5099 22.4082 19.5099 18.0577V9.36159H19.5097ZM21.0491 5.06245C20.1933 4.12797 19.6313 2.92032 19.5097 1.58517V1.03711H18.3273C18.6249 2.73401 19.6403 4.18374 21.0491 5.06245ZM8.74691 20.2265C8.26877 19.6 8.01031 18.8334 8.01147 18.0452C8.01147 16.0556 9.62535 14.4424 11.6165 14.4424C11.9875 14.4422 12.3563 14.4991 12.71 14.6112V10.2546C12.2967 10.198 11.8796 10.1739 11.4627 10.1827V13.5737C11.1089 13.4615 10.7399 13.4046 10.3687 13.405C8.37762 13.405 6.76383 15.018 6.76383 17.0079C6.76383 18.415 7.57046 19.6331 8.74691 20.2265Z" fill="#FF004F"/>
<path d="M18.262 8.3241C19.937 9.52046 21.988 10.2243 24.2036 10.2243V6.87007C22.9669 6.60676 21.8721 5.96088 21.049 5.06245C19.6401 4.18365 18.6249 2.73392 18.3272 1.03711H15.2213V18.0575C15.2142 20.0418 13.6031 21.6484 11.6163 21.6484C10.4456 21.6484 9.40538 21.0906 8.74668 20.2265C7.57041 19.6331 6.76369 18.4149 6.76369 17.008C6.76369 15.0183 8.37748 13.405 10.3685 13.405C10.75 13.405 11.1177 13.4644 11.4626 13.5738V10.1828C7.18677 10.2711 3.74805 13.763 3.74805 18.0576C3.74805 20.2014 4.60434 22.1449 5.99418 23.5649C7.24801 24.4064 8.75735 24.8972 10.3814 24.8972C14.7337 24.8972 18.2621 21.3706 18.2621 17.0204L18.262 8.3241Z" fill="black"/>
<path d="M24.2033 6.87028V5.9635C23.0881 5.96519 21.9949 5.65304 21.0487 5.06274C21.8862 5.9792 22.9891 6.6112 24.2033 6.87046M18.3268 1.03731C18.2985 0.875179 18.2767 0.711961 18.2616 0.548062V0H13.973V17.0206C13.9662 19.0047 12.3551 20.6113 10.3681 20.6113C9.80486 20.6121 9.24928 20.4805 8.74628 20.2269C9.40497 21.0909 10.4452 21.6486 11.6159 21.6486C13.6026 21.6486 15.2139 20.0421 15.2209 18.0579V1.0374L18.3268 1.03731ZM11.4625 10.183V9.21754C11.1041 9.16855 10.7428 9.14405 10.3811 9.1442C6.02838 9.1442 2.5 12.6707 2.5 17.0206C2.5 19.7478 3.8867 22.1513 5.99395 23.5651C4.60412 22.1451 3.74782 20.2016 3.74782 18.0578C3.74782 13.7633 7.18646 10.2713 11.4625 10.183Z" fill="#00F2EA"/>
</svg>
