<svg width="45" height="32" viewBox="0 0 45 32" fill="none" xmlns="http://www.w3.org/2000/svg">
<g clip-path="url(#clip0_4190_2794)">
<path d="M40.1428 0H4.52373C2.20939 0 0.333252 1.91025 0.333252 4.26667V27.7333C0.333252 30.0898 2.20939 32 4.52373 32H40.1428C42.4571 32 44.3333 30.0898 44.3333 27.7333V4.26667C44.3333 1.91025 42.4571 0 40.1428 0Z" fill="white"/>
<path fill-rule="evenodd" clip-rule="evenodd" d="M0.333252 22H44.3333V32H0.333252V22ZM0.333252 0H44.3333V10H0.333252V0Z" fill="#3ECBF8"/>
<path d="M22.3333 19.2C24.069 19.2 25.4761 17.7674 25.4761 16C25.4761 14.2327 24.069 12.8 22.3333 12.8C20.5975 12.8 19.1904 14.2327 19.1904 16C19.1904 17.7674 20.5975 19.2 22.3333 19.2Z" fill="#FFDA2C"/>
</g>
<defs>
<clipPath id="clip0_4190_2794">
<rect x="0.333252" width="44" height="32" rx="4" fill="white"/>
</clipPath>
</defs>
</svg>
