<svg width="45" height="32" viewBox="0 0 45 32" fill="none" xmlns="http://www.w3.org/2000/svg">
<rect x="0.666748" width="44" height="32" rx="4" fill="#249F58"/>
<path fill-rule="evenodd" clip-rule="evenodd" d="M22.6667 4.2666L38.381 15.9999L22.6667 27.7333L6.95239 15.9999" fill="#FFDA2C"/>
<path d="M22.6668 23.4665C26.7169 23.4665 30.0002 20.1236 30.0002 15.9999C30.0002 11.8761 26.7169 8.5332 22.6668 8.5332C18.6167 8.5332 15.3335 11.8761 15.3335 15.9999C15.3335 20.1236 18.6167 23.4665 22.6668 23.4665Z" fill="#1A47B8"/>
<path fill-rule="evenodd" clip-rule="evenodd" d="M19.5239 19.2V21.3333H21.6192V19.2H19.5239ZM23.7144 19.2V21.3333H25.8096V19.2H23.7144Z" fill="white"/>
<path fill-rule="evenodd" clip-rule="evenodd" d="M17.4287 12.8C17.4287 12.8 22.1723 13.6534 25.5918 15.1424L30.0001 17.0667" fill="white"/>
<path d="M17.4287 12.8C17.4287 12.8 22.1723 13.6534 25.5918 15.1424L30.0001 17.0667" stroke="white" stroke-width="2"/>
</svg>
