<svg width="44" height="32" viewBox="0 0 44 32" fill="none" xmlns="http://www.w3.org/2000/svg">
<g clip-path="url(#clip0_4190_16058)">
<rect width="43.9999" height="31.9999" rx="3.99999" fill="white"/>
<path d="M22.4706 24H21.5294L21.7647 20.5405C21.7514 20.3583 21.6562 20.3104 21.2941 20.3243L17.5294 20.7567C17.5294 20.7567 18.2353 19.8919 18.2353 19.4594C18.2353 19.027 14 16.2162 14 16.2162C14 16.2162 14.9412 16 15.1765 15.7838C15.4118 15.5676 14.2353 13.1892 14.2353 13.1892C14.2353 13.1892 16.6264 14.054 16.8235 13.8378C17.0206 13.6216 17.2941 12.7567 17.2941 12.7567C17.2941 12.7567 19.1765 14.7027 19.647 14.7027C20.1176 14.7027 18.7059 9.94594 18.7059 9.94594C18.7059 9.94594 19.8823 10.8108 20.3529 10.8108C20.8235 10.8108 22 8 22 8C22 8 23.1765 10.8108 23.4117 10.8108C23.647 10.8108 25.2941 9.94594 25.2941 9.94594C25.2941 9.94594 24.1176 14.4865 24.3529 14.7027C24.5882 14.9189 26.7059 12.7567 26.7059 12.7567C26.7059 12.7567 26.9412 13.6216 27.1764 13.8378C27.4117 14.054 29.7647 13.1892 29.7647 13.1892C29.7647 13.1892 28.5882 15.5676 28.8235 15.7838C29.0588 16 30 16.2162 30 16.2162C30 16.2162 25.7647 19.027 25.7647 19.4594C25.7647 19.8919 26.2353 20.7567 26.2353 20.7567L22.7059 20.3243C22.4222 20.2496 22.3238 20.3063 22.2353 20.5405L22.4706 24Z" fill="#F93939"/>
<rect x="34" width="9.99998" height="31.9999" fill="#F93939"/>
<rect width="9.99998" height="31.9999" fill="#F93939"/>
</g>
<defs>
<clipPath id="clip0_4190_16058">
<rect width="43.9999" height="31.9999" rx="3.99999" fill="white"/>
</clipPath>
</defs>
</svg>
