<svg width="44" height="32" viewBox="0 0 44 32" fill="none" xmlns="http://www.w3.org/2000/svg">
<g clip-path="url(#clip0_4190_18126)">
<path d="M39.8095 0H4.19048C1.87614 0 0 1.91025 0 4.26667V27.7333C0 30.0898 1.87614 32 4.19048 32H39.8095C42.1239 32 44 30.0898 44 27.7333V4.26667C44 1.91025 42.1239 0 39.8095 0Z" fill="#1A47B8"/>
<path fill-rule="evenodd" clip-rule="evenodd" d="M0 24H44V32H0V24Z" fill="#F93939"/>
<path fill-rule="evenodd" clip-rule="evenodd" d="M0 0H44V16H0V0Z" fill="#FFDA2C"/>
<path fill-rule="evenodd" clip-rule="evenodd" d="M12.5715 8.5332H18.8572L22.0001 10.6665L25.143 8.5332H31.4287L25.143 10.6665L23.0477 12.7999H20.9525L18.8572 10.6665L12.5715 8.5332Z" fill="#151515"/>
<path d="M22 21.3334C23.7358 21.3334 25.1429 19.4231 25.1429 17.0667C25.1429 14.7103 23.7358 12.8 22 12.8C20.2643 12.8 18.8572 14.7103 18.8572 17.0667C18.8572 19.4231 20.2643 21.3334 22 21.3334Z" fill="#3ECBF8"/>
<path fill-rule="evenodd" clip-rule="evenodd" d="M16.762 14.9333V19.2L20.9525 21.3334H23.0477L27.2382 19.2V14.9333L29.3334 19.2L27.2382 21.3334L23.0477 23.4667H20.9525L16.762 21.3334L14.6667 19.2L16.762 14.9333Z" fill="#FFDA2C"/>
</g>
<defs>
<clipPath id="clip0_4190_18126">
<rect width="44" height="32" rx="4" fill="white"/>
</clipPath>
</defs>
</svg>
