<svg width="45" height="32" viewBox="0 0 45 32" fill="none" xmlns="http://www.w3.org/2000/svg">
<g clip-path="url(#clip0_4190_113119)">
<rect x="0.666748" width="44" height="32" rx="4" fill="white"/>
<path fill-rule="evenodd" clip-rule="evenodd" d="M0.666748 22H44.6668V32H0.666748V22ZM0.666748 0H44.6668V10H0.666748V0Z" fill="#1A47B8"/>
<path d="M22.6668 19.2C24.4025 19.2 25.8096 17.7674 25.8096 16C25.8096 14.2327 24.4025 12.8 22.6668 12.8C20.931 12.8 19.5239 14.2327 19.5239 16C19.5239 17.7674 20.931 19.2 22.6668 19.2Z" fill="#1A47B8"/>
<path d="M22.6668 17.0667C23.2453 17.0667 23.7144 16.5891 23.7144 16C23.7144 15.4109 23.2453 14.9333 22.6668 14.9333C22.0882 14.9333 21.6191 15.4109 21.6191 16C21.6191 16.5891 22.0882 17.0667 22.6668 17.0667Z" fill="#FFDA2C"/>
<path fill-rule="evenodd" clip-rule="evenodd" d="M17.4287 14.9333L19.5239 17.0667L22.6668 19.2L25.8097 17.0667L27.9049 14.9333L25.8097 19.2H19.5239L17.4287 14.9333Z" fill="#249F58"/>
</g>
<defs>
<clipPath id="clip0_4190_113119">
<rect x="0.666748" width="44" height="32" rx="4" fill="white"/>
</clipPath>
</defs>
</svg>
