<svg width="44" height="32" viewBox="0 0 44 32" fill="none" xmlns="http://www.w3.org/2000/svg">
<g clip-path="url(#clip0_4190_78519)">
<rect width="44" height="32" rx="4" fill="white"/>
<path d="M39.8095 0H4.19048C1.87614 0 0 1.91025 0 4.26667V27.7333C0 30.0898 1.87614 32 4.19048 32H39.8095C42.1239 32 44 30.0898 44 27.7333V4.26667C44 1.91025 42.1239 0 39.8095 0Z" fill="white"/>
<path fill-rule="evenodd" clip-rule="evenodd" d="M12.5169 10.6111C12.3786 11.8826 11.9847 12.7999 11.5237 12.7999C11.0628 12.7999 10.6689 11.8826 10.5306 10.6111C9.28181 10.4703 8.38086 10.0692 8.38086 9.5999C8.38086 9.13057 9.28181 8.7295 10.5306 8.5887C10.6689 7.31724 11.0628 6.3999 11.5237 6.3999C11.9847 6.3999 12.3786 7.31724 12.5169 8.5887C13.7656 8.7295 14.6666 9.13057 14.6666 9.5999C14.6666 10.0692 13.7656 10.4703 12.5169 10.6111Z" fill="#1A47B8"/>
<path fill-rule="evenodd" clip-rule="evenodd" d="M33.4693 25.5445C33.331 26.8159 32.9371 27.7333 32.4761 27.7333C32.0152 27.7333 31.6213 26.8159 31.483 25.5445C30.2342 25.4037 29.3333 25.0026 29.3333 24.5333C29.3333 24.0639 30.2342 23.6629 31.483 23.5221C31.6213 22.2506 32.0131 21.3333 32.4761 21.3333C32.9371 21.3333 33.331 22.2506 33.4693 23.5221C34.718 23.6629 35.619 24.0618 35.619 24.5333C35.619 25.0026 34.718 25.4037 33.4693 25.5445Z" fill="#F93939"/>
<path fill-rule="evenodd" clip-rule="evenodd" d="M0 16H22V32H0V16Z" fill="#1A47B8"/>
<path fill-rule="evenodd" clip-rule="evenodd" d="M22 0H44V16H22V0Z" fill="#F93939"/>
</g>
<defs>
<clipPath id="clip0_4190_78519">
<rect width="44" height="32" rx="4" fill="white"/>
</clipPath>
</defs>
</svg>
