<svg width="44" height="32" viewBox="0 0 44 32" fill="none" xmlns="http://www.w3.org/2000/svg">
<rect width="44" height="32" rx="4" fill="white"/>
<path fill-rule="evenodd" clip-rule="evenodd" d="M20.9524 6.3999H44V10.6666H20.9524V6.3999ZM20.9524 14.9332H44V19.1999H20.9524V14.9332ZM0 23.4666H44V27.7332H0V23.4666Z" fill="#3A99FF"/>
<path fill-rule="evenodd" clip-rule="evenodd" d="M14.4152 14.6773C13.9333 17.3333 12.8228 19.1999 11.5238 19.1999C10.2247 19.1999 9.11424 17.3354 8.63233 14.6773C6.02376 14.1866 4.19043 13.0559 4.19043 11.7333C4.19043 10.4106 6.02167 9.27993 8.63233 8.78927C9.11424 6.13327 10.2247 4.2666 11.5238 4.2666C12.8228 4.2666 13.9333 6.13113 14.4152 8.78927C17.0238 9.27993 18.8571 10.4106 18.8571 11.7333C18.8571 13.0559 17.0259 14.1866 14.4152 14.6773Z" fill="#D4AF2C"/>
<path fill-rule="evenodd" clip-rule="evenodd" d="M12.9632 13.1989C12.8291 16.6186 12.2361 19.1999 11.5238 19.1999C10.8114 19.1999 10.2184 16.6186 10.0843 13.1989C6.72567 13.0623 4.19043 12.4586 4.19043 11.7333C4.19043 11.0079 6.72567 10.4042 10.0843 10.2677C10.2184 6.84794 10.8114 4.2666 11.5238 4.2666C12.2361 4.2666 12.8291 6.84794 12.9632 10.2677C16.3219 10.4042 18.8571 11.0079 18.8571 11.7333C18.8571 12.4586 16.3219 13.0623 12.9632 13.1989Z" fill="#FFDA2C"/>
<path d="M11.5237 14.9332C13.2595 14.9332 14.6666 13.5005 14.6666 11.7332C14.6666 9.96589 13.2595 8.5332 11.5237 8.5332C9.78796 8.5332 8.38086 9.96589 8.38086 11.7332C8.38086 13.5005 9.78796 14.9332 11.5237 14.9332Z" fill="#FFDA2C"/>
</svg>
