<svg width="44" height="32" viewBox="0 0 44 32" fill="none" xmlns="http://www.w3.org/2000/svg">
<g clip-path="url(#clip0_4190_7317)">
<rect width="44" height="32" rx="4" fill="white"/>
<path fill-rule="evenodd" clip-rule="evenodd" d="M0 0H18.8571V14.9333H0V0Z" fill="#1A47B8"/>
<path fill-rule="evenodd" clip-rule="evenodd" d="M18.8571 0V2.13333H44V0H18.8571ZM18.8571 4.26667V6.4H44V4.26667H18.8571ZM18.8571 8.53333V10.6667H44V8.53333H18.8571ZM18.8571 12.8V14.9333H44V12.8H18.8571ZM0 17.0667V19.2H44V17.0667H0ZM0 21.3333V23.4667H44V21.3333H0ZM0 25.6V27.7333H44V25.6H0ZM0 29.8667V32H44V29.8667H0Z" fill="#F93939"/>
<path fill-rule="evenodd" clip-rule="evenodd" d="M2.09521 2.1333V4.26663H4.19045V2.1333H2.09521ZM6.28569 2.1333V4.26663H8.38093V2.1333H6.28569ZM10.4762 2.1333V4.26663H12.5714V2.1333H10.4762ZM14.6666 2.1333V4.26663H16.7619V2.1333H14.6666ZM12.5714 4.26663V6.39997H14.6666V4.26663H12.5714ZM8.38093 4.26663V6.39997H10.4762V4.26663H8.38093ZM4.19045 4.26663V6.39997H6.28569V4.26663H4.19045ZM2.09521 6.39997V8.5333H4.19045V6.39997H2.09521ZM6.28569 6.39997V8.5333H8.38093V6.39997H6.28569ZM10.4762 6.39997V8.5333H12.5714V6.39997H10.4762ZM14.6666 6.39997V8.5333H16.7619V6.39997H14.6666ZM2.09521 10.6666V12.8H4.19045V10.6666H2.09521ZM6.28569 10.6666V12.8H8.38093V10.6666H6.28569ZM10.4762 10.6666V12.8H12.5714V10.6666H10.4762ZM14.6666 10.6666V12.8H16.7619V10.6666H14.6666ZM12.5714 8.5333V10.6666H14.6666V8.5333H12.5714ZM8.38093 8.5333V10.6666H10.4762V8.5333H8.38093ZM4.19045 8.5333V10.6666H6.28569V8.5333H4.19045Z" fill="white"/>
</g>
<defs>
<clipPath id="clip0_4190_7317">
<rect width="44" height="32" rx="4" fill="white"/>
</clipPath>
</defs>
</svg>
