<svg width="44" height="33" viewBox="0 0 44 33" fill="none" xmlns="http://www.w3.org/2000/svg">
<rect y="0.5" width="44" height="32" rx="4" fill="#F93939"/>
<path fill-rule="evenodd" clip-rule="evenodd" d="M29.3375 18.9576L26.9028 20.2589L27.368 17.5005L25.3984 15.5443L28.1222 15.1389L29.3375 12.6301L30.5527 15.1411L33.2765 15.5464L31.307 17.4984L31.7722 20.2568" fill="white"/>
<path fill-rule="evenodd" clip-rule="evenodd" d="M19.9049 23.9667C23.955 23.9667 27.2382 20.6237 27.2382 16.5C27.2382 12.3763 23.955 9.03333 19.9049 9.03333C15.8548 9.03333 12.5715 12.3763 12.5715 16.5C12.5715 20.6237 15.8548 23.9667 19.9049 23.9667ZM22.0001 21.8333C24.8915 21.8333 27.2382 19.444 27.2382 16.5C27.2382 13.556 24.8915 11.1667 22.0001 11.1667C19.1087 11.1667 16.762 13.556 16.762 16.5C16.762 19.444 19.1087 21.8333 22.0001 21.8333Z" fill="white"/>
</svg>
