<svg width="44" height="33" viewBox="0 0 44 33" fill="none" xmlns="http://www.w3.org/2000/svg">
<g clip-path="url(#clip0_29_181191)">
<rect y="0.5" width="44" height="32" rx="4" fill="#249F58"/>
<path d="M39.8095 0.5H4.19048C1.87614 0.5 0 2.41025 0 4.76667V28.2333C0 30.5898 1.87614 32.5 4.19048 32.5H39.8095C42.1239 32.5 44 30.5898 44 28.2333V4.76667C44 2.41025 42.1239 0.5 39.8095 0.5Z" fill="#249F58"/>
<path d="M20 26.5C25.5228 26.5 30 22.0228 30 16.5C30 10.9772 25.5228 6.5 20 6.5C14.4772 6.5 10 10.9772 10 16.5C10 22.0228 14.4772 26.5 20 26.5Z" fill="#F93939"/>
</g>
<defs>
<clipPath id="clip0_29_181191">
<rect y="0.5" width="44" height="32" rx="4" fill="white"/>
</clipPath>
</defs>
</svg>
