<svg width="44" height="33" viewBox="0 0 44 33" fill="none" xmlns="http://www.w3.org/2000/svg">
<g clip-path="url(#clip0_29_181055)">
<rect y="0.5" width="44" height="32" rx="4" fill="#F93939"/>
<path d="M39.8095 0.5H4.19048C1.87614 0.5 0 2.41025 0 4.76667V28.2333C0 30.5898 1.87614 32.5 4.19048 32.5H39.8095C42.1239 32.5 44 30.5898 44 28.2333V4.76667C44 2.41025 42.1239 0.5 39.8095 0.5Z" fill="#F93939"/>
<path fill-rule="evenodd" clip-rule="evenodd" d="M11.5198 15.9239L8.43983 17.573L9.0265 14.0807L6.53735 11.606L9.97983 11.1004L11.5198 7.92177L13.0577 11.1004L16.5002 11.606L14.0069 14.0807L14.5977 17.5708L11.5198 15.9239ZM18.8574 6.8999H20.9526V9.03324H18.8574V6.8999ZM20.9526 11.1666H23.0478V13.2999H20.9526V11.1666ZM20.9526 15.4332H23.0478V17.5666H20.9526V15.4332ZM18.8574 19.6999H20.9526V21.8332H18.8574V19.6999Z" fill="#FFDA2C"/>
</g>
<defs>
<clipPath id="clip0_29_181055">
<rect y="0.5" width="44" height="32" rx="4" fill="white"/>
</clipPath>
</defs>
</svg>
