<svg width="44" height="33" viewBox="0 0 44 33" fill="none" xmlns="http://www.w3.org/2000/svg">
<g clip-path="url(#clip0_29_180514)">
<rect y="0.5" width="44" height="32" rx="4" fill="#0A6A30"/>
<path fill-rule="evenodd" clip-rule="evenodd" d="M33.4693 13.2445C33.331 14.516 32.9371 15.4333 32.4762 15.4333C32.0152 15.4333 31.6213 14.516 31.483 13.2445C30.2343 13.1037 29.3333 12.7027 29.3333 12.2333C29.3333 11.764 30.2343 11.3629 31.483 11.2221C31.6213 9.95067 32.0152 9.03333 32.4762 9.03333C32.9371 9.03333 33.331 9.95067 33.4693 11.2221C34.7181 11.3629 35.619 11.764 35.619 12.2333C35.619 12.7027 34.7181 13.1037 33.4693 13.2445ZM0 0.5H12V32.5H0V0.5Z" fill="white"/>
<path fill-rule="evenodd" clip-rule="evenodd" d="M37.6515 15.3651C37.6934 15.7384 37.7143 16.116 37.7143 16.5C37.7143 21.8014 33.4924 26.1 28.2857 26.1C23.0791 26.1 18.8572 21.8014 18.8572 16.5C18.8572 11.1987 23.0791 6.90002 28.2857 6.90002C28.6629 6.90002 29.0337 6.92136 29.4004 6.96402C25.8134 7.45469 23.0477 10.5843 23.0477 14.3667C23.0477 18.4904 26.3309 21.8334 30.381 21.8334C34.0979 21.8334 37.1696 19.0174 37.6515 15.3651Z" fill="white"/>
</g>
<defs>
<clipPath id="clip0_29_180514">
<rect y="0.5" width="44" height="32" rx="4" fill="white"/>
</clipPath>
</defs>
</svg>
