<svg width="100" height="102" viewBox="0 0 100 102" fill="none" xmlns="http://www.w3.org/2000/svg">
<path d="M49.9996 8.84961C27.0076 8.84961 8.43164 28.2496 8.43164 52.1495C8.43164 76.0494 27.0556 95.4494 49.9996 95.4494C72.9436 95.4494 91.5676 76.0494 91.5676 52.1495C91.5676 28.2496 72.9436 8.84961 49.9996 8.84961ZM49.9996 93.0494C39.5356 93.0494 29.6476 88.7994 22.2556 81.0494C14.8636 73.3494 10.7356 63.0495 10.7356 52.1495C10.7356 41.2495 14.8156 30.9496 22.2556 23.2496C29.6476 15.5496 39.5356 11.2496 49.9996 11.2496C60.4636 11.2496 70.3516 15.4996 77.7436 23.2496C85.1356 30.9496 89.2636 41.2495 89.2636 52.1495C89.2636 63.0495 85.1836 73.3494 77.7436 81.0494C70.3516 88.7994 60.4636 93.0494 49.9996 93.0494Z" fill="url(#paint0_linear_4922_22331)"/>
<path opacity="0.5" d="M49.9998 94.2999C31.2318 94.2999 15.3438 81.55 9.96777 64C14.9118 82.2 30.9438 95.4999 49.9998 95.4999C69.0558 95.4999 85.0878 82.2 90.0318 64C84.6558 81.55 68.7678 94.2999 49.9998 94.2999Z" fill="url(#paint1_linear_4922_22331)"/>
<path d="M78.5115 22.4504C70.8795 14.5004 60.7515 10.1504 49.9515 10.1504C39.1515 10.1504 29.0235 14.5004 21.3915 22.4504C13.7595 30.4003 9.5835 40.9503 9.5835 52.2003C9.5835 63.4502 13.7595 74.0002 21.3915 81.9502C29.0235 89.9002 39.1515 94.2502 49.9515 94.2502C60.7515 94.2502 70.8795 89.9002 78.5115 81.9502C86.1435 74.0002 90.3195 63.4502 90.3195 52.2003C90.3675 40.9503 86.1435 30.4003 78.5115 22.4504ZM77.7435 81.1002C70.3515 88.8002 60.4635 93.1002 49.9995 93.1002C39.5355 93.1002 29.6475 88.8502 22.2555 81.1002C14.8635 73.4002 10.7355 63.1003 10.7355 52.2003C10.7355 41.3003 14.8155 31.0003 22.2555 23.3004C29.6475 15.6004 39.5355 11.3004 49.9995 11.3004C60.4635 11.3004 70.3515 15.5504 77.7435 23.3004C85.1355 31.0003 89.2635 41.3003 89.2635 52.2003C89.2635 63.1003 85.1835 73.3502 77.7435 81.1002Z" fill="url(#paint2_linear_4922_22331)"/>
<path opacity="0.5" d="M89.9844 40.3495C85.0404 22.1496 69.0084 8.84961 49.9524 8.84961C30.8964 8.84961 14.8644 22.1496 9.92041 40.3495C15.2484 22.7996 31.1844 10.1496 49.9524 10.1496C68.7684 10.1496 84.6564 22.7996 89.9844 40.3495Z" fill="url(#paint3_linear_4922_22331)"/>
<path d="M76.6875 24.3496C69.5355 16.8996 60.0795 12.8496 49.9995 12.8496C39.9195 12.8496 30.4155 16.9496 23.3115 24.3496C16.1595 31.7996 12.2715 41.6495 12.2715 52.1495C12.2715 62.6495 16.2075 72.5495 23.3115 79.9494C30.4635 87.3994 39.9195 91.4494 49.9995 91.4494C60.0795 91.4494 69.5835 87.3494 76.6875 79.9494C83.8395 72.4995 87.7275 62.6495 87.7275 52.1495C87.7755 41.6495 83.8395 31.7996 76.6875 24.3496ZM49.9995 89.0994C40.5435 89.0994 31.6155 85.2494 24.9435 78.2995C18.2235 71.2995 14.5755 62.0495 14.5755 52.1995C14.5755 42.3495 18.2715 33.0496 24.9435 26.0996C31.6635 19.0996 40.5435 15.2996 49.9995 15.2996C59.4555 15.2996 68.3835 19.1496 75.0555 26.0996C81.7755 33.0996 85.4235 42.3495 85.4235 52.1995C85.4235 62.0495 81.7275 71.3495 75.0555 78.2995C68.3835 85.2494 59.4555 89.0994 49.9995 89.0994Z" fill="url(#paint4_linear_4922_22331)"/>
<path opacity="0.5" d="M77.2156 78.6988C69.9196 86.1488 60.2716 90.1988 49.9996 90.1988C39.7276 90.1988 30.0316 86.0988 22.7836 78.6988C20.2396 76.0988 18.0796 73.1488 16.3516 70.0488C18.1276 73.6988 20.4796 77.0488 23.3116 79.9988C30.4636 87.4488 39.9196 91.4988 49.9996 91.4988C60.0796 91.4988 69.5836 87.3988 76.6876 79.9988C79.5196 77.0488 81.8716 73.6988 83.6476 70.0488C81.9196 73.1988 79.8076 76.0988 77.2156 78.6988Z" fill="url(#paint5_linear_4922_22331)"/>
<path opacity="0.5" d="M83.6476 34.2996C81.8716 30.6496 79.5196 27.2996 76.6876 24.3496C69.5356 16.8996 60.0796 12.8496 49.9996 12.8496C39.9196 12.8496 30.4156 16.9496 23.3116 24.3496C20.4796 27.2996 18.1276 30.6496 16.3516 34.2996C18.0796 31.1496 20.2396 28.2496 22.7836 25.6496C30.0796 18.1996 39.7276 14.1496 49.9996 14.1496C60.2716 14.1496 69.9676 18.2496 77.2156 25.6496C79.8076 28.2496 81.9196 31.1496 83.6476 34.2996Z" fill="url(#paint6_linear_4922_22331)"/>
<path d="M75.8235 25.2496C68.9115 18.0496 59.7435 14.0996 49.9515 14.0996C40.2075 14.0996 30.9915 18.0496 24.0795 25.2496C17.1675 32.4496 13.3755 41.9995 13.3755 52.1995C13.3755 62.3495 17.1675 71.9495 24.0795 79.1495C30.9915 86.3494 40.1595 90.2994 49.9515 90.2994C59.6955 90.2994 68.9115 86.3494 75.8235 79.1495C82.7355 71.9495 86.5275 62.3995 86.5275 52.1995C86.5275 41.9995 82.7355 32.4496 75.8235 25.2496ZM75.0555 78.2995C68.3355 85.2994 59.4555 89.0994 49.9995 89.0994C40.5435 89.0994 31.6155 85.2495 24.9435 78.2995C18.2235 71.2995 14.5755 62.0495 14.5755 52.1995C14.5755 42.3495 18.2715 33.0496 24.9435 26.0996C31.6635 19.0996 40.5435 15.2996 49.9995 15.2996C59.4555 15.2996 68.3835 19.1496 75.0555 26.0996C81.7755 33.0996 85.4235 42.3495 85.4235 52.1995C85.4235 62.0495 81.7755 71.2995 75.0555 78.2995Z" fill="url(#paint7_linear_4922_22331)"/>
<path opacity="0.5" d="M32.3829 12.9009C31.7585 14.0516 31.9026 15.2023 32.0947 15.7527L35.9852 13.9515L35.697 11.5L32.3829 12.9009Z" fill="url(#paint8_linear_4922_22331)"/>
<path opacity="0.5" d="M32.5747 17.2504C32.1907 18.0504 32.6707 19.9004 32.6707 19.9004C32.6707 19.9004 37.4227 17.4004 39.7267 16.8004C39.7267 16.8004 39.0067 15.4504 37.7587 14.9004L32.5747 17.2504Z" fill="url(#paint9_linear_4922_22331)"/>
<path opacity="0.5" d="M67.6179 12.9009C68.2423 14.0516 68.0982 15.2023 67.9061 15.7527L64.0156 13.9515L64.3038 11.5L67.6179 12.9009Z" fill="url(#paint10_linear_4922_22331)"/>
<path opacity="0.5" d="M67.4225 17.2504C67.8065 18.0504 67.3265 19.9004 67.3265 19.9004C67.3265 19.9004 62.5745 17.4004 60.2705 16.8004C60.2705 16.8004 60.9905 15.4504 62.2385 14.9004L67.4225 17.2504Z" fill="url(#paint11_linear_4922_22331)"/>
<path d="M72.031 14.8004C72.271 19.1504 68.959 19.7004 66.415 18.7004C64.159 17.8504 64.927 15.5504 66.271 15.9004C66.271 15.9004 65.791 14.8504 64.831 14.0004C64.015 13.2504 62.815 12.7004 61.231 13.1004C57.823 13.9504 56.239 15.4504 56.767 16.6504C56.815 16.5504 57.727 16.0504 58.639 16.3504C59.839 16.8004 60.319 18.4504 59.599 19.9004C58.975 21.1503 56.239 21.7504 54.415 21.1004C52.879 20.6004 51.871 17.2504 55.087 13.4504C57.967 10.1004 62.623 7.70039 65.839 7.65039C68.047 7.65039 70.063 9.35039 71.215 11.5504C71.647 12.6004 71.983 13.7004 72.031 14.8004Z" fill="url(#paint12_linear_4922_22331)"/>
<path opacity="0.5" d="M72.0306 14.7992C72.2706 19.1492 68.9586 19.6992 66.4146 18.6992C64.1586 17.8492 64.9266 15.5492 66.2706 15.8992C66.2706 15.8992 65.7906 14.8492 64.8306 13.9992C65.3586 12.9492 66.1266 11.1992 66.1266 11.1992C68.3346 13.3992 71.3106 12.7492 71.1666 11.5992C71.6466 12.5992 71.9826 13.6992 72.0306 14.7992Z" fill="url(#paint13_linear_4922_22331)"/>
<path d="M68.0471 16.7007C67.4231 18.0007 66.3191 17.1007 66.3191 17.1007C66.3191 17.1007 66.8471 16.6007 66.2711 15.9007C66.2711 15.9007 64.6391 12.2507 61.2311 13.1007C57.8231 13.9507 56.2391 15.4507 56.7671 16.6507C55.9511 17.7007 56.1431 18.5507 56.1431 18.5507C53.9351 12.3507 63.9671 10.6507 65.5991 10.9507C67.1831 11.2507 68.6711 15.3507 68.0471 16.7007Z" fill="url(#paint14_linear_4922_22331)"/>
<path d="M56.1425 18.55C56.4305 19.5 57.6305 19.25 57.6305 19.25C57.6305 19.25 57.1505 20.65 55.8065 20C54.4625 19.4 55.0865 15.7 56.7665 14.25C56.7665 14.25 56.2865 15.95 56.7665 16.6C56.7185 16.65 55.8065 17.55 56.1425 18.55Z" fill="url(#paint15_linear_4922_22331)"/>
<g style="mix-blend-mode:color-dodge" opacity="0.5" filter="url(#filter0_f_4922_22331)">
<path d="M58.9751 10.1014C56.6231 11.6514 62.2391 10.7014 64.5911 10.1514C66.9431 9.6014 67.8551 8.4514 67.4231 7.9514C66.9911 7.45141 63.1991 7.30141 58.9751 10.1014Z" fill="url(#paint16_linear_4922_22331)"/>
</g>
<g opacity="0.5" filter="url(#filter1_f_4922_22331)">
<path d="M68.1904 13.2008C68.2384 14.3008 68.5744 18.0008 68.7664 18.2008C68.9584 18.3508 71.5024 18.4008 71.8384 16.3008C72.1744 14.2008 71.5504 13.0508 70.7344 13.0508C69.8704 13.0508 68.1424 12.5508 68.1904 13.2008Z" fill="url(#paint17_linear_4922_22331)"/>
</g>
<g filter="url(#filter2_f_4922_22331)">
<path d="M62.9106 8.19993C62.9106 8.19993 62.9106 8.90037 64.7358 8.70024C66.561 8.45008 66.2247 7.69961 66.2247 7.69961C66.2247 7.69961 64.5437 7.59955 62.9106 8.19993Z" fill="white"/>
</g>
<g style="mix-blend-mode:color-dodge" opacity="0.5">
<path d="M69.7264 10.3011C69.8224 11.6011 67.6144 12.8511 64.8304 13.0011C62.0464 13.1511 59.7424 12.2511 59.6944 10.9011C59.5984 9.60114 61.8064 8.35113 64.5904 8.20113C67.3744 8.05113 69.6784 9.00114 69.7264 10.3011Z" fill="url(#paint18_radial_4922_22331)"/>
</g>
<g style="mix-blend-mode:color-dodge" opacity="0.5">
<path d="M56.1421 18.5515C56.3822 19.5021 60.2246 18.6015 59.7443 17.6009C59.264 16.6003 58.5436 16.2 57.631 16.3001C56.7184 16.4001 55.9019 17.7009 56.1421 18.5515Z" fill="url(#paint19_linear_4922_22331)"/>
</g>
<path d="M27.7755 14.8004C27.5355 19.1504 30.8475 19.7004 33.3915 18.7004C35.6475 17.8504 34.8795 15.5504 33.5355 15.9004C33.5355 15.9004 34.0155 14.8504 34.9755 14.0004C35.7915 13.2504 36.9915 12.7004 38.5755 13.1004C41.9835 13.9504 43.5675 15.4504 43.0395 16.6504C42.9915 16.5504 42.0795 16.0504 41.1675 16.3504C39.9675 16.8004 39.4875 18.4504 40.2075 19.9004C40.8315 21.1503 43.5675 21.7504 45.3915 21.1004C46.9275 20.6004 47.9355 17.2504 44.7195 13.4504C41.8395 10.1004 37.1835 7.70039 33.9675 7.65039C31.7595 7.65039 29.7435 9.35039 28.5915 11.5504C28.1595 12.6004 27.8235 13.7004 27.7755 14.8004Z" fill="url(#paint20_linear_4922_22331)"/>
<path opacity="0.5" d="M27.775 14.7992C27.535 19.1492 30.847 19.6992 33.391 18.6992C35.647 17.8492 34.879 15.5492 33.535 15.8992C33.535 15.8992 34.015 14.8492 34.975 13.9992C34.447 12.9492 33.679 11.1992 33.679 11.1992C31.471 13.3992 28.495 12.7492 28.639 11.5992C28.159 12.5992 27.823 13.6992 27.775 14.7992Z" fill="url(#paint21_linear_4922_22331)"/>
<path d="M31.7583 16.7007C32.3823 18.0007 33.4863 17.1007 33.4863 17.1007C33.4863 17.1007 32.9583 16.6007 33.5343 15.9007C33.5343 15.9007 35.1663 12.2507 38.5743 13.1007C41.9823 13.9507 43.5663 15.4507 43.0383 16.6507C43.8543 17.7007 43.6623 18.5507 43.6623 18.5507C45.8703 12.3507 35.8383 10.6507 34.2063 10.9507C32.6703 11.2507 31.1343 15.3507 31.7583 16.7007Z" fill="url(#paint22_linear_4922_22331)"/>
<path d="M43.7107 18.55C43.4227 19.5 42.2227 19.25 42.2227 19.25C42.2227 19.25 42.7027 20.65 44.0467 20C45.3907 19.4 44.7667 15.7 43.0867 14.25C43.0867 14.25 43.5667 15.95 43.0867 16.6C43.0867 16.65 44.0467 17.55 43.7107 18.55Z" fill="url(#paint23_linear_4922_22331)"/>
<g style="mix-blend-mode:color-dodge" opacity="0.5" filter="url(#filter3_f_4922_22331)">
<path d="M40.831 10.1014C43.183 11.6514 37.567 10.7014 35.215 10.1514C32.863 9.6014 31.951 8.4514 32.383 7.9514C32.815 7.45141 36.607 7.30141 40.831 10.1014Z" fill="url(#paint24_linear_4922_22331)"/>
</g>
<g opacity="0.5" filter="url(#filter4_f_4922_22331)">
<path d="M31.6148 13.2008C31.5668 14.3008 31.2308 18.0008 31.0388 18.2008C30.8468 18.3508 28.3028 18.4008 27.9668 16.3008C27.6308 14.2008 28.2548 13.0508 29.0708 13.0508C29.9828 13.0508 31.6628 12.5508 31.6148 13.2008Z" fill="url(#paint25_linear_4922_22331)"/>
</g>
<g filter="url(#filter5_f_4922_22331)">
<path d="M36.9459 8.19993C36.9459 8.19993 36.9459 8.90037 35.1207 8.70024C33.2956 8.45008 33.6318 7.69961 33.6318 7.69961C33.6318 7.69961 35.2648 7.59955 36.9459 8.19993Z" fill="white"/>
</g>
<g style="mix-blend-mode:color-dodge" opacity="0.5">
<path d="M35.0235 13.0012C37.9131 13.0012 40.2555 11.9266 40.2555 10.6012C40.2555 9.27569 37.9131 8.20117 35.0235 8.20117C32.134 8.20117 29.7915 9.27569 29.7915 10.6012C29.7915 11.9266 32.134 13.0012 35.0235 13.0012Z" fill="url(#paint26_radial_4922_22331)"/>
</g>
<g style="mix-blend-mode:color-dodge" opacity="0.5">
<path d="M43.7136 18.5515C43.4734 19.5021 39.631 18.6015 40.1113 17.6009C40.5916 16.6003 41.3121 16.2 42.2247 16.3001C43.1372 16.4001 43.9057 17.7009 43.7136 18.5515Z" fill="url(#paint27_linear_4922_22331)"/>
</g>
<path d="M41.8398 10.3492C42.6558 14.9492 48.3678 16.9492 49.9998 16.9492C51.6318 16.9492 57.2478 15.2492 58.2558 9.94922C58.2558 9.94922 54.0798 14.9992 49.9998 14.9992C45.9198 14.9992 41.8398 10.3492 41.8398 10.3492Z" fill="url(#paint28_linear_4922_22331)"/>
<path d="M58.2557 9.94958C57.8237 12.0996 54.0797 14.9996 49.9997 14.9996C46.1597 14.9996 42.6557 12.4996 41.8397 10.3996C41.6957 9.94958 41.6477 9.54958 41.6957 9.19958C42.2237 7.09959 45.7277 3.2996 48.0317 1.29961C49.2797 0.19961 50.6237 0.19961 51.9197 1.29961C54.2237 3.2996 57.7277 7.04959 58.2557 9.19958C58.3037 9.39958 58.3037 9.64958 58.2557 9.94958Z" fill="url(#paint29_linear_4922_22331)"/>
<path opacity="0.5" d="M58.2557 9.94958C57.8717 9.04958 56.3837 8.14959 54.3677 7.59959C51.7757 6.84959 48.3677 6.69959 45.5357 7.74959C44.0957 8.29959 42.7997 9.14959 41.8397 10.3996C41.6957 9.94958 41.6477 9.54958 41.6957 9.19958C42.2237 7.09959 45.7277 3.2996 48.0317 1.29961C49.2797 0.19961 50.6237 0.19961 51.9197 1.29961C54.2237 3.2996 57.7277 7.04959 58.2557 9.19958C58.3037 9.39958 58.3037 9.64958 58.2557 9.94958Z" fill="url(#paint30_linear_4922_22331)"/>
<path d="M49.9998 2.84961C48.4638 4.14961 44.4798 7.7996 45.1038 9.59959C45.6798 11.3996 49.9998 13.4996 49.9998 13.4996C49.9998 13.4996 54.3198 11.3496 54.8958 9.59959C55.4718 7.8496 51.4878 4.14961 49.9998 2.84961Z" fill="url(#paint31_linear_4922_22331)"/>
<g style="mix-blend-mode:color-dodge" opacity="0.1">
<path d="M45.3435 9.24893C45.3435 9.99893 48.2715 13.1489 49.9995 12.8989C51.7275 12.5989 55.1835 10.0489 54.5595 9.24893C53.9355 8.49893 45.2955 8.34893 45.3435 9.24893Z" fill="#FFF09C"/>
</g>
<path opacity="0.5" d="M10.6872 38C10.6872 38 11.1672 40.85 11.8872 42.35C11.8872 42.35 9.67922 53.95 12.4152 63.9999C12.4152 63.9999 10.4472 63.4499 9.63122 62.6499C9.63122 62.6499 8.33522 58.1 8.52722 50.6C8.71922 43.1 10.6872 38 10.6872 38Z" fill="url(#paint32_linear_4922_22331)"/>
<path opacity="0.5" d="M14.3355 74.4996C14.3355 74.4996 15.1995 73.0996 15.1515 71.0996L13.4235 67.0996L12.4155 70.7996L14.3355 74.4996Z" fill="url(#paint33_linear_4922_22331)"/>
<path opacity="0.5" d="M15.8234 68.9996C15.8234 68.9996 16.3514 67.3996 16.5434 64.5496L15.4394 60.5996L14.3354 65.2496L15.8234 68.9996Z" fill="url(#paint34_linear_4922_22331)"/>
<path d="M14.7193 47.4508C13.6633 46.1008 8.33528 41.3508 10.3033 34.6008C10.3033 34.6008 10.4953 34.4008 10.9753 34.3008C11.7433 34.2008 12.0793 34.3008 12.0793 34.3008L12.8953 32.5508C12.8953 32.5508 11.1673 31.8508 8.71928 32.1008C8.71928 32.1008 4.68728 33.3008 2.62328 39.0008C2.62328 39.0008 2.38328 40.7508 4.25528 44.0508C4.92728 45.2008 5.88728 46.5508 7.18328 48.1008C7.18328 48.1008 10.2553 49.7508 12.7033 54.5008C15.1993 59.2007 15.7753 61.9007 15.7753 61.9007C18.1273 55.3008 15.7753 48.7508 14.7193 47.4508Z" fill="url(#paint35_linear_4922_22331)"/>
<path opacity="0.5" d="M15.8232 61.8511C15.8232 61.8511 15.2472 59.2011 12.7512 54.4511C10.2552 49.7511 7.23122 48.0512 7.23122 48.0512C5.88722 46.5012 4.97522 45.1512 4.30322 44.0012C8.62322 47.3512 9.05522 43.0012 8.38322 39.4512C8.43122 39.6512 10.3512 45.3512 14.7672 47.4011C15.7752 48.7511 18.1272 55.3011 15.8232 61.8511Z" fill="url(#paint36_linear_4922_22331)"/>
<path d="M14.3356 64.4515C14.3836 64.3015 13.4236 57.9515 13.3276 57.9015C13.2316 57.8515 9.63161 56.1016 9.63161 56.1016L8.95961 59.1016C12.8956 61.9015 13.1356 65.3515 12.7516 68.0015C12.5116 69.6015 11.5516 71.1515 10.8796 70.8515C10.2556 70.5515 10.6396 69.9015 10.6396 69.9015C11.5996 70.0015 11.6476 68.1515 10.3996 67.9515C10.3996 67.9515 9.43961 68.1515 8.81561 69.5515C8.19161 70.9515 10.0156 71.8015 10.0156 71.8015C10.0156 71.8015 10.2076 71.7515 10.4476 71.6015L12.2716 72.0515C12.3196 72.0515 14.3356 64.5515 14.3356 64.4515Z" fill="url(#paint37_linear_4922_22331)"/>
<path d="M2.09559 51.5C0.65559 53.55 0.0795898 55.4 0.0795898 56.1C0.0795898 56.8 0.65559 60.6 2.76759 61.55C4.87959 62.55 8.71959 61.3 8.71959 61.3C8.71959 61.3 2.67159 60.4 2.04759 56.75C1.47159 53.1 2.09559 51.5 2.09559 51.5Z" fill="url(#paint38_linear_4922_22331)"/>
<path d="M15.6795 59.3996C15.6315 58.8496 15.4875 58.2996 15.2475 57.6996C15.1995 57.4996 15.1035 57.3496 15.0555 57.1496C13.1835 52.7996 7.95149 48.0497 7.03949 48.0497C5.98349 47.9997 1.61549 50.1997 1.13549 54.0496C0.60749 57.8996 4.01549 62.4996 8.71949 61.2996C9.87149 60.9996 10.0635 58.0496 10.0635 58.0496C10.0635 58.0496 12.7035 59.4996 13.5195 64.1996C14.1915 68.1996 11.7435 72.1496 10.1595 70.9996C9.29549 70.3496 9.63149 69.0996 10.2555 68.6996C10.4955 68.5496 10.7835 68.8996 10.7835 68.8996C10.1115 69.3996 10.5435 69.8996 10.6875 69.8996C10.8315 69.8996 11.5035 69.8996 11.4075 69.0496C11.3115 68.1996 10.7835 67.9496 9.91949 67.7496C9.48749 67.5996 8.76749 67.4996 7.95149 67.5496C6.46349 67.6996 5.88749 68.1996 5.88749 68.1996C3.34349 72.2496 8.19149 75.8996 11.7915 74.8496C13.0875 74.4496 13.9995 73.0496 14.6235 71.1496C15.8235 67.5996 16.0155 62.4996 15.6795 59.3996Z" fill="url(#paint39_linear_4922_22331)"/>
<path d="M9.00951 55.5015C9.00951 55.5015 8.38512 55.0012 7.66466 54.9511C6.99224 54.9011 4.87891 55.8517 4.87891 56.302C4.87891 56.7523 6.89618 58.6034 6.89618 58.6034C6.89618 58.6034 5.93557 56.2019 7.04027 55.4514C8.14497 54.751 9.00951 55.5015 9.00951 55.5015Z" fill="url(#paint40_linear_4922_22331)"/>
<path opacity="0.5" d="M9.00732 55.5C9.53532 56.05 10.1593 57.2 10.0153 58.1C9.91932 58.95 9.72732 59.75 9.72732 59.75C9.72732 59.75 10.3993 60.3 10.7353 60.7C10.7353 60.7 11.7913 61 12.3193 60.75C12.3193 60.75 11.7433 59.15 10.6393 57.35C9.53532 55.55 9.00732 55.5 9.00732 55.5Z" fill="url(#paint41_linear_4922_22331)"/>
<g style="mix-blend-mode:color-dodge" opacity="0.5">
<path d="M6.27148 48.2498C9.19948 48.7998 13.7595 54.7498 13.7595 54.7498C13.7595 54.7498 12.1275 52.3498 10.0635 50.3498C7.99948 48.3498 7.47148 48.1998 7.23148 48.0998C6.94348 47.9998 6.27148 48.2498 6.27148 48.2498Z" fill="url(#paint42_linear_4922_22331)"/>
</g>
<g style="mix-blend-mode:color-dodge" opacity="0.5">
<path d="M5.84001 68.1508C4.78401 70.1508 6.56001 71.1008 8.04801 70.3008C9.53601 69.5008 10.16 67.8508 10.16 67.8508C10.16 67.8508 9.58401 67.4008 7.90401 67.5008C6.22401 67.6508 5.84001 68.1508 5.84001 68.1508Z" fill="url(#paint43_linear_4922_22331)"/>
</g>
<g style="mix-blend-mode:color-dodge" opacity="0.5">
<path d="M7.51967 55.3509C5.26225 56.9019 9.24876 59.9538 9.77709 57.9525C10.2574 56.0513 8.38422 54.7505 7.51967 55.3509Z" fill="url(#paint44_linear_4922_22331)"/>
</g>
<g opacity="0.5" filter="url(#filter6_f_4922_22331)">
<path d="M8.096 49.101C5.07009 48.8508 10.6416 52.9034 11.266 51.6526C11.266 51.6026 9.0566 49.2011 8.096 49.101Z" fill="white"/>
</g>
<path d="M8.14415 55.3496C6.94311 55.3496 9.24911 56.4506 9.0089 55.9501C8.76869 55.4497 8.76869 55.3496 8.14415 55.3496Z" fill="white"/>
<g style="mix-blend-mode:color-dodge" opacity="0.5">
<path d="M13.8079 51.7006C13.1359 54.7006 11.0719 56.7506 9.19986 56.3006C7.32786 55.8506 6.31986 53.0506 6.99186 50.0506C7.66386 47.0506 9.72786 45.0006 11.5999 45.4506C13.4719 45.9006 14.4799 48.7006 13.8079 51.7006Z" fill="url(#paint45_radial_4922_22331)"/>
</g>
<g style="mix-blend-mode:multiply" opacity="0.5" filter="url(#filter7_f_4922_22331)">
<path d="M6.07938 71.9508C6.03138 73.2508 8.23938 74.5008 10.1114 74.4008C11.9834 74.3008 10.3994 71.6508 9.53538 70.8508C8.71938 70.0008 6.07938 70.9508 6.07938 71.9508Z" fill="url(#paint46_linear_4922_22331)"/>
</g>
<path d="M14.7188 47.4501C14.7188 47.4501 11.9348 45.9001 10.6388 43.9501C9.34283 42.0001 5.88683 35.9001 8.71883 32.1001C10.9748 31.8001 12.8948 32.5501 12.8948 32.5501L12.0788 34.3001C10.7348 34.1001 10.3028 34.6001 10.3028 34.6001C8.33483 41.3001 13.6628 46.1001 14.7188 47.4501Z" fill="url(#paint47_linear_4922_22331)"/>
<path d="M12.6573 33.1012C12.6573 33.1012 11.6484 33.0011 10.9758 33.2013C10.9758 33.2013 10.5434 33.7518 10.3032 34.6025C10.3032 34.6025 10.7836 34.1021 12.0808 34.3022L12.6573 33.1012Z" fill="url(#paint48_linear_4922_22331)"/>
<g style="mix-blend-mode:multiply" opacity="0.5" filter="url(#filter8_f_4922_22331)">
<path d="M14.5764 48.151C13.2804 47.401 10.8804 50.101 11.6484 51.301C12.4164 52.501 15.5844 58.651 16.2084 57.001C16.7844 55.401 16.4004 49.151 14.5764 48.151Z" fill="url(#paint49_linear_4922_22331)"/>
</g>
<g style="mix-blend-mode:color-dodge" opacity="0.3" filter="url(#filter9_f_4922_22331)">
<path d="M2.91085 39.5508C3.43885 44.2008 6.17485 43.6508 6.75085 42.3008C7.32685 40.9508 7.42285 33.8508 6.70285 33.8008C5.98285 33.8508 2.67085 37.3508 2.91085 39.5508Z" fill="#FFF09C"/>
</g>
<path d="M7.90384 33.7012C6.55984 36.3012 7.61584 40.9012 11.0718 44.5011C11.0718 44.5011 8.33584 40.9512 7.85584 37.6512C7.37584 34.4012 7.90384 33.7012 7.90384 33.7012Z" fill="url(#paint50_linear_4922_22331)"/>
<g style="mix-blend-mode:color-dodge" opacity="0.5">
<path d="M12.7507 53.4004C14.2867 56.6504 11.8867 59.6004 11.8867 59.6004C11.8867 59.6004 12.9427 61.2004 13.5187 64.2004C13.5187 64.2004 11.5507 55.7004 15.1027 57.2004C15.1027 57.2004 14.5747 56.0504 13.9987 55.1004C13.3747 54.2004 12.7507 53.4004 12.7507 53.4004Z" fill="url(#paint51_linear_4922_22331)"/>
</g>
<g filter="url(#filter10_f_4922_22331)">
<path d="M15.3914 51.0009C15.0071 51.0509 14.911 53.4029 15.5836 53.453C16.2562 53.503 16.2562 50.9008 15.3914 51.0009Z" fill="url(#paint52_linear_4922_22331)"/>
</g>
<path opacity="0.5" d="M89.3115 38C89.3115 38 88.8315 40.85 88.1115 42.35C88.1115 42.35 90.3195 53.95 87.5835 63.9999C87.5835 63.9999 89.5515 63.4499 90.3675 62.6499C90.3675 62.6499 91.6635 58.1 91.4715 50.6C91.2315 43.1 89.3115 38 89.3115 38Z" fill="url(#paint53_linear_4922_22331)"/>
<path opacity="0.5" d="M85.6641 74.4996C85.6641 74.4996 84.8001 73.0996 84.8481 71.0996L86.5761 67.0996L87.5841 70.7996L85.6641 74.4996Z" fill="url(#paint54_linear_4922_22331)"/>
<path opacity="0.5" d="M84.1756 68.9996C84.1756 68.9996 83.6476 67.3996 83.4556 64.5496L84.5596 60.5996L85.6636 65.2496L84.1756 68.9996Z" fill="url(#paint55_linear_4922_22331)"/>
<path d="M85.2803 47.4508C86.3363 46.1008 91.6643 41.3508 89.6963 34.6008C89.6963 34.6008 89.5043 34.4008 89.0243 34.3008C88.2563 34.2008 87.9203 34.3008 87.9203 34.3008L87.1043 32.5508C87.1043 32.5508 88.8323 31.8508 91.2803 32.1008C91.2803 32.1008 95.3123 33.3008 97.3763 39.0008C97.3763 39.0008 97.6163 40.7508 95.7443 44.0508C95.0723 45.2008 94.1123 46.5508 92.8163 48.1008C92.8163 48.1008 89.7443 49.7508 87.2963 54.5008C84.8003 59.2007 84.2243 61.9007 84.2243 61.9007C81.8723 55.3008 84.2243 48.7508 85.2803 47.4508Z" fill="url(#paint56_linear_4922_22331)"/>
<path opacity="0.5" d="M84.1764 61.8492C84.1764 61.8492 84.7524 59.1992 87.2484 54.4492C89.7444 49.7492 92.7684 48.0492 92.7684 48.0492C94.1124 46.4992 95.0244 45.1492 95.6964 43.9992C91.3764 47.3492 90.9444 42.9992 91.6164 39.4492C91.5684 39.6492 89.6484 45.3492 85.2324 47.3992C84.2244 48.7492 81.8724 55.2992 84.1764 61.8492Z" fill="url(#paint57_linear_4922_22331)"/>
<path d="M85.6643 64.4515C85.6163 64.3015 86.5763 57.9515 86.6723 57.9015C86.7683 57.8515 90.3683 56.1016 90.3683 56.1016L91.0403 59.1016C87.1043 61.9015 86.8643 65.3515 87.2483 68.0015C87.4883 69.6015 88.4483 71.1515 89.1203 70.8515C89.7443 70.5515 89.3603 69.9015 89.3603 69.9015C88.4003 70.0015 88.3523 68.1515 89.6003 67.9515C89.6003 67.9515 90.5603 68.1515 91.1843 69.5515C91.8083 70.9515 89.9843 71.8015 89.9843 71.8015C89.9843 71.8015 89.7923 71.7515 89.5523 71.6015L87.7283 72.0515C87.6803 72.0515 85.6643 64.5515 85.6643 64.4515Z" fill="url(#paint58_linear_4922_22331)"/>
<path d="M97.8559 51.5C99.2959 53.55 99.8719 55.4 99.8719 56.1C99.8719 56.8 99.2959 60.6 97.1839 61.55C95.0719 62.55 91.2319 61.3 91.2319 61.3C91.2319 61.3 97.2799 60.4 97.9039 56.75C98.5279 53.1 97.8559 51.5 97.8559 51.5Z" fill="url(#paint59_linear_4922_22331)"/>
<path d="M84.3199 59.3996C84.3679 58.8496 84.5119 58.2996 84.7519 57.6996C84.7999 57.4996 84.8959 57.3496 84.9439 57.1496C86.8159 52.7996 92.0479 48.0497 92.9599 48.0497C94.0159 47.9997 98.3839 50.1997 98.8639 54.0496C99.3919 57.8996 95.9839 62.4996 91.2799 61.2996C90.1279 60.9996 89.9359 58.0496 89.9359 58.0496C89.9359 58.0496 87.2959 59.4996 86.4799 64.1996C85.8079 68.1996 88.2559 72.1496 89.8399 70.9996C90.7039 70.3496 90.3679 69.0996 89.7439 68.6996C89.5039 68.5496 89.2159 68.8996 89.2159 68.8996C89.8879 69.3996 89.4559 69.8996 89.3119 69.8996C89.1679 69.8996 88.4959 69.8996 88.5919 69.0496C88.6879 68.1996 89.2159 67.9496 90.0799 67.7496C90.5119 67.5996 91.2319 67.4996 92.0479 67.5496C93.5359 67.6996 94.1119 68.1996 94.1119 68.1996C96.6559 72.2496 91.8079 75.8996 88.2079 74.8496C86.9119 74.4496 85.9999 73.0496 85.3759 71.1496C84.1759 67.5996 83.9839 62.4996 84.3199 59.3996Z" fill="url(#paint60_linear_4922_22331)"/>
<path d="M90.9917 55.5015C90.9917 55.5015 91.6161 55.0012 92.3365 54.9511C93.009 54.9011 95.1223 55.8517 95.1223 56.302C95.1223 56.7523 93.105 58.6034 93.105 58.6034C93.105 58.6034 94.0656 56.2019 92.9609 55.4514C91.8562 54.751 90.9917 55.5015 90.9917 55.5015Z" fill="url(#paint61_linear_4922_22331)"/>
<path opacity="0.5" d="M90.9917 55.5C90.4637 56.05 89.8397 57.2 89.9837 58.1C90.0797 58.95 90.2717 59.75 90.2717 59.75C90.2717 59.75 89.5997 60.3 89.2637 60.7C89.2637 60.7 88.2077 61 87.6797 60.75C87.6797 60.75 88.2557 59.15 89.3597 57.35C90.4637 55.55 90.9917 55.5 90.9917 55.5Z" fill="url(#paint62_linear_4922_22331)"/>
<g style="mix-blend-mode:color-dodge" opacity="0.5">
<path d="M93.7277 48.2498C90.7997 48.7998 86.2397 54.7498 86.2397 54.7498C86.2397 54.7498 87.8717 52.3498 89.9357 50.3498C91.9997 48.3498 92.5277 48.1998 92.7677 48.0998C93.0557 47.9998 93.7277 48.2498 93.7277 48.2498Z" fill="url(#paint63_linear_4922_22331)"/>
</g>
<g style="mix-blend-mode:color-dodge" opacity="0.5">
<path d="M94.112 68.1508C95.168 70.1508 93.392 71.1008 91.904 70.3008C90.416 69.5008 89.792 67.8508 89.792 67.8508C89.792 67.8508 90.368 67.4008 92.048 67.5008C93.776 67.6508 94.112 68.1508 94.112 68.1508Z" fill="url(#paint64_linear_4922_22331)"/>
</g>
<g style="mix-blend-mode:color-dodge" opacity="0.5">
<path d="M92.481 55.3509C94.7384 56.9019 90.7519 59.9538 90.2235 57.9525C89.7432 56.0513 91.6164 54.7505 92.481 55.3509Z" fill="url(#paint65_linear_4922_22331)"/>
</g>
<g opacity="0.5" filter="url(#filter11_f_4922_22331)">
<path d="M91.9054 49.101C94.9313 48.8508 89.3597 52.9034 88.7354 51.6526C88.7354 51.6026 90.8967 49.2011 91.9054 49.101Z" fill="white"/>
</g>
<path d="M91.8566 55.3496C93.0576 55.3496 90.7516 56.4506 90.9918 55.9501C91.232 55.4497 91.232 55.3496 91.8566 55.3496Z" fill="white"/>
<g style="mix-blend-mode:color-dodge" opacity="0.5">
<path d="M86.1917 51.7006C86.8637 54.7006 88.9757 56.7506 90.8957 56.3006C92.8157 55.8506 93.8237 53.0506 93.1997 50.0506C92.5277 47.0506 90.4157 45.0006 88.4957 45.4506C86.5277 45.8506 85.5197 48.7006 86.1917 51.7006Z" fill="url(#paint66_radial_4922_22331)"/>
</g>
<g style="mix-blend-mode:multiply" opacity="0.5" filter="url(#filter12_f_4922_22331)">
<path d="M93.9202 71.9508C93.9682 73.2508 91.7602 74.5008 89.8882 74.4008C88.0162 74.3008 89.6002 71.6508 90.4642 70.8508C91.2802 70.0008 93.8722 70.9508 93.9202 71.9508Z" fill="url(#paint67_linear_4922_22331)"/>
</g>
<path d="M85.2793 47.4501C85.2793 47.4501 88.0633 45.9001 89.3593 43.9501C90.6553 42.0001 94.1113 35.9001 91.2793 32.1001C89.0233 31.8001 87.1033 32.5501 87.1033 32.5501L87.9193 34.3001C89.2633 34.1001 89.6953 34.6001 89.6953 34.6001C91.6633 41.3001 86.2873 46.1001 85.2793 47.4501Z" fill="url(#paint68_linear_4922_22331)"/>
<path d="M87.3433 33.1012C87.3433 33.1012 88.3521 33.0011 89.0247 33.2013C89.0247 33.2013 89.4571 33.7518 89.6973 34.6025C89.6973 34.6025 89.2169 34.1021 87.9198 34.3022L87.3433 33.1012Z" fill="url(#paint69_linear_4922_22331)"/>
<g style="mix-blend-mode:multiply" opacity="0.5" filter="url(#filter13_f_4922_22331)">
<path d="M85.4239 48.151C86.7199 47.401 89.1199 50.101 88.3519 51.301C87.5839 52.501 84.4159 58.651 83.7919 57.001C83.1679 55.401 83.5999 49.151 85.4239 48.151Z" fill="url(#paint70_linear_4922_22331)"/>
</g>
<g style="mix-blend-mode:color-dodge" opacity="0.3" filter="url(#filter14_f_4922_22331)">
<path d="M97.039 39.5508C96.511 44.2008 93.775 43.6508 93.199 42.3008C92.623 40.9508 92.527 33.8508 93.247 33.8008C94.015 33.8508 97.327 37.3508 97.039 39.5508Z" fill="#FFF09C"/>
</g>
<path d="M92.0479 33.7012C93.3919 36.3012 92.3359 40.9012 88.8799 44.5011C88.8799 44.5011 91.6159 40.9512 92.0959 37.6512C92.6239 34.4012 92.0479 33.7012 92.0479 33.7012Z" fill="url(#paint71_linear_4922_22331)"/>
<g style="mix-blend-mode:color-dodge" opacity="0.5">
<path d="M87.2475 53.4004C85.7115 56.6504 88.1115 59.6004 88.1115 59.6004C88.1115 59.6004 87.0555 61.2004 86.4795 64.2004C86.4795 64.2004 88.4475 55.7004 84.8955 57.2004C84.8955 57.2004 85.4235 56.0504 85.9995 55.1004C86.6235 54.2004 87.2475 53.4004 87.2475 53.4004Z" fill="url(#paint72_linear_4922_22331)"/>
</g>
<g filter="url(#filter15_f_4922_22331)">
<path d="M84.6084 51.0009C84.9928 51.0509 85.0888 53.4029 84.4163 53.453C83.7437 53.503 83.7437 50.9008 84.6084 51.0009Z" fill="url(#paint73_linear_4922_22331)"/>
</g>
<path d="M48.4155 83.7489C47.7435 86.8489 43.0875 88.9989 43.0875 88.9989C43.0875 88.9989 44.0475 87.7989 43.9995 86.1989C43.9515 85.1489 43.7115 83.9489 42.3195 83.1989C41.5995 82.8489 40.5915 82.599 39.1035 82.549C35.5995 82.499 32.5755 84.1489 29.3595 85.6989C29.2635 85.7489 29.1195 85.7989 29.0235 85.8489C28.9755 85.8989 28.9275 85.8989 28.8315 85.9489C25.5195 87.3989 19.5195 88.7489 16.9755 85.2989C15.7755 83.6989 14.7675 81.1989 15.1995 79.449C15.2475 79.349 15.2475 79.249 15.2955 79.149C15.5355 78.449 16.0635 77.899 16.9755 77.599C20.1435 76.599 22.8315 78.149 22.8795 80.699C22.9755 83.2489 20.1435 82.6989 20.1435 82.6989C20.1915 82.6489 21.1035 82.0989 20.6715 81.3989C19.9035 80.1489 18.7035 81.149 18.7035 82.599C18.7035 82.999 18.8475 83.3489 19.1835 83.6489C19.3755 83.7989 19.6155 83.9489 19.9035 84.0489C20.9115 84.3989 22.6395 84.2489 25.1355 83.1989C25.9035 82.8989 26.8155 82.399 27.8235 81.799C27.8235 81.799 27.8715 81.799 27.8715 81.749C32.9595 78.749 40.4955 73.049 42.6075 73.299C42.7035 73.299 42.7995 73.349 42.8955 73.349C45.6795 74.049 49.6155 78.199 48.4155 83.7489Z" fill="url(#paint74_linear_4922_22331)"/>
<path opacity="0.5" d="M48.4163 83.7492C47.7443 86.8492 43.0883 88.9992 43.0883 88.9992C43.0883 88.9992 44.0483 87.7992 44.0003 86.1992C43.9523 85.1492 43.7123 83.9492 42.3203 83.1992C43.3763 80.7992 44.3843 78.9492 44.9603 78.9992C46.6883 79.1492 46.2083 75.4992 43.0403 73.4492C45.6803 74.0492 49.6163 78.1992 48.4163 83.7492Z" fill="url(#paint75_linear_4922_22331)"/>
<path d="M43.088 88.9986C43.088 88.9986 44.048 87.7986 44 86.1986C43.952 84.5986 43.424 82.6986 39.104 82.5986C35.6 82.5486 32.576 84.1986 29.36 85.7486C29.216 85.8486 29.024 85.8986 28.832 85.9986C36.176 80.2486 44.048 78.0986 44.912 79.0486C45.872 79.9986 46.928 85.7986 43.088 88.9986Z" fill="url(#paint76_linear_4922_22331)"/>
<path d="M20.2394 82.7489C20.2874 82.6989 21.1994 82.1489 20.7674 81.4489C19.9994 80.1989 18.7994 81.1989 18.7994 82.6489C18.7994 83.2989 19.1834 83.8489 19.9994 84.1489C17.9834 83.5989 17.4074 81.3989 17.4554 80.2989C17.5034 79.1989 20.9594 78.7989 21.7274 79.7489C22.5434 80.6489 21.7754 82.2989 20.2394 82.7489Z" fill="url(#paint77_linear_4922_22331)"/>
<path opacity="0.5" d="M36.3197 82.0989C38.6717 82.6489 42.4157 82.8989 43.1837 82.6489C43.9037 82.3489 45.6317 79.4489 44.5757 79.0989C43.5197 78.6989 34.0637 81.5489 36.3197 82.0989Z" fill="url(#paint78_linear_4922_22331)"/>
<g style="mix-blend-mode:color-dodge" opacity="0.2" filter="url(#filter16_f_4922_22331)">
<path d="M28.4476 82.6989C25.6156 87.2489 40.2076 78.449 41.7436 76.949C43.2796 75.499 43.0876 73.499 41.0716 73.849C41.0716 73.899 30.0316 80.149 28.4476 82.6989Z" fill="#FFF09C"/>
</g>
<g style="mix-blend-mode:color-dodge" opacity="0.3" filter="url(#filter17_f_4922_22331)">
<path d="M34.2079 79.4504C38.0479 80.8504 42.7039 75.1504 41.5999 74.5504C40.4959 73.9504 31.4719 78.5004 34.2079 79.4504Z" fill="url(#paint79_linear_4922_22331)"/>
</g>
<g style="mix-blend-mode:color-dodge" opacity="0.5" filter="url(#filter18_f_4922_22331)">
<path d="M16.3039 78.3484C16.5439 79.6984 20.9599 79.1484 21.1999 78.7984C21.4399 78.4484 20.5279 77.3484 18.9439 77.3484C17.1679 77.2984 16.2079 77.9484 16.3039 78.3484Z" fill="#FFF09C"/>
</g>
<path opacity="0.5" d="M34.0639 82.55L29.0719 85.95C29.0239 86 28.9759 86 28.8799 86.05C25.5679 87.5 19.5679 88.85 17.0239 85.4C15.8239 83.8 14.8159 81.3 15.2479 79.55C15.2959 79.4 15.3439 79.3 15.3439 79.25C15.6799 81.95 17.4559 80.35 17.4559 80.35C17.4559 80.35 17.5519 82.85 19.2799 83.8C19.4719 83.95 19.7119 84.1 19.9999 84.2C21.0079 84.55 22.7359 84.4 25.2319 83.35C25.9999 83.05 26.9119 82.55 27.9199 81.95C27.2959 82.35 23.6959 84.65 25.7599 85.45C27.9199 86.3 33.5839 82.85 34.0639 82.55Z" fill="url(#paint80_linear_4922_22331)"/>
<g filter="url(#filter19_f_4922_22331)">
<path d="M35.9838 76.9507C35.9838 76.9507 35.7916 77.7514 37.3289 77.3511C38.8663 77.0008 38.8182 75.1992 38.8182 75.1992C38.8182 75.1992 36.272 76.3002 35.9838 76.9507Z" fill="white"/>
</g>
<path d="M51.5355 83.749C52.2075 86.8489 56.8635 88.9989 56.8635 88.9989C56.8635 88.9989 55.9035 87.7989 55.9515 86.1989C55.9995 85.1489 56.2395 83.9489 57.6315 83.1989C58.3515 82.8489 59.3595 82.599 60.8475 82.549C64.3515 82.499 67.3755 84.1489 70.5915 85.6989C70.6875 85.7489 70.8315 85.799 70.9275 85.849C70.9755 85.899 71.0235 85.8989 71.1195 85.9489C74.4315 87.3989 80.4315 88.7489 82.9755 85.299C84.1755 83.699 85.1835 81.199 84.7515 79.449C84.7035 79.349 84.7035 79.249 84.6555 79.149C84.4155 78.449 83.8875 77.899 82.9755 77.599C79.8075 76.599 77.1195 78.149 77.0715 80.699C76.9755 83.2489 79.8075 82.6989 79.8075 82.6989C79.7595 82.6489 78.8475 82.0989 79.2795 81.3989C80.0475 80.149 81.2475 81.149 81.2475 82.599C81.2475 82.999 81.1035 83.3489 80.7675 83.6489C80.5755 83.7989 80.3355 83.949 80.0475 84.049C79.0395 84.399 77.3115 84.2489 74.8155 83.1989C74.0475 82.8989 73.1355 82.399 72.1275 81.799C72.1275 81.799 72.0795 81.799 72.0795 81.749C66.9915 78.749 59.4555 73.049 57.3435 73.299C57.2475 73.299 57.1515 73.349 57.0555 73.349C54.3195 74.049 50.3835 78.199 51.5355 83.749Z" fill="url(#paint81_linear_4922_22331)"/>
<path opacity="0.5" d="M51.5362 83.7492C52.2082 86.8492 56.8642 88.9992 56.8642 88.9992C56.8642 88.9992 55.9042 87.7992 55.9522 86.1992C56.0002 85.1492 56.2402 83.9492 57.6322 83.1992C56.5762 80.7992 55.5682 78.9492 54.9922 78.9992C53.2642 79.1492 53.7442 75.4992 56.9122 73.4492C54.3202 74.0492 50.3842 78.1992 51.5362 83.7492Z" fill="url(#paint82_linear_4922_22331)"/>
<path d="M56.8639 88.9986C56.8639 88.9986 55.9039 87.7986 55.9519 86.1986C55.9999 84.5986 56.5279 82.6986 60.8479 82.5986C64.3519 82.5486 67.3759 84.1986 70.5919 85.7486C70.7359 85.8486 70.9279 85.8986 71.1199 85.9986C63.7759 80.2486 55.9039 78.0986 55.0399 79.0486C54.1279 79.9986 53.0719 85.7986 56.8639 88.9986Z" fill="url(#paint83_linear_4922_22331)"/>
<path d="M79.7125 82.7489C79.6645 82.6989 78.7525 82.1489 79.1845 81.4489C79.9525 80.1989 81.1525 81.1989 81.1525 82.6489C81.1525 83.2989 80.7685 83.8489 79.9525 84.1489C81.9685 83.5989 82.5445 81.3989 82.4965 80.2989C82.4485 79.1989 78.9925 78.7989 78.2245 79.7489C77.4565 80.6489 78.1765 82.2989 79.7125 82.7489Z" fill="url(#paint84_linear_4922_22331)"/>
<path opacity="0.5" d="M63.6321 82.0989C61.2801 82.6489 57.5362 82.8989 56.7682 82.6489C56.0482 82.3489 54.3202 79.4489 55.3762 79.0989C56.4322 78.6989 65.8881 81.5489 63.6321 82.0989Z" fill="url(#paint85_linear_4922_22331)"/>
<g style="mix-blend-mode:color-dodge" opacity="0.2" filter="url(#filter20_f_4922_22331)">
<path d="M71.5524 82.6989C74.3844 87.2489 59.7924 78.449 58.2564 76.949C56.7204 75.499 56.9124 73.499 58.9284 73.849C58.9284 73.899 69.9204 80.149 71.5524 82.6989Z" fill="#FFF09C"/>
</g>
<g style="mix-blend-mode:color-dodge" opacity="0.3" filter="url(#filter21_f_4922_22331)">
<path d="M65.7924 79.4504C61.9524 80.8504 57.2964 75.1504 58.4004 74.5504C59.4564 73.9504 68.4804 78.5004 65.7924 79.4504Z" fill="url(#paint86_linear_4922_22331)"/>
</g>
<g style="mix-blend-mode:color-dodge" opacity="0.5" filter="url(#filter22_f_4922_22331)">
<path d="M83.6958 78.3484C83.4558 79.6984 79.0398 79.1484 78.7998 78.7984C78.5598 78.4484 79.4718 77.3484 81.0558 77.3484C82.8318 77.2984 83.7438 77.9484 83.6958 78.3484Z" fill="#FFF09C"/>
</g>
<path opacity="0.5" d="M65.9365 82.55L70.9285 85.95C70.9765 86 71.0245 86 71.1205 86.05C74.4325 87.5 80.4325 88.85 82.9765 85.4C84.1765 83.8 85.1845 81.3 84.7525 79.55C84.7045 79.4 84.6565 79.3 84.6565 79.25C84.3205 81.95 82.5445 80.35 82.5445 80.35C82.5445 80.35 82.4485 82.85 80.7205 83.8C80.5285 83.95 80.2885 84.1 80.0005 84.2C78.9925 84.55 77.2645 84.4 74.7685 83.35C74.0005 83.05 73.0885 82.55 72.0805 81.95C72.7045 82.35 76.3045 84.65 74.2405 85.45C72.0325 86.3 66.3685 82.85 65.9365 82.55Z" fill="url(#paint87_linear_4922_22331)"/>
<g filter="url(#filter23_f_4922_22331)">
<path d="M63.9709 76.9507C63.9709 76.9507 64.163 77.7514 62.6257 77.3511C61.0884 77.0008 61.1364 75.1992 61.1364 75.1992C61.1364 75.1992 63.7307 76.3002 63.9709 76.9507Z" fill="white"/>
</g>
<path d="M25.52 86.3504L50.096 82.1504L74.48 86.4004V96.0504L50.096 100.15L25.616 96.1004L25.52 86.3504Z" fill="url(#paint88_linear_4922_22331)"/>
<path opacity="0.4" d="M27.0556 87.4504L28.4956 88.1504L50.0956 85.2504L71.6476 88.1504L74.4796 86.4004L50.0956 82.1504L26.2876 86.8504L27.0556 87.4504Z" fill="url(#paint89_linear_4922_22331)"/>
<path opacity="0.72" d="M27.0559 95.05L28.4959 94.25L50.0958 96.85L71.6478 94.25L74.4798 96.05L49.2798 100.15L26.0479 96.2L27.0559 95.05Z" fill="url(#paint90_linear_4922_22331)"/>
<path d="M71.6476 88.15L50.0956 85.25H50.0476L28.4956 88.15V94.25L50.0476 96.85H50.0956L71.6476 94.25V88.15Z" fill="url(#paint91_linear_4922_22331)"/>
<g style="mix-blend-mode:color-dodge" opacity="0.4">
<path d="M29.3119 88.7513C27.9199 89.4013 66.2239 89.4013 66.7999 88.7513C67.3759 88.1013 54.9919 85.9013 49.2799 86.0013C43.6159 86.1013 31.3279 87.8513 29.3119 88.7513Z" fill="url(#paint92_linear_4922_22331)"/>
</g>
<g style="mix-blend-mode:darken" opacity="0.5">
<path d="M71.6476 92.6502C71.6476 92.6502 45.2956 90.8503 37.1356 91.8003C28.9756 92.7503 28.4956 93.4002 28.4956 93.4002V94.2502L50.0956 96.8503L71.6476 94.2502V92.6502Z" fill="url(#paint93_linear_4922_22331)"/>
</g>
<g style="mix-blend-mode:color-dodge" opacity="0.3">
<path d="M32.8152 94.75L50.0952 96.85C50.0952 96.85 41.0232 92.25 33.7752 92.25C26.5272 92.25 32.8152 94.75 32.8152 94.75Z" fill="url(#paint94_linear_4922_22331)"/>
</g>
<path opacity="0.6" d="M71.6476 94.25L49.9996 96.1L28.4956 94.25L50.0956 96.85L71.6476 94.25Z" fill="url(#paint95_linear_4922_22331)"/>
<g style="mix-blend-mode:color-dodge" opacity="0.3">
<path d="M49.9518 94.4004C58.3554 94.4004 65.1678 92.6095 65.1678 90.4004C65.1678 88.1912 58.3554 86.4004 49.9518 86.4004C41.5483 86.4004 34.7358 88.1912 34.7358 90.4004C34.7358 92.6095 41.5483 94.4004 49.9518 94.4004Z" fill="url(#paint96_radial_4922_22331)"/>
</g>
<path d="M31.855 87.6996C31.855 87.6996 40.783 86.3996 47.503 85.5996C47.503 85.5996 42.751 86.8496 31.855 87.6996Z" fill="url(#paint97_linear_4922_22331)"/>
<path d="M57.5356 95.9495C57.5356 95.9495 64.5436 94.6995 67.2796 94.7495C67.2796 94.7495 59.5996 95.8495 57.5356 95.9495Z" fill="url(#paint98_linear_4922_22331)"/>
<path d="M75.6795 96.8496C75.6795 96.8496 63.5355 99.8496 50.0475 101.15C36.5595 99.8996 24.2715 96.8496 24.2715 96.8496L25.1355 94.5996C25.3275 94.6496 25.4715 94.6996 25.6635 94.7496C36.8475 97.3496 50.0475 98.6996 50.0475 98.6996C50.0475 98.6996 63.3915 97.3496 74.4795 94.7496C74.6235 94.6996 74.8155 94.6496 74.9595 94.6496L75.6795 96.8496Z" fill="url(#paint99_linear_4922_22331)"/>
<path d="M75.6795 85.9508L75.0075 87.8508C74.8635 87.8008 74.6715 87.7508 74.4795 87.7508C73.9995 87.6508 73.5195 87.5508 73.0395 87.4508C62.2395 85.0508 50.0475 83.6508 50.0475 83.6508C50.0475 83.6508 37.9035 85.0508 27.0555 87.4508C26.5755 87.5508 26.0955 87.6508 25.6635 87.7508C25.4715 87.8008 25.3275 87.8508 25.1355 87.8508L24.3195 86.1008L24.2715 86.0508C24.2715 86.0508 36.4155 82.3008 49.8555 81.0508C63.3915 82.3508 75.6795 85.9508 75.6795 85.9508Z" fill="url(#paint100_linear_4922_22331)"/>
<path d="M74.1914 94.798C74.1914 95.298 74.1434 95.398 74.1434 95.798C74.1434 95.798 64.3034 98.648 50.0954 99.848C50.0954 99.848 39.1034 98.848 25.9514 95.898C25.9514 95.898 25.9034 95.548 25.7114 94.748C36.8954 97.348 50.0954 98.698 50.0954 98.698C50.0954 98.698 63.0554 97.448 74.1914 94.798Z" fill="url(#paint101_linear_4922_22331)"/>
<path d="M27.0555 87.4496V95.0496L25.9035 95.8996L24.2715 96.8496C24.2715 96.8496 24.8955 92.1496 24.2715 86.0996L24.3195 86.1496L25.8075 86.5496L27.0555 87.4496Z" fill="url(#paint102_linear_4922_22331)"/>
<path d="M75.6796 96.8484L74.0955 95.7984L73.0396 95.0484V87.3984L74.1915 86.5484L75.6796 85.8984C75.3916 92.0484 75.6796 96.8484 75.6796 96.8484Z" fill="url(#paint103_linear_4922_22331)"/>
<path opacity="0.5" d="M74.0951 95.7992L73.0391 95.0492V87.3992C62.2391 84.9992 50.0471 83.5992 50.0471 83.5992C50.0471 83.5992 37.9031 84.9992 27.0551 87.3992V94.9992L25.9031 95.8492C25.9031 95.8492 26.1431 91.5992 25.8071 86.4992C25.8071 86.4992 42.4631 82.5492 50.0471 82.1992C50.0471 82.1992 64.5911 84.2492 74.1911 86.5492C74.1911 86.5992 73.8071 90.7492 74.0951 95.7992Z" fill="url(#paint104_linear_4922_22331)"/>
<path opacity="0.71" d="M27.0562 87.45C27.0562 87.45 36.2722 84.05 50.0481 82.25C50.0481 82.25 60.3682 83.5 73.5682 87.05L73.0401 87.45C73.0401 87.45 61.2801 85.45 50.0961 84.45C50.0961 84.45 40.6881 85.7 37.6161 86.1C31.7122 86.85 27.0562 87.45 27.0562 87.45Z" fill="url(#paint105_linear_4922_22331)"/>
<g filter="url(#filter24_f_4922_22331)">
<path d="M40.3997 82.3487C39.5351 83.5495 43.7618 82.5488 43.9539 82.1986C44.146 81.8984 43.1854 81.8984 43.1854 81.8984L40.3997 82.3487Z" fill="url(#paint106_linear_4922_22331)"/>
</g>
<g style="mix-blend-mode:color-dodge" opacity="0.6">
<path d="M42.4146 84.8492C44.6945 84.8492 46.5426 83.6404 46.5426 82.1492C46.5426 80.658 44.6945 79.4492 42.4146 79.4492C40.1348 79.4492 38.2866 80.658 38.2866 82.1492C38.2866 83.6404 40.1348 84.8492 42.4146 84.8492Z" fill="url(#paint107_radial_4922_22331)"/>
</g>
<path opacity="0.5" d="M56.4317 81.8496C57.3917 82.6496 53.4077 82.6996 53.4077 82.6996L58.2557 83.4996C58.2557 83.4996 59.5037 82.3996 64.2557 83.1996L56.4317 81.8496Z" fill="url(#paint108_linear_4922_22331)"/>
<path d="M32.8638 97.2988C32.8638 97.2988 46.8318 99.4988 50.2878 99.4988L60.9438 98.5988C60.9438 98.5988 53.1678 99.7988 50.1438 99.8988C50.0958 99.8988 42.8478 99.1488 32.8638 97.2988Z" fill="url(#paint109_linear_4922_22331)"/>
<g style="mix-blend-mode:color-dodge" opacity="0.6">
<path d="M75.2478 93.8984C75.5358 95.7984 69.4878 98.2984 61.7598 99.4984C54.0318 100.698 47.5518 100.098 47.2638 98.1984C46.9758 96.2984 53.0238 93.7985 60.7518 92.5985C68.4798 91.3985 74.9598 91.9984 75.2478 93.8984Z" fill="url(#paint110_radial_4922_22331)"/>
</g>
<defs>
<filter id="filter0_f_4922_22331" x="58.0509" y="7.30384" width="9.83618" height="4.00366" filterUnits="userSpaceOnUse" color-interpolation-filters="sRGB">
<feFlood flood-opacity="0" result="BackgroundImageFix"/>
<feBlend mode="normal" in="SourceGraphic" in2="BackgroundImageFix" result="shape"/>
<feGaussianBlur stdDeviation="0.180114" result="effect1_foregroundBlur_4922_22331"/>
</filter>
<filter id="filter1_f_4922_22331" x="67.8292" y="12.507" width="4.46215" height="6.11694" filterUnits="userSpaceOnUse" color-interpolation-filters="sRGB">
<feFlood flood-opacity="0" result="BackgroundImageFix"/>
<feBlend mode="normal" in="SourceGraphic" in2="BackgroundImageFix" result="shape"/>
<feGaussianBlur stdDeviation="0.180114" result="effect1_foregroundBlur_4922_22331"/>
</filter>
<filter id="filter2_f_4922_22331" x="62.7305" y="7.51325" width="3.69861" height="1.4032" filterUnits="userSpaceOnUse" color-interpolation-filters="sRGB">
<feFlood flood-opacity="0" result="BackgroundImageFix"/>
<feBlend mode="normal" in="SourceGraphic" in2="BackgroundImageFix" result="shape"/>
<feGaussianBlur stdDeviation="0.0900568" result="effect1_foregroundBlur_4922_22331"/>
</filter>
<filter id="filter3_f_4922_22331" x="31.9191" y="7.30384" width="9.83618" height="4.00366" filterUnits="userSpaceOnUse" color-interpolation-filters="sRGB">
<feFlood flood-opacity="0" result="BackgroundImageFix"/>
<feBlend mode="normal" in="SourceGraphic" in2="BackgroundImageFix" result="shape"/>
<feGaussianBlur stdDeviation="0.180114" result="effect1_foregroundBlur_4922_22331"/>
</filter>
<filter id="filter4_f_4922_22331" x="27.5138" y="12.507" width="4.46215" height="6.11694" filterUnits="userSpaceOnUse" color-interpolation-filters="sRGB">
<feFlood flood-opacity="0" result="BackgroundImageFix"/>
<feBlend mode="normal" in="SourceGraphic" in2="BackgroundImageFix" result="shape"/>
<feGaussianBlur stdDeviation="0.180114" result="effect1_foregroundBlur_4922_22331"/>
</filter>
<filter id="filter5_f_4922_22331" x="33.4273" y="7.51325" width="3.69861" height="1.4032" filterUnits="userSpaceOnUse" color-interpolation-filters="sRGB">
<feFlood flood-opacity="0" result="BackgroundImageFix"/>
<feBlend mode="normal" in="SourceGraphic" in2="BackgroundImageFix" result="shape"/>
<feGaussianBlur stdDeviation="0.0900568" result="effect1_foregroundBlur_4922_22331"/>
</filter>
<filter id="filter6_f_4922_22331" x="7.02155" y="48.9097" width="4.42468" height="3.16296" filterUnits="userSpaceOnUse" color-interpolation-filters="sRGB">
<feFlood flood-opacity="0" result="BackgroundImageFix"/>
<feBlend mode="normal" in="SourceGraphic" in2="BackgroundImageFix" result="shape"/>
<feGaussianBlur stdDeviation="0.0900568" result="effect1_foregroundBlur_4922_22331"/>
</filter>
<filter id="filter7_f_4922_22331" x="5.71839" y="70.1613" width="5.62817" height="4.60522" filterUnits="userSpaceOnUse" color-interpolation-filters="sRGB">
<feFlood flood-opacity="0" result="BackgroundImageFix"/>
<feBlend mode="normal" in="SourceGraphic" in2="BackgroundImageFix" result="shape"/>
<feGaussianBlur stdDeviation="0.180114" result="effect1_foregroundBlur_4922_22331"/>
</filter>
<filter id="filter8_f_4922_22331" x="11.1398" y="47.6613" width="5.67651" height="9.97827" filterUnits="userSpaceOnUse" color-interpolation-filters="sRGB">
<feFlood flood-opacity="0" result="BackgroundImageFix"/>
<feBlend mode="normal" in="SourceGraphic" in2="BackgroundImageFix" result="shape"/>
<feGaussianBlur stdDeviation="0.180114" result="effect1_foregroundBlur_4922_22331"/>
</filter>
<filter id="filter9_f_4922_22331" x="2.53821" y="33.4406" width="5.03491" height="10.1755" filterUnits="userSpaceOnUse" color-interpolation-filters="sRGB">
<feFlood flood-opacity="0" result="BackgroundImageFix"/>
<feBlend mode="normal" in="SourceGraphic" in2="BackgroundImageFix" result="shape"/>
<feGaussianBlur stdDeviation="0.180114" result="effect1_foregroundBlur_4922_22331"/>
</filter>
<filter id="filter10_f_4922_22331" x="14.9102" y="50.8179" width="1.3363" height="2.81531" filterUnits="userSpaceOnUse" color-interpolation-filters="sRGB">
<feFlood flood-opacity="0" result="BackgroundImageFix"/>
<feBlend mode="normal" in="SourceGraphic" in2="BackgroundImageFix" result="shape"/>
<feGaussianBlur stdDeviation="0.0900568" result="effect1_foregroundBlur_4922_22331"/>
</filter>
<filter id="filter11_f_4922_22331" x="88.5552" y="48.9097" width="4.42468" height="3.16296" filterUnits="userSpaceOnUse" color-interpolation-filters="sRGB">
<feFlood flood-opacity="0" result="BackgroundImageFix"/>
<feBlend mode="normal" in="SourceGraphic" in2="BackgroundImageFix" result="shape"/>
<feGaussianBlur stdDeviation="0.0900568" result="effect1_foregroundBlur_4922_22331"/>
</filter>
<filter id="filter12_f_4922_22331" x="88.653" y="70.1613" width="5.62817" height="4.60522" filterUnits="userSpaceOnUse" color-interpolation-filters="sRGB">
<feFlood flood-opacity="0" result="BackgroundImageFix"/>
<feBlend mode="normal" in="SourceGraphic" in2="BackgroundImageFix" result="shape"/>
<feGaussianBlur stdDeviation="0.180114" result="effect1_foregroundBlur_4922_22331"/>
</filter>
<filter id="filter13_f_4922_22331" x="83.1632" y="47.6613" width="5.6975" height="9.97827" filterUnits="userSpaceOnUse" color-interpolation-filters="sRGB">
<feFlood flood-opacity="0" result="BackgroundImageFix"/>
<feBlend mode="normal" in="SourceGraphic" in2="BackgroundImageFix" result="shape"/>
<feGaussianBlur stdDeviation="0.180114" result="effect1_foregroundBlur_4922_22331"/>
</filter>
<filter id="filter14_f_4922_22331" x="92.3766" y="33.4406" width="5.04028" height="10.1755" filterUnits="userSpaceOnUse" color-interpolation-filters="sRGB">
<feFlood flood-opacity="0" result="BackgroundImageFix"/>
<feBlend mode="normal" in="SourceGraphic" in2="BackgroundImageFix" result="shape"/>
<feGaussianBlur stdDeviation="0.180114" result="effect1_foregroundBlur_4922_22331"/>
</filter>
<filter id="filter15_f_4922_22331" x="83.7535" y="50.8179" width="1.3363" height="2.81531" filterUnits="userSpaceOnUse" color-interpolation-filters="sRGB">
<feFlood flood-opacity="0" result="BackgroundImageFix"/>
<feBlend mode="normal" in="SourceGraphic" in2="BackgroundImageFix" result="shape"/>
<feGaussianBlur stdDeviation="0.0900568" result="effect1_foregroundBlur_4922_22331"/>
</filter>
<filter id="filter16_f_4922_22331" x="27.7238" y="73.4484" width="15.3957" height="10.904" filterUnits="userSpaceOnUse" color-interpolation-filters="sRGB">
<feFlood flood-opacity="0" result="BackgroundImageFix"/>
<feBlend mode="normal" in="SourceGraphic" in2="BackgroundImageFix" result="shape"/>
<feGaussianBlur stdDeviation="0.180114" result="effect1_foregroundBlur_4922_22331"/>
</filter>
<filter id="filter17_f_4922_22331" x="33.3336" y="74.1359" width="8.79174" height="5.89624" filterUnits="userSpaceOnUse" color-interpolation-filters="sRGB">
<feFlood flood-opacity="0" result="BackgroundImageFix"/>
<feBlend mode="normal" in="SourceGraphic" in2="BackgroundImageFix" result="shape"/>
<feGaussianBlur stdDeviation="0.180114" result="effect1_foregroundBlur_4922_22331"/>
</filter>
<filter id="filter18_f_4922_22331" x="15.9371" y="76.9855" width="5.66088" height="2.58569" filterUnits="userSpaceOnUse" color-interpolation-filters="sRGB">
<feFlood flood-opacity="0" result="BackgroundImageFix"/>
<feBlend mode="normal" in="SourceGraphic" in2="BackgroundImageFix" result="shape"/>
<feGaussianBlur stdDeviation="0.180114" result="effect1_foregroundBlur_4922_22331"/>
</filter>
<filter id="filter19_f_4922_22331" x="35.796" y="75.0191" width="3.20251" height="2.6239" filterUnits="userSpaceOnUse" color-interpolation-filters="sRGB">
<feFlood flood-opacity="0" result="BackgroundImageFix"/>
<feBlend mode="normal" in="SourceGraphic" in2="BackgroundImageFix" result="shape"/>
<feGaussianBlur stdDeviation="0.0900568" result="effect1_foregroundBlur_4922_22331"/>
</filter>
<filter id="filter20_f_4922_22331" x="56.8805" y="73.4484" width="15.3957" height="10.904" filterUnits="userSpaceOnUse" color-interpolation-filters="sRGB">
<feFlood flood-opacity="0" result="BackgroundImageFix"/>
<feBlend mode="normal" in="SourceGraphic" in2="BackgroundImageFix" result="shape"/>
<feGaussianBlur stdDeviation="0.180114" result="effect1_foregroundBlur_4922_22331"/>
</filter>
<filter id="filter21_f_4922_22331" x="57.8751" y="74.1359" width="8.77514" height="5.89624" filterUnits="userSpaceOnUse" color-interpolation-filters="sRGB">
<feFlood flood-opacity="0" result="BackgroundImageFix"/>
<feBlend mode="normal" in="SourceGraphic" in2="BackgroundImageFix" result="shape"/>
<feGaussianBlur stdDeviation="0.180114" result="effect1_foregroundBlur_4922_22331"/>
</filter>
<filter id="filter22_f_4922_22331" x="78.4015" y="76.9855" width="5.65649" height="2.58569" filterUnits="userSpaceOnUse" color-interpolation-filters="sRGB">
<feFlood flood-opacity="0" result="BackgroundImageFix"/>
<feBlend mode="normal" in="SourceGraphic" in2="BackgroundImageFix" result="shape"/>
<feGaussianBlur stdDeviation="0.180114" result="effect1_foregroundBlur_4922_22331"/>
</filter>
<filter id="filter23_f_4922_22331" x="60.9561" y="75.0191" width="3.20251" height="2.6239" filterUnits="userSpaceOnUse" color-interpolation-filters="sRGB">
<feFlood flood-opacity="0" result="BackgroundImageFix"/>
<feBlend mode="normal" in="SourceGraphic" in2="BackgroundImageFix" result="shape"/>
<feGaussianBlur stdDeviation="0.0900568" result="effect1_foregroundBlur_4922_22331"/>
</filter>
<filter id="filter24_f_4922_22331" x="39.923" y="81.5382" width="4.41674" height="1.74389" filterUnits="userSpaceOnUse" color-interpolation-filters="sRGB">
<feFlood flood-opacity="0" result="BackgroundImageFix"/>
<feBlend mode="normal" in="SourceGraphic" in2="BackgroundImageFix" result="shape"/>
<feGaussianBlur stdDeviation="0.180114" result="effect1_foregroundBlur_4922_22331"/>
</filter>
<linearGradient id="paint0_linear_4922_22331" x1="49.9873" y1="95.495" x2="49.9873" y2="8.85771" gradientUnits="userSpaceOnUse">
<stop stop-color="#6F578C"/>
<stop offset="0.3056" stop-color="#7571A5"/>
<stop offset="0.7123" stop-color="#98ABD2"/>
<stop offset="1" stop-color="#DAE1EF"/>
</linearGradient>
<linearGradient id="paint1_linear_4922_22331" x1="49.9874" y1="63.995" x2="49.9874" y2="95.4953" gradientUnits="userSpaceOnUse">
<stop stop-color="#8980EB"/>
<stop offset="1" stop-color="#705AB8"/>
</linearGradient>
<linearGradient id="paint2_linear_4922_22331" x1="49.9871" y1="10.1255" x2="49.9871" y2="94.2287" gradientUnits="userSpaceOnUse">
<stop stop-color="#6F578C"/>
<stop offset="0.3056" stop-color="#7571A5"/>
<stop offset="0.7123" stop-color="#98ABD2"/>
<stop offset="1" stop-color="#DAE1EF"/>
</linearGradient>
<linearGradient id="paint3_linear_4922_22331" x1="49.988" y1="40.3582" x2="49.988" y2="8.85776" gradientUnits="userSpaceOnUse">
<stop stop-color="#8980EB"/>
<stop offset="1" stop-color="#ADBEDF"/>
</linearGradient>
<linearGradient id="paint4_linear_4922_22331" x1="49.9871" y1="91.5173" x2="49.9871" y2="12.8354" gradientUnits="userSpaceOnUse">
<stop stop-color="#6F578C"/>
<stop offset="0.3056" stop-color="#7571A5"/>
<stop offset="0.7123" stop-color="#98ABD2"/>
<stop offset="1" stop-color="#DAE1EF"/>
</linearGradient>
<linearGradient id="paint5_linear_4922_22331" x1="49.9878" y1="70.0429" x2="49.9878" y2="91.5166" gradientUnits="userSpaceOnUse">
<stop stop-color="#8980EB"/>
<stop offset="1" stop-color="#705AB8"/>
</linearGradient>
<linearGradient id="paint6_linear_4922_22331" x1="49.9878" y1="34.3089" x2="49.9878" y2="12.8353" gradientUnits="userSpaceOnUse">
<stop stop-color="#8980EB"/>
<stop offset="1" stop-color="#ADBEDF"/>
</linearGradient>
<linearGradient id="paint7_linear_4922_22331" x1="49.9871" y1="14.0917" x2="49.9871" y2="90.261" gradientUnits="userSpaceOnUse">
<stop stop-color="#6F578C"/>
<stop offset="0.3056" stop-color="#7571A5"/>
<stop offset="0.7123" stop-color="#98ABD2"/>
<stop offset="1" stop-color="#DAE1EF"/>
</linearGradient>
<linearGradient id="paint8_linear_4922_22331" x1="31.9385" y1="13.6357" x2="35.9482" y2="13.6357" gradientUnits="userSpaceOnUse">
<stop stop-color="#8780E9"/>
<stop offset="1" stop-color="#705AB6"/>
</linearGradient>
<linearGradient id="paint9_linear_4922_22331" x1="36.1" y1="19.1678" x2="36.1" y2="12.0516" gradientUnits="userSpaceOnUse">
<stop stop-color="#8780E9"/>
<stop offset="1" stop-color="#705AB6"/>
</linearGradient>
<linearGradient id="paint10_linear_4922_22331" x1="68.0678" y1="13.6357" x2="64.0584" y2="13.6357" gradientUnits="userSpaceOnUse">
<stop stop-color="#8780E9"/>
<stop offset="1" stop-color="#705AB6"/>
</linearGradient>
<linearGradient id="paint11_linear_4922_22331" x1="63.9026" y1="19.1678" x2="63.9026" y2="12.0516" gradientUnits="userSpaceOnUse">
<stop stop-color="#8780E9"/>
<stop offset="1" stop-color="#705AB6"/>
</linearGradient>
<linearGradient id="paint12_linear_4922_22331" x1="62.7255" y1="20.9747" x2="61.9202" y2="7.91607" gradientUnits="userSpaceOnUse">
<stop stop-color="#8780E9"/>
<stop offset="0.7401" stop-color="#DBD8DF"/>
<stop offset="1" stop-color="#B7C4E1"/>
</linearGradient>
<linearGradient id="paint13_linear_4922_22331" x1="68.1529" y1="9.62338" x2="68.6115" y2="17.0602" gradientUnits="userSpaceOnUse">
<stop stop-color="#705AB6"/>
<stop offset="1" stop-color="white"/>
</linearGradient>
<linearGradient id="paint14_linear_4922_22331" x1="51.7147" y1="19.0134" x2="71.6533" y2="12.3805" gradientUnits="userSpaceOnUse">
<stop stop-color="#786DAB"/>
<stop offset="0.5258" stop-color="#6867A3"/>
<stop offset="1" stop-color="#54517A"/>
</linearGradient>
<linearGradient id="paint15_linear_4922_22331" x1="55.7696" y1="15.278" x2="56.5873" y2="20.2816" gradientUnits="userSpaceOnUse">
<stop stop-color="#705AB6"/>
<stop offset="1" stop-color="#181D3B"/>
</linearGradient>
<linearGradient id="paint16_linear_4922_22331" x1="62.2576" y1="6.44945" x2="63.5132" y2="11.3738" gradientUnits="userSpaceOnUse">
<stop stop-color="#E9BB38"/>
<stop offset="1"/>
</linearGradient>
<linearGradient id="paint17_linear_4922_22331" x1="68.437" y1="8.36365" x2="71.399" y2="19.9804" gradientUnits="userSpaceOnUse">
<stop stop-color="#705AB6"/>
<stop offset="1" stop-color="white"/>
</linearGradient>
<radialGradient id="paint18_radial_4922_22331" cx="0" cy="0" r="1" gradientUnits="userSpaceOnUse" gradientTransform="translate(64.7195 10.6091) rotate(-3.52822) scale(5.02804 2.39098)">
<stop stop-color="#2B3987"/>
<stop offset="0.1528" stop-color="#273379"/>
<stop offset="0.439" stop-color="#1B2456"/>
<stop offset="0.8249" stop-color="#090C1C"/>
<stop offset="1"/>
</radialGradient>
<linearGradient id="paint19_linear_4922_22331" x1="57.8501" y1="16.1656" x2="57.9557" y2="18.5685" gradientUnits="userSpaceOnUse">
<stop stop-color="#E9BB38"/>
<stop offset="1"/>
</linearGradient>
<linearGradient id="paint20_linear_4922_22331" x1="37.0924" y1="20.9747" x2="37.8977" y2="7.91609" gradientUnits="userSpaceOnUse">
<stop stop-color="#8780E9"/>
<stop offset="0.7401" stop-color="#DBD8DF"/>
<stop offset="1" stop-color="#B7C4E1"/>
</linearGradient>
<linearGradient id="paint21_linear_4922_22331" x1="31.6633" y1="9.62335" x2="31.2047" y2="17.0602" gradientUnits="userSpaceOnUse">
<stop stop-color="#705AB6"/>
<stop offset="1" stop-color="white"/>
</linearGradient>
<linearGradient id="paint22_linear_4922_22331" x1="48.1019" y1="19.0134" x2="28.1634" y2="12.3805" gradientUnits="userSpaceOnUse">
<stop stop-color="#786DAB"/>
<stop offset="0.5258" stop-color="#6867A3"/>
<stop offset="1" stop-color="#54517A"/>
</linearGradient>
<linearGradient id="paint23_linear_4922_22331" x1="44.0469" y1="15.2779" x2="43.2288" y2="20.2816" gradientUnits="userSpaceOnUse">
<stop stop-color="#705AB6"/>
<stop offset="1" stop-color="#181D3B"/>
</linearGradient>
<linearGradient id="paint24_linear_4922_22331" x1="37.5597" y1="6.44945" x2="36.3037" y2="11.3738" gradientUnits="userSpaceOnUse">
<stop stop-color="#E9BB38"/>
<stop offset="1"/>
</linearGradient>
<linearGradient id="paint25_linear_4922_22331" x1="31.3788" y1="8.36362" x2="28.417" y2="19.9804" gradientUnits="userSpaceOnUse">
<stop stop-color="#705AB6"/>
<stop offset="1" stop-color="white"/>
</linearGradient>
<radialGradient id="paint26_radial_4922_22331" cx="0" cy="0" r="1" gradientUnits="userSpaceOnUse" gradientTransform="translate(34.8898 10.6172) rotate(-178.441) scale(5.24328 2.41727)">
<stop stop-color="#2B3987"/>
<stop offset="0.1528" stop-color="#273379"/>
<stop offset="0.439" stop-color="#1B2456"/>
<stop offset="0.8249" stop-color="#090C1C"/>
<stop offset="1"/>
</radialGradient>
<linearGradient id="paint27_linear_4922_22331" x1="41.9687" y1="16.1656" x2="41.8633" y2="18.5685" gradientUnits="userSpaceOnUse">
<stop stop-color="#E9BB38"/>
<stop offset="1"/>
</linearGradient>
<linearGradient id="paint28_linear_4922_22331" x1="50.0519" y1="9.53042" x2="50.0519" y2="18.0771" gradientUnits="userSpaceOnUse">
<stop stop-color="#786DAB"/>
<stop offset="0.5258" stop-color="#6867A3"/>
<stop offset="1" stop-color="#54517A"/>
</linearGradient>
<linearGradient id="paint29_linear_4922_22331" x1="49.9873" y1="2.02466" x2="49.9873" y2="14.0997" gradientUnits="userSpaceOnUse">
<stop stop-color="#8780E9"/>
<stop offset="0.7401" stop-color="#DBD8DF"/>
<stop offset="1" stop-color="#B7C4E1"/>
</linearGradient>
<linearGradient id="paint30_linear_4922_22331" x1="49.9873" y1="1.78061" x2="49.9873" y2="15.1884" gradientUnits="userSpaceOnUse">
<stop stop-color="#705AB6"/>
<stop offset="1" stop-color="white"/>
</linearGradient>
<linearGradient id="paint31_linear_4922_22331" x1="49.9875" y1="13.7289" x2="49.9875" y2="5.30355" gradientUnits="userSpaceOnUse">
<stop stop-color="#786DAB"/>
<stop offset="0.5258" stop-color="#6867A3"/>
<stop offset="1" stop-color="#54517A"/>
</linearGradient>
<linearGradient id="paint32_linear_4922_22331" x1="5.42157" y1="50.5603" x2="31.7277" y2="52.2942" gradientUnits="userSpaceOnUse">
<stop stop-color="#8780E9"/>
<stop offset="1" stop-color="#705AB6"/>
</linearGradient>
<linearGradient id="paint33_linear_4922_22331" x1="4.13289" y1="70.1164" x2="30.439" y2="71.8502" gradientUnits="userSpaceOnUse">
<stop stop-color="#8780E9"/>
<stop offset="1" stop-color="#705AB6"/>
</linearGradient>
<linearGradient id="paint34_linear_4922_22331" x1="4.53515" y1="64.0127" x2="30.8413" y2="65.7465" gradientUnits="userSpaceOnUse">
<stop stop-color="#8780E9"/>
<stop offset="1" stop-color="#705AB6"/>
</linearGradient>
<linearGradient id="paint35_linear_4922_22331" x1="9.71134" y1="61.8646" x2="9.71134" y2="32.0571" gradientUnits="userSpaceOnUse">
<stop stop-color="#8780E9"/>
<stop offset="0.7401" stop-color="#DBD8DF"/>
<stop offset="1" stop-color="#B7C4E1"/>
</linearGradient>
<linearGradient id="paint36_linear_4922_22331" x1="11.4985" y1="62.225" x2="9.60066" y2="39.4091" gradientUnits="userSpaceOnUse">
<stop stop-color="#705AB6"/>
<stop offset="1" stop-color="white"/>
</linearGradient>
<linearGradient id="paint37_linear_4922_22331" x1="15.7913" y1="64.8097" x2="7.48096" y2="63.6904" gradientUnits="userSpaceOnUse">
<stop stop-color="#786DAB"/>
<stop offset="0.5258" stop-color="#6867A3"/>
<stop offset="1" stop-color="#54517A"/>
</linearGradient>
<linearGradient id="paint38_linear_4922_22331" x1="5.65791" y1="51.8288" x2="3.72624" y2="61.4415" gradientUnits="userSpaceOnUse">
<stop stop-color="#786DAB"/>
<stop offset="0.5258" stop-color="#6867A3"/>
<stop offset="1" stop-color="#54517A"/>
</linearGradient>
<linearGradient id="paint39_linear_4922_22331" x1="5.37672" y1="74.016" x2="10.7157" y2="51.8514" gradientUnits="userSpaceOnUse">
<stop stop-color="#8780E9"/>
<stop offset="0.7401" stop-color="#DBD8DF"/>
<stop offset="1" stop-color="#B7C4E1"/>
</linearGradient>
<linearGradient id="paint40_linear_4922_22331" x1="7.27737" y1="55.2094" x2="5.02145" y2="59.2725" gradientUnits="userSpaceOnUse">
<stop stop-color="#786DAB"/>
<stop offset="0.5258" stop-color="#6867A3"/>
<stop offset="1" stop-color="#54517A"/>
</linearGradient>
<linearGradient id="paint41_linear_4922_22331" x1="10.1347" y1="60.5579" x2="11.1093" y2="56.5117" gradientUnits="userSpaceOnUse">
<stop stop-color="white"/>
<stop offset="0.4444" stop-color="#621DEB"/>
<stop offset="1" stop-color="#681EB2"/>
</linearGradient>
<linearGradient id="paint42_linear_4922_22331" x1="9.95753" y1="50.948" x2="10.198" y2="55.6474" gradientUnits="userSpaceOnUse">
<stop stop-color="#E9BB38"/>
<stop offset="1"/>
</linearGradient>
<linearGradient id="paint43_linear_4922_22331" x1="8.05465" y1="67.5789" x2="7.30233" y2="71.1007" gradientUnits="userSpaceOnUse">
<stop stop-color="#E9BB38"/>
<stop offset="1"/>
</linearGradient>
<linearGradient id="paint44_linear_4922_22331" x1="9.69871" y1="54.1524" x2="7.6223" y2="58.197" gradientUnits="userSpaceOnUse">
<stop stop-color="#E9BB38"/>
<stop offset="1"/>
</linearGradient>
<radialGradient id="paint45_radial_4922_22331" cx="0" cy="0" r="1" gradientUnits="userSpaceOnUse" gradientTransform="translate(10.4119 50.8847) rotate(13.5442) scale(3.50778 5.55591)">
<stop stop-color="#2B3987"/>
<stop offset="0.1528" stop-color="#273379"/>
<stop offset="0.439" stop-color="#1B2456"/>
<stop offset="0.8249" stop-color="#090C1C"/>
<stop offset="1"/>
</radialGradient>
<linearGradient id="paint46_linear_4922_22331" x1="5.55301" y1="67.2553" x2="10.3532" y2="75.252" gradientUnits="userSpaceOnUse">
<stop stop-color="#705AB6"/>
<stop offset="1" stop-color="white"/>
</linearGradient>
<linearGradient id="paint47_linear_4922_22331" x1="10.5719" y1="31.4556" x2="11.5011" y2="45.655" gradientUnits="userSpaceOnUse">
<stop stop-color="#786DAB"/>
<stop offset="0.5258" stop-color="#6867A3"/>
<stop offset="1" stop-color="#54517A"/>
</linearGradient>
<linearGradient id="paint48_linear_4922_22331" x1="11.5239" y1="34.4969" x2="11.4063" y2="33.0825" gradientUnits="userSpaceOnUse">
<stop stop-color="#705AB6"/>
<stop offset="1" stop-color="#181D3B"/>
</linearGradient>
<linearGradient id="paint49_linear_4922_22331" x1="12.6432" y1="48.516" x2="18.0975" y2="58.3291" gradientUnits="userSpaceOnUse">
<stop stop-color="#705AB6"/>
<stop offset="1" stop-color="white"/>
</linearGradient>
<linearGradient id="paint50_linear_4922_22331" x1="8.3897" y1="44.0315" x2="9.56858" y2="38.9421" gradientUnits="userSpaceOnUse">
<stop stop-color="#96A9D0"/>
<stop offset="1" stop-color="#D8DFED"/>
</linearGradient>
<linearGradient id="paint51_linear_4922_22331" x1="11.8841" y1="58.4671" x2="14.3233" y2="59.0914" gradientUnits="userSpaceOnUse">
<stop stop-color="#E9BB38"/>
<stop offset="1"/>
</linearGradient>
<linearGradient id="paint52_linear_4922_22331" x1="15.6609" y1="53.4462" x2="15.4572" y2="50.9972" gradientUnits="userSpaceOnUse">
<stop stop-color="#705AB6"/>
<stop offset="1" stop-color="#181D3B"/>
</linearGradient>
<linearGradient id="paint53_linear_4922_22331" x1="94.5655" y1="50.5603" x2="68.259" y2="52.2942" gradientUnits="userSpaceOnUse">
<stop stop-color="#8780E9"/>
<stop offset="1" stop-color="#705AB6"/>
</linearGradient>
<linearGradient id="paint54_linear_4922_22331" x1="95.8551" y1="70.1164" x2="69.5486" y2="71.8502" gradientUnits="userSpaceOnUse">
<stop stop-color="#8780E9"/>
<stop offset="1" stop-color="#705AB6"/>
</linearGradient>
<linearGradient id="paint55_linear_4922_22331" x1="95.4515" y1="64.0127" x2="69.1458" y2="65.7466" gradientUnits="userSpaceOnUse">
<stop stop-color="#8780E9"/>
<stop offset="1" stop-color="#705AB6"/>
</linearGradient>
<linearGradient id="paint56_linear_4922_22331" x1="90.2763" y1="61.8646" x2="90.2763" y2="32.0571" gradientUnits="userSpaceOnUse">
<stop stop-color="#8780E9"/>
<stop offset="0.7401" stop-color="#DBD8DF"/>
<stop offset="1" stop-color="#B7C4E1"/>
</linearGradient>
<linearGradient id="paint57_linear_4922_22331" x1="88.489" y1="62.2231" x2="90.3869" y2="39.4072" gradientUnits="userSpaceOnUse">
<stop stop-color="#705AB6"/>
<stop offset="1" stop-color="white"/>
</linearGradient>
<linearGradient id="paint58_linear_4922_22331" x1="84.1971" y1="64.8096" x2="92.5073" y2="63.6904" gradientUnits="userSpaceOnUse">
<stop stop-color="#786DAB"/>
<stop offset="0.5258" stop-color="#6867A3"/>
<stop offset="1" stop-color="#54517A"/>
</linearGradient>
<linearGradient id="paint59_linear_4922_22331" x1="94.3298" y1="51.8287" x2="96.2612" y2="61.4416" gradientUnits="userSpaceOnUse">
<stop stop-color="#786DAB"/>
<stop offset="0.5258" stop-color="#6867A3"/>
<stop offset="1" stop-color="#54517A"/>
</linearGradient>
<linearGradient id="paint60_linear_4922_22331" x1="94.6105" y1="74.0161" x2="89.2715" y2="51.8515" gradientUnits="userSpaceOnUse">
<stop stop-color="#8780E9"/>
<stop offset="0.7401" stop-color="#DBD8DF"/>
<stop offset="1" stop-color="#B7C4E1"/>
</linearGradient>
<linearGradient id="paint61_linear_4922_22331" x1="92.7118" y1="55.2095" x2="94.9682" y2="59.2724" gradientUnits="userSpaceOnUse">
<stop stop-color="#786DAB"/>
<stop offset="0.5258" stop-color="#6867A3"/>
<stop offset="1" stop-color="#54517A"/>
</linearGradient>
<linearGradient id="paint62_linear_4922_22331" x1="89.8521" y1="60.558" x2="88.8774" y2="56.5118" gradientUnits="userSpaceOnUse">
<stop stop-color="white"/>
<stop offset="0.4444" stop-color="#621DEB"/>
<stop offset="1" stop-color="#681EB2"/>
</linearGradient>
<linearGradient id="paint63_linear_4922_22331" x1="90.0301" y1="50.9479" x2="89.7894" y2="55.6474" gradientUnits="userSpaceOnUse">
<stop stop-color="#E9BB38"/>
<stop offset="1"/>
</linearGradient>
<linearGradient id="paint64_linear_4922_22331" x1="91.9332" y1="67.5788" x2="92.6858" y2="71.1006" gradientUnits="userSpaceOnUse">
<stop stop-color="#E9BB38"/>
<stop offset="1"/>
</linearGradient>
<linearGradient id="paint65_linear_4922_22331" x1="90.29" y1="54.1524" x2="92.3669" y2="58.1969" gradientUnits="userSpaceOnUse">
<stop stop-color="#E9BB38"/>
<stop offset="1"/>
</linearGradient>
<radialGradient id="paint66_radial_4922_22331" cx="0" cy="0" r="1" gradientUnits="userSpaceOnUse" gradientTransform="translate(89.7692 50.8511) rotate(166.457) scale(3.58781 5.55592)">
<stop stop-color="#2B3987"/>
<stop offset="0.1528" stop-color="#273379"/>
<stop offset="0.439" stop-color="#1B2456"/>
<stop offset="0.8249" stop-color="#090C1C"/>
<stop offset="1"/>
</radialGradient>
<linearGradient id="paint67_linear_4922_22331" x1="94.4343" y1="67.2553" x2="89.6342" y2="75.252" gradientUnits="userSpaceOnUse">
<stop stop-color="#705AB6"/>
<stop offset="1" stop-color="white"/>
</linearGradient>
<linearGradient id="paint68_linear_4922_22331" x1="89.4143" y1="31.4556" x2="88.4851" y2="45.6549" gradientUnits="userSpaceOnUse">
<stop stop-color="#786DAB"/>
<stop offset="0.5258" stop-color="#6867A3"/>
<stop offset="1" stop-color="#54517A"/>
</linearGradient>
<linearGradient id="paint69_linear_4922_22331" x1="88.4646" y1="34.4969" x2="88.5823" y2="33.0825" gradientUnits="userSpaceOnUse">
<stop stop-color="#705AB6"/>
<stop offset="1" stop-color="#181D3B"/>
</linearGradient>
<linearGradient id="paint70_linear_4922_22331" x1="87.3453" y1="48.516" x2="81.8907" y2="58.3292" gradientUnits="userSpaceOnUse">
<stop stop-color="#705AB6"/>
<stop offset="1" stop-color="white"/>
</linearGradient>
<linearGradient id="paint71_linear_4922_22331" x1="91.5976" y1="44.0316" x2="90.4191" y2="38.9422" gradientUnits="userSpaceOnUse">
<stop stop-color="#96A9D0"/>
<stop offset="1" stop-color="#D8DFED"/>
</linearGradient>
<linearGradient id="paint72_linear_4922_22331" x1="88.1018" y1="58.4671" x2="85.6627" y2="59.0914" gradientUnits="userSpaceOnUse">
<stop stop-color="#E9BB38"/>
<stop offset="1"/>
</linearGradient>
<linearGradient id="paint73_linear_4922_22331" x1="84.327" y1="53.4462" x2="84.5307" y2="50.9972" gradientUnits="userSpaceOnUse">
<stop stop-color="#705AB6"/>
<stop offset="1" stop-color="#181D3B"/>
</linearGradient>
<linearGradient id="paint74_linear_4922_22331" x1="31.9039" y1="88.9999" x2="31.9039" y2="73.4321" gradientUnits="userSpaceOnUse">
<stop stop-color="#8780E9"/>
<stop offset="0.7401" stop-color="#DBD8DF"/>
<stop offset="1" stop-color="#B7C4E1"/>
</linearGradient>
<linearGradient id="paint75_linear_4922_22331" x1="42.3467" y1="81.2452" x2="48.6479" y2="81.2452" gradientUnits="userSpaceOnUse">
<stop stop-color="#705AB6"/>
<stop offset="1" stop-color="white"/>
</linearGradient>
<linearGradient id="paint76_linear_4922_22331" x1="37.3561" y1="88.9996" x2="37.3561" y2="78.8173" gradientUnits="userSpaceOnUse">
<stop stop-color="#786DAB"/>
<stop offset="0.5258" stop-color="#6867A3"/>
<stop offset="1" stop-color="#54517A"/>
</linearGradient>
<linearGradient id="paint77_linear_4922_22331" x1="19.7642" y1="84.1596" x2="19.7642" y2="79.2078" gradientUnits="userSpaceOnUse">
<stop stop-color="#786DAB"/>
<stop offset="0.5258" stop-color="#6867A3"/>
<stop offset="1" stop-color="#54517A"/>
</linearGradient>
<linearGradient id="paint78_linear_4922_22331" x1="35.9887" y1="80.8612" x2="44.9127" y2="80.8612" gradientUnits="userSpaceOnUse">
<stop stop-color="#705AB6"/>
<stop offset="1" stop-color="white"/>
</linearGradient>
<linearGradient id="paint79_linear_4922_22331" x1="36.9453" y1="74.5825" x2="38.8275" y2="79.8226" gradientUnits="userSpaceOnUse">
<stop stop-color="#E9BB38"/>
<stop offset="1"/>
</linearGradient>
<linearGradient id="paint80_linear_4922_22331" x1="15.161" y1="83.3698" x2="34.0484" y2="83.3698" gradientUnits="userSpaceOnUse">
<stop stop-color="#705AB6"/>
<stop offset="1" stop-color="white"/>
</linearGradient>
<linearGradient id="paint81_linear_4922_22331" x1="68.0707" y1="88.9999" x2="68.0707" y2="73.4321" gradientUnits="userSpaceOnUse">
<stop stop-color="#8780E9"/>
<stop offset="0.7401" stop-color="#DBD8DF"/>
<stop offset="1" stop-color="#B7C4E1"/>
</linearGradient>
<linearGradient id="paint82_linear_4922_22331" x1="57.6291" y1="81.2452" x2="51.3282" y2="81.2452" gradientUnits="userSpaceOnUse">
<stop stop-color="#705AB6"/>
<stop offset="1" stop-color="white"/>
</linearGradient>
<linearGradient id="paint83_linear_4922_22331" x1="62.6191" y1="88.9996" x2="62.6191" y2="78.8173" gradientUnits="userSpaceOnUse">
<stop stop-color="#786DAB"/>
<stop offset="0.5258" stop-color="#6867A3"/>
<stop offset="1" stop-color="#54517A"/>
</linearGradient>
<linearGradient id="paint84_linear_4922_22331" x1="80.211" y1="84.1596" x2="80.211" y2="79.2078" gradientUnits="userSpaceOnUse">
<stop stop-color="#786DAB"/>
<stop offset="0.5258" stop-color="#6867A3"/>
<stop offset="1" stop-color="#54517A"/>
</linearGradient>
<linearGradient id="paint85_linear_4922_22331" x1="63.9867" y1="80.8612" x2="55.0626" y2="80.8612" gradientUnits="userSpaceOnUse">
<stop stop-color="#705AB6"/>
<stop offset="1" stop-color="white"/>
</linearGradient>
<linearGradient id="paint86_linear_4922_22331" x1="63.0302" y1="74.5825" x2="61.148" y2="79.8226" gradientUnits="userSpaceOnUse">
<stop stop-color="#E9BB38"/>
<stop offset="1"/>
</linearGradient>
<linearGradient id="paint87_linear_4922_22331" x1="84.8146" y1="83.3698" x2="65.9272" y2="83.3698" gradientUnits="userSpaceOnUse">
<stop stop-color="#705AB6"/>
<stop offset="1" stop-color="white"/>
</linearGradient>
<linearGradient id="paint88_linear_4922_22331" x1="49.997" y1="83.6053" x2="49.997" y2="106.409" gradientUnits="userSpaceOnUse">
<stop offset="0.00396825" stop-color="#572CD4"/>
<stop offset="0.2277" stop-color="#5A2CD4"/>
<stop offset="0.4149" stop-color="#652CD4"/>
<stop offset="0.5889" stop-color="#762DD5"/>
<stop offset="0.755" stop-color="#8E2ED6"/>
<stop offset="0.914" stop-color="#AE2ED6"/>
<stop offset="1" stop-color="#C22FD7"/>
</linearGradient>
<linearGradient id="paint89_linear_4922_22331" x1="50.3676" y1="92.6855" x2="50.3676" y2="82.7002" gradientUnits="userSpaceOnUse">
<stop stop-color="#E32222"/>
<stop offset="1"/>
</linearGradient>
<linearGradient id="paint90_linear_4922_22331" x1="50.2571" y1="94.163" x2="50.2571" y2="104.938" gradientUnits="userSpaceOnUse">
<stop offset="0.00396825" stop-color="#662D8A"/>
<stop offset="0.1081" stop-color="#6F3A91"/>
<stop offset="0.3005" stop-color="#885CA4"/>
<stop offset="0.5599" stop-color="#B093C3"/>
<stop offset="0.873" stop-color="#E7DEED"/>
<stop offset="1" stop-color="white"/>
</linearGradient>
<linearGradient id="paint91_linear_4922_22331" x1="50.0742" y1="85.0717" x2="50.0742" y2="96.7684" gradientUnits="userSpaceOnUse">
<stop stop-color="#B353D3"/>
<stop offset="0.6959" stop-color="#4A21C9"/>
<stop offset="0.7488" stop-color="#5522CA"/>
<stop offset="0.8407" stop-color="#7123CB"/>
<stop offset="0.9599" stop-color="#9F25CD"/>
<stop offset="1" stop-color="#B026CE"/>
</linearGradient>
<linearGradient id="paint92_linear_4922_22331" x1="48.1117" y1="84.2412" x2="48.0136" y2="89.3267" gradientUnits="userSpaceOnUse">
<stop stop-color="#80B2FF"/>
<stop offset="1"/>
</linearGradient>
<linearGradient id="paint93_linear_4922_22331" x1="50.0742" y1="112.417" x2="50.0742" y2="85.9355" gradientUnits="userSpaceOnUse">
<stop offset="0.00396825" stop-color="#E84136"/>
<stop offset="0.1119" stop-color="#E94D43"/>
<stop offset="0.3111" stop-color="#ED6D65"/>
<stop offset="0.5797" stop-color="#F4A19C"/>
<stop offset="0.9041" stop-color="#FCE9E7"/>
<stop offset="1" stop-color="white"/>
</linearGradient>
<linearGradient id="paint94_linear_4922_22331" x1="40.2111" y1="95.6042" x2="40.2111" y2="92.6188" gradientUnits="userSpaceOnUse">
<stop stop-color="#E72A7B"/>
<stop offset="1"/>
</linearGradient>
<linearGradient id="paint95_linear_4922_22331" x1="50.0742" y1="96.9769" x2="50.0742" y2="94.3997" gradientUnits="userSpaceOnUse">
<stop offset="0.00793651" stop-color="#705AB8"/>
<stop offset="0.1339" stop-color="#7B67BE"/>
<stop offset="0.3664" stop-color="#9989CC"/>
<stop offset="0.6799" stop-color="#C8C0E4"/>
<stop offset="1" stop-color="white"/>
</linearGradient>
<radialGradient id="paint96_radial_4922_22331" cx="0" cy="0" r="1" gradientUnits="userSpaceOnUse" gradientTransform="translate(49.9287 90.3915) scale(15.2224 4.02379)">
<stop offset="0.1627" stop-color="#E72A7B"/>
<stop offset="0.2423" stop-color="#DB2875"/>
<stop offset="0.3862" stop-color="#BB2264"/>
<stop offset="0.5783" stop-color="#871948"/>
<stop offset="0.8082" stop-color="#400C22"/>
<stop offset="1"/>
</radialGradient>
<linearGradient id="paint97_linear_4922_22331" x1="31.8458" y1="86.6398" x2="47.5148" y2="86.6398" gradientUnits="userSpaceOnUse">
<stop stop-color="#EBC0B6"/>
<stop offset="0.9921" stop-color="#EBAFE7"/>
</linearGradient>
<linearGradient id="paint98_linear_4922_22331" x1="57.5427" y1="95.3575" x2="67.2751" y2="95.3575" gradientUnits="userSpaceOnUse">
<stop stop-color="#E67862"/>
<stop offset="1" stop-color="#EB7052"/>
</linearGradient>
<linearGradient id="paint99_linear_4922_22331" x1="49.9934" y1="93.4817" x2="49.9934" y2="101.727" gradientUnits="userSpaceOnUse">
<stop stop-color="#7671B0"/>
<stop offset="1" stop-color="#705AB8"/>
</linearGradient>
<linearGradient id="paint100_linear_4922_22331" x1="49.8511" y1="101.297" x2="50.0586" y2="80.7822" gradientUnits="userSpaceOnUse">
<stop stop-color="#8288B7"/>
<stop offset="0.7401" stop-color="#DAE1EF"/>
<stop offset="1" stop-color="#B9C6E3"/>
</linearGradient>
<linearGradient id="paint101_linear_4922_22331" x1="49.9284" y1="94.7179" x2="49.9284" y2="100.979" gradientUnits="userSpaceOnUse">
<stop stop-color="#8288B7"/>
<stop offset="0.7401" stop-color="#DAE1EF"/>
<stop offset="1" stop-color="#B9C6E3"/>
</linearGradient>
<linearGradient id="paint102_linear_4922_22331" x1="25.6883" y1="79.9012" x2="25.6883" y2="97.7863" gradientUnits="userSpaceOnUse">
<stop stop-color="#8288B7"/>
<stop offset="0.7401" stop-color="#DAE1EF"/>
<stop offset="1" stop-color="#B9C6E3"/>
</linearGradient>
<linearGradient id="paint103_linear_4922_22331" x1="74.3799" y1="79.7076" x2="74.3799" y2="97.7958" gradientUnits="userSpaceOnUse">
<stop stop-color="#8288B7"/>
<stop offset="0.7401" stop-color="#DAE1EF"/>
<stop offset="1" stop-color="#B9C6E3"/>
</linearGradient>
<linearGradient id="paint104_linear_4922_22331" x1="49.945" y1="80.9322" x2="50.2792" y2="108.315" gradientUnits="userSpaceOnUse">
<stop stop-color="#705AB8"/>
<stop offset="1" stop-color="white"/>
</linearGradient>
<linearGradient id="paint105_linear_4922_22331" x1="50.3326" y1="80.8585" x2="50.3326" y2="91.9448" gradientUnits="userSpaceOnUse">
<stop stop-color="#8980EB"/>
<stop offset="1" stop-color="#705AB8"/>
</linearGradient>
<linearGradient id="paint106_linear_4922_22331" x1="40.2714" y1="82.4325" x2="43.9707" y2="82.4325" gradientUnits="userSpaceOnUse">
<stop stop-color="white"/>
<stop offset="1" stop-color="#FFF7C4"/>
</linearGradient>
<radialGradient id="paint107_radial_4922_22331" cx="0" cy="0" r="1" gradientUnits="userSpaceOnUse" gradientTransform="translate(42.4174 82.1467) scale(4.10878 2.69707)">
<stop stop-color="#2B3989"/>
<stop offset="0.1509" stop-color="#27337B"/>
<stop offset="0.4337" stop-color="#1C2458"/>
<stop offset="0.8149" stop-color="#0A0D1E"/>
<stop offset="1"/>
</radialGradient>
<linearGradient id="paint108_linear_4922_22331" x1="58.8131" y1="86.5153" x2="58.8605" y2="81.8302" gradientUnits="userSpaceOnUse">
<stop stop-color="#8980EB"/>
<stop offset="1" stop-color="#ADBEDF"/>
</linearGradient>
<linearGradient id="paint109_linear_4922_22331" x1="32.8501" y1="98.59" x2="60.8939" y2="98.59" gradientUnits="userSpaceOnUse">
<stop stop-color="white"/>
<stop offset="1" stop-color="#FFF7C4"/>
</linearGradient>
<radialGradient id="paint110_radial_4922_22331" cx="0" cy="0" r="1" gradientUnits="userSpaceOnUse" gradientTransform="translate(61.2575 96.035) rotate(-8.73541) scale(14.1548 3.48138)">
<stop stop-color="#2B3989"/>
<stop offset="0.1509" stop-color="#27337B"/>
<stop offset="0.4337" stop-color="#1C2458"/>
<stop offset="0.8149" stop-color="#0A0D1E"/>
<stop offset="1"/>
</radialGradient>
</defs>
</svg>
