<svg width="88" height="88" viewBox="0 0 88 88" fill="none" xmlns="http://www.w3.org/2000/svg">
<path d="M9.34893 51.2054C9.34893 51.1084 9.48392 50.1384 9.07892 48.8774C8.67392 47.5194 7.27892 47.7619 7.27892 47.7619L7.00892 46.5009L6.91893 46.0644L6.82892 45.5794L6.64893 44.7549L7.05392 42.8149L7.32393 41.6509C7.32393 41.6509 8.67392 41.9419 9.07892 40.5839C9.48392 39.2744 9.34893 38.3044 9.34893 38.2559C9.39393 38.3044 12.1839 40.3414 11.3289 43.5909C11.1939 44.0759 11.0139 44.4639 10.7889 44.7549C11.0139 45.0459 11.1939 45.4339 11.3289 45.9189C12.2289 49.1684 9.34893 51.2054 9.34893 51.2054Z" fill="url(#paint0_linear_4922_76312)"/>
<path d="M10.2938 41.992C10.1138 43.253 7.68379 43.3015 7.00879 43.059L7.32379 41.604C7.32379 41.604 8.67379 41.895 9.07879 40.537C9.48379 39.2275 9.34879 38.2575 9.34879 38.209C9.39379 38.306 10.4738 40.731 10.2938 41.992Z" fill="url(#paint1_linear_4922_76312)"/>
<path d="M9.34862 51.2061C9.34862 51.1091 9.48361 50.1391 9.07861 48.8781C8.67361 47.5201 7.27861 47.7626 7.27861 47.7626L6.82861 45.5801C9.75361 45.5801 10.9236 47.1321 9.34862 51.2061Z" fill="url(#paint2_linear_4922_76312)"/>
<path opacity="0.5" d="M7.68408 44.757C10.7891 44.5145 11.5091 42.332 11.5091 42.332C11.5091 42.332 11.5991 43.593 10.8341 44.757C10.8341 44.757 11.5541 45.63 11.5091 47.182C11.5091 47.182 11.0591 46.0665 9.88909 45.2905C8.89909 44.6115 7.68408 44.757 7.68408 44.757Z" fill="url(#paint3_linear_4922_76312)"/>
<path opacity="0.5" d="M7.86393 41.652C7.72893 42.428 8.22393 43.204 8.22393 43.204C8.22393 43.204 7.72893 44.95 8.08893 45.726L7.99893 47.8115L7.32393 47.763L6.64893 44.7075L7.32393 41.6035L7.86393 41.652Z" fill="url(#paint4_linear_4922_76312)"/>
<path d="M78.8735 51.2054C78.8735 51.1084 78.7385 50.1384 79.1435 48.8774C79.5485 47.5194 80.9435 47.7619 80.9435 47.7619L81.2135 46.5009L81.3035 46.0644L81.3935 45.5794L81.5735 44.7549L81.1685 42.8149L80.8985 41.6509C80.8985 41.6509 79.5485 41.9419 79.1435 40.5839C78.7385 39.2744 78.8735 38.3044 78.8735 38.2559C78.8285 38.3044 76.0385 40.3414 76.8935 43.5909C77.0285 44.0759 77.2085 44.4639 77.4335 44.7549C77.2085 45.0459 77.0285 45.4339 76.8935 45.9189C75.9935 49.1684 78.8735 51.2054 78.8735 51.2054Z" fill="url(#paint5_linear_4922_76312)"/>
<path d="M77.8828 41.992C78.0628 43.253 80.4928 43.3015 81.1678 43.059L80.8528 41.604C80.8528 41.604 79.5028 41.895 79.0978 40.537C78.6928 39.2275 78.8278 38.2575 78.8278 38.209C78.8278 38.306 77.7028 40.731 77.8828 41.992Z" fill="url(#paint6_linear_4922_76312)"/>
<path d="M78.873 51.2061C78.873 51.1091 78.738 50.1391 79.143 48.8781C79.548 47.5201 80.943 47.7626 80.943 47.7626L81.393 45.5801C78.423 45.5801 77.298 47.1321 78.873 51.2061Z" fill="url(#paint7_linear_4922_76312)"/>
<path opacity="0.5" d="M80.4933 44.757C77.3883 44.5145 76.6683 42.332 76.6683 42.332C76.6683 42.332 76.5783 43.593 77.3433 44.757C77.3433 44.757 76.6233 45.63 76.6683 47.182C76.6683 47.182 77.1183 46.0665 78.2883 45.2905C79.2783 44.6115 80.4933 44.757 80.4933 44.757Z" fill="url(#paint8_linear_4922_76312)"/>
<path opacity="0.5" d="M80.3585 41.652C80.4935 42.428 79.9985 43.204 79.9985 43.204C79.9985 43.204 80.4935 44.95 80.1335 45.726L80.2235 47.8115L80.8985 47.763L81.5735 44.7075L80.8985 41.6035L80.3585 41.652Z" fill="url(#paint9_linear_4922_76312)"/>
<path d="M44.0882 0.621094C36.8882 0.621094 30.1382 2.70659 24.3332 6.39259C19.0682 9.73909 14.5682 14.3951 11.2832 19.9241C7.36816 26.4716 5.11816 34.2801 5.11816 42.6221C5.11816 65.8051 22.5782 84.6231 44.0882 84.6231C65.5982 84.6231 83.0581 65.8051 83.0581 42.6221C83.1031 19.4391 65.6432 0.621094 44.0882 0.621094ZM70.1431 70.7036C63.2131 78.1726 53.9431 82.3436 44.1331 82.3436C34.3232 82.3436 25.0532 78.2211 18.1232 70.7036C11.1932 63.2346 7.32316 53.2436 7.32316 42.6706C7.32316 34.7651 9.43816 27.1991 13.4432 20.7486C14.7932 18.5661 16.3682 16.5291 18.1232 14.6376C20.1932 12.4066 22.4882 10.4666 24.9182 8.86609C30.6332 5.08309 37.2482 3.04609 44.1782 3.04609C53.9882 3.04609 63.2582 7.16859 70.1882 14.6861C77.1182 22.1551 80.9882 32.1461 80.9882 42.7191C80.8982 53.2436 77.0731 63.2346 70.1431 70.7036Z" fill="url(#paint10_linear_4922_76312)"/>
<path opacity="0.5" d="M44.0891 83.5082C26.4941 83.5082 11.5991 71.1407 6.55908 54.1172C11.1941 71.7712 26.2241 84.6722 44.0891 84.6722C61.9541 84.6722 76.9841 71.7712 81.6191 54.1172C76.6241 71.1407 61.6841 83.5082 44.0891 83.5082Z" fill="url(#paint11_linear_4922_76312)"/>
<path d="M70.8636 13.8138C63.7086 6.10231 54.2136 1.88281 44.0886 1.88281C33.9636 1.88281 24.4687 6.10231 17.3137 13.8138C10.1587 21.5253 6.24365 31.7588 6.24365 42.6713C6.24365 53.5838 10.1587 63.8173 17.3137 71.5288C24.4687 79.2403 33.9636 83.4598 44.0886 83.4598C54.2136 83.4598 63.7086 79.2403 70.8636 71.5288C78.0186 63.8173 81.9336 53.5838 81.9336 42.6713C81.9336 31.7588 78.0186 21.5253 70.8636 13.8138ZM70.1436 70.7043C63.2136 78.1733 53.9436 82.3443 44.1336 82.3443C34.3236 82.3443 25.0536 78.2218 18.1236 70.7043C11.1936 63.2353 7.32365 53.2443 7.32365 42.6713C7.32365 32.0983 11.1486 22.1073 18.1236 14.6383C25.0536 7.16932 34.3236 2.99831 44.1336 2.99831C53.9436 2.99831 63.2136 7.12082 70.1436 14.6383C77.0736 22.1073 80.9436 32.0983 80.9436 42.6713C80.8986 53.2443 77.0736 63.2353 70.1436 70.7043Z" fill="url(#paint12_linear_4922_76312)"/>
<path opacity="0.5" d="M81.6191 31.1761C76.9841 13.5221 61.9541 0.621094 44.0891 0.621094C26.2241 0.621094 11.1941 13.5221 6.55908 31.1761C11.5541 14.1526 26.4941 1.88209 44.0891 1.88209C61.6841 1.88209 76.6241 14.1526 81.6191 31.1761Z" fill="url(#paint13_linear_4922_76312)"/>
<path opacity="0.5" d="M79.9089 33.3598C81.4839 33.4568 82.2939 34.0388 82.2939 34.0388C82.2939 34.0388 81.5289 30.4013 80.9439 28.9948L78.6489 28.8008C78.6489 28.8008 79.0089 29.9648 79.3239 30.9348C79.5939 31.8563 79.9089 33.3598 79.9089 33.3598Z" fill="url(#paint14_linear_4922_76312)"/>
<path opacity="0.5" d="M74.4189 65.1753C74.4189 65.1753 75.7689 65.8543 76.8939 65.4178C76.8939 65.4178 78.289 63.2838 78.559 62.3623L76.174 62.2168L74.4189 65.1753Z" fill="url(#paint15_linear_4922_76312)"/>
<g style="mix-blend-mode:color-dodge" opacity="0.6">
<path d="M44.2686 2.85275C48.4687 2.85275 51.8736 2.37504 51.8736 1.78575C51.8736 1.19646 48.4687 0.71875 44.2686 0.71875C40.0684 0.71875 36.6636 1.19646 36.6636 1.78575C36.6636 2.37504 40.0684 2.85275 44.2686 2.85275Z" fill="url(#paint16_radial_4922_76312)"/>
</g>
<path d="M75.5889 17.8885L76.8489 19.8285C78.8289 18.616 79.8639 19.4405 79.8639 19.4405C81.1689 21.623 81.3489 26.6185 81.3489 26.6185L81.7989 27.3945L83.2839 29.868C85.6239 23.4175 84.2739 16.7245 83.4639 15.997C82.7439 15.221 78.0639 15.9485 75.5889 17.8885Z" fill="url(#paint17_linear_4922_76312)"/>
<path d="M76.3989 19.1023L76.8489 19.8298C78.8289 18.6173 79.8639 19.4418 79.8639 19.4418C81.1689 21.6243 81.3489 26.6198 81.3489 26.6198L81.7989 27.3958C81.9789 26.5228 83.2839 20.2178 82.2039 17.8413C81.3039 15.7073 77.7039 18.1323 76.3989 19.1023Z" fill="url(#paint18_linear_4922_76312)"/>
<g opacity="0.5" filter="url(#filter0_f_4922_76312)">
<path d="M82.2489 17.7923C83.0139 20.7993 82.2939 21.9633 81.5739 21.9148C81.0339 21.8663 79.6839 19.6838 80.3139 18.9078C80.8989 18.1803 82.0239 16.8223 82.2489 17.7923Z" fill="url(#paint19_linear_4922_76312)"/>
</g>
<path d="M79.8185 74.8271C80.7185 74.2451 83.0135 67.8431 81.5285 61.1016L79.6835 63.2841L79.0985 63.9631C79.0985 63.9631 78.4685 67.5036 77.2985 69.7831C77.1185 70.1711 76.8935 70.5106 76.6685 70.8016C76.6685 70.8016 75.4985 71.4806 73.6985 69.9286L72.1685 71.6261C74.4185 74.0026 78.9635 75.4576 79.8185 74.8271Z" fill="url(#paint20_linear_4922_76312)"/>
<path opacity="0.5" d="M79.8188 74.8271C80.7188 74.2451 83.0138 67.8431 81.5288 61.1016L79.6838 63.2841L79.0988 63.9631C79.0988 63.9631 78.4688 67.5036 77.2988 69.7831C77.7488 71.7231 78.1538 73.3236 78.1538 73.3236C78.0188 74.2936 78.9638 75.0696 79.8188 74.8271Z" fill="url(#paint21_linear_4922_76312)"/>
<path d="M73.2041 70.6087C74.3741 71.7727 77.5691 74.7312 78.8291 72.7912C80.2691 70.6087 79.8191 64.1582 79.7291 63.2852L79.1441 63.9642C79.1441 63.9642 78.2441 68.8627 76.6691 70.8027C76.6691 70.8027 75.4991 71.4817 73.6991 69.9297L73.2041 70.6087Z" fill="url(#paint22_linear_4922_76312)"/>
<g style="mix-blend-mode:color-dodge" opacity="0.5" filter="url(#filter1_f_4922_76312)">
<path d="M76.9387 70.8019C76.6687 71.3354 78.2437 73.2754 78.6037 72.8874C79.6387 71.6749 79.7737 68.2799 79.0537 67.9404C78.3787 67.5524 77.6587 69.3469 76.9387 70.8019Z" fill="#FFF09C"/>
</g>
<path d="M71.7184 32.7302C72.6184 36.3677 75.4084 36.4647 75.4084 36.4647C75.2284 36.2222 75.0934 35.9312 75.0034 35.6887C74.8234 34.9127 75.1384 34.1367 75.4984 33.7002L75.5434 33.6517C76.3534 33.0212 81.7534 31.3237 83.0134 34.4762C83.3734 35.3492 83.5084 36.2707 83.4634 37.1437C83.4634 38.9382 82.9684 40.2962 82.9684 40.2962L83.0134 42.6242V44.3702C86.2984 40.3932 87.4234 31.8572 87.1984 30.9357C86.9734 30.0142 82.4734 25.0672 76.0384 25.6007C74.3284 25.7462 72.1684 27.7347 71.6284 30.2567C71.5384 31.0327 71.4934 31.9057 71.7184 32.7302Z" fill="url(#paint23_linear_4922_76312)"/>
<path opacity="0.5" d="M71.7184 32.7313C72.6184 36.3688 75.4084 36.4658 75.4084 36.4658C75.2284 36.2233 75.0934 35.9323 75.0034 35.6898C74.8234 34.9138 75.1384 34.1378 75.4984 33.7013L75.5434 33.6528C75.2734 32.8283 75.0484 32.1493 75.0484 32.1493C73.6084 34.0408 71.4934 31.5188 71.6284 30.2578C71.5384 31.0338 71.4934 31.9068 71.7184 32.7313Z" fill="url(#paint24_linear_4922_76312)"/>
<path opacity="0.5" d="M83.0137 40.2472L83.0587 42.5752V44.3212C86.3437 40.3442 87.4687 31.8082 87.2437 30.8867C86.8837 32.5842 85.2187 33.1662 84.8587 32.6812L83.5537 37.0947C83.5087 38.8892 83.0137 40.2472 83.0137 40.2472Z" fill="url(#paint25_linear_4922_76312)"/>
<path d="M75.0487 35.6882C74.8687 34.9122 75.1836 34.1362 75.5436 33.6997C76.0386 33.1662 81.8886 31.1777 83.0586 34.4757C84.0936 37.3372 83.0137 40.2472 83.0137 40.2472L83.0586 42.5752C84.4986 40.2957 85.0387 36.7552 85.1287 33.8452C85.2187 30.9352 79.0986 29.1893 77.3436 29.6743C75.5886 30.1593 74.1487 33.0207 75.0487 35.6882Z" fill="url(#paint26_linear_4922_76312)"/>
<g style="mix-blend-mode:color-dodge" opacity="0.5" filter="url(#filter2_f_4922_76312)">
<path d="M78.7847 26.1342C81.2597 27.7347 76.0397 30.4992 74.7347 30.7417C73.4297 30.9357 71.9447 29.5777 72.5747 28.1712C73.1597 26.7647 76.4447 24.5822 78.7847 26.1342Z" fill="#FFF09C"/>
</g>
<path opacity="0.8" d="M79.1454 25.8443C79.3255 26.3782 78.0194 26.8151 77.569 26.3782C77.1186 25.9414 77.6141 25.6016 77.6141 25.6016C77.6141 25.6016 79.1003 25.6501 79.1454 25.8443Z" fill="white"/>
<g style="mix-blend-mode:difference" opacity="0.3" filter="url(#filter3_f_4922_76312)">
<path d="M76.0843 25.6001C74.2843 27.5401 78.1543 29.6257 78.1543 29.6257C78.1543 29.6257 76.7593 29.4802 75.8143 30.7897C75.8143 30.7897 77.3443 28.3647 75.3193 27.7342C73.2943 27.1522 72.5293 28.1222 72.5293 28.1222C72.5293 28.1222 73.2043 26.9581 74.1493 26.3761C75.4543 25.5516 76.0843 25.6001 76.0843 25.6001Z" fill="url(#paint27_linear_4922_76312)"/>
</g>
<g style="mix-blend-mode:color-dodge" opacity="0.5" filter="url(#filter4_f_4922_76312)">
<path d="M86.704 30.8873C86.974 32.0513 85.804 32.8758 85.084 32.4393C84.364 32.0028 81.889 27.6863 82.699 27.7348C83.509 27.7833 86.209 28.9958 86.704 30.8873Z" fill="#FFF09C"/>
</g>
<g opacity="0.5" filter="url(#filter5_f_4922_76312)">
<path d="M84.8607 33.0237C85.0408 33.4119 83.5098 34.1399 83.1946 33.9943C82.4291 33.6546 81.3034 32.1501 81.3485 31.5192C81.3935 30.0148 84.0502 31.2766 84.8607 33.0237Z" fill="url(#paint28_linear_4922_76312)"/>
</g>
<path opacity="0.5" d="M83.1937 39.6172C83.1937 39.6172 83.6887 40.1507 83.8687 40.9267C83.8687 40.9267 83.6437 42.7212 83.7337 43.4487L83.0587 44.3702L83.0137 40.2962L83.1937 39.6172Z" fill="url(#paint29_linear_4922_76312)"/>
<g style="mix-blend-mode:color-dodge" opacity="0.5">
<path d="M72.7541 28.4143C72.7091 29.9663 74.8241 31.2758 77.4341 31.3728C80.0891 31.4698 82.2941 30.3058 82.3391 28.8023C82.3841 27.2503 80.2691 25.9408 77.6591 25.8438C75.0041 25.7468 72.8441 26.8623 72.7541 28.4143Z" fill="url(#paint30_radial_4922_76312)"/>
</g>
<path d="M76.2189 64.2057C82.6089 64.7392 87.1539 59.7922 87.3789 58.8707C87.6039 57.9492 86.2989 49.1707 83.0139 45.2422L82.7889 47.5217L82.6989 48.3947C82.6989 48.3947 84.4089 52.0807 83.1489 55.3302C81.8889 58.5797 76.1289 56.6397 75.6339 56.1062C75.1389 55.5727 74.7339 54.3602 75.5439 53.3417C75.5439 53.3417 72.7539 53.4387 71.8539 57.0762C71.8539 57.1247 71.8089 57.2217 71.8089 57.2702C71.0439 60.7622 74.0139 64.0117 76.2189 64.2057Z" fill="url(#paint31_linear_4922_76312)"/>
<path opacity="0.5" d="M76.2187 64.2067C82.6087 64.7402 87.1537 59.7932 87.3787 58.8717C85.8937 60.0357 84.6787 57.2712 84.6787 57.2712C84.6787 57.2712 78.2437 60.6662 75.7687 58.8717C75.7687 58.8717 73.9687 60.6177 72.5737 58.7262C72.2137 58.2412 71.9887 57.7562 71.8537 57.2227C71.0437 60.7632 74.0137 64.0127 76.2187 64.2067Z" fill="url(#paint32_linear_4922_76312)"/>
<path d="M75.768 58.8724C77.163 59.7939 83.463 59.5029 84.678 57.2719C85.893 55.0409 84.453 49.1724 82.878 47.5719L82.833 47.5234L82.743 48.3964C82.743 48.3964 84.453 52.0824 83.193 55.3319C81.933 58.5814 76.173 56.6414 75.678 56.1079C75.183 55.5744 74.778 54.3619 75.588 53.3434C73.698 54.7499 74.328 57.9509 75.768 58.8724Z" fill="url(#paint33_linear_4922_76312)"/>
<g style="mix-blend-mode:multiply" opacity="0.5" filter="url(#filter6_f_4922_76312)">
<path d="M82.4732 60.423C83.3282 62.6055 79.3682 64.303 76.8482 63.8665C74.3282 63.43 73.5182 60.811 74.5532 60.2775C75.5882 59.744 81.8432 58.8225 82.4732 60.423Z" fill="url(#paint34_linear_4922_76312)"/>
</g>
<g style="mix-blend-mode:color-dodge" opacity="0.5" filter="url(#filter7_f_4922_76312)">
<path d="M80.1325 57.7073C80.4925 58.5318 78.1076 59.5018 76.6226 58.8713C75.1376 58.2408 75.1826 56.8343 75.4526 56.5918C75.7676 56.3978 79.9975 57.3678 80.1325 57.7073Z" fill="#FFF09C"/>
</g>
<path opacity="0.5" d="M83.824 46.3593C83.824 46.3593 83.2836 46.8931 83.1035 47.9123C83.1035 47.9123 82.8783 48.7373 82.9684 49.1255L82.6982 48.3976L82.9684 45.2431C83.0134 45.1945 83.5088 45.7769 83.824 46.3593Z" fill="url(#paint35_linear_4922_76312)"/>
<g style="mix-blend-mode:color-dodge" opacity="0.5">
<path d="M75.0482 58.4834C75.0482 59.1139 76.2182 59.5504 77.6582 59.5019C79.0982 59.4534 80.1782 58.8714 80.1782 58.2894C80.1782 57.7074 79.0082 57.2224 77.5682 57.2709C76.1282 57.2709 75.0032 57.8529 75.0482 58.4834Z" fill="url(#paint36_radial_4922_76312)"/>
</g>
<path d="M78.0199 57.0279C77.7497 58.0958 76.7588 57.125 76.8939 56.7852L78.0199 57.0279Z" fill="white"/>
<path opacity="0.5" d="M8.31323 33.3598C6.73823 33.4568 5.92822 34.0388 5.92822 34.0388C5.92822 34.0388 6.69322 30.4013 7.27822 28.9948L9.57322 28.8008C9.57322 28.8008 9.21322 29.9648 8.89822 30.9348C8.62822 31.8563 8.31323 33.3598 8.31323 33.3598Z" fill="url(#paint37_linear_4922_76312)"/>
<path opacity="0.5" d="M13.8036 65.1753C13.8036 65.1753 12.4536 65.8543 11.3286 65.4178C11.3286 65.4178 9.93357 63.2838 9.66357 62.3623L12.0486 62.2168L13.8036 65.1753Z" fill="url(#paint38_linear_4922_76312)"/>
<path d="M12.6337 17.8866L11.3737 19.8266C9.39366 18.6141 8.35866 19.4387 8.35866 19.4387C7.05366 21.6212 6.87366 26.6166 6.87366 26.6166L6.42366 27.3926L4.84866 29.8176C2.50866 23.3671 3.85867 16.6741 4.66867 15.9466C5.47867 15.2191 10.1587 15.9466 12.6337 17.8866Z" fill="url(#paint39_linear_4922_76312)"/>
<path d="M11.8242 19.1004L11.3742 19.8279C9.39421 18.6154 8.3592 19.4399 8.3592 19.4399C7.0542 21.6224 6.87421 26.6179 6.87421 26.6179L6.42421 27.3939C6.24421 26.5209 4.93921 20.2159 6.01921 17.8394C6.91921 15.7054 10.4742 18.1304 11.8242 19.1004Z" fill="url(#paint40_linear_4922_76312)"/>
<g opacity="0.5" filter="url(#filter8_f_4922_76312)">
<path d="M5.97368 17.7904C5.20868 20.7974 5.92868 21.9614 6.64868 21.9129C7.18868 21.8644 8.53868 19.6819 7.90868 18.9059C7.27868 18.1784 6.19868 16.8204 5.97368 17.7904Z" fill="url(#paint41_linear_4922_76312)"/>
</g>
<path d="M8.35848 74.8271C7.45848 74.2451 5.16349 67.8431 6.64849 61.1016L8.49349 63.2841L9.07849 63.9631C9.07849 63.9631 9.70849 67.5036 10.8785 69.7831C11.0585 70.1711 11.2835 70.5106 11.5085 70.8016C11.5085 70.8016 12.6785 71.4806 14.4785 69.9286L16.0085 71.6261C13.8035 74.0026 9.25848 75.4576 8.35848 74.8271Z" fill="url(#paint42_linear_4922_76312)"/>
<path opacity="0.5" d="M8.35848 74.8271C7.45848 74.2451 5.16349 67.8431 6.64849 61.1016L8.49349 63.2841L9.07849 63.9631C9.07849 63.9631 9.70849 67.5036 10.8785 69.7831C10.4285 71.7231 10.0235 73.3236 10.0235 73.3236C10.2035 74.2936 9.21348 75.0696 8.35848 74.8271Z" fill="url(#paint43_linear_4922_76312)"/>
<path d="M15.0187 70.6067C13.8487 71.7707 10.6537 74.7292 9.39369 72.7892C7.95369 70.6067 8.40369 64.1562 8.49369 63.2832L9.07868 63.9622C9.07868 63.9622 9.97868 68.8607 11.5537 70.8007C11.5537 70.8007 12.7237 71.4797 14.5237 69.9277L15.0187 70.6067Z" fill="url(#paint44_linear_4922_76312)"/>
<g style="mix-blend-mode:color-dodge" opacity="0.5" filter="url(#filter9_f_4922_76312)">
<path d="M11.2388 70.8019C11.5088 71.3354 9.9338 73.2754 9.5738 72.8874C8.5388 71.6749 8.4038 68.2799 9.1238 67.9404C9.8438 67.5524 10.5638 69.3469 11.2388 70.8019Z" fill="#FFF09C"/>
</g>
<path d="M16.4588 32.7282C15.5588 36.3657 12.7688 36.4627 12.7688 36.4627C12.9488 36.2202 13.0838 35.9292 13.1738 35.6867C13.3538 34.9107 13.0388 34.1347 12.6788 33.6982L12.6338 33.6497C11.8238 33.0192 6.42385 31.3217 5.16385 34.4742C4.80385 35.3472 4.66885 36.2687 4.71385 37.1417C4.71385 38.9362 5.20884 40.2942 5.20884 40.2942L5.16385 42.6222V44.3682C1.87885 40.3912 0.753845 31.8552 0.978845 30.9337C1.20384 30.0122 5.70385 25.0652 12.1389 25.5987C13.8489 25.7442 16.0088 27.7327 16.5488 30.2547C16.6838 31.0307 16.6838 31.9037 16.4588 32.7282Z" fill="url(#paint45_linear_4922_76312)"/>
<path opacity="0.5" d="M16.4583 32.7294C15.5583 36.3669 12.7683 36.4639 12.7683 36.4639C12.9483 36.2214 13.0833 35.9304 13.1733 35.6879C13.3533 34.9119 13.0383 34.1359 12.6783 33.6994L12.6333 33.6509C12.9033 32.8264 13.1283 32.1474 13.1283 32.1474C14.5683 34.0389 16.6833 31.5169 16.5483 30.2559C16.6833 31.0319 16.6833 31.9049 16.4583 32.7294Z" fill="url(#paint46_linear_4922_76312)"/>
<path opacity="0.5" d="M5.20884 40.2453L5.16385 42.5733V44.3193C1.87885 40.3423 0.753845 31.8063 0.978845 30.8848C1.33884 32.5823 3.00385 33.1643 3.36385 32.6793L4.66885 37.0928C4.71385 38.8873 5.20884 40.2453 5.20884 40.2453Z" fill="url(#paint47_linear_4922_76312)"/>
<path d="M13.1738 35.6863C13.3538 34.9103 13.0388 34.1343 12.6788 33.6978C12.1838 33.1643 6.33376 31.1758 5.16376 34.4738C4.12876 37.3353 5.20875 40.2453 5.20875 40.2453L5.16376 42.5733C3.72376 40.2938 3.18376 36.7533 3.09376 33.8433C3.00376 30.9333 9.12375 29.1873 10.8788 29.6723C12.6337 30.1573 14.0288 33.0188 13.1738 35.6863Z" fill="url(#paint48_linear_4922_76312)"/>
<g style="mix-blend-mode:color-dodge" opacity="0.5" filter="url(#filter10_f_4922_76312)">
<path d="M9.43839 26.1322C6.96339 27.7327 12.1834 30.4972 13.4884 30.7397C14.7934 30.9337 16.2784 29.5757 15.6484 28.1692C15.0634 26.7627 11.7784 24.5802 9.43839 26.1322Z" fill="#FFF09C"/>
</g>
<path opacity="0.8" d="M9.03305 25.8423C8.8529 26.3763 10.159 26.8132 10.6094 26.3763C11.0598 25.9394 10.5644 25.5996 10.5644 25.5996C10.5644 25.5996 9.12313 25.6482 9.03305 25.8423Z" fill="white"/>
<g style="mix-blend-mode:difference" opacity="0.3" filter="url(#filter11_f_4922_76312)">
<path d="M12.0934 25.5982C13.8934 27.5382 10.0234 29.6237 10.0234 29.6237C10.0234 29.6237 11.4184 29.4782 12.3634 30.7877C12.3634 30.7877 10.8334 28.3627 12.8584 27.7322C14.8834 27.1502 15.6484 28.1202 15.6484 28.1202C15.6484 28.1202 14.9734 26.9562 14.0284 26.3742C12.7234 25.5497 12.0934 25.5982 12.0934 25.5982Z" fill="url(#paint49_linear_4922_76312)"/>
</g>
<g style="mix-blend-mode:color-dodge" opacity="0.5" filter="url(#filter12_f_4922_76312)">
<path d="M1.51821 30.8853C1.24821 32.0493 2.41821 32.8738 3.13821 32.4373C3.85821 32.0008 6.3332 27.6843 5.5232 27.7328C4.7132 27.7813 1.96821 28.9938 1.51821 30.8853Z" fill="#FFF09C"/>
</g>
<g opacity="0.5" filter="url(#filter13_f_4922_76312)">
<path d="M3.36331 33.0217C3.1832 33.41 4.71415 34.1379 5.02935 33.9923C5.79483 33.6526 6.92055 32.1482 6.87552 31.5173C6.83049 30.0128 4.17382 31.2746 3.36331 33.0217Z" fill="url(#paint50_linear_4922_76312)"/>
</g>
<path opacity="0.5" d="M5.02803 39.6152C5.02803 39.6152 4.53303 40.1487 4.35303 40.9247C4.35303 40.9247 4.57804 42.7192 4.48804 43.4467L5.16304 44.3682L5.20802 40.2942L5.02803 39.6152Z" fill="url(#paint51_linear_4922_76312)"/>
<g style="mix-blend-mode:color-dodge" opacity="0.5">
<path d="M15.4236 28.4118C15.4686 29.9638 13.3536 31.2732 10.7436 31.4187C8.13359 31.5642 5.8836 30.3517 5.8386 28.7997C5.7936 27.2477 7.90859 25.9383 10.5186 25.7928C13.1736 25.6958 15.3786 26.8598 15.4236 28.4118Z" fill="url(#paint52_radial_4922_76312)"/>
</g>
<path d="M12.0035 64.2037C5.61348 64.7372 1.06849 59.7902 0.843488 58.8687C0.618488 57.9472 1.92348 49.1687 5.20848 45.2402L5.43348 47.5197L5.52348 48.3927C5.52348 48.3927 3.81348 52.0787 5.07348 55.3282C6.33348 58.5777 12.0935 56.6377 12.5885 56.1042C13.0835 55.5707 13.4885 54.3582 12.6785 53.3397C12.6785 53.3397 15.4685 53.4367 16.3685 57.0742C16.3685 57.1227 16.4135 57.2197 16.4135 57.2682C17.1335 60.7602 14.2085 64.0097 12.0035 64.2037Z" fill="url(#paint53_linear_4922_76312)"/>
<path opacity="0.5" d="M12.0042 64.2047C5.61423 64.7382 1.06924 59.7912 0.844238 58.8697C2.32924 60.0337 3.54424 57.2692 3.54424 57.2692C3.54424 57.2692 9.97923 60.6642 12.4542 58.8697C12.4542 58.8697 14.2542 60.6157 15.6492 58.7242C16.0092 58.2392 16.2342 57.7542 16.3692 57.2207C17.1342 60.7612 14.2092 64.0107 12.0042 64.2047Z" fill="url(#paint54_linear_4922_76312)"/>
<path d="M12.4534 58.8705C11.0584 59.792 4.75841 59.501 3.54341 57.27C2.32841 55.039 3.76841 49.1705 5.34341 47.57L5.38841 47.5215L5.4784 48.3945C5.4784 48.3945 3.7684 52.0805 5.0284 55.33C6.2884 58.5795 12.0484 56.6395 12.5434 56.106C13.0384 55.5725 13.4434 54.36 12.6334 53.3415C14.4784 54.748 13.8484 57.949 12.4534 58.8705Z" fill="url(#paint55_linear_4922_76312)"/>
<g style="mix-blend-mode:multiply" opacity="0.5" filter="url(#filter14_f_4922_76312)">
<path d="M5.74807 60.421C4.89307 62.6035 8.85307 64.301 11.3731 63.8645C13.8931 63.428 14.7031 60.809 13.6681 60.2755C12.6331 59.742 6.33307 58.8205 5.74807 60.421Z" fill="url(#paint56_linear_4922_76312)"/>
</g>
<g style="mix-blend-mode:color-dodge" opacity="0.5" filter="url(#filter15_f_4922_76312)">
<path d="M8.04384 57.7054C7.68384 58.5299 10.0688 59.4998 11.5538 58.8693C13.0388 58.2388 12.9938 56.8324 12.7238 56.5899C12.4538 56.3959 8.22384 57.3659 8.04384 57.7054Z" fill="#FFF09C"/>
</g>
<path opacity="0.5" d="M4.35303 46.3573C4.35303 46.3573 4.89337 46.8912 5.07348 47.9103C5.07348 47.9103 5.29862 48.7353 5.20856 49.1236L5.47874 48.3956L5.20856 45.2411C5.20856 45.1926 4.71325 45.775 4.35303 46.3573Z" fill="url(#paint57_linear_4922_76312)"/>
<g style="mix-blend-mode:color-dodge" opacity="0.5">
<path d="M13.1744 58.4323C13.1744 59.0628 12.0044 59.5478 10.5644 59.4993C9.16944 59.4508 8.04443 58.8688 8.04443 58.2383C8.04443 57.6078 9.21443 57.1228 10.6544 57.1713C12.0944 57.2198 13.1744 57.8018 13.1744 58.4323Z" fill="url(#paint58_radial_4922_76312)"/>
</g>
<path d="M10.1587 57.0259C10.4289 58.0938 11.4198 57.123 11.2847 56.7832L10.1587 57.0259Z" fill="white"/>
<path d="M20.8691 73.3439L43.9091 69.3184L66.7691 73.4409V82.8014L43.9091 86.7784L20.9591 82.8498L20.8691 73.3439Z" fill="url(#paint59_linear_4922_76312)"/>
<path opacity="0.4" d="M22.3099 74.4109L23.6599 75.1384L43.9099 72.2769L64.1599 75.1384L66.7699 73.4409L43.9099 69.3184L21.5449 73.8774L22.3099 74.4109Z" fill="url(#paint60_linear_4922_76312)"/>
<path opacity="0.72" d="M22.3083 81.8307L23.6583 81.0547L43.9083 83.5767L64.1583 81.0547L66.7683 82.8007L43.1433 86.7777L21.3633 82.9462L22.3083 81.8307Z" fill="url(#paint61_linear_4922_76312)"/>
<path d="M64.1587 75.1388L43.9087 72.2773H43.8637L23.6587 75.1388V81.0558L43.8637 83.5778H43.9087L64.1587 81.0558V75.1388Z" fill="url(#paint62_linear_4922_76312)"/>
<g style="mix-blend-mode:color-dodge" opacity="0.4">
<path d="M24.4233 75.7195C23.0733 76.35 59.0733 76.35 59.5683 75.7195C60.1083 75.089 48.4533 72.955 43.1433 73.052C37.8333 73.149 26.2683 74.8465 24.4233 75.7195Z" fill="url(#paint63_linear_4922_76312)"/>
</g>
<g style="mix-blend-mode:darken" opacity="0.5">
<path d="M64.1587 79.5032C64.1587 79.5032 39.4537 77.7572 31.8037 78.6787C24.1537 79.6002 23.6587 80.2307 23.6587 80.2307V81.0552L43.9537 83.5772L64.1587 81.0552V79.5032Z" fill="url(#paint64_linear_4922_76312)"/>
</g>
<g style="mix-blend-mode:color-dodge" opacity="0.3">
<path d="M27.7083 81.5402L43.9083 83.5772C43.9083 83.5772 35.4033 79.1152 28.6083 79.1152C21.8133 79.1152 27.7083 81.5402 27.7083 81.5402Z" fill="url(#paint65_linear_4922_76312)"/>
</g>
<path opacity="0.6" d="M64.1587 81.0547L43.8187 82.8492L23.6587 81.0547L43.9087 83.5767L64.1587 81.0547Z" fill="url(#paint66_linear_4922_76312)"/>
<g style="mix-blend-mode:color-dodge" opacity="0.3">
<path d="M43.7738 81.2496C51.6521 81.2496 58.0388 79.4907 58.0388 77.3211C58.0388 75.1514 51.6521 73.3926 43.7738 73.3926C35.8955 73.3926 29.5088 75.1514 29.5088 77.3211C29.5088 79.4907 35.8955 81.2496 43.7738 81.2496Z" fill="url(#paint67_radial_4922_76312)"/>
</g>
<path d="M26.8081 74.7024C26.8081 74.7024 35.2231 73.4414 41.5231 72.6654C41.4781 72.6169 37.0231 73.8779 26.8081 74.7024Z" fill="url(#paint68_linear_4922_76312)"/>
<path d="M50.8833 82.7045C50.8833 82.7045 57.4533 81.492 60.0183 81.5405C60.0183 81.5405 52.8183 82.6075 50.8833 82.7045Z" fill="url(#paint69_linear_4922_76312)"/>
<path d="M67.9391 83.577C67.9391 83.577 56.5541 86.487 43.9091 87.748C31.2641 86.5355 19.7441 83.577 19.7441 83.577L20.5541 81.3945C20.7341 81.443 20.9141 81.4915 21.0491 81.54C31.5341 84.062 43.9091 85.3715 43.9091 85.3715C43.9091 85.3715 56.4191 84.062 66.8591 81.54C66.9941 81.4915 67.1741 81.443 67.3091 81.443L67.9391 83.577Z" fill="url(#paint70_linear_4922_76312)"/>
<path d="M67.9382 73.0049L67.3082 74.8479C67.1732 74.7994 66.9932 74.7509 66.8132 74.7509C66.3632 74.6539 65.9132 74.5569 65.4632 74.4599C55.3382 72.1319 43.9082 70.7739 43.9082 70.7739C43.9082 70.7739 32.5232 72.1319 22.3082 74.4599C21.8582 74.5569 21.4082 74.6539 21.0032 74.7509C20.8232 74.7994 20.6882 74.8479 20.5082 74.8479L19.7432 73.1504L19.6982 73.102C19.6982 73.102 31.0832 69.4645 43.7282 68.252C56.3732 69.513 67.9382 73.0049 67.9382 73.0049Z" fill="url(#paint71_linear_4922_76312)"/>
<path d="M66.4984 81.5895C66.4984 82.0745 66.4534 82.1715 66.4534 82.5595C66.4534 82.5595 57.2284 85.324 43.9084 86.488C43.9084 86.488 33.6034 85.518 21.2284 82.6565C21.2284 82.6565 21.1834 82.317 21.0034 81.541C31.4884 84.063 43.8634 85.3725 43.8634 85.3725C43.8634 85.3725 56.1034 84.16 66.4984 81.5895Z" fill="url(#paint72_linear_4922_76312)"/>
<path d="M22.3082 74.4114V81.8319L21.2282 82.6564L19.6982 83.5779C19.6982 83.5779 20.2832 79.0189 19.6982 73.1504L19.7432 73.1989L21.1382 73.5869L22.3082 74.4114Z" fill="url(#paint73_linear_4922_76312)"/>
<path d="M67.9394 83.5785L66.4543 82.56L65.4644 81.8325V74.412L66.5444 73.5875L67.9394 72.957C67.6694 78.9225 67.9394 83.5785 67.9394 83.5785Z" fill="url(#paint74_linear_4922_76312)"/>
<path opacity="0.5" d="M66.4541 82.5592L65.4642 81.8317V74.4112C55.3392 72.0832 43.9091 70.7252 43.9091 70.7252C43.9091 70.7252 32.5241 72.0832 22.3091 74.4112V81.8317L21.2292 82.6562C21.2292 82.6562 21.4542 78.5337 21.1392 73.5382C21.1392 73.5382 36.7541 69.7067 43.9091 69.3672C43.9091 69.3672 57.5892 71.3557 66.5442 73.5867C66.5442 73.6352 66.1841 77.6122 66.4541 82.5592Z" fill="url(#paint75_linear_4922_76312)"/>
<path opacity="0.71" d="M22.3091 74.4112C22.3091 74.4112 30.9941 71.1132 43.9091 69.3672C43.9091 69.3672 53.5841 70.5797 65.9591 74.0232L65.4641 74.4112C65.4641 74.4112 54.4391 72.4227 43.9091 71.4527C43.9091 71.4527 35.0891 72.6652 32.2091 73.0532C26.6291 73.8292 22.3091 74.4112 22.3091 74.4112Z" fill="url(#paint76_linear_4922_76312)"/>
<g opacity="0.5" filter="url(#filter16_f_4922_76312)">
<path d="M34.8191 69.5129C34.0086 70.6777 37.9711 69.7071 38.1512 69.3674C38.3313 69.0762 37.4308 69.0762 37.4308 69.0762L34.8191 69.5129Z" fill="url(#paint77_linear_4922_76312)"/>
</g>
<g style="mix-blend-mode:color-dodge" opacity="0.6">
<path d="M36.7089 71.8885C38.8462 71.8885 40.5789 71.3674 40.5789 70.7245C40.5789 70.0817 38.8462 69.5605 36.7089 69.5605C34.5715 69.5605 32.8389 70.0817 32.8389 70.7245C32.8389 71.3674 34.5715 71.8885 36.7089 71.8885Z" fill="url(#paint78_radial_4922_76312)"/>
</g>
<path opacity="0.5" d="M49.8941 69.0273C50.7941 69.8033 47.0591 69.8519 47.0591 69.8519L51.6041 70.6279C51.6041 70.6279 52.7741 69.5608 57.2291 70.3369L49.8941 69.0273Z" fill="url(#paint79_linear_4922_76312)"/>
<path d="M27.7539 84.0156C27.7539 84.0156 40.8489 86.1496 44.0889 86.1496L54.0789 85.2766C54.0789 85.2766 46.7889 86.4406 43.9089 86.5376C43.9089 86.4891 37.1139 85.7616 27.7539 84.0156Z" fill="url(#paint80_linear_4922_76312)"/>
<g style="mix-blend-mode:color-dodge" opacity="0.6">
<path d="M67.4885 80.4748C67.7135 82.1723 62.0435 84.5003 54.7985 85.6643C47.5535 86.8283 41.4785 86.3433 41.2535 84.6458C41.0285 82.9483 46.6985 80.6203 53.9435 79.4563C61.1885 78.2923 67.2635 78.7288 67.4885 80.4748Z" fill="url(#paint81_radial_4922_76312)"/>
</g>
<defs>
<filter id="filter0_f_4922_76312" x="79.9698" y="17.275" width="2.78698" height="4.82116" filterUnits="userSpaceOnUse" color-interpolation-filters="sRGB">
<feFlood flood-opacity="0" result="BackgroundImageFix"/>
<feBlend mode="normal" in="SourceGraphic" in2="BackgroundImageFix" result="shape"/>
<feGaussianBlur stdDeviation="0.0900568" result="effect1_foregroundBlur_4922_76312"/>
</filter>
<filter id="filter1_f_4922_76312" x="76.5475" y="67.5265" width="3.31762" height="5.77124" filterUnits="userSpaceOnUse" color-interpolation-filters="sRGB">
<feFlood flood-opacity="0" result="BackgroundImageFix"/>
<feBlend mode="normal" in="SourceGraphic" in2="BackgroundImageFix" result="shape"/>
<feGaussianBlur stdDeviation="0.180114" result="effect1_foregroundBlur_4922_76312"/>
</filter>
<filter id="filter2_f_4922_76312" x="72.0651" y="25.2394" width="7.73706" height="5.88061" filterUnits="userSpaceOnUse" color-interpolation-filters="sRGB">
<feFlood flood-opacity="0" result="BackgroundImageFix"/>
<feBlend mode="normal" in="SourceGraphic" in2="BackgroundImageFix" result="shape"/>
<feGaussianBlur stdDeviation="0.180114" result="effect1_foregroundBlur_4922_76312"/>
</filter>
<filter id="filter3_f_4922_76312" x="72.4753" y="25.5456" width="5.73307" height="5.29752" filterUnits="userSpaceOnUse" color-interpolation-filters="sRGB">
<feFlood flood-opacity="0" result="BackgroundImageFix"/>
<feBlend mode="normal" in="SourceGraphic" in2="BackgroundImageFix" result="shape"/>
<feGaussianBlur stdDeviation="0.027017" result="effect1_foregroundBlur_4922_76312"/>
</filter>
<filter id="filter4_f_4922_76312" x="82.1779" y="27.3741" width="4.92602" height="5.54467" filterUnits="userSpaceOnUse" color-interpolation-filters="sRGB">
<feFlood flood-opacity="0" result="BackgroundImageFix"/>
<feBlend mode="normal" in="SourceGraphic" in2="BackgroundImageFix" result="shape"/>
<feGaussianBlur stdDeviation="0.180114" result="effect1_foregroundBlur_4922_76312"/>
</filter>
<filter id="filter5_f_4922_76312" x="81.1671" y="30.6695" width="3.88855" height="3.52429" filterUnits="userSpaceOnUse" color-interpolation-filters="sRGB">
<feFlood flood-opacity="0" result="BackgroundImageFix"/>
<feBlend mode="normal" in="SourceGraphic" in2="BackgroundImageFix" result="shape"/>
<feGaussianBlur stdDeviation="0.0900568" result="effect1_foregroundBlur_4922_76312"/>
</filter>
<filter id="filter6_f_4922_76312" x="73.7545" y="59.1652" width="9.1975" height="5.13061" filterUnits="userSpaceOnUse" color-interpolation-filters="sRGB">
<feFlood flood-opacity="0" result="BackgroundImageFix"/>
<feBlend mode="normal" in="SourceGraphic" in2="BackgroundImageFix" result="shape"/>
<feGaussianBlur stdDeviation="0.180114" result="effect1_foregroundBlur_4922_76312"/>
</filter>
<filter id="filter7_f_4922_76312" x="74.9449" y="56.2062" width="5.58422" height="3.22827" filterUnits="userSpaceOnUse" color-interpolation-filters="sRGB">
<feFlood flood-opacity="0" result="BackgroundImageFix"/>
<feBlend mode="normal" in="SourceGraphic" in2="BackgroundImageFix" result="shape"/>
<feGaussianBlur stdDeviation="0.180114" result="effect1_foregroundBlur_4922_76312"/>
</filter>
<filter id="filter8_f_4922_76312" x="5.46588" y="17.273" width="2.78698" height="4.82116" filterUnits="userSpaceOnUse" color-interpolation-filters="sRGB">
<feFlood flood-opacity="0" result="BackgroundImageFix"/>
<feBlend mode="normal" in="SourceGraphic" in2="BackgroundImageFix" result="shape"/>
<feGaussianBlur stdDeviation="0.0900568" result="effect1_foregroundBlur_4922_76312"/>
</filter>
<filter id="filter9_f_4922_76312" x="8.31214" y="67.5265" width="3.31762" height="5.77124" filterUnits="userSpaceOnUse" color-interpolation-filters="sRGB">
<feFlood flood-opacity="0" result="BackgroundImageFix"/>
<feBlend mode="normal" in="SourceGraphic" in2="BackgroundImageFix" result="shape"/>
<feGaussianBlur stdDeviation="0.180114" result="effect1_foregroundBlur_4922_76312"/>
</filter>
<filter id="filter10_f_4922_76312" x="8.42102" y="25.2374" width="7.73706" height="5.88061" filterUnits="userSpaceOnUse" color-interpolation-filters="sRGB">
<feFlood flood-opacity="0" result="BackgroundImageFix"/>
<feBlend mode="normal" in="SourceGraphic" in2="BackgroundImageFix" result="shape"/>
<feGaussianBlur stdDeviation="0.180114" result="effect1_foregroundBlur_4922_76312"/>
</filter>
<filter id="filter11_f_4922_76312" x="9.9694" y="25.5436" width="5.73307" height="5.29752" filterUnits="userSpaceOnUse" color-interpolation-filters="sRGB">
<feFlood flood-opacity="0" result="BackgroundImageFix"/>
<feBlend mode="normal" in="SourceGraphic" in2="BackgroundImageFix" result="shape"/>
<feGaussianBlur stdDeviation="0.027017" result="effect1_foregroundBlur_4922_76312"/>
</filter>
<filter id="filter12_f_4922_76312" x="1.11829" y="27.3722" width="4.92602" height="5.54467" filterUnits="userSpaceOnUse" color-interpolation-filters="sRGB">
<feFlood flood-opacity="0" result="BackgroundImageFix"/>
<feBlend mode="normal" in="SourceGraphic" in2="BackgroundImageFix" result="shape"/>
<feGaussianBlur stdDeviation="0.180114" result="effect1_foregroundBlur_4922_76312"/>
</filter>
<filter id="filter13_f_4922_76312" x="3.16852" y="30.6675" width="3.88855" height="3.52429" filterUnits="userSpaceOnUse" color-interpolation-filters="sRGB">
<feFlood flood-opacity="0" result="BackgroundImageFix"/>
<feBlend mode="normal" in="SourceGraphic" in2="BackgroundImageFix" result="shape"/>
<feGaussianBlur stdDeviation="0.0900568" result="effect1_foregroundBlur_4922_76312"/>
</filter>
<filter id="filter14_f_4922_76312" x="5.26917" y="59.1632" width="9.1975" height="5.13061" filterUnits="userSpaceOnUse" color-interpolation-filters="sRGB">
<feFlood flood-opacity="0" result="BackgroundImageFix"/>
<feBlend mode="normal" in="SourceGraphic" in2="BackgroundImageFix" result="shape"/>
<feGaussianBlur stdDeviation="0.180114" result="effect1_foregroundBlur_4922_76312"/>
</filter>
<filter id="filter15_f_4922_76312" x="7.6471" y="56.2042" width="5.58422" height="3.22827" filterUnits="userSpaceOnUse" color-interpolation-filters="sRGB">
<feFlood flood-opacity="0" result="BackgroundImageFix"/>
<feBlend mode="normal" in="SourceGraphic" in2="BackgroundImageFix" result="shape"/>
<feGaussianBlur stdDeviation="0.180114" result="effect1_foregroundBlur_4922_76312"/>
</filter>
<filter id="filter16_f_4922_76312" x="34.5298" y="68.8961" width="3.82507" height="1.35437" filterUnits="userSpaceOnUse" color-interpolation-filters="sRGB">
<feFlood flood-opacity="0" result="BackgroundImageFix"/>
<feBlend mode="normal" in="SourceGraphic" in2="BackgroundImageFix" result="shape"/>
<feGaussianBlur stdDeviation="0.0900568" result="effect1_foregroundBlur_4922_76312"/>
</filter>
<linearGradient id="paint0_linear_4922_76312" x1="9.51461" y1="38.0178" x2="8.90396" y2="47.4728" gradientUnits="userSpaceOnUse">
<stop stop-color="#84759B"/>
<stop offset="0.3889" stop-color="#96A9D0"/>
<stop offset="1" stop-color="#D8DFED"/>
</linearGradient>
<linearGradient id="paint1_linear_4922_76312" x1="8.4609" y1="39.0841" x2="8.91105" y2="45.2818" gradientUnits="userSpaceOnUse">
<stop stop-color="#8086B5"/>
<stop offset="0.7401" stop-color="#D8DFED"/>
<stop offset="1" stop-color="#B7C4E1"/>
</linearGradient>
<linearGradient id="paint2_linear_4922_76312" x1="6.83077" y1="48.4132" x2="10.0522" y2="48.4132" gradientUnits="userSpaceOnUse">
<stop stop-color="#786DAB"/>
<stop offset="0.5258" stop-color="#6867A3"/>
<stop offset="1" stop-color="#54517A"/>
</linearGradient>
<linearGradient id="paint3_linear_4922_76312" x1="9.58443" y1="43.2373" x2="10.0323" y2="49.4013" gradientUnits="userSpaceOnUse">
<stop stop-color="#8780E9"/>
<stop offset="1" stop-color="#705AB6"/>
</linearGradient>
<linearGradient id="paint4_linear_4922_76312" x1="7.28703" y1="47.9268" x2="7.43963" y2="43.8162" gradientUnits="userSpaceOnUse">
<stop stop-color="#8780E9"/>
<stop offset="1" stop-color="#705AB6"/>
</linearGradient>
<linearGradient id="paint5_linear_4922_76312" x1="78.6919" y1="38.0178" x2="79.3026" y2="47.4728" gradientUnits="userSpaceOnUse">
<stop stop-color="#84759B"/>
<stop offset="0.3889" stop-color="#96A9D0"/>
<stop offset="1" stop-color="#D8DFED"/>
</linearGradient>
<linearGradient id="paint6_linear_4922_76312" x1="79.7449" y1="39.0841" x2="79.2944" y2="45.2818" gradientUnits="userSpaceOnUse">
<stop stop-color="#8086B5"/>
<stop offset="0.7401" stop-color="#D8DFED"/>
<stop offset="1" stop-color="#B7C4E1"/>
</linearGradient>
<linearGradient id="paint7_linear_4922_76312" x1="81.3748" y1="48.4132" x2="78.1534" y2="48.4132" gradientUnits="userSpaceOnUse">
<stop stop-color="#786DAB"/>
<stop offset="0.5258" stop-color="#6867A3"/>
<stop offset="1" stop-color="#54517A"/>
</linearGradient>
<linearGradient id="paint8_linear_4922_76312" x1="78.6222" y1="43.2373" x2="78.1743" y2="49.4013" gradientUnits="userSpaceOnUse">
<stop stop-color="#8780E9"/>
<stop offset="1" stop-color="#705AB6"/>
</linearGradient>
<linearGradient id="paint9_linear_4922_76312" x1="80.9196" y1="47.9268" x2="80.7668" y2="43.8163" gradientUnits="userSpaceOnUse">
<stop stop-color="#8780E9"/>
<stop offset="1" stop-color="#705AB6"/>
</linearGradient>
<linearGradient id="paint10_linear_4922_76312" x1="44.1002" y1="84.6755" x2="44.1002" y2="0.637634" gradientUnits="userSpaceOnUse">
<stop stop-color="#6F578C"/>
<stop offset="0.3056" stop-color="#7571A5"/>
<stop offset="0.7123" stop-color="#98ABD2"/>
<stop offset="1" stop-color="#DAE1EF"/>
</linearGradient>
<linearGradient id="paint11_linear_4922_76312" x1="44.1012" y1="54.1207" x2="44.1012" y2="84.6762" gradientUnits="userSpaceOnUse">
<stop stop-color="#8980EB"/>
<stop offset="1" stop-color="#705AB8"/>
</linearGradient>
<linearGradient id="paint12_linear_4922_76312" x1="44.1007" y1="1.86715" x2="44.1007" y2="83.4474" gradientUnits="userSpaceOnUse">
<stop stop-color="#6F578C"/>
<stop offset="0.3056" stop-color="#7571A5"/>
<stop offset="0.7123" stop-color="#98ABD2"/>
<stop offset="1" stop-color="#DAE1EF"/>
</linearGradient>
<linearGradient id="paint13_linear_4922_76312" x1="44.1012" y1="31.1928" x2="44.1012" y2="0.637343" gradientUnits="userSpaceOnUse">
<stop stop-color="#8980EB"/>
<stop offset="1" stop-color="#ADBEDF"/>
</linearGradient>
<linearGradient id="paint14_linear_4922_76312" x1="80.3488" y1="34.0668" x2="80.4749" y2="30.6738" gradientUnits="userSpaceOnUse">
<stop stop-color="#8780E9"/>
<stop offset="1" stop-color="#705AB6"/>
</linearGradient>
<linearGradient id="paint15_linear_4922_76312" x1="76.4215" y1="65.6319" x2="76.5046" y2="63.3952" gradientUnits="userSpaceOnUse">
<stop stop-color="#8780E9"/>
<stop offset="1" stop-color="#705AB6"/>
</linearGradient>
<radialGradient id="paint16_radial_4922_76312" cx="0" cy="0" r="1" gradientUnits="userSpaceOnUse" gradientTransform="translate(44.2605 1.8098) rotate(180) scale(7.59795 1.06747)">
<stop stop-color="#2B3989"/>
<stop offset="0.1509" stop-color="#27337B"/>
<stop offset="0.4337" stop-color="#1C2458"/>
<stop offset="0.8149" stop-color="#0A0D1E"/>
<stop offset="1"/>
</radialGradient>
<linearGradient id="paint17_linear_4922_76312" x1="76.8846" y1="26.0129" x2="85.1544" y2="20.0921" gradientUnits="userSpaceOnUse">
<stop stop-color="#84759B"/>
<stop offset="0.3889" stop-color="#96A9D0"/>
<stop offset="1" stop-color="#D8DFED"/>
</linearGradient>
<linearGradient id="paint18_linear_4922_76312" x1="78.3809" y1="23.8022" x2="86.4441" y2="18.5567" gradientUnits="userSpaceOnUse">
<stop stop-color="#786DAB"/>
<stop offset="0.5258" stop-color="#6867A3"/>
<stop offset="1" stop-color="#54517A"/>
</linearGradient>
<linearGradient id="paint19_linear_4922_76312" x1="80.9624" y1="18.5811" x2="82.8405" y2="21.0664" gradientUnits="userSpaceOnUse">
<stop stop-color="#705AB6"/>
<stop offset="1" stop-color="white"/>
</linearGradient>
<linearGradient id="paint20_linear_4922_76312" x1="76.7892" y1="72.412" x2="81.5802" y2="67.615" gradientUnits="userSpaceOnUse">
<stop stop-color="#84759B"/>
<stop offset="0.3889" stop-color="#96A9D0"/>
<stop offset="1" stop-color="#D8DFED"/>
</linearGradient>
<linearGradient id="paint21_linear_4922_76312" x1="78.3908" y1="71.3714" x2="83.8362" y2="63.4631" gradientUnits="userSpaceOnUse">
<stop stop-color="#705AB6"/>
<stop offset="1" stop-color="white"/>
</linearGradient>
<linearGradient id="paint22_linear_4922_76312" x1="76.921" y1="67.4959" x2="82.4747" y2="73.0906" gradientUnits="userSpaceOnUse">
<stop stop-color="#8086B5"/>
<stop offset="0.7401" stop-color="#D8DFED"/>
<stop offset="1" stop-color="#B7C4E1"/>
</linearGradient>
<linearGradient id="paint23_linear_4922_76312" x1="78.9748" y1="44.1796" x2="79.7126" y2="25.6398" gradientUnits="userSpaceOnUse">
<stop stop-color="#84759B"/>
<stop offset="0.3889" stop-color="#96A9D0"/>
<stop offset="1" stop-color="#D8DFED"/>
</linearGradient>
<linearGradient id="paint24_linear_4922_76312" x1="73.4113" y1="37.3598" x2="73.8241" y2="26.9877" gradientUnits="userSpaceOnUse">
<stop stop-color="#705AB6"/>
<stop offset="1" stop-color="white"/>
</linearGradient>
<linearGradient id="paint25_linear_4922_76312" x1="85.4295" y1="32.9713" x2="83.4464" y2="50.5634" gradientUnits="userSpaceOnUse">
<stop stop-color="#705AB6"/>
<stop offset="1" stop-color="white"/>
</linearGradient>
<linearGradient id="paint26_linear_4922_76312" x1="85.0576" y1="36.2768" x2="74.7057" y2="35.9221" gradientUnits="userSpaceOnUse">
<stop stop-color="#786DAB"/>
<stop offset="0.5258" stop-color="#6867A3"/>
<stop offset="1" stop-color="#54517A"/>
</linearGradient>
<linearGradient id="paint27_linear_4922_76312" x1="78.2006" y1="28.2828" x2="72.5479" y2="28.0892" gradientUnits="userSpaceOnUse">
<stop/>
<stop offset="1" stop-color="#FFF09C"/>
</linearGradient>
<linearGradient id="paint28_linear_4922_76312" x1="83.8284" y1="32.9741" x2="80.7114" y2="31.5373" gradientUnits="userSpaceOnUse">
<stop stop-color="#705AB6"/>
<stop offset="1" stop-color="white"/>
</linearGradient>
<linearGradient id="paint29_linear_4922_76312" x1="83.4269" y1="44.4468" x2="83.4353" y2="41.3021" gradientUnits="userSpaceOnUse">
<stop stop-color="#8780E9"/>
<stop offset="1" stop-color="#705AB6"/>
</linearGradient>
<radialGradient id="paint30_radial_4922_76312" cx="0" cy="0" r="1" gradientUnits="userSpaceOnUse" gradientTransform="translate(77.5694 28.6084) rotate(-177.721) scale(4.79986 2.77469)">
<stop stop-color="#2B3987"/>
<stop offset="0.1528" stop-color="#273379"/>
<stop offset="0.439" stop-color="#1B2456"/>
<stop offset="0.8249" stop-color="#090C1C"/>
<stop offset="1"/>
</radialGradient>
<linearGradient id="paint31_linear_4922_76312" x1="71.9009" y1="56.9612" x2="88.5636" y2="53.3615" gradientUnits="userSpaceOnUse">
<stop stop-color="#84759B"/>
<stop offset="0.3889" stop-color="#96A9D0"/>
<stop offset="1" stop-color="#D8DFED"/>
</linearGradient>
<linearGradient id="paint32_linear_4922_76312" x1="79.538" y1="58.2828" x2="79.2336" y2="67.5083" gradientUnits="userSpaceOnUse">
<stop stop-color="#705AB6"/>
<stop offset="1" stop-color="white"/>
</linearGradient>
<linearGradient id="paint33_linear_4922_76312" x1="85.0484" y1="53.2744" x2="74.3343" y2="53.6395" gradientUnits="userSpaceOnUse">
<stop stop-color="#8086B5"/>
<stop offset="0.7401" stop-color="#D8DFED"/>
<stop offset="1" stop-color="#B7C4E1"/>
</linearGradient>
<linearGradient id="paint34_linear_4922_76312" x1="82.6121" y1="61.5517" x2="74.1561" y2="61.8398" gradientUnits="userSpaceOnUse">
<stop stop-color="#705AB6"/>
<stop offset="1" stop-color="white"/>
</linearGradient>
<linearGradient id="paint35_linear_4922_76312" x1="83.402" y1="49.1631" x2="83.204" y2="46.5872" gradientUnits="userSpaceOnUse">
<stop stop-color="#8780E9"/>
<stop offset="1" stop-color="#705AB6"/>
</linearGradient>
<radialGradient id="paint36_radial_4922_76312" cx="0" cy="0" r="1" gradientUnits="userSpaceOnUse" gradientTransform="translate(77.603 58.3627) rotate(177.734) scale(2.55972 1.12918)">
<stop stop-color="#2B3987"/>
<stop offset="0.1528" stop-color="#273379"/>
<stop offset="0.439" stop-color="#1B2456"/>
<stop offset="0.8249" stop-color="#090C1C"/>
<stop offset="1"/>
</radialGradient>
<linearGradient id="paint37_linear_4922_76312" x1="7.85715" y1="34.0668" x2="7.73109" y2="30.6738" gradientUnits="userSpaceOnUse">
<stop stop-color="#8780E9"/>
<stop offset="1" stop-color="#705AB6"/>
</linearGradient>
<linearGradient id="paint38_linear_4922_76312" x1="11.7849" y1="65.6319" x2="11.7017" y2="63.3952" gradientUnits="userSpaceOnUse">
<stop stop-color="#8780E9"/>
<stop offset="1" stop-color="#705AB6"/>
</linearGradient>
<linearGradient id="paint39_linear_4922_76312" x1="11.322" y1="26.0111" x2="3.05207" y2="20.0901" gradientUnits="userSpaceOnUse">
<stop stop-color="#84759B"/>
<stop offset="0.3889" stop-color="#96A9D0"/>
<stop offset="1" stop-color="#D8DFED"/>
</linearGradient>
<linearGradient id="paint40_linear_4922_76312" x1="9.82614" y1="23.8004" x2="1.76306" y2="18.5549" gradientUnits="userSpaceOnUse">
<stop stop-color="#786DAB"/>
<stop offset="0.5258" stop-color="#6867A3"/>
<stop offset="1" stop-color="#54517A"/>
</linearGradient>
<linearGradient id="paint41_linear_4922_76312" x1="7.24429" y1="18.5792" x2="5.36616" y2="21.0645" gradientUnits="userSpaceOnUse">
<stop stop-color="#705AB6"/>
<stop offset="1" stop-color="white"/>
</linearGradient>
<linearGradient id="paint42_linear_4922_76312" x1="11.4169" y1="72.4119" x2="6.62562" y2="67.6151" gradientUnits="userSpaceOnUse">
<stop stop-color="#84759B"/>
<stop offset="0.3889" stop-color="#96A9D0"/>
<stop offset="1" stop-color="#D8DFED"/>
</linearGradient>
<linearGradient id="paint43_linear_4922_76312" x1="9.81548" y1="71.3716" x2="4.36991" y2="63.4631" gradientUnits="userSpaceOnUse">
<stop stop-color="#705AB6"/>
<stop offset="1" stop-color="white"/>
</linearGradient>
<linearGradient id="paint44_linear_4922_76312" x1="11.2859" y1="67.4939" x2="5.73196" y2="73.0887" gradientUnits="userSpaceOnUse">
<stop stop-color="#8086B5"/>
<stop offset="0.7401" stop-color="#D8DFED"/>
<stop offset="1" stop-color="#B7C4E1"/>
</linearGradient>
<linearGradient id="paint45_linear_4922_76312" x1="9.23124" y1="44.1777" x2="8.49339" y2="25.6379" gradientUnits="userSpaceOnUse">
<stop stop-color="#84759B"/>
<stop offset="0.3889" stop-color="#96A9D0"/>
<stop offset="1" stop-color="#D8DFED"/>
</linearGradient>
<linearGradient id="paint46_linear_4922_76312" x1="14.7944" y1="37.3578" x2="14.3816" y2="26.9858" gradientUnits="userSpaceOnUse">
<stop stop-color="#705AB6"/>
<stop offset="1" stop-color="white"/>
</linearGradient>
<linearGradient id="paint47_linear_4922_76312" x1="2.777" y1="32.9694" x2="4.76011" y2="50.5614" gradientUnits="userSpaceOnUse">
<stop stop-color="#705AB6"/>
<stop offset="1" stop-color="white"/>
</linearGradient>
<linearGradient id="paint48_linear_4922_76312" x1="3.14872" y1="36.2748" x2="13.5007" y2="35.9201" gradientUnits="userSpaceOnUse">
<stop stop-color="#786DAB"/>
<stop offset="0.5258" stop-color="#6867A3"/>
<stop offset="1" stop-color="#54517A"/>
</linearGradient>
<linearGradient id="paint49_linear_4922_76312" x1="10.0061" y1="28.2809" x2="15.6587" y2="28.0872" gradientUnits="userSpaceOnUse">
<stop/>
<stop offset="1" stop-color="#FFF09C"/>
</linearGradient>
<linearGradient id="paint50_linear_4922_76312" x1="4.37953" y1="32.9722" x2="7.49652" y2="31.5354" gradientUnits="userSpaceOnUse">
<stop stop-color="#705AB6"/>
<stop offset="1" stop-color="white"/>
</linearGradient>
<linearGradient id="paint51_linear_4922_76312" x1="4.77878" y1="44.4449" x2="4.77038" y2="41.3001" gradientUnits="userSpaceOnUse">
<stop stop-color="#8780E9"/>
<stop offset="1" stop-color="#705AB6"/>
</linearGradient>
<radialGradient id="paint52_radial_4922_76312" cx="0" cy="0" r="1" gradientUnits="userSpaceOnUse" gradientTransform="translate(10.6359 28.5813) rotate(-2.27923) scale(4.79986 2.79642)">
<stop stop-color="#2B3987"/>
<stop offset="0.1528" stop-color="#273379"/>
<stop offset="0.439" stop-color="#1B2456"/>
<stop offset="0.8249" stop-color="#090C1C"/>
<stop offset="1"/>
</radialGradient>
<linearGradient id="paint53_linear_4922_76312" x1="16.3053" y1="56.9592" x2="-0.357401" y2="53.3595" gradientUnits="userSpaceOnUse">
<stop stop-color="#84759B"/>
<stop offset="0.3889" stop-color="#96A9D0"/>
<stop offset="1" stop-color="#D8DFED"/>
</linearGradient>
<linearGradient id="paint54_linear_4922_76312" x1="8.66874" y1="58.2809" x2="8.97314" y2="67.5064" gradientUnits="userSpaceOnUse">
<stop stop-color="#705AB6"/>
<stop offset="1" stop-color="white"/>
</linearGradient>
<linearGradient id="paint55_linear_4922_76312" x1="3.15677" y1="53.2725" x2="13.8709" y2="53.6376" gradientUnits="userSpaceOnUse">
<stop stop-color="#8086B5"/>
<stop offset="0.7401" stop-color="#D8DFED"/>
<stop offset="1" stop-color="#B7C4E1"/>
</linearGradient>
<linearGradient id="paint56_linear_4922_76312" x1="5.59279" y1="61.5497" x2="14.049" y2="61.8379" gradientUnits="userSpaceOnUse">
<stop stop-color="#705AB6"/>
<stop offset="1" stop-color="white"/>
</linearGradient>
<linearGradient id="paint57_linear_4922_76312" x1="4.80382" y1="49.1612" x2="5.00174" y2="46.5853" gradientUnits="userSpaceOnUse">
<stop stop-color="#8780E9"/>
<stop offset="1" stop-color="#705AB6"/>
</linearGradient>
<radialGradient id="paint58_radial_4922_76312" cx="0" cy="0" r="1" gradientUnits="userSpaceOnUse" gradientTransform="translate(10.6073 58.3472) rotate(2.26587) scale(2.55972 1.1485)">
<stop stop-color="#2B3987"/>
<stop offset="0.1528" stop-color="#273379"/>
<stop offset="0.439" stop-color="#1B2456"/>
<stop offset="0.8249" stop-color="#090C1C"/>
<stop offset="1"/>
</radialGradient>
<linearGradient id="paint59_linear_4922_76312" x1="43.8205" y1="70.7122" x2="43.8205" y2="92.8453" gradientUnits="userSpaceOnUse">
<stop offset="0.00396825" stop-color="#572CD4"/>
<stop offset="0.2277" stop-color="#5A2CD4"/>
<stop offset="0.4149" stop-color="#652CD4"/>
<stop offset="0.5889" stop-color="#762DD5"/>
<stop offset="0.755" stop-color="#8E2ED6"/>
<stop offset="0.914" stop-color="#AE2ED6"/>
<stop offset="1" stop-color="#C22FD7"/>
</linearGradient>
<linearGradient id="paint60_linear_4922_76312" x1="44.1693" y1="79.5254" x2="44.1693" y2="69.8337" gradientUnits="userSpaceOnUse">
<stop stop-color="#E32222"/>
<stop offset="1"/>
</linearGradient>
<linearGradient id="paint61_linear_4922_76312" x1="44.0638" y1="80.9592" x2="44.0638" y2="91.4179" gradientUnits="userSpaceOnUse">
<stop offset="0.00396825" stop-color="#662D8A"/>
<stop offset="0.1081" stop-color="#6F3A91"/>
<stop offset="0.3005" stop-color="#885CA4"/>
<stop offset="0.5599" stop-color="#B093C3"/>
<stop offset="0.873" stop-color="#E7DEED"/>
<stop offset="1" stop-color="white"/>
</linearGradient>
<linearGradient id="paint62_linear_4922_76312" x1="43.8929" y1="72.1363" x2="43.8929" y2="83.4891" gradientUnits="userSpaceOnUse">
<stop stop-color="#B353D3"/>
<stop offset="0.6959" stop-color="#4A21C9"/>
<stop offset="0.7488" stop-color="#5522CA"/>
<stop offset="0.8407" stop-color="#7123CB"/>
<stop offset="0.9599" stop-color="#9F25CD"/>
<stop offset="1" stop-color="#B026CE"/>
</linearGradient>
<linearGradient id="paint63_linear_4922_76312" x1="42.0511" y1="71.3276" x2="41.9526" y2="76.2634" gradientUnits="userSpaceOnUse">
<stop stop-color="#80B2FF"/>
<stop offset="1"/>
</linearGradient>
<linearGradient id="paint64_linear_4922_76312" x1="43.8929" y1="98.6767" x2="43.8929" y2="72.9738" gradientUnits="userSpaceOnUse">
<stop offset="0.00396825" stop-color="#E84136"/>
<stop offset="0.1119" stop-color="#E94D43"/>
<stop offset="0.3111" stop-color="#ED6D65"/>
<stop offset="0.5797" stop-color="#F4A19C"/>
<stop offset="0.9041" stop-color="#FCE9E7"/>
<stop offset="1" stop-color="white"/>
</linearGradient>
<linearGradient id="paint65_linear_4922_76312" x1="34.6404" y1="82.3586" x2="34.6404" y2="79.4609" gradientUnits="userSpaceOnUse">
<stop stop-color="#E72A7B"/>
<stop offset="1"/>
</linearGradient>
<linearGradient id="paint66_linear_4922_76312" x1="43.8929" y1="83.6903" x2="43.8929" y2="81.1889" gradientUnits="userSpaceOnUse">
<stop offset="0.00793651" stop-color="#705AB8"/>
<stop offset="0.1339" stop-color="#7B67BE"/>
<stop offset="0.3664" stop-color="#9989CC"/>
<stop offset="0.6799" stop-color="#C8C0E4"/>
<stop offset="1" stop-color="white"/>
</linearGradient>
<radialGradient id="paint67_radial_4922_76312" cx="0" cy="0" r="1" gradientUnits="userSpaceOnUse" gradientTransform="translate(43.7563 77.2991) scale(14.2798 3.90548)">
<stop offset="0.1627" stop-color="#E72A7B"/>
<stop offset="0.2423" stop-color="#DB2875"/>
<stop offset="0.3862" stop-color="#BB2264"/>
<stop offset="0.5783" stop-color="#871948"/>
<stop offset="0.8082" stop-color="#400C22"/>
<stop offset="1"/>
</radialGradient>
<linearGradient id="paint68_linear_4922_76312" x1="26.7931" y1="73.6587" x2="41.4919" y2="73.6587" gradientUnits="userSpaceOnUse">
<stop stop-color="#EBC0B6"/>
<stop offset="0.9921" stop-color="#EBAFE7"/>
</linearGradient>
<linearGradient id="paint69_linear_4922_76312" x1="50.8985" y1="82.1199" x2="60.0283" y2="82.1199" gradientUnits="userSpaceOnUse">
<stop stop-color="#E67862"/>
<stop offset="1" stop-color="#EB7052"/>
</linearGradient>
<linearGradient id="paint70_linear_4922_76312" x1="43.8176" y1="80.2986" x2="43.8176" y2="88.3019" gradientUnits="userSpaceOnUse">
<stop stop-color="#7671B0"/>
<stop offset="1" stop-color="#705AB8"/>
</linearGradient>
<linearGradient id="paint71_linear_4922_76312" x1="43.6832" y1="87.8835" x2="43.8916" y2="67.9724" gradientUnits="userSpaceOnUse">
<stop stop-color="#8288B7"/>
<stop offset="0.7401" stop-color="#DAE1EF"/>
<stop offset="1" stop-color="#B9C6E3"/>
</linearGradient>
<linearGradient id="paint72_linear_4922_76312" x1="43.756" y1="81.501" x2="43.756" y2="87.5783" gradientUnits="userSpaceOnUse">
<stop stop-color="#8288B7"/>
<stop offset="0.7401" stop-color="#DAE1EF"/>
<stop offset="1" stop-color="#B9C6E3"/>
</linearGradient>
<linearGradient id="paint73_linear_4922_76312" x1="21.0166" y1="67.1182" x2="21.0166" y2="84.4775" gradientUnits="userSpaceOnUse">
<stop stop-color="#8288B7"/>
<stop offset="0.7401" stop-color="#DAE1EF"/>
<stop offset="1" stop-color="#B9C6E3"/>
</linearGradient>
<linearGradient id="paint74_linear_4922_76312" x1="66.6943" y1="66.9322" x2="66.6943" y2="84.4885" gradientUnits="userSpaceOnUse">
<stop stop-color="#8288B7"/>
<stop offset="0.7401" stop-color="#DAE1EF"/>
<stop offset="1" stop-color="#B9C6E3"/>
</linearGradient>
<linearGradient id="paint75_linear_4922_76312" x1="43.7725" y1="68.119" x2="44.1082" y2="94.6964" gradientUnits="userSpaceOnUse">
<stop stop-color="#705AB8"/>
<stop offset="1" stop-color="white"/>
</linearGradient>
<linearGradient id="paint76_linear_4922_76312" x1="44.1352" y1="68.0468" x2="44.1352" y2="78.8072" gradientUnits="userSpaceOnUse">
<stop stop-color="#8980EB"/>
<stop offset="1" stop-color="#705AB8"/>
</linearGradient>
<linearGradient id="paint77_linear_4922_76312" x1="34.6974" y1="69.576" x2="38.1676" y2="69.576" gradientUnits="userSpaceOnUse">
<stop stop-color="white"/>
<stop offset="1" stop-color="#FFF7C4"/>
</linearGradient>
<radialGradient id="paint78_radial_4922_76312" cx="0" cy="0" r="1" gradientUnits="userSpaceOnUse" gradientTransform="translate(36.7112 70.6913) scale(3.85436 1.183)">
<stop stop-color="#2B3989"/>
<stop offset="0.1509" stop-color="#27337B"/>
<stop offset="0.4337" stop-color="#1C2458"/>
<stop offset="0.8149" stop-color="#0A0D1E"/>
<stop offset="1"/>
</radialGradient>
<linearGradient id="paint79_linear_4922_76312" x1="52.091" y1="73.5374" x2="52.1386" y2="68.9901" gradientUnits="userSpaceOnUse">
<stop stop-color="#8980EB"/>
<stop offset="1" stop-color="#ADBEDF"/>
</linearGradient>
<linearGradient id="paint80_linear_4922_76312" x1="27.7354" y1="85.2596" x2="54.0427" y2="85.2596" gradientUnits="userSpaceOnUse">
<stop stop-color="white"/>
<stop offset="1" stop-color="#FFF7C4"/>
</linearGradient>
<radialGradient id="paint81_radial_4922_76312" cx="0" cy="0" r="1" gradientUnits="userSpaceOnUse" gradientTransform="translate(54.3512 82.52) rotate(-9.03335) scale(13.2892 3.13852)">
<stop stop-color="#2B3989"/>
<stop offset="0.1509" stop-color="#27337B"/>
<stop offset="0.4337" stop-color="#1C2458"/>
<stop offset="0.8149" stop-color="#0A0D1E"/>
<stop offset="1"/>
</radialGradient>
</defs>
</svg>
