<svg width="86" height="99" viewBox="0 0 86 99" fill="none" xmlns="http://www.w3.org/2000/svg">
<path d="M42.8028 9.51953C19.9343 9.51953 1.40283 28.051 1.40283 50.9195C1.40283 73.7881 19.9343 92.3195 42.8028 92.3195C65.6714 92.3195 84.2029 73.7881 84.2029 50.9195C84.2686 28.051 65.6714 9.51953 42.8028 9.51953ZM42.8028 88.5738C22.0371 88.5738 5.21429 71.751 5.21429 50.9852C5.21429 30.2195 22.0371 13.3967 42.8028 13.3967C63.5686 13.3967 80.3915 30.2195 80.3915 50.9852C80.4572 71.6853 63.5686 88.5738 42.8028 88.5738Z" fill="url(#paint0_linear_4922_4137)"/>
<path d="M42.8686 8.46875C19.2772 8.46875 0.154297 27.5916 0.154297 51.183C0.154297 74.7745 19.2772 93.8973 42.8686 93.8973C66.46 93.8973 85.5829 74.7745 85.5829 51.183C85.5829 27.6573 66.46 8.46875 42.8686 8.46875ZM42.8686 91.5973C32.0914 91.5973 21.9714 87.3916 14.3486 79.7688C6.72571 72.1459 2.52 62.0259 2.52 51.2488C2.52 40.4716 6.72571 30.3516 14.3486 22.7288C21.9714 15.1059 32.0914 10.9002 42.8686 10.9002C53.6457 10.9002 63.7657 15.1059 71.3885 22.7288C79.0114 30.3516 83.2171 40.4716 83.2171 51.2488C83.2171 62.0259 79.0114 72.1459 71.3885 79.7688C63.7657 87.3916 53.6457 91.5973 42.8686 91.5973Z" fill="url(#paint1_linear_4922_4137)"/>
<path opacity="0.5" d="M42.8687 92.7809C23.5487 92.7809 7.25145 80.2294 1.73145 62.8809C6.79145 80.8209 23.2858 93.9637 42.8687 93.9637C62.4515 93.9637 78.9458 80.8209 84.0058 62.8809C78.4858 80.2294 62.1887 92.7809 42.8687 92.7809Z" fill="url(#paint2_linear_4922_4137)"/>
<path d="M72.1772 21.8739C64.3572 14.0539 53.9086 9.7168 42.8686 9.7168C31.8286 9.7168 21.38 14.0539 13.56 21.8739C5.73997 29.6939 1.40283 40.1425 1.40283 51.1825C1.40283 62.2882 5.73997 72.6711 13.56 80.4911C21.38 88.3111 31.8286 92.6482 42.8686 92.6482C53.9743 92.6482 64.3572 88.3111 72.1772 80.4911C79.9972 72.6711 84.3343 62.2225 84.3343 51.1825C84.3343 40.1425 80.0629 29.7597 72.1772 21.8739ZM71.3885 79.7682C63.7657 87.3911 53.6457 91.5968 42.8686 91.5968C32.0915 91.5968 21.9715 87.3911 14.3486 79.7682C6.72574 72.1454 2.52002 62.0254 2.52002 51.2482C2.52002 40.4711 6.72574 30.3511 14.3486 22.7282C21.9715 15.1054 32.0915 10.8997 42.8686 10.8997C53.6457 10.8997 63.7657 15.1054 71.3885 22.7282C79.0114 30.3511 83.2171 40.4711 83.2171 51.2482C83.2171 62.0254 79.0114 72.1454 71.3885 79.7682Z" fill="url(#paint3_linear_4922_4137)"/>
<path opacity="0.5" d="M84.0058 39.5516C78.9458 21.6116 62.4515 8.46875 42.8687 8.46875C23.2858 8.46875 6.79145 21.6116 1.73145 39.5516C7.25145 22.203 23.5487 9.78304 42.8687 9.78304C62.1887 9.78304 78.4858 22.2688 84.0058 39.5516Z" fill="url(#paint4_linear_4922_4137)"/>
<path d="M70.3365 23.7807C62.9765 16.4207 53.2508 12.4121 42.868 12.4121C32.4851 12.4121 22.7594 16.4207 15.3994 23.7807C8.03937 31.1407 4.03076 40.8664 4.03076 51.2493C4.03076 61.6321 8.03937 71.3578 15.3994 78.7178C22.7594 86.0778 32.4851 90.0864 42.868 90.0864C53.2508 90.0864 62.9765 86.0778 70.3365 78.7178C77.6965 71.3578 81.7051 61.6321 81.7051 51.2493C81.7051 40.8664 77.6308 31.1407 70.3365 23.7807ZM42.868 87.655C33.1423 87.655 24.0079 83.8435 17.1079 77.0093C10.2079 70.1093 6.46224 60.975 6.46224 51.2493C6.46224 41.5235 10.2736 32.3893 17.1079 25.4893C24.0079 18.5893 33.1423 14.8435 42.868 14.8435C52.5937 14.8435 61.7279 18.655 68.6279 25.4893C75.5279 32.3893 79.2736 41.5235 79.2736 51.2493C79.2736 60.975 75.4622 70.1093 68.6279 77.0093C61.7279 83.9093 52.5937 87.655 42.868 87.655Z" fill="url(#paint5_linear_4922_4137)"/>
<path opacity="0.5" d="M70.8636 77.4042C63.3721 84.7642 53.4493 88.7728 42.8693 88.7728C32.2893 88.7728 22.3664 84.7642 14.8749 77.4042C12.2463 74.8413 10.0121 71.9499 8.23779 68.8613C10.0778 72.4756 12.4435 75.7613 15.4007 78.6528C22.7607 86.0128 32.4864 90.0213 42.8693 90.0213C53.2521 90.0213 62.9778 86.0128 70.3378 78.6528C73.295 75.6956 75.6607 72.4099 77.5007 68.8613C75.7264 71.9499 73.4921 74.8413 70.8636 77.4042Z" fill="url(#paint6_linear_4922_4137)"/>
<path opacity="0.5" d="M77.4343 33.6385C75.5943 30.0242 73.2285 26.7385 70.2714 23.8471C62.9114 16.4871 53.1856 12.4785 42.8028 12.4785C32.4199 12.4785 22.6943 16.4871 15.3343 23.8471C12.3771 26.8042 10.0114 30.0899 8.17139 33.6385C9.94567 30.5499 12.1799 27.6585 14.8085 25.0957C22.2999 17.7357 32.2228 13.7271 42.8028 13.7271C53.3828 13.7271 63.3057 17.7357 70.7971 25.0957C73.4914 27.6585 75.7257 30.4842 77.4343 33.6385Z" fill="url(#paint7_linear_4922_4137)"/>
<path d="M69.4171 24.6364C62.32 17.5393 52.8572 13.6621 42.8686 13.6621C32.8801 13.6621 23.4172 17.5393 16.32 24.6364C9.22289 31.7335 5.3457 41.1964 5.3457 51.185C5.3457 61.2393 9.22289 70.6364 16.32 77.7335C23.4172 84.8307 32.8801 88.7078 42.8686 88.7078C52.8572 88.7078 62.32 84.8307 69.4171 77.7335C76.5143 70.6364 80.3915 61.1735 80.3915 51.185C80.4572 41.1964 76.5143 31.7335 69.4171 24.6364ZM68.6286 77.0107C61.7286 83.9107 52.5943 87.6564 42.8686 87.6564C33.1429 87.6564 24.0086 83.845 17.1086 77.0107C10.2086 70.1107 6.46289 60.9764 6.46289 51.2507C6.46289 41.525 10.2743 32.3907 17.1086 25.4907C24.0086 18.5907 33.1429 14.845 42.8686 14.845C52.5943 14.845 61.7286 18.6564 68.6286 25.4907C75.5286 32.3907 79.2743 41.525 79.2743 51.2507C79.2743 60.9764 75.5286 70.1107 68.6286 77.0107Z" fill="url(#paint8_linear_4922_4137)"/>
<path opacity="0.5" d="M72.308 20.2974C70.0737 20.8232 67.248 19.4432 67.248 19.4432L66.1308 20.166C64.7508 20.3632 64.6194 22.006 64.6194 22.006C58.3766 17.3403 50.7537 14.7774 42.8023 14.7774C34.7851 14.7774 27.1623 17.3403 20.8537 22.0717C20.1309 20.4946 17.9623 21.2832 17.9623 21.2832L17.108 20.166C15.728 19.3774 13.4937 20.1003 13.3623 20.166C13.428 20.1003 13.428 20.1003 13.4937 20.0346C13.5594 20.0346 13.5595 19.9689 13.6252 19.9689C13.8223 19.7717 13.9537 19.6403 14.1508 19.4432C14.2166 19.4432 14.2166 19.3774 14.2823 19.3774C14.4795 19.1803 14.6765 19.0489 14.8737 18.8517C15.0708 18.6546 15.268 18.5232 15.4651 18.3917C15.5308 18.3917 15.5309 18.326 15.5966 18.326C15.7937 18.1946 15.9908 17.9974 16.188 17.866C16.2537 17.866 16.2537 17.8003 16.3194 17.8003C16.5166 17.6689 16.7137 17.4717 16.9109 17.3403C17.108 17.2089 17.3051 17.0117 17.5023 16.8803C17.568 16.8803 17.568 16.8146 17.6337 16.8146C17.8309 16.6832 18.028 16.5517 18.2252 16.3546C18.2909 16.3546 18.2909 16.2889 18.3566 16.2889C18.5537 16.1574 18.7509 16.026 18.948 15.8946C18.948 15.8946 18.948 15.8946 19.0137 15.8946C19.2109 15.7632 19.408 15.6317 19.6709 15.5003C19.7366 15.5003 19.7365 15.4346 19.8023 15.4346C19.9994 15.3032 20.1965 15.1717 20.4594 15.0403C20.5251 15.0403 20.5252 14.9746 20.5909 14.9746C20.788 14.8432 20.9852 14.7117 21.1823 14.5803C21.1823 14.5803 21.248 14.5803 21.248 14.5146C21.4452 14.3832 21.708 14.2517 21.9052 14.1203C21.9709 14.1203 21.9708 14.0546 22.0366 14.0546C22.2337 13.9232 22.4966 13.7917 22.6937 13.726C22.7594 13.726 22.7595 13.6603 22.8252 13.6603C23.0223 13.5289 23.2195 13.4632 23.4823 13.3317C23.4823 13.3317 23.548 13.3317 23.548 13.266C23.7452 13.1346 24.008 13.0689 24.2052 12.9374C24.2709 12.9374 24.2708 12.8717 24.3366 12.8717C24.5337 12.7403 24.7966 12.6746 24.9937 12.5432C25.0594 12.5432 25.0595 12.5432 25.1252 12.4774C25.3223 12.346 25.5852 12.2803 25.7823 12.2146C25.7823 12.2146 25.848 12.2146 25.848 12.1489C26.1109 12.0174 26.308 11.9517 26.5709 11.8203C26.6366 11.8203 26.6365 11.7546 26.7023 11.7546C26.9651 11.6889 27.1623 11.5574 27.4252 11.4917C27.4252 11.4917 27.4909 11.4917 27.4909 11.426C27.688 11.3603 27.9509 11.2289 28.148 11.1632C28.148 11.1632 28.2137 11.1632 28.2137 11.0974C28.4766 11.0317 28.6737 10.9003 28.9366 10.8346C29.0023 10.8346 29.0023 10.8346 29.068 10.7689C29.3309 10.7032 29.528 10.5717 29.7909 10.506H29.8566C30.1194 10.4403 30.3166 10.3746 30.5794 10.3089C30.6451 10.3089 30.6452 10.3089 30.7109 10.3089C30.9737 10.2432 31.1709 10.1774 31.4337 10.1117C31.4994 10.1117 31.4994 10.1117 31.5651 10.046C31.828 9.9803 32.0908 9.91459 32.288 9.84887H32.3538C32.6166 9.78316 32.8137 9.71744 33.0766 9.65173C33.1423 9.65173 33.1423 9.65173 33.208 9.65173C33.4708 9.58602 33.7337 9.5203 33.9966 9.45459C34.0623 9.45459 34.0623 9.45459 34.128 9.45459C34.3909 9.38887 34.6537 9.32316 34.9165 9.32316C34.9165 9.32316 34.9166 9.32316 34.9823 9.32316C35.2452 9.25744 35.508 9.25744 35.7709 9.19173C35.8366 9.19173 35.8365 9.19173 35.9023 9.19173C36.1651 9.12602 36.428 9.12602 36.6909 9.0603C36.7566 9.0603 36.7566 9.0603 36.8223 9.0603C37.0851 8.99459 37.348 8.99459 37.6109 8.92887C37.8738 8.92887 38.1366 8.86316 38.3994 8.86316C38.4651 8.86316 38.4651 8.86316 38.5308 8.86316C38.7937 8.86316 39.0566 8.79744 39.3194 8.79744C39.3852 8.79744 39.3851 8.79744 39.4508 8.79744C39.9766 8.73173 40.568 8.73173 41.0937 8.66602C41.1594 8.66602 41.1595 8.66602 41.2252 8.66602C41.488 8.66602 41.7509 8.66602 42.0137 8.66602C42.0794 8.66602 42.0794 8.66602 42.1451 8.66602C42.408 8.66602 42.6709 8.66602 42.9994 8.66602C43.2623 8.66602 43.5252 8.66602 43.8538 8.66602C43.9195 8.66602 43.9194 8.66602 43.9851 8.66602C44.248 8.66602 44.5108 8.66602 44.7737 8.66602C44.8394 8.66602 44.8394 8.66602 44.9052 8.66602C45.4309 8.66602 46.0223 8.73173 46.548 8.79744C46.6137 8.79744 46.6137 8.79744 46.6794 8.79744C46.9423 8.79744 47.2052 8.86316 47.468 8.86316C47.5337 8.86316 47.5337 8.86316 47.5994 8.86316C47.8623 8.86316 48.1251 8.92887 48.388 8.92887C48.6508 8.99459 48.9137 8.99459 49.1766 9.0603C49.2423 9.0603 49.2423 9.0603 49.308 9.0603C49.5708 9.12602 49.8338 9.12602 50.0966 9.19173C50.1623 9.19173 50.1623 9.19173 50.228 9.19173C50.4909 9.25744 50.7537 9.25744 51.0165 9.32316C51.0165 9.32316 51.0166 9.32316 51.0823 9.32316C51.3452 9.38887 51.608 9.45459 51.8709 9.45459C51.9366 9.45459 51.9365 9.45459 52.0023 9.45459C52.2651 9.5203 52.528 9.58602 52.7909 9.65173C52.8566 9.65173 52.8566 9.65173 52.9223 9.65173C53.1851 9.71744 53.3823 9.78316 53.6451 9.84887H53.7109C53.9738 9.91459 54.2366 9.9803 54.4994 10.046C54.5651 10.046 54.5651 10.046 54.6308 10.1117C54.8937 10.1774 55.1566 10.2432 55.3538 10.3089C55.3538 10.3089 55.4194 10.3089 55.4851 10.3089C55.748 10.3746 55.9451 10.4403 56.208 10.506H56.2737C56.5365 10.5717 56.7337 10.6374 56.9966 10.7689C57.0623 10.7689 57.0623 10.7689 57.128 10.8346C57.3909 10.9003 57.588 11.0317 57.8508 11.0974H57.9165C58.1137 11.1632 58.3765 11.2946 58.5737 11.3603H58.6395C58.9023 11.426 59.0994 11.5574 59.3623 11.6232C59.428 11.6232 59.428 11.6889 59.4937 11.6889C59.7566 11.7546 59.9537 11.886 60.2165 12.0174C60.2165 12.0174 60.2823 12.0174 60.2823 12.0832C60.4795 12.1489 60.7423 12.2803 60.9395 12.4117C60.9395 12.4117 61.0052 12.4117 61.0052 12.4774C61.2023 12.6089 61.4652 12.6746 61.6623 12.806C61.728 12.806 61.728 12.8717 61.7937 12.8717C61.9908 13.0032 62.2537 13.0689 62.4508 13.2003C62.4508 13.2003 62.5165 13.2003 62.5165 13.266C62.7137 13.3974 62.9765 13.4632 63.1737 13.5946C63.2394 13.5946 63.2394 13.6603 63.3052 13.6603C63.5023 13.7917 63.7652 13.9232 63.9623 14.0546C64.028 14.0546 64.028 14.1203 64.0937 14.1203C64.2908 14.2517 64.5537 14.3832 64.7508 14.5146H64.8165C65.0137 14.646 65.2108 14.7774 65.4737 14.9089C65.5394 14.9089 65.5394 14.9746 65.6052 14.9746C65.8023 15.106 65.9995 15.2374 66.2623 15.3689C66.328 15.3689 66.328 15.4346 66.3937 15.4346C66.5908 15.566 66.788 15.6974 67.0508 15.8289C67.0508 15.8289 67.0508 15.8289 67.1165 15.8289C67.3137 15.9603 67.5108 16.0917 67.708 16.2232C67.7737 16.2232 67.7738 16.2889 67.8395 16.2889C68.0366 16.4203 68.2337 16.5517 68.4308 16.7489C68.4965 16.7489 68.4966 16.8146 68.5623 16.8146C68.7594 16.946 68.9566 17.1432 69.1538 17.2746C69.3509 17.406 69.548 17.6032 69.7451 17.7346C69.8108 17.7346 69.8109 17.8003 69.8766 17.8003C70.0737 17.9317 70.2709 18.1289 70.468 18.2603C70.5338 18.2603 70.5337 18.326 70.5994 18.326C70.9937 18.6546 71.388 18.9832 71.7823 19.3117C71.7823 19.3117 71.848 19.3774 71.9137 19.3774C72.1109 19.5746 72.308 19.706 72.4395 19.9032L72.5052 19.9689C72.2423 20.166 72.2423 20.2317 72.308 20.2974Z" fill="url(#paint9_linear_4922_4137)"/>
<path opacity="0.5" d="M28.8051 84.8937C28.8051 84.8937 29.528 85.6166 29.068 87.5223L28.1479 88.8366L29.6593 89.428C29.6593 89.428 29.5936 90.808 28.8708 91.6623C28.8708 91.6623 35.2451 94.0937 42.9337 94.0937C50.6222 94.0937 57.2593 91.4652 57.2593 91.4652L56.0765 89.3623L57.2593 88.9023L56.9965 87.3252C56.9965 87.3252 57.3908 85.5509 57.2593 84.6309C57.2593 84.6309 49.4394 87.7851 43.2622 87.7851C37.0194 87.9166 28.8051 84.8937 28.8051 84.8937Z" fill="url(#paint10_linear_4922_4137)"/>
<path d="M45.8249 18.5873C45.6935 18.9816 45.4963 19.3102 45.2335 19.5073C44.8392 19.9016 44.3792 19.9016 44.3792 19.9016C43.722 21.5445 42.8678 21.7416 42.8678 21.7416C42.8678 21.7416 42.0135 21.5445 41.3563 19.9016C41.3563 19.9016 40.962 19.8359 40.502 19.5073C40.3049 19.3102 40.1078 19.0473 39.9106 18.5873C39.9106 18.5873 40.3706 17.0759 40.9621 15.7616C41.4878 14.5788 42.1449 13.5273 42.8678 13.5273C43.5906 13.5273 44.3135 14.7102 44.8392 15.9588C45.4306 17.2073 45.8249 18.5873 45.8249 18.5873Z" fill="url(#paint11_linear_4922_4137)"/>
<path d="M41.2914 19.903C41.2914 19.903 40.8968 19.8373 40.4365 19.5085C40.9626 19.5085 41.3571 18.3249 41.3571 18.1934C41.4229 18.2591 41.2256 19.1139 41.2914 19.903Z" fill="url(#paint12_linear_4922_4137)"/>
<path d="M44.379 19.903C44.4448 19.1139 44.3133 18.2591 44.2476 18.1934C44.2476 18.3249 44.6421 19.5085 45.1682 19.5085C44.8394 19.8373 44.379 19.903 44.379 19.903Z" fill="url(#paint13_linear_4922_4137)"/>
<path opacity="0.5" d="M44.842 15.8959C44.1187 16.7507 43.1324 17.474 42.8693 17.4082C42.6063 17.3425 42.0802 17.4082 40.9624 15.6986C41.4884 14.515 42.146 13.4629 42.8693 13.4629C43.5926 13.4629 44.2502 14.6465 44.842 15.8959Z" fill="url(#paint14_linear_4922_4137)"/>
<path d="M49.1771 8.6653C49.1114 7.15387 45.7599 6.8253 45.7599 6.8253C45.7599 6.8253 45.9571 5.97102 45.5628 5.05102C45.1686 4.19673 43.1314 2.29102 42.8028 2.29102C42.4742 2.29102 40.4371 4.19673 40.0428 5.05102C39.6485 5.9053 39.8456 6.8253 39.8456 6.8253C39.8456 6.8253 36.56 7.15387 36.4285 8.6653C36.3628 10.1767 40.3714 13.7253 40.3714 13.7253H42.7371H45.1028C45.2342 13.791 49.3086 10.2424 49.1771 8.6653Z" fill="url(#paint15_linear_4922_4137)"/>
<path d="M37.1504 10.2425C36.7561 9.65106 36.4276 9.05963 36.4933 8.66535C36.4933 8.4682 36.559 8.33677 36.6248 8.13963C36.8219 8.0082 37.1504 7.94249 37.5447 8.0082C38.7275 8.20534 40.3047 10.5053 41.0933 13.7253H40.4361C40.5019 13.7911 38.3333 11.8853 37.1504 10.2425Z" fill="url(#paint16_linear_4922_4137)"/>
<path d="M41.0938 13.7894H40.4367C40.4367 13.7894 38.2681 11.8837 37.151 10.3066C37.151 10.1752 36.4938 8.79516 37.151 8.46659C37.8081 8.0723 39.9767 9.58373 41.0938 13.7894Z" fill="url(#paint17_linear_4922_4137)"/>
<path d="M49.1766 8.86287C49.1109 9.32287 48.7823 9.98002 48.2566 10.6372C47.0737 12.1486 45.2337 13.7914 45.2337 13.7914H44.3794C45.168 10.5714 46.7451 8.20573 47.928 8.0743C48.7166 7.94287 49.1766 8.33716 49.1766 8.86287Z" fill="url(#paint18_linear_4922_4137)"/>
<path d="M48.3223 10.2427C48.3223 10.2427 48.3223 10.3741 48.2566 10.5713C47.0737 12.0827 45.2337 13.7256 45.2337 13.7256H44.3794C45.4965 9.58557 47.6651 8.00843 48.3223 8.337C48.9794 8.797 48.3223 10.177 48.3223 10.2427Z" fill="url(#paint19_linear_4922_4137)"/>
<path opacity="0.5" d="M44.1166 12.9375C45.2995 10.6375 45.9566 9.25751 45.4309 8.66608C44.9052 8.07465 40.8309 7.94322 40.108 8.60036C39.3852 9.19179 41.3566 12.9375 41.3566 12.9375H44.1166Z" fill="url(#paint20_linear_4922_4137)"/>
<path d="M45.8251 6.82571C45.7594 6.89143 45.7594 6.89143 45.8251 6.82571C45.628 7.02286 44.9708 7.61429 44.248 8.14C43.788 8.46857 43.328 8.79714 42.9337 8.99429C42.7366 8.86286 41.3566 8.14 39.9766 6.82571C39.9766 6.82571 39.7794 5.97143 40.1737 5.05143C40.1737 4.98571 40.2394 4.92 40.3051 4.85429C40.4366 4.65714 40.568 4.46 40.7651 4.26286C41.028 5.77429 43.328 6.23429 43.9851 5.97143C44.6423 5.70857 45.2337 4.59143 44.9051 4C45.2994 4.39429 45.5622 4.78857 45.7594 5.11714C46.0222 5.97143 45.8251 6.82571 45.8251 6.82571Z" fill="url(#paint21_linear_4922_4137)"/>
<g style="mix-blend-mode:color-burn" opacity="0.5" filter="url(#filter0_f_4922_4137)">
<path d="M45.8251 6.82494C45.7594 6.89066 45.7594 6.89066 45.8251 6.82494C45.628 7.02209 45.0366 7.61352 44.248 8.13923C43.8537 8.4678 43.3937 8.73066 42.9337 8.99352C42.7366 8.86209 41.2908 8.13923 39.9766 6.82494C39.9766 6.82494 39.7794 5.97066 40.1737 5.05066C40.1737 4.98494 40.2394 4.91923 40.3051 4.85352C40.1737 6.75923 42.9337 8.86209 42.9337 8.86209C42.9337 8.86209 44.7737 7.48209 45.6937 5.11637C46.0222 5.97066 45.8251 6.82494 45.8251 6.82494Z" fill="url(#paint22_linear_4922_4137)"/>
</g>
<g filter="url(#filter1_f_4922_4137)">
<path d="M42.8023 2.94782C42.6708 3.14508 43.0654 3.99991 43.3941 3.99991C43.7229 3.99991 43.9202 3.67113 43.7887 3.47386C43.7229 3.27659 42.9996 2.75055 42.8023 2.94782Z" fill="url(#paint23_linear_4922_4137)"/>
</g>
<g filter="url(#filter2_f_4922_4137)">
<path d="M45.8257 7.54899C46.0887 7.94353 47.2065 8.00928 47.075 7.68051C46.9435 7.35173 46.3517 7.22021 46.0887 7.28597C45.8914 7.35173 45.7599 7.41748 45.8257 7.54899Z" fill="url(#paint24_linear_4922_4137)"/>
</g>
<path opacity="0.5" d="M45.8249 18.5871C45.6935 18.9814 45.4963 19.31 45.2335 19.5071C44.8392 19.9014 44.3792 19.9014 44.3792 19.9014C43.722 21.5443 42.8678 21.7414 42.8678 21.7414C42.8678 21.7414 42.0135 21.5443 41.3563 19.9014C41.3563 19.9014 40.962 19.8357 40.502 19.5071C40.3049 19.31 40.1078 19.0471 39.9106 18.5871C39.9106 18.5871 40.2392 17.6014 40.6992 16.4843C40.6335 17.0757 40.5678 18.5871 40.6992 18.85C40.8963 19.1785 41.3563 19.1128 41.3563 19.1128C41.7506 20.0985 42.802 21.0843 43.0649 21.0185C43.262 20.9528 44.2477 19.3757 44.4449 18.6528C44.4449 18.6528 44.6421 19.1128 45.1678 18.9157C45.6278 18.7843 45.102 16.2871 45.102 16.2871C45.4963 17.47 45.8249 18.5871 45.8249 18.5871Z" fill="url(#paint25_linear_4922_4137)"/>
<path d="M45.2993 13.4614C45.2993 14.7757 44.2479 15.8271 42.9336 15.8271C41.6193 15.8271 40.5679 14.7757 40.5679 13.4614C40.5679 12.1471 41.6193 11.0957 42.9336 11.0957C44.2479 11.0957 45.2993 12.1471 45.2993 13.4614Z" fill="url(#paint26_radial_4922_4137)"/>
<path opacity="0.5" d="M45.2988 13.463C45.2988 14.7773 44.2474 15.8288 42.9331 15.8288C41.6188 15.8288 40.5674 14.7773 40.5674 13.463C40.5674 12.8716 40.8302 12.2802 41.1587 11.8859C41.0273 12.1488 40.896 12.4773 40.896 12.8059C40.896 13.8573 41.7502 14.7773 42.8674 14.7773C43.9845 14.7773 44.8388 13.923 44.8388 12.8059C44.8388 12.3459 44.7073 11.9516 44.4445 11.623C44.9702 12.083 45.2988 12.7402 45.2988 13.463Z" fill="url(#paint27_linear_4922_4137)"/>
<g filter="url(#filter3_f_4922_4137)">
<path d="M43.1967 11.6874C42.5391 11.9504 42.6049 12.6737 42.6049 12.8053C42.6049 12.9368 43.9857 13.3313 44.1172 13.0683C44.2487 12.8053 44.1172 12.0162 43.9857 11.8847C43.92 11.7532 43.3282 11.6217 43.1967 11.6874Z" fill="url(#paint28_linear_4922_4137)"/>
</g>
<path d="M27.1635 87.0625C28.6749 87.1282 29.0035 90.5454 28.7406 91.2025C28.7406 91.2025 30.9092 92.7796 32.3549 92.3854C32.3549 92.3854 33.9977 91.2025 34.9177 89.6254L38.6635 91.5968C37.6121 93.5682 36.1006 95.7368 34.7863 96.6568C32.2235 98.4311 28.8063 98.6282 27.032 97.9054C25.2577 97.1825 22.0378 93.8968 21.972 91.6625C21.9063 89.4282 25.6521 87.0625 27.1635 87.0625Z" fill="url(#paint29_linear_4922_4137)"/>
<path d="M26.4402 89.2965C26.4402 89.2965 25.783 89.4936 25.7173 89.8222C25.7173 90.1507 26.243 91.6622 26.703 91.8593C27.163 92.1222 28.0173 92.4507 28.6744 91.2679C28.6744 91.2679 30.843 92.845 32.2887 92.4507C32.2887 92.4507 33.9316 91.2679 34.8516 89.6907L36.5602 90.6107C35.903 91.7936 35.1802 92.9765 34.5887 93.5679C33.4059 94.8165 31.5002 95.2765 31.0402 95.145C25.3888 93.5679 24.7974 89.8879 24.7974 89.8879C25.3231 89.165 26.4402 89.2965 26.4402 89.2965Z" fill="url(#paint30_linear_4922_4137)"/>
<path d="M24.9289 87.8516C23.4175 88.7058 21.9061 90.2173 21.9718 91.663C22.0375 93.8973 25.2575 97.183 27.0318 97.9058C28.0832 98.3658 29.7261 98.4316 31.4347 98.103C28.9375 98.1687 25.9146 96.1973 23.3518 91.5973C22.8261 90.6773 23.1547 89.1001 24.9289 87.8516Z" fill="url(#paint31_linear_4922_4137)"/>
<path opacity="0.5" d="M22.431 93.3051C22.4967 93.3708 22.4967 93.3708 22.4967 93.4365C22.5624 93.5022 22.6281 93.6994 22.7595 93.8308C23.811 95.6051 25.8481 97.4451 27.031 97.9708C28.0824 98.4308 29.7253 98.4965 31.4339 98.1679C28.9367 98.2337 25.9138 96.2622 23.351 91.6622C22.5624 91.3994 22.0367 92.5165 22.431 93.3051Z" fill="url(#paint32_linear_4922_4137)"/>
<path d="M26.4412 89.2969C26.4412 89.2969 25.7835 89.4941 25.7178 89.8229C25.7178 90.1517 26.2438 91.6641 26.7041 91.8613C26.5068 90.4147 26.4412 89.6257 27.0987 89.4284C27.0987 89.4284 26.8357 89.2969 26.4412 89.2969Z" fill="url(#paint33_linear_4922_4137)"/>
<path opacity="0.5" d="M33.9318 94.0936C33.5375 94.4222 32.4204 94.8165 32.4204 94.8165C33.7347 94.8822 37.6118 93.0422 36.1661 95.2765C36.6261 94.685 37.1518 94.0279 37.5461 93.3708C36.4946 92.7136 33.9318 94.0936 33.9318 94.0936Z" fill="url(#paint34_linear_4922_4137)"/>
<path d="M58.3122 87.062C59.8237 86.9306 63.6351 89.2306 63.6351 91.4649C63.6351 93.6992 60.5465 97.1163 58.7722 97.9049C58.2465 98.1677 57.655 98.2992 56.8665 98.3649C55.0922 98.562 52.7922 98.1677 50.9522 96.9192C49.5722 95.9992 48.0608 93.8963 46.8779 91.9906L50.5579 89.8877C51.5436 91.3992 53.2522 92.5163 53.2522 92.5163C53.7122 92.6477 54.2379 92.582 54.7636 92.3849C55.8151 91.9906 56.8008 91.2677 56.8008 91.2677C56.5379 90.6106 56.8008 87.1934 58.3122 87.062Z" fill="url(#paint35_linear_4922_4137)"/>
<path d="M59.1003 89.2309C59.1003 89.2309 59.7574 89.428 59.8231 89.6909C59.8231 90.0195 59.3631 91.5309 58.9031 91.7938C58.4431 92.0566 57.6545 92.3852 56.866 91.268C56.866 91.268 54.7631 92.9109 53.3174 92.5823C53.3174 92.5823 51.6088 91.4652 50.6231 89.9537L48.9146 90.9395C49.5717 92.1223 50.426 93.2395 50.9517 93.8309C52.1345 95.0137 54.106 95.408 54.566 95.2766C60.1517 93.5023 60.6117 89.8223 60.6117 89.8223C60.1517 89.0338 59.1003 89.2309 59.1003 89.2309Z" fill="url(#paint36_linear_4922_4137)"/>
<path d="M60.5457 87.7852C62.0572 88.6394 63.6343 90.0852 63.6343 91.5309C63.6343 93.7652 60.5458 97.1823 58.7715 97.9709C57.72 98.4309 56.0772 98.628 54.3687 98.2994C56.8658 98.2337 59.8229 96.1966 62.2544 91.5309C62.7144 90.4794 62.32 88.9023 60.5457 87.7852Z" fill="url(#paint37_linear_4922_4137)"/>
<path opacity="0.5" d="M63.2398 93.1075C63.1741 93.1075 63.1741 93.1075 63.2398 93.1075C63.1741 93.1733 63.174 93.1733 63.174 93.239C63.1083 93.3047 63.0427 93.5018 62.9769 93.699C61.9912 95.539 60.0198 97.379 58.8369 97.9704C57.7855 98.4304 56.1427 98.6275 54.4341 98.299C56.9312 98.2333 59.8884 96.1961 62.3198 91.5304C62.9769 91.2018 63.5684 92.2533 63.2398 93.1075Z" fill="url(#paint38_linear_4922_4137)"/>
<path d="M59.1012 89.2305C59.1012 89.2305 59.7588 89.4277 59.8245 89.6908C59.8245 90.0195 59.3642 91.5319 58.9039 91.795C59.0354 90.3483 59.1012 89.5592 58.3779 89.362C58.3779 89.362 58.7067 89.2305 59.1012 89.2305Z" fill="url(#paint39_linear_4922_4137)"/>
<path opacity="0.5" d="M51.7406 94.2913C52.2006 94.6199 53.252 95.0142 53.252 95.0142C51.9377 95.1456 47.9949 93.4371 49.5063 95.6056C48.9806 95.0799 48.5205 94.4228 48.0605 93.7656C49.112 92.9771 51.7406 94.2913 51.7406 94.2913Z" fill="url(#paint40_linear_4922_4137)"/>
<path opacity="0.5" d="M53.3179 92.5165C53.7779 92.648 54.3036 92.5823 54.8293 92.3851C54.2379 93.9623 54.6322 95.1451 54.6322 95.1451C55.7493 96.3937 56.1436 97.8394 56.1436 97.8394L56.8665 98.2994C55.0922 98.4966 52.7922 98.1023 50.9522 96.8537C49.5722 95.9337 48.0608 93.8308 46.8779 91.9251L50.5579 89.8223C51.6093 91.3994 53.3179 92.5165 53.3179 92.5165Z" fill="url(#paint41_linear_4922_4137)"/>
<path opacity="0.5" d="M32.2884 92.3193C31.8284 92.4507 31.3028 92.385 30.777 92.2536C31.4342 93.8307 31.1056 95.0136 31.1056 95.0136C30.0542 96.2621 29.6599 97.7736 29.6599 97.7736L28.937 98.2993C30.7113 98.4307 32.9456 97.905 34.7856 96.6564C36.1656 95.7364 37.6113 93.5679 38.6628 91.5964L34.917 89.625C33.9313 91.1364 32.2884 92.3193 32.2884 92.3193Z" fill="url(#paint42_linear_4922_4137)"/>
<path d="M37.8744 14.9746C37.283 14.2517 36.0345 15.1717 35.9688 16.2889C35.9031 17.406 37.4802 18.8517 38.5974 19.246C38.8602 19.3774 40.5031 18.786 41.2259 17.1431C42.0145 15.5003 41.2916 14.0546 40.3059 13.7917C39.4516 13.5289 37.8744 14.9746 37.8744 14.9746Z" fill="url(#paint43_linear_4922_4137)"/>
<path d="M37.2832 15.8932C37.2832 15.8932 37.8746 15.8275 37.8746 15.236C37.8746 14.6446 37.546 12.3446 33.2746 12.3446C33.2746 12.3446 29.3317 13.1989 22.1031 17.8646C22.1031 17.8646 18.4232 20.0332 14.9403 19.3103C11.4575 18.5875 8.1717 14.4475 8.30313 8.66461C8.30313 8.66461 9.81459 3.86747 13.4289 1.83033C13.4289 1.83033 17.1746 0.450327 21.5775 2.02747C21.5775 2.02747 25.8488 5.97033 20.4603 10.1103C20.4603 10.1103 18.2917 11.3589 16.5174 11.2932C16.5174 11.2932 15.7288 13.1332 16.5174 14.5789C16.5174 14.5789 19.0146 15.1703 20.4603 14.6446C20.4603 14.6446 24.4689 10.5703 29.3975 9.45318C34.2603 8.33604 39.7146 10.2418 40.5689 14.1846C40.8975 15.7618 40.1746 17.4703 38.4003 17.2732C37.086 17.2075 37.2832 15.8932 37.2832 15.8932Z" fill="url(#paint44_linear_4922_4137)"/>
<path d="M20.46 10.1116C20.46 10.1116 18.2914 11.3602 16.5171 11.2944C16.5171 11.2944 15.7286 13.1344 16.5171 14.5802C16.5171 14.5802 19.0143 15.1716 20.46 14.6459C18.5543 15.8944 17.1086 17.0773 14.6772 17.3402C14.6772 17.3402 13.4286 17.4716 11.7857 17.603C9.74859 15.763 8.23713 12.543 8.30284 8.60016C8.30284 8.60016 9.81431 3.80302 13.4286 1.76587C13.4286 1.76587 17.1743 0.385874 21.5772 1.96302C21.5772 2.02873 25.8486 5.97159 20.46 10.1116Z" fill="url(#paint45_linear_4922_4137)"/>
<path d="M20.4595 10.1109C20.4595 10.1109 18.2909 11.3595 16.5166 11.2938C16.5166 11.2938 15.7281 13.1338 16.5166 14.5795C13.5595 14.6452 12.8367 16.2223 13.4938 16.9452C13.6252 17.0766 13.5595 17.2738 13.4281 17.4052C12.9681 17.4709 12.3767 17.4709 11.7852 17.5366C9.7481 15.6966 8.23664 12.4766 8.30236 8.53375C8.30236 8.53375 9.81382 3.73661 13.4281 1.69947C13.4281 1.69947 17.1738 0.319468 21.5767 1.89661C21.5767 2.02804 25.8481 5.9709 20.4595 10.1109Z" fill="url(#paint46_linear_4922_4137)"/>
<path opacity="0.5" d="M17.3059 7.6142C17.3059 7.6142 16.583 10.1113 15.1373 11.1628C12.1802 11.0313 10.2087 8.92848 10.2087 8.92848C9.6173 9.51991 9.15732 10.6371 9.15732 10.6371C9.15732 10.6371 8.82872 10.3742 8.303 9.9142C8.303 9.51991 8.2373 9.05991 8.2373 8.59991C8.2373 8.59991 9.74877 3.80277 13.3631 1.76562C13.4288 1.83134 17.7002 3.67134 17.3059 7.6142Z" fill="url(#paint47_linear_4922_4137)"/>
<path d="M14.5464 7.812C14.5464 7.812 14.0861 7.35171 13.4943 7.812C12.9025 8.27229 13.4286 9.78467 14.2835 10.245C14.6122 10.4422 15.7958 9.52165 16.1246 8.4038L14.5464 7.812Z" fill="url(#paint48_linear_4922_4137)"/>
<path d="M15.9923 7.28516C15.9923 7.35091 15.9923 7.48242 15.9265 7.61394V7.67969C15.8608 7.8112 15.795 8.00847 15.7292 8.20574C15.7292 8.20574 15.7292 8.27149 15.6635 8.27149V8.33725V8.40301C15.5977 8.46876 15.5977 8.60027 15.5319 8.66603C15.5319 8.73178 15.4662 8.73178 15.4662 8.79754V8.8633V8.92905C15.4004 8.99481 15.4004 9.06056 15.3347 9.12632C14.9402 9.19207 14.2168 8.99481 14.2168 8.99481C14.2168 8.99481 14.9401 8.00847 14.2168 7.15365L15.9923 7.08789V7.15365C15.9923 7.15365 15.9923 7.2194 15.9923 7.28516Z" fill="url(#paint49_linear_4922_4137)"/>
<path d="M37.8741 14.9749C37.8084 14.1863 37.1512 12.412 33.2741 12.4777C33.2741 12.4777 29.3312 13.2006 22.1026 17.8663C22.1026 17.8663 18.4227 20.0349 14.9398 19.312C11.457 18.5892 8.17121 14.4492 8.30264 8.66632C8.30264 8.66632 9.8141 3.86917 13.4284 1.83203C16.3855 1.89775 18.0941 5.05203 18.0941 6.56346C18.0941 8.07489 15.2684 11.032 14.677 11.032C14.0855 11.032 12.5084 8.79775 12.8369 8.00918C13.1655 7.15489 14.2169 7.15489 14.2169 7.15489C14.9398 8.00917 14.2169 8.99489 14.2169 8.99489C14.2169 8.99489 14.2826 8.40346 14.2169 8.07489C14.1512 7.81203 13.6912 7.87775 13.4941 8.27203C13.2312 8.66632 13.8227 9.84918 14.4141 9.91489C14.9398 9.9806 16.057 8.00917 16.057 7.28632C16.057 6.49775 15.5312 4.98632 14.0855 4.59203C12.6398 4.26346 9.61698 6.7606 9.09126 8.46917C8.56555 10.1777 10.6684 15.6977 13.5598 17.012C16.4512 18.3263 19.8026 16.8149 19.8026 16.8149C25.9798 12.8063 31.8284 10.0463 34.9827 10.8349C38.0056 11.5577 37.8741 14.9749 37.8741 14.9749Z" fill="url(#paint50_linear_4922_4137)"/>
<path d="M20.4596 10.1104C20.4596 10.1104 18.291 11.3589 16.5167 11.2932C16.5167 11.2932 15.7939 11.2932 14.6768 11.0304C15.2682 11.0304 18.0939 8.07323 18.0939 6.5618C18.0939 5.97037 17.831 5.11608 17.371 4.32751C17.371 4.32751 18.2253 5.05037 18.8825 6.95608C19.0139 7.41608 21.511 7.15323 22.3653 6.36465C23.2196 5.57608 22.6282 3.3418 22.6282 3.3418C23.351 4.78751 23.9424 7.41608 20.4596 10.1104Z" fill="url(#paint51_linear_4922_4137)"/>
<path opacity="0.5" d="M20.9216 1.83073C20.9216 1.83073 20.6585 3.73765 19.4092 4.06643C18.1598 4.39521 17.3708 4.32945 17.3708 4.32945L17.042 3.80341C18.7516 4.46096 20.4613 2.94858 18.6859 1.30469C19.3434 1.4362 20.1325 1.56771 20.9216 1.83073Z" fill="url(#paint52_linear_4922_4137)"/>
<g filter="url(#filter4_f_4922_4137)">
<path d="M15.5967 1.37229C16.3857 1.30653 17.3063 1.24078 18.2927 1.30653C18.4242 1.96409 15.9912 1.96409 15.5967 1.37229Z" fill="url(#paint53_linear_4922_4137)"/>
</g>
<g filter="url(#filter5_f_4922_4137)">
<path d="M19.4082 6.95769C19.3425 7.22071 20.3946 7.0892 20.7233 6.89193C21.0521 6.69466 20.5919 6.62891 20.1973 6.62891C19.8028 6.62891 19.474 6.76042 19.4082 6.95769Z" fill="url(#paint54_linear_4922_4137)"/>
</g>
<path opacity="0.5" d="M27.6218 11.8189C27.7533 11.3589 26.6361 10.8989 23.6133 12.1474C24.139 11.8189 24.6647 11.4903 25.2561 11.1617C26.6361 10.8989 27.4904 11.1617 27.9504 11.6874C28.3447 12.1474 29.0019 11.8846 29.1333 11.8189L26.6361 12.936C26.7018 12.8046 27.4904 12.2131 27.6218 11.8189Z" fill="url(#paint55_linear_4922_4137)"/>
<path d="M32.4203 10.834C32.4203 10.834 29.1345 10.8997 24.3374 14.054C24.3374 14.054 28.0831 11.8197 32.4203 10.834Z" fill="url(#paint56_linear_4922_4137)"/>
<g filter="url(#filter6_f_4922_4137)">
<path d="M30.3826 10.7032C30.1196 10.7689 29.5935 11.1635 29.988 11.0977C30.3826 11.032 31.1059 10.9662 31.1059 10.8347C31.1717 10.6374 30.5799 10.5717 30.3826 10.7032Z" fill="url(#paint57_linear_4922_4137)"/>
</g>
<g style="mix-blend-mode:color-burn" opacity="0.5" filter="url(#filter7_f_4922_4137)">
<path d="M38.334 17.3402C37.0854 17.2088 37.3483 15.8945 37.3483 15.8945C37.3483 15.8945 37.9397 15.8288 37.9397 15.2373C37.9397 15.1716 37.9397 15.1059 37.9397 15.0402C37.9397 15.0402 38.0054 13.923 37.414 12.8059C38.3997 14.6459 39.6483 13.7259 39.6483 13.3973C39.6483 12.8716 39.0568 11.6888 39.0568 11.623C39.7797 12.3459 40.3054 13.2002 40.5025 14.2516C40.8311 15.8288 40.1083 17.5373 38.334 17.3402Z" fill="url(#paint58_linear_4922_4137)"/>
</g>
<path d="M47.8621 14.9746C48.4535 14.2517 49.7021 15.1717 49.7678 16.2889C49.8335 17.406 48.2564 18.8517 47.1392 19.246C46.8764 19.3774 45.2335 18.786 44.5107 17.1431C43.7221 15.5003 44.4449 14.0546 45.4306 13.7917C46.2849 13.5289 47.8621 14.9746 47.8621 14.9746Z" fill="url(#paint59_linear_4922_4137)"/>
<path d="M48.3886 15.8932C48.3886 15.8932 47.7972 15.8275 47.7972 15.236C47.7972 14.6446 48.1258 12.3446 52.3972 12.3446C52.3972 12.3446 56.3401 13.1989 63.5687 17.8646C63.5687 17.8646 67.2486 20.0332 70.7315 19.3103C74.2143 18.5875 77.5001 14.4475 77.3687 8.66461C77.3687 8.66461 75.8572 3.86747 72.2429 1.83033C72.2429 1.83033 68.4972 0.450327 64.0943 2.02747C64.0943 2.02747 59.823 5.97033 65.2115 10.1103C65.2115 10.1103 67.3801 11.3589 69.1544 11.2932C69.1544 11.2932 69.943 13.1332 69.1544 14.5789C69.1544 14.5789 66.6572 15.1703 65.2115 14.6446C65.2115 14.6446 61.2029 10.5703 56.2743 9.45319C51.4115 8.33604 45.9572 10.2418 45.1029 14.1846C44.7743 15.7618 45.4972 17.4703 47.2715 17.2732C48.6515 17.2075 48.3886 15.8932 48.3886 15.8932Z" fill="url(#paint60_linear_4922_4137)"/>
<path d="M65.2765 10.1116C65.2765 10.1116 67.4451 11.3602 69.2194 11.2944C69.2194 11.2944 70.008 13.1344 69.2194 14.5802C69.2194 14.5802 66.7223 15.1716 65.2765 14.6459C67.1823 15.8944 68.6279 17.0773 71.0593 17.3402C71.0593 17.3402 72.3079 17.4716 73.9508 17.603C75.9879 15.763 77.4994 12.543 77.4337 8.60016C77.4337 8.60016 75.9222 3.80302 72.3079 1.76587C72.3079 1.76587 68.5622 0.385874 64.1593 1.96302C64.1593 2.02873 59.888 5.97159 65.2765 10.1116Z" fill="url(#paint61_linear_4922_4137)"/>
<path d="M65.2765 10.1109C65.2765 10.1109 67.4451 11.3595 69.2194 11.2938C69.2194 11.2938 70.008 13.1338 69.2194 14.5795C72.1765 14.6452 72.8994 16.2223 72.2422 16.9452C72.1108 17.0766 72.1765 17.2738 72.3079 17.4052C72.7679 17.4709 73.3594 17.4709 73.9508 17.5366C75.9879 15.6966 77.4994 12.4766 77.4337 8.53375C77.4337 8.53375 75.9222 3.73661 72.3079 1.69947C72.3079 1.69947 68.5622 0.319468 64.1593 1.89661C64.1593 2.02804 59.888 5.9709 65.2765 10.1109Z" fill="url(#paint62_linear_4922_4137)"/>
<path opacity="0.5" d="M69.0879 7.54848C69.0879 7.54848 69.2193 9.51991 71.0593 10.6371C74.4107 8.79705 75.5279 8.92848 75.5279 8.92848C76.1193 9.51991 76.5793 10.6371 76.5793 10.6371C76.5793 10.6371 76.9079 10.3742 77.4336 9.9142C77.4336 9.51991 77.4993 9.05991 77.4993 8.59991C77.4993 8.59991 75.9879 3.80277 72.3736 1.76562C72.3079 1.83134 68.7593 4.32848 69.0879 7.54848Z" fill="url(#paint63_linear_4922_4137)"/>
<path d="M71.1914 7.812C71.1914 7.812 71.6517 7.3517 72.2435 7.812C72.8353 8.27229 72.3093 9.78467 71.4545 10.245C71.1257 10.4422 69.9421 9.52165 69.6133 8.4038L71.1914 7.812Z" fill="url(#paint64_linear_4922_4137)"/>
<path d="M69.6792 7.28516C69.6792 7.35091 69.6792 7.48242 69.7449 7.61394V7.67969C69.8107 7.8112 69.8765 8.00847 69.9422 8.20574C69.9422 8.20574 69.9422 8.27149 70.008 8.27149V8.33725V8.40301C70.0737 8.46876 70.0738 8.60027 70.1395 8.66603C70.1395 8.73178 70.2053 8.73178 70.2053 8.79754V8.8633V8.92905C70.271 8.99481 70.271 9.06056 70.3368 9.12632C70.7313 9.19207 71.4547 8.99481 71.4547 8.99481C71.4547 8.99481 70.7313 8.00847 71.4547 7.15365L69.6792 7.08789V7.15365C69.6792 7.15365 69.6792 7.2194 69.6792 7.28516Z" fill="url(#paint65_linear_4922_4137)"/>
<path d="M47.8631 14.9729C47.9289 14.1844 48.586 12.4101 52.4631 12.4758C52.4631 12.4758 56.406 13.1986 63.6346 17.8644C63.6346 17.8644 67.3146 20.0329 70.7974 19.3101C74.2803 18.5872 77.566 14.4472 77.4346 8.66436C77.4346 8.66436 75.9231 3.86722 72.3088 1.83008C69.3517 1.89579 67.6431 5.05008 67.6431 6.56151C67.6431 8.07294 70.4688 11.0301 71.0602 11.0301C71.6517 11.0301 73.2288 8.79579 72.9003 8.00722C72.5717 7.15294 71.5203 7.15294 71.5203 7.15294C70.7974 8.00722 71.5203 8.99294 71.5203 8.99294C71.5203 8.99294 71.4546 8.40151 71.5203 8.07294C71.586 7.81008 72.046 7.87579 72.2431 8.27008C72.506 8.66436 71.9145 9.84722 71.3231 9.91294C70.7974 9.97865 69.6803 8.00722 69.6803 7.28436C69.6803 6.49579 70.206 4.98436 71.6517 4.59008C73.0974 4.26151 76.1202 6.75865 76.646 8.46722C77.1717 10.1758 75.0689 15.6958 72.1774 17.0101C69.286 18.3244 65.9346 16.8129 65.9346 16.8129C59.7574 12.8044 53.9089 10.0444 50.7546 10.8329C47.7317 11.5558 47.8631 14.9729 47.8631 14.9729Z" fill="url(#paint66_linear_4922_4137)"/>
<path d="M65.2767 10.1104C65.2767 10.1104 67.4453 11.3589 69.2196 11.2932C69.2196 11.2932 69.9424 11.2932 71.0595 11.0304C70.4681 11.0304 67.6424 8.07323 67.6424 6.5618C67.6424 5.97037 67.9052 5.11608 68.3652 4.32751C68.3652 4.32751 67.511 5.05037 66.8539 6.95608C66.7224 7.41608 64.2253 7.15323 63.371 6.36466C62.5167 5.57608 63.1081 3.3418 63.1081 3.3418C62.3195 4.78751 61.7281 7.41608 65.2767 10.1104Z" fill="url(#paint67_linear_4922_4137)"/>
<path opacity="0.5" d="M64.8164 1.83073C64.8164 1.83073 65.0795 3.73765 66.3288 4.06643C67.5782 4.39521 68.3672 4.32945 68.3672 4.32945L68.696 3.80341C66.9864 4.46096 65.2767 2.94858 67.0521 1.30469C66.3288 1.4362 65.6055 1.56771 64.8164 1.83073Z" fill="url(#paint68_linear_4922_4137)"/>
<g filter="url(#filter8_f_4922_4137)">
<path d="M70.1412 1.37229C69.3521 1.30653 68.4315 1.24078 67.4452 1.30653C67.2479 1.96409 69.7467 1.96409 70.1412 1.37229Z" fill="url(#paint69_linear_4922_4137)"/>
</g>
<g filter="url(#filter9_f_4922_4137)">
<path d="M66.3292 6.95769C66.3949 7.22071 65.3428 7.0892 65.014 6.89193C64.6853 6.69466 65.1456 6.62891 65.5401 6.62891C65.9346 6.62891 66.2634 6.76042 66.3292 6.95769Z" fill="url(#paint70_linear_4922_4137)"/>
</g>
<path opacity="0.5" d="M58.0476 11.8189C57.9162 11.3589 59.0333 10.8989 62.0561 12.1474C61.5304 11.8189 61.0047 11.4903 60.4133 11.1617C59.0333 10.8989 58.179 11.1617 57.719 11.6874C57.3247 12.1474 56.6676 11.8846 56.5361 11.8189L59.0333 12.936C58.9676 12.8046 58.2447 12.2131 58.0476 11.8189Z" fill="url(#paint71_linear_4922_4137)"/>
<path d="M53.3169 10.834C53.3169 10.834 56.6026 10.8997 61.3998 14.054C61.3998 14.054 57.5883 11.8197 53.3169 10.834Z" fill="url(#paint72_linear_4922_4137)"/>
<g filter="url(#filter10_f_4922_4137)">
<path d="M55.2882 10.7032C55.5513 10.7689 56.0774 11.1635 55.6828 11.0977C55.2883 11.032 54.5649 10.9662 54.5649 10.8347C54.5649 10.6374 55.091 10.5717 55.2882 10.7032Z" fill="url(#paint73_linear_4922_4137)"/>
</g>
<g style="mix-blend-mode:color-burn" opacity="0.5" filter="url(#filter11_f_4922_4137)">
<path d="M47.4023 17.3402C48.6508 17.2088 48.388 15.8945 48.388 15.8945C48.388 15.8945 47.7966 15.8288 47.7966 15.2373C47.7966 15.1716 47.7966 15.1059 47.7966 15.0402C47.7966 15.0402 47.7309 13.923 48.3223 12.8059C47.3366 14.6459 46.088 13.7259 46.088 13.3973C46.088 12.8716 46.6794 11.6888 46.6794 11.623C45.9566 12.3459 45.4309 13.2002 45.2338 14.2516C44.9052 15.8288 45.628 17.5373 47.4023 17.3402Z" fill="url(#paint74_linear_4922_4137)"/>
</g>
<path d="M41.5547 90.5461C41.4233 90.4804 41.3576 90.4804 41.2262 90.4147C41.2262 90.4147 41.029 93.0433 38.9261 94.489C38.9261 94.489 37.8747 94.7518 36.6918 94.8833C35.9033 94.949 35.049 94.949 34.3261 94.8175C32.4204 94.4233 28.8061 86.0775 29.5947 83.9747C29.7918 83.3833 33.5375 84.5661 39.1889 86.6033C39.3861 86.7347 39.5833 86.9318 39.7147 87.129C40.6347 88.049 41.2262 89.2975 41.5547 90.5461Z" fill="url(#paint75_linear_4922_4137)"/>
<path d="M30.1851 87.918C31.1708 91.0065 33.1422 94.5551 34.3908 94.818C36.2965 95.2123 38.9908 94.4894 38.9908 94.4894C41.0279 93.1094 41.2908 90.5465 41.2908 90.4151C39.9108 92.1894 35.7051 92.978 34.3908 92.7808C33.5365 92.7151 31.9593 91.5323 30.1851 87.918Z" fill="url(#paint76_linear_4922_4137)"/>
<path d="M41.2247 90.4147C41.0933 90.349 40.8304 88.969 40.3704 88.5747C39.9104 88.1804 34.0619 86.6033 33.6676 86.8004C33.6019 86.8004 33.6018 86.8661 33.6018 86.9318C33.4704 87.589 34.5219 89.9547 34.6533 90.2176C34.7847 90.5461 36.7561 90.9404 36.9533 90.4804C37.1504 90.0204 35.8361 88.2461 35.8361 88.2461C35.8361 88.2461 37.6104 89.6918 37.6104 90.2176C37.6104 90.7433 37.0847 91.269 36.7561 91.4661C36.4275 91.6633 34.7189 91.2033 34.1932 90.8747C33.9304 90.7433 33.3389 89.5604 32.9446 88.3118V88.2461C32.4846 87.0633 32.1561 85.8804 32.2875 85.6833C32.4846 85.3547 39.779 87.589 40.3704 87.9176C40.8961 88.3118 41.2247 90.4147 41.2247 90.4147Z" fill="url(#paint77_linear_4922_4137)"/>
<path d="M36.7573 91.5323C36.4287 91.7295 34.7201 91.2695 34.1944 90.9409C33.9315 90.8095 33.3401 89.6266 32.9458 88.378V88.3123L33.6687 86.998C33.5373 87.6552 34.5887 90.0209 34.7201 90.2838C34.8516 90.6123 36.823 91.0066 37.0201 90.5466C37.2173 90.0866 35.9029 88.3123 35.9029 88.3123C35.9029 88.3123 37.6773 89.758 37.6773 90.2838C37.6116 90.7438 37.0858 91.3352 36.7573 91.5323Z" fill="url(#paint78_linear_4922_4137)"/>
<path opacity="0.5" d="M41.5533 90.5467C41.4219 90.481 41.3562 90.481 41.2247 90.4153C41.2247 90.4153 41.0276 93.0439 38.9247 94.4896C38.9247 94.4896 37.8733 94.7525 36.6904 94.8839C38.3333 93.4382 38.4647 92.1896 38.4647 92.1896C37.6761 89.3639 38.9904 88.1153 38.9904 88.1153L38.859 87.5239L39.779 87.1953C40.6333 88.0496 41.2247 89.2982 41.5533 90.5467Z" fill="url(#paint79_linear_4922_4137)"/>
<path d="M44.3135 90.5461C44.4449 90.4804 44.5106 90.4804 44.642 90.4147C44.642 90.4147 44.8392 93.0433 46.942 94.489C46.942 94.489 47.9935 94.7518 49.1764 94.8833C49.9649 94.949 50.8192 94.949 51.542 94.8175C53.4478 94.4233 57.062 86.0775 56.2734 83.9747C56.0763 83.3833 52.3306 84.5661 46.6792 86.6033C46.482 86.7347 46.2849 86.9318 46.1535 87.129C45.2992 88.049 44.7078 89.2975 44.3135 90.5461Z" fill="url(#paint80_linear_4922_4137)"/>
<path d="M55.7478 87.918C54.7621 91.0065 52.7907 94.5551 51.5421 94.818C49.6364 95.2122 46.9421 94.4894 46.9421 94.4894C44.9049 93.1094 44.6421 90.5465 44.6421 90.4151C46.0221 92.1894 50.2278 92.978 51.5421 92.7808C52.3964 92.7151 53.9078 91.5323 55.7478 87.918Z" fill="url(#paint81_linear_4922_4137)"/>
<path d="M44.6421 90.4147C44.7735 90.349 45.0364 88.969 45.4964 88.5747C45.9564 88.1804 51.8049 86.6033 52.1992 86.8004C52.2649 86.8004 52.2649 86.8661 52.2649 86.9318C52.3964 87.589 51.3449 89.9547 51.2135 90.2176C51.0821 90.5461 49.1107 90.9404 48.9135 90.4804C48.7164 90.0204 50.0306 88.2461 50.0306 88.2461C50.0306 88.2461 48.2564 89.6918 48.2564 90.2176C48.2564 90.7433 48.7821 91.269 49.1107 91.4661C49.4393 91.6633 51.1478 91.2033 51.6735 90.8747C51.9363 90.7433 52.5278 89.5604 52.9221 88.3118V88.2461C53.3821 87.0633 53.7106 85.8804 53.5792 85.6833C53.3821 85.3547 46.0878 87.589 45.4964 87.9176C44.9707 88.3118 44.6421 90.4147 44.6421 90.4147Z" fill="url(#paint82_linear_4922_4137)"/>
<path d="M49.1769 91.5323C49.5054 91.7295 51.214 91.2695 51.7397 90.9409C52.0026 90.8095 52.5939 89.6266 52.9882 88.378V88.3123L52.2654 86.998C52.3968 87.6552 51.3454 90.0209 51.214 90.2838C51.0825 90.6123 49.1111 91.0066 48.914 90.5466C48.7168 90.0866 50.0311 88.3123 50.0311 88.3123C50.0311 88.3123 48.2568 89.758 48.2568 90.2838C48.3226 90.7438 48.8483 91.3352 49.1769 91.5323Z" fill="url(#paint83_linear_4922_4137)"/>
<path opacity="0.5" d="M44.313 90.5467C44.4444 90.481 44.5101 90.481 44.6416 90.4153C44.6416 90.4153 44.8387 93.0439 46.9416 94.4896C46.9416 94.4896 47.993 94.7525 49.1759 94.8839C47.533 93.4382 47.4015 92.1896 47.4015 92.1896C48.1901 89.3639 46.8759 88.1153 46.8759 88.1153L47.0073 87.5239L46.0872 87.1953C45.2987 88.0496 44.7073 89.2982 44.313 90.5467Z" fill="url(#paint84_linear_4922_4137)"/>
<path d="M42.9337 94.0939C45.1839 94.0939 47.008 92.2698 47.008 90.0196C47.008 87.7694 45.1839 85.9453 42.9337 85.9453C40.6835 85.9453 38.8594 87.7694 38.8594 90.0196C38.8594 92.2698 40.6835 94.0939 42.9337 94.0939Z" fill="url(#paint85_radial_4922_4137)"/>
<path opacity="0.5" d="M47.0085 90.0222C47.0085 92.2565 45.1685 94.0965 42.9342 94.0965C40.6999 94.0965 38.8599 92.2565 38.8599 90.0222C38.8599 88.9707 39.2542 88.0507 39.9114 87.3279C39.6485 87.7879 39.517 88.3136 39.517 88.905C39.517 90.745 41.0285 92.2565 42.8685 92.2565C44.7085 92.2565 46.2199 90.745 46.2199 88.905C46.2199 88.1822 45.9571 87.525 45.5628 86.9336C46.4171 87.7222 47.0085 88.7736 47.0085 90.0222Z" fill="url(#paint86_linear_4922_4137)"/>
<g filter="url(#filter12_f_4922_4137)">
<path d="M43.3948 86.931C42.3427 87.3913 42.3427 88.5749 42.4084 88.7722C42.4742 88.9695 44.7756 89.627 45.0387 89.1667C45.2359 88.7064 45.1045 87.3913 44.8414 87.1941C44.5784 87.0625 43.592 86.8653 43.3948 86.931Z" fill="url(#paint87_linear_4922_4137)"/>
</g>
<g style="mix-blend-mode:color-dodge" opacity="0.6">
<path d="M44.4449 93.765C55.2965 93.765 64.0935 92.3822 64.0935 90.6765C64.0935 88.9707 55.2965 87.5879 44.4449 87.5879C33.5933 87.5879 24.7964 88.9707 24.7964 90.6765C24.7964 92.3822 33.5933 93.765 44.4449 93.765Z" fill="url(#paint88_radial_4922_4137)"/>
</g>
<g style="mix-blend-mode:color-dodge" opacity="0.6">
<path d="M22.9568 6.03662C22.4968 8.79662 19.014 11.4252 15.2683 11.8852C11.5226 12.3452 8.89399 10.5052 9.35399 7.74519C9.81399 4.98519 13.2968 2.35662 17.0425 1.89662C20.7882 1.43662 23.4168 3.27662 22.9568 6.03662Z" fill="url(#paint89_radial_4922_4137)"/>
</g>
<g style="mix-blend-mode:color-dodge" opacity="0.6">
<path d="M82.5597 62.9449C84.1929 62.9449 85.5168 57.4137 85.5168 50.5906C85.5168 43.7675 84.1929 38.2363 82.5597 38.2363C80.9265 38.2363 79.6025 43.7675 79.6025 50.5906C79.6025 57.4137 80.9265 62.9449 82.5597 62.9449Z" fill="url(#paint90_radial_4922_4137)"/>
</g>
<g style="mix-blend-mode:color-dodge" opacity="0.6">
<path d="M3.2427 63.2744C4.98476 63.2744 6.39702 57.7726 6.39702 50.9858C6.39702 44.199 4.98476 38.6973 3.2427 38.6973C1.50063 38.6973 0.0883789 44.199 0.0883789 50.9858C0.0883789 57.7726 1.50063 63.2744 3.2427 63.2744Z" fill="url(#paint91_radial_4922_4137)"/>
</g>
<defs>
<filter id="filter0_f_4922_4137" x="39.4126" y="4.33891" width="6.98576" height="5.16985" filterUnits="userSpaceOnUse" color-interpolation-filters="sRGB">
<feFlood flood-opacity="0" result="BackgroundImageFix"/>
<feBlend mode="normal" in="SourceGraphic" in2="BackgroundImageFix" result="shape"/>
<feGaussianBlur stdDeviation="0.257305" result="effect1_foregroundBlur_4922_4137"/>
</filter>
<filter id="filter1_f_4922_4137" x="42.2618" y="2.38969" width="2.08293" height="2.12492" filterUnits="userSpaceOnUse" color-interpolation-filters="sRGB">
<feFlood flood-opacity="0" result="BackgroundImageFix"/>
<feBlend mode="normal" in="SourceGraphic" in2="BackgroundImageFix" result="shape"/>
<feGaussianBlur stdDeviation="0.257305" result="effect1_foregroundBlur_4922_4137"/>
</filter>
<filter id="filter2_f_4922_4137" x="45.294" y="6.75492" width="2.30656" height="1.65031" filterUnits="userSpaceOnUse" color-interpolation-filters="sRGB">
<feFlood flood-opacity="0" result="BackgroundImageFix"/>
<feBlend mode="normal" in="SourceGraphic" in2="BackgroundImageFix" result="shape"/>
<feGaussianBlur stdDeviation="0.257305" result="effect1_foregroundBlur_4922_4137"/>
</filter>
<filter id="filter3_f_4922_4137" x="42.0884" y="11.1553" width="2.59807" height="2.51555" filterUnits="userSpaceOnUse" color-interpolation-filters="sRGB">
<feFlood flood-opacity="0" result="BackgroundImageFix"/>
<feBlend mode="normal" in="SourceGraphic" in2="BackgroundImageFix" result="shape"/>
<feGaussianBlur stdDeviation="0.257305" result="effect1_foregroundBlur_4922_4137"/>
</filter>
<filter id="filter4_f_4922_4137" x="15.0821" y="0.764686" width="3.73039" height="1.55852" filterUnits="userSpaceOnUse" color-interpolation-filters="sRGB">
<feFlood flood-opacity="0" result="BackgroundImageFix"/>
<feBlend mode="normal" in="SourceGraphic" in2="BackgroundImageFix" result="shape"/>
<feGaussianBlur stdDeviation="0.257305" result="effect1_foregroundBlur_4922_4137"/>
</filter>
<filter id="filter5_f_4922_4137" x="18.8907" y="6.1143" width="2.4594" height="1.50578" filterUnits="userSpaceOnUse" color-interpolation-filters="sRGB">
<feFlood flood-opacity="0" result="BackgroundImageFix"/>
<feBlend mode="normal" in="SourceGraphic" in2="BackgroundImageFix" result="shape"/>
<feGaussianBlur stdDeviation="0.257305" result="effect1_foregroundBlur_4922_4137"/>
</filter>
<filter id="filter6_f_4922_4137" x="29.3316" y="10.1202" width="2.29387" height="1.49992" filterUnits="userSpaceOnUse" color-interpolation-filters="sRGB">
<feFlood flood-opacity="0" result="BackgroundImageFix"/>
<feBlend mode="normal" in="SourceGraphic" in2="BackgroundImageFix" result="shape"/>
<feGaussianBlur stdDeviation="0.257305" result="effect1_foregroundBlur_4922_4137"/>
</filter>
<filter id="filter7_f_4922_4137" x="36.8106" y="11.1084" width="4.28362" height="6.76164" filterUnits="userSpaceOnUse" color-interpolation-filters="sRGB">
<feFlood flood-opacity="0" result="BackgroundImageFix"/>
<feBlend mode="normal" in="SourceGraphic" in2="BackgroundImageFix" result="shape"/>
<feGaussianBlur stdDeviation="0.257305" result="effect1_foregroundBlur_4922_4137"/>
</filter>
<filter id="filter8_f_4922_4137" x="66.9195" y="0.764686" width="3.73625" height="1.55852" filterUnits="userSpaceOnUse" color-interpolation-filters="sRGB">
<feFlood flood-opacity="0" result="BackgroundImageFix"/>
<feBlend mode="normal" in="SourceGraphic" in2="BackgroundImageFix" result="shape"/>
<feGaussianBlur stdDeviation="0.257305" result="effect1_foregroundBlur_4922_4137"/>
</filter>
<filter id="filter9_f_4922_4137" x="64.3872" y="6.1143" width="2.4594" height="1.50578" filterUnits="userSpaceOnUse" color-interpolation-filters="sRGB">
<feFlood flood-opacity="0" result="BackgroundImageFix"/>
<feBlend mode="normal" in="SourceGraphic" in2="BackgroundImageFix" result="shape"/>
<feGaussianBlur stdDeviation="0.257305" result="effect1_foregroundBlur_4922_4137"/>
</filter>
<filter id="filter10_f_4922_4137" x="54.0503" y="10.1202" width="2.28899" height="1.49992" filterUnits="userSpaceOnUse" color-interpolation-filters="sRGB">
<feFlood flood-opacity="0" result="BackgroundImageFix"/>
<feBlend mode="normal" in="SourceGraphic" in2="BackgroundImageFix" result="shape"/>
<feGaussianBlur stdDeviation="0.257305" result="effect1_foregroundBlur_4922_4137"/>
</filter>
<filter id="filter11_f_4922_4137" x="44.6421" y="11.1084" width="4.28362" height="6.76164" filterUnits="userSpaceOnUse" color-interpolation-filters="sRGB">
<feFlood flood-opacity="0" result="BackgroundImageFix"/>
<feBlend mode="normal" in="SourceGraphic" in2="BackgroundImageFix" result="shape"/>
<feGaussianBlur stdDeviation="0.257305" result="effect1_foregroundBlur_4922_4137"/>
</filter>
<filter id="filter12_f_4922_4137" x="41.8702" y="86.4034" width="3.77824" height="3.43742" filterUnits="userSpaceOnUse" color-interpolation-filters="sRGB">
<feFlood flood-opacity="0" result="BackgroundImageFix"/>
<feBlend mode="normal" in="SourceGraphic" in2="BackgroundImageFix" result="shape"/>
<feGaussianBlur stdDeviation="0.257305" result="effect1_foregroundBlur_4922_4137"/>
</filter>
<linearGradient id="paint0_linear_4922_4137" x1="42.8306" y1="92.3593" x2="42.8306" y2="9.542" gradientUnits="userSpaceOnUse">
<stop stop-color="#D16509"/>
<stop offset="1" stop-color="#8D2C1B"/>
</linearGradient>
<linearGradient id="paint1_linear_4922_4137" x1="42.8566" y1="93.9761" x2="42.8566" y2="8.49478" gradientUnits="userSpaceOnUse">
<stop stop-color="#CA6B34"/>
<stop offset="0.7401" stop-color="#FFBD2B"/>
<stop offset="1" stop-color="#FFA933"/>
</linearGradient>
<linearGradient id="paint2_linear_4922_4137" x1="42.8565" y1="62.8965" x2="42.8565" y2="93.9766" gradientUnits="userSpaceOnUse">
<stop stop-color="#F08D1D"/>
<stop offset="1" stop-color="#8D2C1B"/>
</linearGradient>
<linearGradient id="paint3_linear_4922_4137" x1="42.8565" y1="9.7444" x2="42.8565" y2="92.7254" gradientUnits="userSpaceOnUse">
<stop stop-color="#CA6B34"/>
<stop offset="0.1742" stop-color="#CC6E34"/>
<stop offset="0.2919" stop-color="#D27733"/>
<stop offset="0.3931" stop-color="#DB8631"/>
<stop offset="0.4848" stop-color="#E99B2F"/>
<stop offset="0.5694" stop-color="#FBB72C"/>
<stop offset="0.5853" stop-color="#FFBD2B"/>
<stop offset="1" stop-color="#FFA933"/>
</linearGradient>
<linearGradient id="paint4_linear_4922_4137" x1="42.8565" y1="39.5747" x2="42.8565" y2="8.4949" gradientUnits="userSpaceOnUse">
<stop stop-color="#EBBD38"/>
<stop offset="1" stop-color="#FFF29E"/>
</linearGradient>
<linearGradient id="paint5_linear_4922_4137" x1="42.8559" y1="61.9767" x2="42.8559" y2="-15.6554" gradientUnits="userSpaceOnUse">
<stop stop-color="#CA6B34"/>
<stop offset="0.7401" stop-color="#FFBD2B"/>
<stop offset="1" stop-color="#FFA933"/>
</linearGradient>
<linearGradient id="paint6_linear_4922_4137" x1="42.8578" y1="66.7521" x2="42.8578" y2="90.6226" gradientUnits="userSpaceOnUse">
<stop stop-color="#F08D1D"/>
<stop offset="1" stop-color="#8D2C1B"/>
</linearGradient>
<linearGradient id="paint7_linear_4922_4137" x1="42.8571" y1="33.6078" x2="42.8571" y2="12.4207" gradientUnits="userSpaceOnUse">
<stop stop-color="#EBBD38"/>
<stop offset="1" stop-color="#FFF29E"/>
</linearGradient>
<linearGradient id="paint8_linear_4922_4137" x1="42.8565" y1="13.6609" x2="42.8565" y2="88.8139" gradientUnits="userSpaceOnUse">
<stop stop-color="#CA6B34"/>
<stop offset="0.1742" stop-color="#CC6E34"/>
<stop offset="0.2919" stop-color="#D27733"/>
<stop offset="0.3931" stop-color="#DB8631"/>
<stop offset="0.4848" stop-color="#E99B2F"/>
<stop offset="0.5694" stop-color="#FBB72C"/>
<stop offset="0.5853" stop-color="#FFBD2B"/>
<stop offset="1" stop-color="#FFA933"/>
</linearGradient>
<linearGradient id="paint9_linear_4922_4137" x1="42.8923" y1="24.1843" x2="42.8923" y2="15.4997" gradientUnits="userSpaceOnUse">
<stop stop-color="#F08D1D"/>
<stop offset="1" stop-color="#8D2C1B"/>
</linearGradient>
<linearGradient id="paint10_linear_4922_4137" x1="42.7082" y1="94.0841" x2="42.7082" y2="84.7249" gradientUnits="userSpaceOnUse">
<stop stop-color="#F08D1D"/>
<stop offset="1" stop-color="#8D2C1B"/>
</linearGradient>
<linearGradient id="paint11_linear_4922_4137" x1="42.8558" y1="22.3435" x2="42.8558" y2="15.5396" gradientUnits="userSpaceOnUse">
<stop stop-color="#CA6B34"/>
<stop offset="0.7401" stop-color="#FFBD2B"/>
<stop offset="1" stop-color="#FFA933"/>
</linearGradient>
<linearGradient id="paint12_linear_4922_4137" x1="40.9482" y1="20.3916" x2="40.9482" y2="18.0548" gradientUnits="userSpaceOnUse">
<stop stop-color="#B75014"/>
<stop offset="0.3889" stop-color="#CA6B34"/>
<stop offset="1" stop-color="#FFA933"/>
</linearGradient>
<linearGradient id="paint13_linear_4922_4137" x1="44.7639" y1="20.3916" x2="44.7639" y2="18.0548" gradientUnits="userSpaceOnUse">
<stop stop-color="#B75014"/>
<stop offset="0.3889" stop-color="#CA6B34"/>
<stop offset="1" stop-color="#FFA933"/>
</linearGradient>
<linearGradient id="paint14_linear_4922_4137" x1="40.9794" y1="15.4527" x2="44.8279" y2="15.4527" gradientUnits="userSpaceOnUse">
<stop stop-color="#F08D1D"/>
<stop offset="1" stop-color="#8D2C1B"/>
</linearGradient>
<linearGradient id="paint15_linear_4922_4137" x1="43.4433" y1="20.378" x2="42.6798" y2="5.2433" gradientUnits="userSpaceOnUse">
<stop stop-color="#CA6B34"/>
<stop offset="0.7401" stop-color="#FFBD2B"/>
<stop offset="1" stop-color="#FFA933"/>
</linearGradient>
<linearGradient id="paint16_linear_4922_4137" x1="36.5042" y1="10.9057" x2="41.1119" y2="10.9057" gradientUnits="userSpaceOnUse">
<stop stop-color="#D16509"/>
<stop offset="1" stop-color="#8D2C1B"/>
</linearGradient>
<linearGradient id="paint17_linear_4922_4137" x1="39.0049" y1="13.5628" x2="39.0049" y2="10.5984" gradientUnits="userSpaceOnUse">
<stop stop-color="#B53E1C"/>
<stop offset="1" stop-color="#440000"/>
</linearGradient>
<linearGradient id="paint18_linear_4922_4137" x1="44.387" y1="10.906" x2="49.2024" y2="10.906" gradientUnits="userSpaceOnUse">
<stop stop-color="#D16509"/>
<stop offset="1" stop-color="#8D2C1B"/>
</linearGradient>
<linearGradient id="paint19_linear_4922_4137" x1="46.4938" y1="13.5646" x2="46.4938" y2="10.6003" gradientUnits="userSpaceOnUse">
<stop stop-color="#B53E1C"/>
<stop offset="1" stop-color="#440000"/>
</linearGradient>
<linearGradient id="paint20_linear_4922_4137" x1="42.9653" y1="13.4155" x2="42.6959" y2="5.80317" gradientUnits="userSpaceOnUse">
<stop stop-color="#D33A22"/>
<stop offset="1" stop-color="white"/>
</linearGradient>
<linearGradient id="paint21_linear_4922_4137" x1="42.9307" y1="8.79655" x2="42.7959" y2="4.21567" gradientUnits="userSpaceOnUse">
<stop stop-color="#B75014"/>
<stop offset="0.3889" stop-color="#CA6B34"/>
<stop offset="1" stop-color="#FFA933"/>
</linearGradient>
<linearGradient id="paint22_linear_4922_4137" x1="42.4776" y1="9.11627" x2="43.0838" y2="4.53546" gradientUnits="userSpaceOnUse">
<stop stop-color="#D33A22"/>
<stop offset="1" stop-color="white"/>
</linearGradient>
<linearGradient id="paint23_linear_4922_4137" x1="42.7827" y1="3.41613" x2="43.8386" y2="3.41613" gradientUnits="userSpaceOnUse">
<stop stop-color="white"/>
<stop offset="1" stop-color="#FFF7C4"/>
</linearGradient>
<linearGradient id="paint24_linear_4922_4137" x1="45.7894" y1="7.56977" x2="47.0762" y2="7.56977" gradientUnits="userSpaceOnUse">
<stop stop-color="white"/>
<stop offset="1" stop-color="#FFF7C4"/>
</linearGradient>
<linearGradient id="paint25_linear_4922_4137" x1="39.9013" y1="19.0321" x2="45.8102" y2="19.0321" gradientUnits="userSpaceOnUse">
<stop stop-color="#F08D1D"/>
<stop offset="1" stop-color="#8D2C1B"/>
</linearGradient>
<radialGradient id="paint26_radial_4922_4137" cx="0" cy="0" r="1" gradientUnits="userSpaceOnUse" gradientTransform="translate(43.1141 12.0933) scale(2.38121 2.38122)">
<stop stop-color="#FFA933"/>
<stop offset="0.2599" stop-color="#FFBD2B"/>
<stop offset="1" stop-color="#CA6B34"/>
</radialGradient>
<linearGradient id="paint27_linear_4922_4137" x1="42.9339" y1="15.4512" x2="42.9339" y2="10.1961" gradientUnits="userSpaceOnUse">
<stop stop-color="#D33A22"/>
<stop offset="1" stop-color="white"/>
</linearGradient>
<linearGradient id="paint28_linear_4922_4137" x1="42.5857" y1="12.3793" x2="44.1874" y2="12.3793" gradientUnits="userSpaceOnUse">
<stop stop-color="white"/>
<stop offset="1" stop-color="#FFF7C4"/>
</linearGradient>
<linearGradient id="paint29_linear_4922_4137" x1="31.6407" y1="92.7132" x2="24.5815" y2="92.738" gradientUnits="userSpaceOnUse">
<stop stop-color="#CA6B34"/>
<stop offset="0.7401" stop-color="#FFBD2B"/>
<stop offset="1" stop-color="#FFA933"/>
</linearGradient>
<linearGradient id="paint30_linear_4922_4137" x1="16.6602" y1="88.7142" x2="40.0561" y2="93.9515" gradientUnits="userSpaceOnUse">
<stop stop-color="#D16509"/>
<stop offset="1" stop-color="#8D2C1B"/>
</linearGradient>
<linearGradient id="paint31_linear_4922_4137" x1="26.9755" y1="87.9533" x2="26.553" y2="98.2508" gradientUnits="userSpaceOnUse">
<stop stop-color="#D16509"/>
<stop offset="1" stop-color="#8D2C1B"/>
</linearGradient>
<linearGradient id="paint32_linear_4922_4137" x1="27.014" y1="91.7438" x2="26.7467" y2="98.2581" gradientUnits="userSpaceOnUse">
<stop stop-color="#D33A22"/>
<stop offset="1" stop-color="white"/>
</linearGradient>
<linearGradient id="paint33_linear_4922_4137" x1="25.3023" y1="90.8714" x2="27.3779" y2="90.3573" gradientUnits="userSpaceOnUse">
<stop stop-color="#B53E1C"/>
<stop offset="1" stop-color="#440000"/>
</linearGradient>
<linearGradient id="paint34_linear_4922_4137" x1="35.0838" y1="93.1165" x2="34.9964" y2="95.2471" gradientUnits="userSpaceOnUse">
<stop stop-color="#EBBD38"/>
<stop offset="1" stop-color="#FFF29E"/>
</linearGradient>
<linearGradient id="paint35_linear_4922_4137" x1="55.7532" y1="92.7733" x2="61.47" y2="92.5943" gradientUnits="userSpaceOnUse">
<stop stop-color="#CA6B34"/>
<stop offset="0.7401" stop-color="#FFBD2B"/>
<stop offset="1" stop-color="#FFA933"/>
</linearGradient>
<linearGradient id="paint36_linear_4922_4137" x1="68.8103" y1="88.3112" x2="45.6109" y2="94.361" gradientUnits="userSpaceOnUse">
<stop stop-color="#D16509"/>
<stop offset="1" stop-color="#8D2C1B"/>
</linearGradient>
<linearGradient id="paint37_linear_4922_4137" x1="58.4746" y1="87.9095" x2="59.2558" y2="98.186" gradientUnits="userSpaceOnUse">
<stop stop-color="#D16509"/>
<stop offset="1" stop-color="#8D2C1B"/>
</linearGradient>
<linearGradient id="paint38_linear_4922_4137" x1="58.5669" y1="91.6994" x2="59.0611" y2="98.2004" gradientUnits="userSpaceOnUse">
<stop stop-color="#D33A22"/>
<stop offset="1" stop-color="white"/>
</linearGradient>
<linearGradient id="paint39_linear_4922_4137" x1="60.2501" y1="90.7675" x2="58.1581" y2="90.3262" gradientUnits="userSpaceOnUse">
<stop stop-color="#B53E1C"/>
<stop offset="1" stop-color="#440000"/>
</linearGradient>
<linearGradient id="paint40_linear_4922_4137" x1="50.5516" y1="93.3535" x2="50.7133" y2="95.4798" gradientUnits="userSpaceOnUse">
<stop stop-color="#EBBD38"/>
<stop offset="1" stop-color="#FFF29E"/>
</linearGradient>
<linearGradient id="paint41_linear_4922_4137" x1="58.2534" y1="93.9976" x2="52.0218" y2="94.1928" gradientUnits="userSpaceOnUse">
<stop stop-color="#F08D1D"/>
<stop offset="1" stop-color="#8D2C1B"/>
</linearGradient>
<linearGradient id="paint42_linear_4922_4137" x1="27.4092" y1="93.9694" x2="33.6434" y2="93.9475" gradientUnits="userSpaceOnUse">
<stop stop-color="#F08D1D"/>
<stop offset="1" stop-color="#8D2C1B"/>
</linearGradient>
<linearGradient id="paint43_linear_4922_4137" x1="38.7898" y1="19.2686" x2="38.7898" y2="14.2672" gradientUnits="userSpaceOnUse">
<stop stop-color="#CA6B34"/>
<stop offset="0.7401" stop-color="#FFBD2B"/>
<stop offset="1" stop-color="#FFA933"/>
</linearGradient>
<linearGradient id="paint44_linear_4922_4137" x1="23.7786" y1="15.8282" x2="24.789" y2="9.83268" gradientUnits="userSpaceOnUse">
<stop stop-color="#CA6B34"/>
<stop offset="0.7401" stop-color="#FFBD2B"/>
<stop offset="1" stop-color="#FFA933"/>
</linearGradient>
<linearGradient id="paint45_linear_4922_4137" x1="14.7796" y1="7.77387" x2="19.9667" y2="13.4326" gradientUnits="userSpaceOnUse">
<stop stop-color="#CA6B34"/>
<stop offset="0.7401" stop-color="#FFBD2B"/>
<stop offset="1" stop-color="#FFA933"/>
</linearGradient>
<linearGradient id="paint46_linear_4922_4137" x1="9.50992" y1="11.649" x2="26.3961" y2="2.98141" gradientUnits="userSpaceOnUse">
<stop stop-color="#CE5719"/>
<stop offset="0.7401" stop-color="#FFBD2B"/>
<stop offset="1" stop-color="#FFA933"/>
</linearGradient>
<linearGradient id="paint47_linear_4922_4137" x1="8.98113" y1="8.06118" x2="15.089" y2="6.21986" gradientUnits="userSpaceOnUse">
<stop stop-color="#D33A22"/>
<stop offset="1" stop-color="white"/>
</linearGradient>
<linearGradient id="paint48_linear_4922_4137" x1="15.2519" y1="11.3187" x2="14.5778" y2="8.42017" gradientUnits="userSpaceOnUse">
<stop stop-color="#B53E1C"/>
<stop offset="1" stop-color="#440000"/>
</linearGradient>
<linearGradient id="paint49_linear_4922_4137" x1="14.3737" y1="8.07633" x2="16.9394" y2="8.07633" gradientUnits="userSpaceOnUse">
<stop stop-color="#D16509"/>
<stop offset="1" stop-color="#8D2C1B"/>
</linearGradient>
<linearGradient id="paint50_linear_4922_4137" x1="25.5803" y1="25.4562" x2="21.9426" y2="6.32446" gradientUnits="userSpaceOnUse">
<stop stop-color="#D16509"/>
<stop offset="1" stop-color="#8D2C1B"/>
</linearGradient>
<linearGradient id="paint51_linear_4922_4137" x1="20.2623" y1="2.33998" x2="17.2983" y2="16.2173" gradientUnits="userSpaceOnUse">
<stop stop-color="#B75014"/>
<stop offset="0.3889" stop-color="#CA6B34"/>
<stop offset="1" stop-color="#FFA933"/>
</linearGradient>
<linearGradient id="paint52_linear_4922_4137" x1="17.0176" y1="2.83739" x2="20.9095" y2="2.83739" gradientUnits="userSpaceOnUse">
<stop stop-color="#EBBD38"/>
<stop offset="1" stop-color="#FFF29E"/>
</linearGradient>
<linearGradient id="paint53_linear_4922_4137" x1="15.5779" y1="1.52971" x2="18.2932" y2="1.52971" gradientUnits="userSpaceOnUse">
<stop stop-color="white"/>
<stop offset="1" stop-color="#FFF7C4"/>
</linearGradient>
<linearGradient id="paint54_linear_4922_4137" x1="19.3869" y1="6.85636" x2="20.7935" y2="6.85636" gradientUnits="userSpaceOnUse">
<stop stop-color="white"/>
<stop offset="1" stop-color="#FFF7C4"/>
</linearGradient>
<linearGradient id="paint55_linear_4922_4137" x1="23.6383" y1="11.9193" x2="29.1688" y2="11.9193" gradientUnits="userSpaceOnUse">
<stop stop-color="#EBBD38"/>
<stop offset="1" stop-color="#FFF29E"/>
</linearGradient>
<linearGradient id="paint56_linear_4922_4137" x1="28.3658" y1="16.2141" x2="28.3658" y2="12.1936" gradientUnits="userSpaceOnUse">
<stop stop-color="#E39330"/>
<stop offset="1" stop-color="#FFCD61"/>
</linearGradient>
<linearGradient id="paint57_linear_4922_4137" x1="29.8802" y1="10.8596" x2="31.1466" y2="10.8596" gradientUnits="userSpaceOnUse">
<stop stop-color="white"/>
<stop offset="1" stop-color="#FFF7C4"/>
</linearGradient>
<linearGradient id="paint58_linear_4922_4137" x1="38.9247" y1="16.6637" x2="38.9247" y2="11.5281" gradientUnits="userSpaceOnUse">
<stop stop-color="#D33A22"/>
<stop offset="1" stop-color="white"/>
</linearGradient>
<linearGradient id="paint59_linear_4922_4137" x1="46.9228" y1="19.2686" x2="46.9228" y2="14.2672" gradientUnits="userSpaceOnUse">
<stop stop-color="#CA6B34"/>
<stop offset="0.7401" stop-color="#FFBD2B"/>
<stop offset="1" stop-color="#FFA933"/>
</linearGradient>
<linearGradient id="paint60_linear_4922_4137" x1="45.1524" y1="10.3507" x2="77.4108" y2="10.3507" gradientUnits="userSpaceOnUse">
<stop stop-color="#CA6B34"/>
<stop offset="0.7401" stop-color="#FFBD2B"/>
<stop offset="1" stop-color="#FFA933"/>
</linearGradient>
<linearGradient id="paint61_linear_4922_4137" x1="62.5331" y1="9.43493" x2="77.4101" y2="9.43493" gradientUnits="userSpaceOnUse">
<stop stop-color="#CA6B34"/>
<stop offset="0.7401" stop-color="#FFBD2B"/>
<stop offset="1" stop-color="#FFA933"/>
</linearGradient>
<linearGradient id="paint62_linear_4922_4137" x1="76.5876" y1="15.3497" x2="65.7418" y2="1.94398" gradientUnits="userSpaceOnUse">
<stop stop-color="#CE5719"/>
<stop offset="0.7401" stop-color="#FFBD2B"/>
<stop offset="1" stop-color="#FFA933"/>
</linearGradient>
<linearGradient id="paint63_linear_4922_4137" x1="76.3834" y1="10.9363" x2="72.072" y2="6.49021" gradientUnits="userSpaceOnUse">
<stop stop-color="#D33A22"/>
<stop offset="1" stop-color="white"/>
</linearGradient>
<linearGradient id="paint64_linear_4922_4137" x1="70.7928" y1="10.7945" x2="71.0625" y2="8.83969" gradientUnits="userSpaceOnUse">
<stop stop-color="#B53E1C"/>
<stop offset="1" stop-color="#440000"/>
</linearGradient>
<linearGradient id="paint65_linear_4922_4137" x1="71.5171" y1="8.18877" x2="68.5511" y2="7.73937" gradientUnits="userSpaceOnUse">
<stop stop-color="#D16509"/>
<stop offset="1" stop-color="#8D2C1B"/>
</linearGradient>
<linearGradient id="paint66_linear_4922_4137" x1="60.4207" y1="24.4952" x2="63.7889" y2="5.90233" gradientUnits="userSpaceOnUse">
<stop stop-color="#D16509"/>
<stop offset="1" stop-color="#8D2C1B"/>
</linearGradient>
<linearGradient id="paint67_linear_4922_4137" x1="62.5334" y1="7.31515" x2="71.0144" y2="7.31515" gradientUnits="userSpaceOnUse">
<stop stop-color="#B75014"/>
<stop offset="0.3889" stop-color="#CA6B34"/>
<stop offset="1" stop-color="#FFA933"/>
</linearGradient>
<linearGradient id="paint68_linear_4922_4137" x1="64.8044" y1="2.83739" x2="68.6962" y2="2.83739" gradientUnits="userSpaceOnUse">
<stop stop-color="#EBBD38"/>
<stop offset="1" stop-color="#FFF29E"/>
</linearGradient>
<linearGradient id="paint69_linear_4922_4137" x1="67.4205" y1="1.52971" x2="70.136" y2="1.52971" gradientUnits="userSpaceOnUse">
<stop stop-color="white"/>
<stop offset="1" stop-color="#FFF7C4"/>
</linearGradient>
<linearGradient id="paint70_linear_4922_4137" x1="64.9198" y1="6.85636" x2="66.3264" y2="6.85636" gradientUnits="userSpaceOnUse">
<stop stop-color="white"/>
<stop offset="1" stop-color="#FFF7C4"/>
</linearGradient>
<linearGradient id="paint71_linear_4922_4137" x1="56.5422" y1="11.9193" x2="62.0728" y2="11.9193" gradientUnits="userSpaceOnUse">
<stop stop-color="#EBBD38"/>
<stop offset="1" stop-color="#FFF29E"/>
</linearGradient>
<linearGradient id="paint72_linear_4922_4137" x1="57.3472" y1="16.2141" x2="57.3472" y2="12.1936" gradientUnits="userSpaceOnUse">
<stop stop-color="#E39330"/>
<stop offset="1" stop-color="#FFCD61"/>
</linearGradient>
<linearGradient id="paint73_linear_4922_4137" x1="54.5661" y1="10.8596" x2="55.8324" y2="10.8596" gradientUnits="userSpaceOnUse">
<stop stop-color="white"/>
<stop offset="1" stop-color="#FFF7C4"/>
</linearGradient>
<linearGradient id="paint74_linear_4922_4137" x1="46.7875" y1="16.6637" x2="46.7875" y2="11.5281" gradientUnits="userSpaceOnUse">
<stop stop-color="#D33A22"/>
<stop offset="1" stop-color="white"/>
</linearGradient>
<linearGradient id="paint75_linear_4922_4137" x1="35.5524" y1="93.7867" x2="35.5524" y2="84.316" gradientUnits="userSpaceOnUse">
<stop stop-color="#CA6B34"/>
<stop offset="0.7401" stop-color="#FFBD2B"/>
<stop offset="1" stop-color="#FFA933"/>
</linearGradient>
<linearGradient id="paint76_linear_4922_4137" x1="29.9784" y1="88.2347" x2="39.9161" y2="93.8373" gradientUnits="userSpaceOnUse">
<stop stop-color="#D16509"/>
<stop offset="1" stop-color="#8D2C1B"/>
</linearGradient>
<linearGradient id="paint77_linear_4922_4137" x1="37.2729" y1="87.138" x2="34.5788" y2="91.9167" gradientUnits="userSpaceOnUse">
<stop stop-color="#D16509"/>
<stop offset="1" stop-color="#8D2C1B"/>
</linearGradient>
<linearGradient id="paint78_linear_4922_4137" x1="32.8591" y1="88.3647" x2="37.3857" y2="90.9167" gradientUnits="userSpaceOnUse">
<stop stop-color="#D16509"/>
<stop offset="1" stop-color="#8D2C1B"/>
</linearGradient>
<linearGradient id="paint79_linear_4922_4137" x1="36.7177" y1="90.9981" x2="41.5764" y2="90.9981" gradientUnits="userSpaceOnUse">
<stop stop-color="#F08D1D"/>
<stop offset="1" stop-color="#8D2C1B"/>
</linearGradient>
<linearGradient id="paint80_linear_4922_4137" x1="50.3717" y1="93.7867" x2="50.3717" y2="84.316" gradientUnits="userSpaceOnUse">
<stop stop-color="#CA6B34"/>
<stop offset="0.7401" stop-color="#FFBD2B"/>
<stop offset="1" stop-color="#FFA933"/>
</linearGradient>
<linearGradient id="paint81_linear_4922_4137" x1="55.9448" y1="88.2346" x2="46.0072" y2="93.8372" gradientUnits="userSpaceOnUse">
<stop stop-color="#D16509"/>
<stop offset="1" stop-color="#8D2C1B"/>
</linearGradient>
<linearGradient id="paint82_linear_4922_4137" x1="48.6498" y1="87.1381" x2="51.3439" y2="91.9168" gradientUnits="userSpaceOnUse">
<stop stop-color="#D16509"/>
<stop offset="1" stop-color="#8D2C1B"/>
</linearGradient>
<linearGradient id="paint83_linear_4922_4137" x1="53.0651" y1="88.3647" x2="48.5387" y2="90.9166" gradientUnits="userSpaceOnUse">
<stop stop-color="#D16509"/>
<stop offset="1" stop-color="#8D2C1B"/>
</linearGradient>
<linearGradient id="paint84_linear_4922_4137" x1="49.2045" y1="90.9981" x2="44.3457" y2="90.9981" gradientUnits="userSpaceOnUse">
<stop stop-color="#F08D1D"/>
<stop offset="1" stop-color="#8D2C1B"/>
</linearGradient>
<radialGradient id="paint85_radial_4922_4137" cx="0" cy="0" r="1" gradientUnits="userSpaceOnUse" gradientTransform="translate(43.4999 88.9306) scale(4.04637 4.04636)">
<stop stop-color="#FFA933"/>
<stop offset="0.2599" stop-color="#FFBD2B"/>
<stop offset="1" stop-color="#CA6B34"/>
</radialGradient>
<linearGradient id="paint86_linear_4922_4137" x1="42.7845" y1="93.773" x2="42.976" y2="89.3685" gradientUnits="userSpaceOnUse">
<stop stop-color="#D33A22"/>
<stop offset="1" stop-color="white"/>
</linearGradient>
<linearGradient id="paint87_linear_4922_4137" x1="42.3545" y1="88.1577" x2="45.0762" y2="88.1577" gradientUnits="userSpaceOnUse">
<stop stop-color="white"/>
<stop offset="1" stop-color="#FFF7C4"/>
</linearGradient>
<radialGradient id="paint88_radial_4922_4137" cx="0" cy="0" r="1" gradientUnits="userSpaceOnUse" gradientTransform="translate(44.4606 90.6703) scale(19.6265 3.08466)">
<stop offset="0.1429" stop-color="#F4A940"/>
<stop offset="0.1741" stop-color="#E09B3B"/>
<stop offset="0.2626" stop-color="#AC772D"/>
<stop offset="0.3548" stop-color="#7E5721"/>
<stop offset="0.4491" stop-color="#573C17"/>
<stop offset="0.546" stop-color="#37260F"/>
<stop offset="0.6463" stop-color="#1F1508"/>
<stop offset="0.7515" stop-color="#0E0904"/>
<stop offset="0.8646" stop-color="#030201"/>
<stop offset="1"/>
</radialGradient>
<radialGradient id="paint89_radial_4922_4137" cx="0" cy="0" r="1" gradientUnits="userSpaceOnUse" gradientTransform="translate(16.1746 6.92111) rotate(-7.37016) scale(6.84975 4.8465)">
<stop offset="0.1429" stop-color="#F4A940"/>
<stop offset="0.1741" stop-color="#E09B3B"/>
<stop offset="0.2626" stop-color="#AC772D"/>
<stop offset="0.3548" stop-color="#7E5721"/>
<stop offset="0.4491" stop-color="#573C17"/>
<stop offset="0.546" stop-color="#37260F"/>
<stop offset="0.6463" stop-color="#1F1508"/>
<stop offset="0.7515" stop-color="#0E0904"/>
<stop offset="0.8646" stop-color="#030201"/>
<stop offset="1"/>
</radialGradient>
<radialGradient id="paint90_radial_4922_4137" cx="0" cy="0" r="1" gradientUnits="userSpaceOnUse" gradientTransform="translate(82.6136 50.5646) scale(2.92791 12.3332)">
<stop stop-color="#F4A940"/>
<stop offset="0.0942675" stop-color="#E6A03C"/>
<stop offset="0.2711" stop-color="#C38733"/>
<stop offset="0.5115" stop-color="#895F24"/>
<stop offset="0.803" stop-color="#39280F"/>
<stop offset="1"/>
</radialGradient>
<radialGradient id="paint91_radial_4922_4137" cx="0" cy="0" r="1" gradientUnits="userSpaceOnUse" gradientTransform="translate(3.27525 50.964) scale(3.14873 12.2738)">
<stop stop-color="#F4A940"/>
<stop offset="0.0942675" stop-color="#E6A03C"/>
<stop offset="0.2711" stop-color="#C38733"/>
<stop offset="0.5115" stop-color="#895F24"/>
<stop offset="0.803" stop-color="#39280F"/>
<stop offset="1"/>
</radialGradient>
</defs>
</svg>
